M48
;DRILL file {KiCad 5.0.1-33cea8e~68~ubuntu18.04.1} date Tue 20 Nov 2018 11:31:58 PM EST
;FORMAT={2:4/ absolute / inch / suppress leading zeros}
FMAT,2
INCH,TZ
T1C0.0400
T2C0.1250
%
G90
G05
M72
T1
X60750Y-28500
X60750Y-29500
X60750Y-30500
X60750Y-31500
X60750Y-32500
X60750Y-33500
X60750Y-34500
X60750Y-35500
X60750Y-36500
X60750Y-37500
X60750Y-38500
X60750Y-39500
X60750Y-40500
X60750Y-41500
X60750Y-42500
X60750Y-43500
X60750Y-44500
X60750Y-45500
X60750Y-46500
X60750Y-47500
X60750Y-48500
X60750Y-49500
X60750Y-50500
X60750Y-51500
X60750Y-52500
X62750Y-28500
X62750Y-29500
X62750Y-30500
X62750Y-31500
X62750Y-32500
X62750Y-33500
X62750Y-34500
X62750Y-35500
X62750Y-36500
X62750Y-37500
X62750Y-38500
X62750Y-39500
X62750Y-40500
X62750Y-41500
X62750Y-42500
X62750Y-43500
X62750Y-44500
X62750Y-45500
X62750Y-46500
X62750Y-47500
X62750Y-48500
X62750Y-49500
X62750Y-50500
X62750Y-51500
X62750Y-52500
X61150Y-18200
X62150Y-18200
X53000Y-25000
X53000Y-26000
X53000Y-27000
X53000Y-28000
X53000Y-29000
X53000Y-30000
X53000Y-31000
X53000Y-32000
X53000Y-33000
X53000Y-34000
X53000Y-35000
X53000Y-36000
X53000Y-37000
X53000Y-38000
X53000Y-39000
X53000Y-40000
X53000Y-41000
X53000Y-42000
X53000Y-43000
X53000Y-44000
X53000Y-45000
X53000Y-46000
X53000Y-47000
X53000Y-48000
X53000Y-49000
X53000Y-50000
X53000Y-51000
X53000Y-52000
X53000Y-53000
X53000Y-54000
X53000Y-55000
X53000Y-56000
X55000Y-25000
X55000Y-26000
X55000Y-27000
X55000Y-28000
X55000Y-29000
X55000Y-30000
X55000Y-31000
X55000Y-32000
X55000Y-33000
X55000Y-34000
X55000Y-35000
X55000Y-36000
X55000Y-37000
X55000Y-38000
X55000Y-39000
X55000Y-40000
X55000Y-41000
X55000Y-42000
X55000Y-43000
X55000Y-44000
X55000Y-45000
X55000Y-46000
X55000Y-47000
X55000Y-48000
X55000Y-49000
X55000Y-50000
X55000Y-51000
X55000Y-52000
X55000Y-53000
X55000Y-54000
X55000Y-55000
X55000Y-56000
T2
X67750Y-63000
X67750Y-18000
X48000Y-18000
X48000Y-63000
T0
M30
