G04 #@! TF.GenerationSoftware,KiCad,Pcbnew,(6.0.5)*
G04 #@! TF.CreationDate,2022-11-07T18:45:20-05:00*
G04 #@! TF.ProjectId,power-pcb,706f7765-722d-4706-9362-2e6b69636164,0.1*
G04 #@! TF.SameCoordinates,Original*
G04 #@! TF.FileFunction,Soldermask,Top*
G04 #@! TF.FilePolarity,Negative*
%FSLAX45Y45*%
G04 Gerber Fmt 4.5, Leading zero omitted, Abs format (unit mm)*
G04 Created by KiCad (PCBNEW (6.0.5)) date 2022-11-07 18:45:20*
%MOMM*%
%LPD*%
G01*
G04 APERTURE LIST*
G04 Aperture macros list*
%AMRoundRect*
0 Rectangle with rounded corners*
0 $1 Rounding radius*
0 $2 $3 $4 $5 $6 $7 $8 $9 X,Y pos of 4 corners*
0 Add a 4 corners polygon primitive as box body*
4,1,4,$2,$3,$4,$5,$6,$7,$8,$9,$2,$3,0*
0 Add four circle primitives for the rounded corners*
1,1,$1+$1,$2,$3*
1,1,$1+$1,$4,$5*
1,1,$1+$1,$6,$7*
1,1,$1+$1,$8,$9*
0 Add four rect primitives between the rounded corners*
20,1,$1+$1,$2,$3,$4,$5,0*
20,1,$1+$1,$4,$5,$6,$7,0*
20,1,$1+$1,$6,$7,$8,$9,0*
20,1,$1+$1,$8,$9,$2,$3,0*%
G04 Aperture macros list end*
%ADD10C,1.727200*%
%ADD11C,3.203200*%
%ADD12RoundRect,0.101600X0.635000X-0.508000X0.635000X0.508000X-0.635000X0.508000X-0.635000X-0.508000X0*%
%ADD13C,3.912000*%
%ADD14RoundRect,0.100000X0.950000X0.950000X-0.950000X0.950000X-0.950000X-0.950000X0.950000X-0.950000X0*%
%ADD15RoundRect,0.100000X1.050000X0.800000X-1.050000X0.800000X-1.050000X-0.800000X1.050000X-0.800000X0*%
%ADD16RoundRect,0.100000X0.200000X0.675000X-0.200000X0.675000X-0.200000X-0.675000X0.200000X-0.675000X0*%
G04 APERTURE END LIST*
D10*
X15750000Y-4221500D03*
X16000000Y-4221500D03*
X15750000Y-4421500D03*
X16000000Y-4421500D03*
D11*
X16477000Y-3950500D03*
X15273000Y-3950500D03*
D12*
X14554200Y-4686300D03*
X14554200Y-4470400D03*
D10*
X15430500Y-7239000D03*
X15938500Y-7239000D03*
X15430500Y-7493000D03*
X15938500Y-7493000D03*
X15430500Y-7747000D03*
X15938500Y-7747000D03*
X15430500Y-8001000D03*
X15938500Y-8001000D03*
X15430500Y-8255000D03*
X15938500Y-8255000D03*
X15430500Y-8509000D03*
X15938500Y-8509000D03*
X15430500Y-8763000D03*
X15938500Y-8763000D03*
X15430500Y-9017000D03*
X15938500Y-9017000D03*
X15430500Y-9271000D03*
X15938500Y-9271000D03*
X15430500Y-9525000D03*
X15938500Y-9525000D03*
X15430500Y-9779000D03*
X15938500Y-9779000D03*
X15430500Y-10033000D03*
X15938500Y-10033000D03*
X15430500Y-10287000D03*
X15938500Y-10287000D03*
X15430500Y-10541000D03*
X15938500Y-10541000D03*
X15430500Y-10795000D03*
X15938500Y-10795000D03*
X15430500Y-11049000D03*
X15938500Y-11049000D03*
X15430500Y-11303000D03*
X15938500Y-11303000D03*
X15430500Y-11557000D03*
X15938500Y-11557000D03*
X15430500Y-11811000D03*
X15938500Y-11811000D03*
X15430500Y-12065000D03*
X15938500Y-12065000D03*
X15430500Y-12319000D03*
X15938500Y-12319000D03*
X15430500Y-12573000D03*
X15938500Y-12573000D03*
X15430500Y-12827000D03*
X15938500Y-12827000D03*
X15430500Y-13081000D03*
X15938500Y-13081000D03*
X15430500Y-13335000D03*
X15938500Y-13335000D03*
D13*
X12192000Y-16002000D03*
X17208500Y-16002000D03*
X12192000Y-3937000D03*
D12*
X14859000Y-4686300D03*
X14859000Y-4470400D03*
D10*
X14478000Y-4064000D03*
X14732000Y-4064000D03*
D13*
X17208500Y-3937000D03*
D10*
X13462000Y-14224000D03*
X13462000Y-13970000D03*
X13462000Y-13716000D03*
X13462000Y-13462000D03*
X13462000Y-13208000D03*
X13462000Y-12954000D03*
X13462000Y-12700000D03*
X13462000Y-12446000D03*
X13462000Y-12192000D03*
X13462000Y-11938000D03*
X13462000Y-11684000D03*
X13462000Y-11430000D03*
X13462000Y-11176000D03*
X13462000Y-10922000D03*
X13462000Y-10668000D03*
X13462000Y-10414000D03*
X13462000Y-10160000D03*
X13462000Y-9906000D03*
X13462000Y-9652000D03*
X13462000Y-9398000D03*
X13462000Y-9144000D03*
X13462000Y-8890000D03*
X13462000Y-8636000D03*
X13462000Y-8382000D03*
X13462000Y-8128000D03*
X13462000Y-7874000D03*
X13462000Y-7620000D03*
X13462000Y-7366000D03*
X13462000Y-7112000D03*
X13462000Y-6858000D03*
X13462000Y-6604000D03*
X13462000Y-6350000D03*
X13970000Y-14224000D03*
X13970000Y-13970000D03*
X13970000Y-13716000D03*
X13970000Y-13462000D03*
X13970000Y-13208000D03*
X13970000Y-12954000D03*
X13970000Y-12700000D03*
X13970000Y-12446000D03*
X13970000Y-12192000D03*
X13970000Y-11938000D03*
X13970000Y-11684000D03*
X13970000Y-11430000D03*
X13970000Y-11176000D03*
X13970000Y-10922000D03*
X13970000Y-10668000D03*
X13970000Y-10414000D03*
X13970000Y-10160000D03*
X13970000Y-9906000D03*
X13970000Y-9652000D03*
X13970000Y-9398000D03*
X13970000Y-9144000D03*
X13970000Y-8890000D03*
X13970000Y-8636000D03*
X13970000Y-8382000D03*
X13970000Y-8128000D03*
X13970000Y-7874000D03*
X13970000Y-7620000D03*
X13970000Y-7366000D03*
X13970000Y-7112000D03*
X13970000Y-6858000D03*
X13970000Y-6604000D03*
X13970000Y-6350000D03*
D14*
X13783500Y-3708650D03*
X13013500Y-3708650D03*
D15*
X13083500Y-3963650D03*
D14*
X13518500Y-3708650D03*
X13278500Y-3708650D03*
D15*
X13713500Y-3963650D03*
D16*
X13528500Y-3976150D03*
X13463500Y-3976150D03*
X13398500Y-3976150D03*
X13333500Y-3976150D03*
X13268500Y-3976150D03*
G36*
X13502311Y-3900937D02*
G01*
X13502368Y-3901129D01*
X13502284Y-3901248D01*
X13501573Y-3901723D01*
X13499450Y-3904901D01*
X13498700Y-3908670D01*
X13498700Y-4043630D01*
X13499450Y-4047399D01*
X13501573Y-4050577D01*
X13502242Y-4051024D01*
X13502330Y-4051203D01*
X13502219Y-4051369D01*
X13502071Y-4051381D01*
X13496221Y-4049549D01*
X13489883Y-4051410D01*
X13489689Y-4051363D01*
X13489632Y-4051171D01*
X13489716Y-4051052D01*
X13490427Y-4050577D01*
X13492550Y-4047399D01*
X13493300Y-4043630D01*
X13493300Y-3908670D01*
X13492550Y-3904901D01*
X13490427Y-3901723D01*
X13489758Y-3901276D01*
X13489669Y-3901097D01*
X13489781Y-3900930D01*
X13489929Y-3900919D01*
X13495779Y-3902751D01*
X13502117Y-3900890D01*
X13502311Y-3900937D01*
G37*
G36*
X13437311Y-3900937D02*
G01*
X13437368Y-3901129D01*
X13437284Y-3901248D01*
X13436573Y-3901723D01*
X13434450Y-3904901D01*
X13433700Y-3908670D01*
X13433700Y-4043630D01*
X13434450Y-4047399D01*
X13436573Y-4050577D01*
X13437242Y-4051024D01*
X13437330Y-4051203D01*
X13437219Y-4051369D01*
X13437071Y-4051381D01*
X13431221Y-4049549D01*
X13424883Y-4051410D01*
X13424689Y-4051363D01*
X13424632Y-4051171D01*
X13424716Y-4051052D01*
X13425427Y-4050577D01*
X13427550Y-4047399D01*
X13428300Y-4043630D01*
X13428300Y-3908670D01*
X13427550Y-3904901D01*
X13425427Y-3901723D01*
X13424758Y-3901276D01*
X13424669Y-3901097D01*
X13424781Y-3900930D01*
X13424929Y-3900919D01*
X13430779Y-3902751D01*
X13437117Y-3900890D01*
X13437311Y-3900937D01*
G37*
G36*
X13372311Y-3900937D02*
G01*
X13372368Y-3901129D01*
X13372284Y-3901248D01*
X13371573Y-3901723D01*
X13369450Y-3904901D01*
X13368700Y-3908670D01*
X13368700Y-4043630D01*
X13369450Y-4047399D01*
X13371573Y-4050577D01*
X13372242Y-4051024D01*
X13372330Y-4051203D01*
X13372219Y-4051369D01*
X13372071Y-4051381D01*
X13366221Y-4049549D01*
X13359883Y-4051410D01*
X13359689Y-4051363D01*
X13359632Y-4051171D01*
X13359716Y-4051052D01*
X13360427Y-4050577D01*
X13362550Y-4047399D01*
X13363300Y-4043630D01*
X13363300Y-3908670D01*
X13362550Y-3904901D01*
X13360427Y-3901723D01*
X13359758Y-3901276D01*
X13359669Y-3901097D01*
X13359781Y-3900930D01*
X13359929Y-3900919D01*
X13365779Y-3902751D01*
X13372117Y-3900890D01*
X13372311Y-3900937D01*
G37*
G36*
X13307311Y-3900937D02*
G01*
X13307368Y-3901129D01*
X13307284Y-3901248D01*
X13306573Y-3901723D01*
X13304450Y-3904901D01*
X13303700Y-3908670D01*
X13303700Y-4043630D01*
X13304450Y-4047399D01*
X13306573Y-4050577D01*
X13307242Y-4051024D01*
X13307330Y-4051203D01*
X13307219Y-4051369D01*
X13307071Y-4051381D01*
X13301221Y-4049549D01*
X13294883Y-4051410D01*
X13294689Y-4051363D01*
X13294632Y-4051171D01*
X13294716Y-4051052D01*
X13295427Y-4050577D01*
X13297550Y-4047399D01*
X13298300Y-4043630D01*
X13298300Y-3908670D01*
X13297550Y-3904901D01*
X13295427Y-3901723D01*
X13294758Y-3901276D01*
X13294669Y-3901097D01*
X13294781Y-3900930D01*
X13294929Y-3900919D01*
X13300779Y-3902751D01*
X13307117Y-3900890D01*
X13307311Y-3900937D01*
G37*
M02*
