G04 #@! TF.GenerationSoftware,KiCad,Pcbnew,5.0.1-33cea8e~68~ubuntu18.04.1*
G04 #@! TF.CreationDate,2018-11-20T23:31:39-05:00*
G04 #@! TF.ProjectId,power-pcb,706F7765722D7063622E6B696361645F,0.1*
G04 #@! TF.SameCoordinates,Original*
G04 #@! TF.FileFunction,Legend,Top*
G04 #@! TF.FilePolarity,Positive*
%FSLAX45Y45*%
G04 Gerber Fmt 4.5, Leading zero omitted, Abs format (unit mm)*
G04 Created by KiCad (PCBNEW 5.0.1-33cea8e~68~ubuntu18.04.1) date Tue 20 Nov 2018 11:31:39 PM EST*
%MOMM*%
%LPD*%
G01*
G04 APERTURE LIST*
%ADD10C,0.508000*%
%ADD11C,0.203200*%
%ADD12C,0.300000*%
%ADD13C,0.254000*%
%ADD14C,0.010000*%
G04 APERTURE END LIST*
D10*
X15371233Y-16003209D02*
X15407519Y-16015305D01*
X15467995Y-16015305D01*
X15492186Y-16003209D01*
X15504281Y-15991114D01*
X15516376Y-15966924D01*
X15516376Y-15942733D01*
X15504281Y-15918543D01*
X15492186Y-15906448D01*
X15467995Y-15894352D01*
X15419614Y-15882257D01*
X15395424Y-15870162D01*
X15383328Y-15858067D01*
X15371233Y-15833876D01*
X15371233Y-15809686D01*
X15383328Y-15785495D01*
X15395424Y-15773400D01*
X15419614Y-15761305D01*
X15480090Y-15761305D01*
X15516376Y-15773400D01*
X15625233Y-16015305D02*
X15625233Y-15761305D01*
X15709900Y-15942733D01*
X15794567Y-15761305D01*
X15794567Y-16015305D01*
X15903424Y-16003209D02*
X15939709Y-16015305D01*
X16000186Y-16015305D01*
X16024376Y-16003209D01*
X16036471Y-15991114D01*
X16048567Y-15966924D01*
X16048567Y-15942733D01*
X16036471Y-15918543D01*
X16024376Y-15906448D01*
X16000186Y-15894352D01*
X15951805Y-15882257D01*
X15927614Y-15870162D01*
X15915519Y-15858067D01*
X15903424Y-15833876D01*
X15903424Y-15809686D01*
X15915519Y-15785495D01*
X15927614Y-15773400D01*
X15951805Y-15761305D01*
X16012281Y-15761305D01*
X16048567Y-15773400D01*
X13171109Y-15760700D02*
X13146919Y-15748605D01*
X13110633Y-15748605D01*
X13074348Y-15760700D01*
X13050157Y-15784890D01*
X13038062Y-15809081D01*
X13025967Y-15857462D01*
X13025967Y-15893748D01*
X13038062Y-15942128D01*
X13050157Y-15966319D01*
X13074348Y-15990509D01*
X13110633Y-16002605D01*
X13134824Y-16002605D01*
X13171109Y-15990509D01*
X13183205Y-15978414D01*
X13183205Y-15893748D01*
X13134824Y-15893748D01*
X13388824Y-15990509D02*
X13364633Y-16002605D01*
X13316252Y-16002605D01*
X13292062Y-15990509D01*
X13279967Y-15966319D01*
X13279967Y-15869557D01*
X13292062Y-15845367D01*
X13316252Y-15833271D01*
X13364633Y-15833271D01*
X13388824Y-15845367D01*
X13400919Y-15869557D01*
X13400919Y-15893748D01*
X13279967Y-15917938D01*
X13509776Y-15833271D02*
X13509776Y-16002605D01*
X13509776Y-15857462D02*
X13521871Y-15845367D01*
X13546062Y-15833271D01*
X13582348Y-15833271D01*
X13606538Y-15845367D01*
X13618633Y-15869557D01*
X13618633Y-16002605D01*
X13836348Y-15990509D02*
X13812157Y-16002605D01*
X13763776Y-16002605D01*
X13739586Y-15990509D01*
X13727490Y-15966319D01*
X13727490Y-15869557D01*
X13739586Y-15845367D01*
X13763776Y-15833271D01*
X13812157Y-15833271D01*
X13836348Y-15845367D01*
X13848443Y-15869557D01*
X13848443Y-15893748D01*
X13727490Y-15917938D01*
X13945205Y-15990509D02*
X13969395Y-16002605D01*
X14017776Y-16002605D01*
X14041967Y-15990509D01*
X14054062Y-15966319D01*
X14054062Y-15954224D01*
X14041967Y-15930033D01*
X14017776Y-15917938D01*
X13981490Y-15917938D01*
X13957300Y-15905843D01*
X13945205Y-15881652D01*
X13945205Y-15869557D01*
X13957300Y-15845367D01*
X13981490Y-15833271D01*
X14017776Y-15833271D01*
X14041967Y-15845367D01*
X14162919Y-16002605D02*
X14162919Y-15833271D01*
X14162919Y-15748605D02*
X14150824Y-15760700D01*
X14162919Y-15772795D01*
X14175014Y-15760700D01*
X14162919Y-15748605D01*
X14162919Y-15772795D01*
X14271776Y-15990509D02*
X14295967Y-16002605D01*
X14344348Y-16002605D01*
X14368538Y-15990509D01*
X14380633Y-15966319D01*
X14380633Y-15954224D01*
X14368538Y-15930033D01*
X14344348Y-15917938D01*
X14308062Y-15917938D01*
X14283871Y-15905843D01*
X14271776Y-15881652D01*
X14271776Y-15869557D01*
X14283871Y-15845367D01*
X14308062Y-15833271D01*
X14344348Y-15833271D01*
X14368538Y-15845367D01*
D11*
X12211050Y-13523383D02*
X12215283Y-13527617D01*
X12219517Y-13540317D01*
X12219517Y-13548783D01*
X12215283Y-13561483D01*
X12206817Y-13569950D01*
X12198350Y-13574183D01*
X12181417Y-13578417D01*
X12168717Y-13578417D01*
X12151783Y-13574183D01*
X12143317Y-13569950D01*
X12134850Y-13561483D01*
X12130617Y-13548783D01*
X12130617Y-13540317D01*
X12134850Y-13527617D01*
X12139083Y-13523383D01*
X12219517Y-13472583D02*
X12215283Y-13481050D01*
X12211050Y-13485283D01*
X12202583Y-13489517D01*
X12177183Y-13489517D01*
X12168717Y-13485283D01*
X12164483Y-13481050D01*
X12160250Y-13472583D01*
X12160250Y-13459883D01*
X12164483Y-13451417D01*
X12168717Y-13447183D01*
X12177183Y-13442950D01*
X12202583Y-13442950D01*
X12211050Y-13447183D01*
X12215283Y-13451417D01*
X12219517Y-13459883D01*
X12219517Y-13472583D01*
X12160250Y-13404850D02*
X12249150Y-13404850D01*
X12164483Y-13404850D02*
X12160250Y-13396383D01*
X12160250Y-13379450D01*
X12164483Y-13370983D01*
X12168717Y-13366750D01*
X12177183Y-13362517D01*
X12202583Y-13362517D01*
X12211050Y-13366750D01*
X12215283Y-13370983D01*
X12219517Y-13379450D01*
X12219517Y-13396383D01*
X12215283Y-13404850D01*
X12160250Y-13332883D02*
X12219517Y-13311717D01*
X12160250Y-13290550D02*
X12219517Y-13311717D01*
X12240683Y-13320183D01*
X12244917Y-13324417D01*
X12249150Y-13332883D01*
X12219517Y-13256683D02*
X12160250Y-13256683D01*
X12177183Y-13256683D02*
X12168717Y-13252450D01*
X12164483Y-13248217D01*
X12160250Y-13239750D01*
X12160250Y-13231283D01*
X12219517Y-13201650D02*
X12160250Y-13201650D01*
X12130617Y-13201650D02*
X12134850Y-13205883D01*
X12139083Y-13201650D01*
X12134850Y-13197417D01*
X12130617Y-13201650D01*
X12139083Y-13201650D01*
X12160250Y-13121217D02*
X12232217Y-13121217D01*
X12240683Y-13125450D01*
X12244917Y-13129683D01*
X12249150Y-13138150D01*
X12249150Y-13150850D01*
X12244917Y-13159317D01*
X12215283Y-13121217D02*
X12219517Y-13129683D01*
X12219517Y-13146617D01*
X12215283Y-13155083D01*
X12211050Y-13159317D01*
X12202583Y-13163550D01*
X12177183Y-13163550D01*
X12168717Y-13159317D01*
X12164483Y-13155083D01*
X12160250Y-13146617D01*
X12160250Y-13129683D01*
X12164483Y-13121217D01*
X12219517Y-13078883D02*
X12130617Y-13078883D01*
X12219517Y-13040783D02*
X12172950Y-13040783D01*
X12164483Y-13045017D01*
X12160250Y-13053483D01*
X12160250Y-13066183D01*
X12164483Y-13074650D01*
X12168717Y-13078883D01*
X12160250Y-13011150D02*
X12160250Y-12977283D01*
X12130617Y-12998450D02*
X12206817Y-12998450D01*
X12215283Y-12994217D01*
X12219517Y-12985750D01*
X12219517Y-12977283D01*
X12219517Y-12829117D02*
X12177183Y-12858750D01*
X12219517Y-12879917D02*
X12130617Y-12879917D01*
X12130617Y-12846050D01*
X12134850Y-12837583D01*
X12139083Y-12833350D01*
X12147550Y-12829117D01*
X12160250Y-12829117D01*
X12168717Y-12833350D01*
X12172950Y-12837583D01*
X12177183Y-12846050D01*
X12177183Y-12879917D01*
X12215283Y-12757150D02*
X12219517Y-12765617D01*
X12219517Y-12782550D01*
X12215283Y-12791017D01*
X12206817Y-12795250D01*
X12172950Y-12795250D01*
X12164483Y-12791017D01*
X12160250Y-12782550D01*
X12160250Y-12765617D01*
X12164483Y-12757150D01*
X12172950Y-12752917D01*
X12181417Y-12752917D01*
X12189883Y-12795250D01*
X12160250Y-12714817D02*
X12219517Y-12714817D01*
X12168717Y-12714817D02*
X12164483Y-12710583D01*
X12160250Y-12702117D01*
X12160250Y-12689417D01*
X12164483Y-12680950D01*
X12172950Y-12676717D01*
X12219517Y-12676717D01*
X12215283Y-12600517D02*
X12219517Y-12608983D01*
X12219517Y-12625917D01*
X12215283Y-12634383D01*
X12206817Y-12638617D01*
X12172950Y-12638617D01*
X12164483Y-12634383D01*
X12160250Y-12625917D01*
X12160250Y-12608983D01*
X12164483Y-12600517D01*
X12172950Y-12596283D01*
X12181417Y-12596283D01*
X12189883Y-12638617D01*
X12126383Y-12608983D02*
X12139083Y-12621683D01*
X12219517Y-12439650D02*
X12177183Y-12469283D01*
X12219517Y-12490450D02*
X12130617Y-12490450D01*
X12130617Y-12456583D01*
X12134850Y-12448117D01*
X12139083Y-12443883D01*
X12147550Y-12439650D01*
X12160250Y-12439650D01*
X12168717Y-12443883D01*
X12172950Y-12448117D01*
X12177183Y-12456583D01*
X12177183Y-12490450D01*
X12219517Y-12401550D02*
X12160250Y-12401550D01*
X12130617Y-12401550D02*
X12134850Y-12405783D01*
X12139083Y-12401550D01*
X12134850Y-12397317D01*
X12130617Y-12401550D01*
X12139083Y-12401550D01*
X12215283Y-12321117D02*
X12219517Y-12329583D01*
X12219517Y-12346517D01*
X12215283Y-12354983D01*
X12211050Y-12359217D01*
X12202583Y-12363450D01*
X12177183Y-12363450D01*
X12168717Y-12359217D01*
X12164483Y-12354983D01*
X12160250Y-12346517D01*
X12160250Y-12329583D01*
X12164483Y-12321117D01*
X12219517Y-12283017D02*
X12130617Y-12283017D01*
X12219517Y-12244917D02*
X12172950Y-12244917D01*
X12164483Y-12249150D01*
X12160250Y-12257617D01*
X12160250Y-12270317D01*
X12164483Y-12278783D01*
X12168717Y-12283017D01*
X12219517Y-12164483D02*
X12172950Y-12164483D01*
X12164483Y-12168717D01*
X12160250Y-12177183D01*
X12160250Y-12194117D01*
X12164483Y-12202583D01*
X12215283Y-12164483D02*
X12219517Y-12172950D01*
X12219517Y-12194117D01*
X12215283Y-12202583D01*
X12206817Y-12206817D01*
X12198350Y-12206817D01*
X12189883Y-12202583D01*
X12185650Y-12194117D01*
X12185650Y-12172950D01*
X12181417Y-12164483D01*
X12219517Y-12122150D02*
X12160250Y-12122150D01*
X12177183Y-12122150D02*
X12168717Y-12117917D01*
X12164483Y-12113683D01*
X12160250Y-12105217D01*
X12160250Y-12096750D01*
X12219517Y-12029017D02*
X12130617Y-12029017D01*
X12215283Y-12029017D02*
X12219517Y-12037483D01*
X12219517Y-12054417D01*
X12215283Y-12062883D01*
X12211050Y-12067117D01*
X12202583Y-12071350D01*
X12177183Y-12071350D01*
X12168717Y-12067117D01*
X12164483Y-12062883D01*
X12160250Y-12054417D01*
X12160250Y-12037483D01*
X12164483Y-12029017D01*
X12139083Y-11923183D02*
X12134850Y-11918950D01*
X12130617Y-11910483D01*
X12130617Y-11889317D01*
X12134850Y-11880850D01*
X12139083Y-11876617D01*
X12147550Y-11872383D01*
X12156017Y-11872383D01*
X12168717Y-11876617D01*
X12219517Y-11927417D01*
X12219517Y-11872383D01*
X12130617Y-11817350D02*
X12130617Y-11808883D01*
X12134850Y-11800417D01*
X12139083Y-11796183D01*
X12147550Y-11791950D01*
X12164483Y-11787717D01*
X12185650Y-11787717D01*
X12202583Y-11791950D01*
X12211050Y-11796183D01*
X12215283Y-11800417D01*
X12219517Y-11808883D01*
X12219517Y-11817350D01*
X12215283Y-11825817D01*
X12211050Y-11830050D01*
X12202583Y-11834283D01*
X12185650Y-11838517D01*
X12164483Y-11838517D01*
X12147550Y-11834283D01*
X12139083Y-11830050D01*
X12134850Y-11825817D01*
X12130617Y-11817350D01*
X12219517Y-11703050D02*
X12219517Y-11753850D01*
X12219517Y-11728450D02*
X12130617Y-11728450D01*
X12143317Y-11736917D01*
X12151783Y-11745383D01*
X12156017Y-11753850D01*
X12168717Y-11652250D02*
X12164483Y-11660717D01*
X12160250Y-11664950D01*
X12151783Y-11669183D01*
X12147550Y-11669183D01*
X12139083Y-11664950D01*
X12134850Y-11660717D01*
X12130617Y-11652250D01*
X12130617Y-11635317D01*
X12134850Y-11626850D01*
X12139083Y-11622617D01*
X12147550Y-11618383D01*
X12151783Y-11618383D01*
X12160250Y-11622617D01*
X12164483Y-11626850D01*
X12168717Y-11635317D01*
X12168717Y-11652250D01*
X12172950Y-11660717D01*
X12177183Y-11664950D01*
X12185650Y-11669183D01*
X12202583Y-11669183D01*
X12211050Y-11664950D01*
X12215283Y-11660717D01*
X12219517Y-11652250D01*
X12219517Y-11635317D01*
X12215283Y-11626850D01*
X12211050Y-11622617D01*
X12202583Y-11618383D01*
X12185650Y-11618383D01*
X12177183Y-11622617D01*
X12172950Y-11626850D01*
X12168717Y-11635317D01*
X12397317Y-13578417D02*
X12308417Y-13578417D01*
X12397317Y-13540317D02*
X12350750Y-13540317D01*
X12342283Y-13544550D01*
X12338050Y-13553017D01*
X12338050Y-13565717D01*
X12342283Y-13574183D01*
X12346517Y-13578417D01*
X12338050Y-13510683D02*
X12338050Y-13476817D01*
X12308417Y-13497983D02*
X12384617Y-13497983D01*
X12393083Y-13493750D01*
X12397317Y-13485283D01*
X12397317Y-13476817D01*
X12338050Y-13459883D02*
X12338050Y-13426017D01*
X12308417Y-13447183D02*
X12384617Y-13447183D01*
X12393083Y-13442950D01*
X12397317Y-13434483D01*
X12397317Y-13426017D01*
X12338050Y-13396383D02*
X12426950Y-13396383D01*
X12342283Y-13396383D02*
X12338050Y-13387917D01*
X12338050Y-13370983D01*
X12342283Y-13362517D01*
X12346517Y-13358283D01*
X12354983Y-13354050D01*
X12380383Y-13354050D01*
X12388850Y-13358283D01*
X12393083Y-13362517D01*
X12397317Y-13370983D01*
X12397317Y-13387917D01*
X12393083Y-13396383D01*
X12393083Y-13320183D02*
X12397317Y-13311717D01*
X12397317Y-13294783D01*
X12393083Y-13286317D01*
X12384617Y-13282083D01*
X12380383Y-13282083D01*
X12371917Y-13286317D01*
X12367683Y-13294783D01*
X12367683Y-13307483D01*
X12363450Y-13315950D01*
X12354983Y-13320183D01*
X12350750Y-13320183D01*
X12342283Y-13315950D01*
X12338050Y-13307483D01*
X12338050Y-13294783D01*
X12342283Y-13286317D01*
X12388850Y-13243983D02*
X12393083Y-13239750D01*
X12397317Y-13243983D01*
X12393083Y-13248217D01*
X12388850Y-13243983D01*
X12397317Y-13243983D01*
X12342283Y-13243983D02*
X12346517Y-13239750D01*
X12350750Y-13243983D01*
X12346517Y-13248217D01*
X12342283Y-13243983D01*
X12350750Y-13243983D01*
X12304183Y-13138150D02*
X12418483Y-13214350D01*
X12304183Y-13045017D02*
X12418483Y-13121217D01*
X12338050Y-12977283D02*
X12410017Y-12977283D01*
X12418483Y-12981517D01*
X12422717Y-12985750D01*
X12426950Y-12994217D01*
X12426950Y-13006917D01*
X12422717Y-13015383D01*
X12393083Y-12977283D02*
X12397317Y-12985750D01*
X12397317Y-13002683D01*
X12393083Y-13011150D01*
X12388850Y-13015383D01*
X12380383Y-13019617D01*
X12354983Y-13019617D01*
X12346517Y-13015383D01*
X12342283Y-13011150D01*
X12338050Y-13002683D01*
X12338050Y-12985750D01*
X12342283Y-12977283D01*
X12397317Y-12934950D02*
X12338050Y-12934950D01*
X12308417Y-12934950D02*
X12312650Y-12939183D01*
X12316883Y-12934950D01*
X12312650Y-12930717D01*
X12308417Y-12934950D01*
X12316883Y-12934950D01*
X12338050Y-12905317D02*
X12338050Y-12871450D01*
X12308417Y-12892617D02*
X12384617Y-12892617D01*
X12393083Y-12888383D01*
X12397317Y-12879917D01*
X12397317Y-12871450D01*
X12397317Y-12841817D02*
X12308417Y-12841817D01*
X12397317Y-12803717D02*
X12350750Y-12803717D01*
X12342283Y-12807950D01*
X12338050Y-12816417D01*
X12338050Y-12829117D01*
X12342283Y-12837583D01*
X12346517Y-12841817D01*
X12338050Y-12723283D02*
X12397317Y-12723283D01*
X12338050Y-12761383D02*
X12384617Y-12761383D01*
X12393083Y-12757150D01*
X12397317Y-12748683D01*
X12397317Y-12735983D01*
X12393083Y-12727517D01*
X12388850Y-12723283D01*
X12397317Y-12680950D02*
X12308417Y-12680950D01*
X12342283Y-12680950D02*
X12338050Y-12672483D01*
X12338050Y-12655550D01*
X12342283Y-12647083D01*
X12346517Y-12642850D01*
X12354983Y-12638617D01*
X12380383Y-12638617D01*
X12388850Y-12642850D01*
X12393083Y-12647083D01*
X12397317Y-12655550D01*
X12397317Y-12672483D01*
X12393083Y-12680950D01*
X12388850Y-12600517D02*
X12393083Y-12596283D01*
X12397317Y-12600517D01*
X12393083Y-12604750D01*
X12388850Y-12600517D01*
X12397317Y-12600517D01*
X12393083Y-12520083D02*
X12397317Y-12528550D01*
X12397317Y-12545483D01*
X12393083Y-12553950D01*
X12388850Y-12558183D01*
X12380383Y-12562417D01*
X12354983Y-12562417D01*
X12346517Y-12558183D01*
X12342283Y-12553950D01*
X12338050Y-12545483D01*
X12338050Y-12528550D01*
X12342283Y-12520083D01*
X12397317Y-12469283D02*
X12393083Y-12477750D01*
X12388850Y-12481983D01*
X12380383Y-12486217D01*
X12354983Y-12486217D01*
X12346517Y-12481983D01*
X12342283Y-12477750D01*
X12338050Y-12469283D01*
X12338050Y-12456583D01*
X12342283Y-12448117D01*
X12346517Y-12443883D01*
X12354983Y-12439650D01*
X12380383Y-12439650D01*
X12388850Y-12443883D01*
X12393083Y-12448117D01*
X12397317Y-12456583D01*
X12397317Y-12469283D01*
X12397317Y-12401550D02*
X12338050Y-12401550D01*
X12346517Y-12401550D02*
X12342283Y-12397317D01*
X12338050Y-12388850D01*
X12338050Y-12376150D01*
X12342283Y-12367683D01*
X12350750Y-12363450D01*
X12397317Y-12363450D01*
X12350750Y-12363450D02*
X12342283Y-12359217D01*
X12338050Y-12350750D01*
X12338050Y-12338050D01*
X12342283Y-12329583D01*
X12350750Y-12325350D01*
X12397317Y-12325350D01*
X12304183Y-12219517D02*
X12418483Y-12295717D01*
X12397317Y-12151783D02*
X12308417Y-12151783D01*
X12393083Y-12151783D02*
X12397317Y-12160250D01*
X12397317Y-12177183D01*
X12393083Y-12185650D01*
X12388850Y-12189883D01*
X12380383Y-12194117D01*
X12354983Y-12194117D01*
X12346517Y-12189883D01*
X12342283Y-12185650D01*
X12338050Y-12177183D01*
X12338050Y-12160250D01*
X12342283Y-12151783D01*
X12397317Y-12109450D02*
X12308417Y-12109450D01*
X12342283Y-12109450D02*
X12338050Y-12100983D01*
X12338050Y-12084050D01*
X12342283Y-12075583D01*
X12346517Y-12071350D01*
X12354983Y-12067117D01*
X12380383Y-12067117D01*
X12388850Y-12071350D01*
X12393083Y-12075583D01*
X12397317Y-12084050D01*
X12397317Y-12100983D01*
X12393083Y-12109450D01*
X12363450Y-12029017D02*
X12363450Y-11961283D01*
X12393083Y-11885083D02*
X12397317Y-11893550D01*
X12397317Y-11910483D01*
X12393083Y-11918950D01*
X12384617Y-11923183D01*
X12350750Y-11923183D01*
X12342283Y-11918950D01*
X12338050Y-11910483D01*
X12338050Y-11893550D01*
X12342283Y-11885083D01*
X12350750Y-11880850D01*
X12359217Y-11880850D01*
X12367683Y-11923183D01*
X12397317Y-11830050D02*
X12393083Y-11838517D01*
X12384617Y-11842750D01*
X12308417Y-11842750D01*
X12393083Y-11762317D02*
X12397317Y-11770783D01*
X12397317Y-11787717D01*
X12393083Y-11796183D01*
X12384617Y-11800417D01*
X12350750Y-11800417D01*
X12342283Y-11796183D01*
X12338050Y-11787717D01*
X12338050Y-11770783D01*
X12342283Y-11762317D01*
X12350750Y-11758083D01*
X12359217Y-11758083D01*
X12367683Y-11800417D01*
X12393083Y-11681883D02*
X12397317Y-11690350D01*
X12397317Y-11707283D01*
X12393083Y-11715750D01*
X12388850Y-11719983D01*
X12380383Y-11724217D01*
X12354983Y-11724217D01*
X12346517Y-11719983D01*
X12342283Y-11715750D01*
X12338050Y-11707283D01*
X12338050Y-11690350D01*
X12342283Y-11681883D01*
X12338050Y-11656483D02*
X12338050Y-11622617D01*
X12308417Y-11643783D02*
X12384617Y-11643783D01*
X12393083Y-11639550D01*
X12397317Y-11631083D01*
X12397317Y-11622617D01*
X12397317Y-11592983D02*
X12338050Y-11592983D01*
X12354983Y-11592983D02*
X12346517Y-11588750D01*
X12342283Y-11584517D01*
X12338050Y-11576050D01*
X12338050Y-11567583D01*
X12397317Y-11525250D02*
X12393083Y-11533717D01*
X12388850Y-11537950D01*
X12380383Y-11542183D01*
X12354983Y-11542183D01*
X12346517Y-11537950D01*
X12342283Y-11533717D01*
X12338050Y-11525250D01*
X12338050Y-11512550D01*
X12342283Y-11504083D01*
X12346517Y-11499850D01*
X12354983Y-11495617D01*
X12380383Y-11495617D01*
X12388850Y-11499850D01*
X12393083Y-11504083D01*
X12397317Y-11512550D01*
X12397317Y-11525250D01*
X12338050Y-11457517D02*
X12397317Y-11457517D01*
X12346517Y-11457517D02*
X12342283Y-11453283D01*
X12338050Y-11444817D01*
X12338050Y-11432117D01*
X12342283Y-11423650D01*
X12350750Y-11419417D01*
X12397317Y-11419417D01*
X12397317Y-11377083D02*
X12338050Y-11377083D01*
X12308417Y-11377083D02*
X12312650Y-11381317D01*
X12316883Y-11377083D01*
X12312650Y-11372850D01*
X12308417Y-11377083D01*
X12316883Y-11377083D01*
X12393083Y-11296650D02*
X12397317Y-11305117D01*
X12397317Y-11322050D01*
X12393083Y-11330517D01*
X12388850Y-11334750D01*
X12380383Y-11338983D01*
X12354983Y-11338983D01*
X12346517Y-11334750D01*
X12342283Y-11330517D01*
X12338050Y-11322050D01*
X12338050Y-11305117D01*
X12342283Y-11296650D01*
X12393083Y-11262783D02*
X12397317Y-11254317D01*
X12397317Y-11237383D01*
X12393083Y-11228917D01*
X12384617Y-11224683D01*
X12380383Y-11224683D01*
X12371917Y-11228917D01*
X12367683Y-11237383D01*
X12367683Y-11250083D01*
X12363450Y-11258550D01*
X12354983Y-11262783D01*
X12350750Y-11262783D01*
X12342283Y-11258550D01*
X12338050Y-11250083D01*
X12338050Y-11237383D01*
X12342283Y-11228917D01*
X12304183Y-11123083D02*
X12418483Y-11199283D01*
X12338050Y-11055350D02*
X12410017Y-11055350D01*
X12418483Y-11059583D01*
X12422717Y-11063817D01*
X12426950Y-11072283D01*
X12426950Y-11084983D01*
X12422717Y-11093450D01*
X12393083Y-11055350D02*
X12397317Y-11063817D01*
X12397317Y-11080750D01*
X12393083Y-11089217D01*
X12388850Y-11093450D01*
X12380383Y-11097683D01*
X12354983Y-11097683D01*
X12346517Y-11093450D01*
X12342283Y-11089217D01*
X12338050Y-11080750D01*
X12338050Y-11063817D01*
X12342283Y-11055350D01*
X12393083Y-10979150D02*
X12397317Y-10987617D01*
X12397317Y-11004550D01*
X12393083Y-11013017D01*
X12384617Y-11017250D01*
X12350750Y-11017250D01*
X12342283Y-11013017D01*
X12338050Y-11004550D01*
X12338050Y-10987617D01*
X12342283Y-10979150D01*
X12350750Y-10974917D01*
X12359217Y-10974917D01*
X12367683Y-11017250D01*
X12338050Y-10936817D02*
X12397317Y-10936817D01*
X12346517Y-10936817D02*
X12342283Y-10932583D01*
X12338050Y-10924117D01*
X12338050Y-10911417D01*
X12342283Y-10902950D01*
X12350750Y-10898717D01*
X12397317Y-10898717D01*
X12363450Y-10856383D02*
X12363450Y-10788650D01*
X12393083Y-10750550D02*
X12397317Y-10742083D01*
X12397317Y-10725150D01*
X12393083Y-10716683D01*
X12384617Y-10712450D01*
X12380383Y-10712450D01*
X12371917Y-10716683D01*
X12367683Y-10725150D01*
X12367683Y-10737850D01*
X12363450Y-10746317D01*
X12354983Y-10750550D01*
X12350750Y-10750550D01*
X12342283Y-10746317D01*
X12338050Y-10737850D01*
X12338050Y-10725150D01*
X12342283Y-10716683D01*
X12397317Y-10674350D02*
X12338050Y-10674350D01*
X12346517Y-10674350D02*
X12342283Y-10670117D01*
X12338050Y-10661650D01*
X12338050Y-10648950D01*
X12342283Y-10640483D01*
X12350750Y-10636250D01*
X12397317Y-10636250D01*
X12350750Y-10636250D02*
X12342283Y-10632017D01*
X12338050Y-10623550D01*
X12338050Y-10610850D01*
X12342283Y-10602383D01*
X12350750Y-10598150D01*
X12397317Y-10598150D01*
X12393083Y-10560050D02*
X12397317Y-10551583D01*
X12397317Y-10534650D01*
X12393083Y-10526183D01*
X12384617Y-10521950D01*
X12380383Y-10521950D01*
X12371917Y-10526183D01*
X12367683Y-10534650D01*
X12367683Y-10547350D01*
X12363450Y-10555817D01*
X12354983Y-10560050D01*
X12350750Y-10560050D01*
X12342283Y-10555817D01*
X12338050Y-10547350D01*
X12338050Y-10534650D01*
X12342283Y-10526183D01*
X12363450Y-10483850D02*
X12363450Y-10416117D01*
X12338050Y-10373783D02*
X12426950Y-10373783D01*
X12342283Y-10373783D02*
X12338050Y-10365317D01*
X12338050Y-10348383D01*
X12342283Y-10339917D01*
X12346517Y-10335683D01*
X12354983Y-10331450D01*
X12380383Y-10331450D01*
X12388850Y-10335683D01*
X12393083Y-10339917D01*
X12397317Y-10348383D01*
X12397317Y-10365317D01*
X12393083Y-10373783D01*
X12397317Y-10280650D02*
X12393083Y-10289117D01*
X12388850Y-10293350D01*
X12380383Y-10297583D01*
X12354983Y-10297583D01*
X12346517Y-10293350D01*
X12342283Y-10289117D01*
X12338050Y-10280650D01*
X12338050Y-10267950D01*
X12342283Y-10259483D01*
X12346517Y-10255250D01*
X12354983Y-10251017D01*
X12380383Y-10251017D01*
X12388850Y-10255250D01*
X12393083Y-10259483D01*
X12397317Y-10267950D01*
X12397317Y-10280650D01*
X12338050Y-10221383D02*
X12397317Y-10204450D01*
X12354983Y-10187517D01*
X12397317Y-10170583D01*
X12338050Y-10153650D01*
X12393083Y-10085917D02*
X12397317Y-10094383D01*
X12397317Y-10111317D01*
X12393083Y-10119783D01*
X12384617Y-10124017D01*
X12350750Y-10124017D01*
X12342283Y-10119783D01*
X12338050Y-10111317D01*
X12338050Y-10094383D01*
X12342283Y-10085917D01*
X12350750Y-10081683D01*
X12359217Y-10081683D01*
X12367683Y-10124017D01*
X12397317Y-10043583D02*
X12338050Y-10043583D01*
X12354983Y-10043583D02*
X12346517Y-10039350D01*
X12342283Y-10035117D01*
X12338050Y-10026650D01*
X12338050Y-10018183D01*
X12338050Y-9988550D02*
X12426950Y-9988550D01*
X12342283Y-9988550D02*
X12338050Y-9980083D01*
X12338050Y-9963150D01*
X12342283Y-9954683D01*
X12346517Y-9950450D01*
X12354983Y-9946217D01*
X12380383Y-9946217D01*
X12388850Y-9950450D01*
X12393083Y-9954683D01*
X12397317Y-9963150D01*
X12397317Y-9980083D01*
X12393083Y-9988550D01*
X12393083Y-9870017D02*
X12397317Y-9878483D01*
X12397317Y-9895417D01*
X12393083Y-9903883D01*
X12388850Y-9908117D01*
X12380383Y-9912350D01*
X12354983Y-9912350D01*
X12346517Y-9908117D01*
X12342283Y-9903883D01*
X12338050Y-9895417D01*
X12338050Y-9878483D01*
X12342283Y-9870017D01*
X12397317Y-9831917D02*
X12308417Y-9831917D01*
X12342283Y-9831917D02*
X12338050Y-9823450D01*
X12338050Y-9806517D01*
X12342283Y-9798050D01*
X12346517Y-9793817D01*
X12354983Y-9789583D01*
X12380383Y-9789583D01*
X12388850Y-9793817D01*
X12393083Y-9798050D01*
X12397317Y-9806517D01*
X12397317Y-9823450D01*
X12393083Y-9831917D01*
X12363450Y-9751483D02*
X12363450Y-9683750D01*
X12397317Y-9641417D02*
X12308417Y-9641417D01*
X12363450Y-9632950D02*
X12397317Y-9607550D01*
X12338050Y-9607550D02*
X12371917Y-9641417D01*
X12397317Y-9569450D02*
X12338050Y-9569450D01*
X12308417Y-9569450D02*
X12312650Y-9573683D01*
X12316883Y-9569450D01*
X12312650Y-9565217D01*
X12308417Y-9569450D01*
X12316883Y-9569450D01*
X12393083Y-9489017D02*
X12397317Y-9497483D01*
X12397317Y-9514417D01*
X12393083Y-9522883D01*
X12388850Y-9527117D01*
X12380383Y-9531350D01*
X12354983Y-9531350D01*
X12346517Y-9527117D01*
X12342283Y-9522883D01*
X12338050Y-9514417D01*
X12338050Y-9497483D01*
X12342283Y-9489017D01*
X12397317Y-9412817D02*
X12350750Y-9412817D01*
X12342283Y-9417050D01*
X12338050Y-9425517D01*
X12338050Y-9442450D01*
X12342283Y-9450917D01*
X12393083Y-9412817D02*
X12397317Y-9421283D01*
X12397317Y-9442450D01*
X12393083Y-9450917D01*
X12384617Y-9455150D01*
X12376150Y-9455150D01*
X12367683Y-9450917D01*
X12363450Y-9442450D01*
X12363450Y-9421283D01*
X12359217Y-9412817D01*
X12397317Y-9332383D02*
X12308417Y-9332383D01*
X12393083Y-9332383D02*
X12397317Y-9340850D01*
X12397317Y-9357783D01*
X12393083Y-9366250D01*
X12388850Y-9370483D01*
X12380383Y-9374717D01*
X12354983Y-9374717D01*
X12346517Y-9370483D01*
X12342283Y-9366250D01*
X12338050Y-9357783D01*
X12338050Y-9340850D01*
X12342283Y-9332383D01*
X11969750Y-13531850D02*
X11965517Y-13540317D01*
X11965517Y-13553017D01*
X11969750Y-13565717D01*
X11978217Y-13574183D01*
X11986683Y-13578417D01*
X12003617Y-13582650D01*
X12016317Y-13582650D01*
X12033250Y-13578417D01*
X12041717Y-13574183D01*
X12050183Y-13565717D01*
X12054417Y-13553017D01*
X12054417Y-13544550D01*
X12050183Y-13531850D01*
X12045950Y-13527617D01*
X12016317Y-13527617D01*
X12016317Y-13544550D01*
X12050183Y-13455650D02*
X12054417Y-13464117D01*
X12054417Y-13481050D01*
X12050183Y-13489517D01*
X12041717Y-13493750D01*
X12007850Y-13493750D01*
X11999383Y-13489517D01*
X11995150Y-13481050D01*
X11995150Y-13464117D01*
X11999383Y-13455650D01*
X12007850Y-13451417D01*
X12016317Y-13451417D01*
X12024783Y-13493750D01*
X11995150Y-13413317D02*
X12054417Y-13413317D01*
X12003617Y-13413317D02*
X11999383Y-13409083D01*
X11995150Y-13400617D01*
X11995150Y-13387917D01*
X11999383Y-13379450D01*
X12007850Y-13375217D01*
X12054417Y-13375217D01*
X12050183Y-13299017D02*
X12054417Y-13307483D01*
X12054417Y-13324417D01*
X12050183Y-13332883D01*
X12041717Y-13337117D01*
X12007850Y-13337117D01*
X11999383Y-13332883D01*
X11995150Y-13324417D01*
X11995150Y-13307483D01*
X11999383Y-13299017D01*
X12007850Y-13294783D01*
X12016317Y-13294783D01*
X12024783Y-13337117D01*
X12050183Y-13260917D02*
X12054417Y-13252450D01*
X12054417Y-13235517D01*
X12050183Y-13227050D01*
X12041717Y-13222817D01*
X12037483Y-13222817D01*
X12029017Y-13227050D01*
X12024783Y-13235517D01*
X12024783Y-13248217D01*
X12020550Y-13256683D01*
X12012083Y-13260917D01*
X12007850Y-13260917D01*
X11999383Y-13256683D01*
X11995150Y-13248217D01*
X11995150Y-13235517D01*
X11999383Y-13227050D01*
X12054417Y-13184717D02*
X11995150Y-13184717D01*
X11965517Y-13184717D02*
X11969750Y-13188950D01*
X11973983Y-13184717D01*
X11969750Y-13180483D01*
X11965517Y-13184717D01*
X11973983Y-13184717D01*
X12050183Y-13146617D02*
X12054417Y-13138150D01*
X12054417Y-13121217D01*
X12050183Y-13112750D01*
X12041717Y-13108517D01*
X12037483Y-13108517D01*
X12029017Y-13112750D01*
X12024783Y-13121217D01*
X12024783Y-13133917D01*
X12020550Y-13142383D01*
X12012083Y-13146617D01*
X12007850Y-13146617D01*
X11999383Y-13142383D01*
X11995150Y-13133917D01*
X11995150Y-13121217D01*
X11999383Y-13112750D01*
X12054417Y-12964583D02*
X12007850Y-12964583D01*
X11999383Y-12968817D01*
X11995150Y-12977283D01*
X11995150Y-12994217D01*
X11999383Y-13002683D01*
X12050183Y-12964583D02*
X12054417Y-12973050D01*
X12054417Y-12994217D01*
X12050183Y-13002683D01*
X12041717Y-13006917D01*
X12033250Y-13006917D01*
X12024783Y-13002683D01*
X12020550Y-12994217D01*
X12020550Y-12973050D01*
X12016317Y-12964583D01*
X11995150Y-12922250D02*
X12054417Y-12922250D01*
X12003617Y-12922250D02*
X11999383Y-12918017D01*
X11995150Y-12909550D01*
X11995150Y-12896850D01*
X11999383Y-12888383D01*
X12007850Y-12884150D01*
X12054417Y-12884150D01*
X12054417Y-12803717D02*
X11965517Y-12803717D01*
X12050183Y-12803717D02*
X12054417Y-12812183D01*
X12054417Y-12829117D01*
X12050183Y-12837583D01*
X12045950Y-12841817D01*
X12037483Y-12846050D01*
X12012083Y-12846050D01*
X12003617Y-12841817D01*
X11999383Y-12837583D01*
X11995150Y-12829117D01*
X11995150Y-12812183D01*
X11999383Y-12803717D01*
X12050183Y-12697883D02*
X12054417Y-12685183D01*
X12054417Y-12664017D01*
X12050183Y-12655550D01*
X12045950Y-12651317D01*
X12037483Y-12647083D01*
X12029017Y-12647083D01*
X12020550Y-12651317D01*
X12016317Y-12655550D01*
X12012083Y-12664017D01*
X12007850Y-12680950D01*
X12003617Y-12689417D01*
X11999383Y-12693650D01*
X11990917Y-12697883D01*
X11982450Y-12697883D01*
X11973983Y-12693650D01*
X11969750Y-12689417D01*
X11965517Y-12680950D01*
X11965517Y-12659783D01*
X11969750Y-12647083D01*
X12054417Y-12608983D02*
X11965517Y-12608983D01*
X12029017Y-12579350D01*
X11965517Y-12549717D01*
X12054417Y-12549717D01*
X12050183Y-12511617D02*
X12054417Y-12498917D01*
X12054417Y-12477750D01*
X12050183Y-12469283D01*
X12045950Y-12465050D01*
X12037483Y-12460817D01*
X12029017Y-12460817D01*
X12020550Y-12465050D01*
X12016317Y-12469283D01*
X12012083Y-12477750D01*
X12007850Y-12494683D01*
X12003617Y-12503150D01*
X11999383Y-12507383D01*
X11990917Y-12511617D01*
X11982450Y-12511617D01*
X11973983Y-12507383D01*
X11969750Y-12503150D01*
X11965517Y-12494683D01*
X11965517Y-12473517D01*
X11969750Y-12460817D01*
X12054417Y-12354983D02*
X11965517Y-12354983D01*
X11965517Y-12321117D01*
X11969750Y-12312650D01*
X11973983Y-12308417D01*
X11982450Y-12304183D01*
X11995150Y-12304183D01*
X12003617Y-12308417D01*
X12007850Y-12312650D01*
X12012083Y-12321117D01*
X12012083Y-12354983D01*
X12054417Y-12253383D02*
X12050183Y-12261850D01*
X12045950Y-12266083D01*
X12037483Y-12270317D01*
X12012083Y-12270317D01*
X12003617Y-12266083D01*
X11999383Y-12261850D01*
X11995150Y-12253383D01*
X11995150Y-12240683D01*
X11999383Y-12232217D01*
X12003617Y-12227983D01*
X12012083Y-12223750D01*
X12037483Y-12223750D01*
X12045950Y-12227983D01*
X12050183Y-12232217D01*
X12054417Y-12240683D01*
X12054417Y-12253383D01*
X11995150Y-12194117D02*
X12054417Y-12177183D01*
X12012083Y-12160250D01*
X12054417Y-12143317D01*
X11995150Y-12126383D01*
X12050183Y-12058650D02*
X12054417Y-12067117D01*
X12054417Y-12084050D01*
X12050183Y-12092517D01*
X12041717Y-12096750D01*
X12007850Y-12096750D01*
X11999383Y-12092517D01*
X11995150Y-12084050D01*
X11995150Y-12067117D01*
X11999383Y-12058650D01*
X12007850Y-12054417D01*
X12016317Y-12054417D01*
X12024783Y-12096750D01*
X12054417Y-12016317D02*
X11995150Y-12016317D01*
X12012083Y-12016317D02*
X12003617Y-12012083D01*
X11999383Y-12007850D01*
X11995150Y-11999383D01*
X11995150Y-11990917D01*
X12054417Y-11893550D02*
X11965517Y-11893550D01*
X11965517Y-11859683D01*
X11969750Y-11851217D01*
X11973983Y-11846983D01*
X11982450Y-11842750D01*
X11995150Y-11842750D01*
X12003617Y-11846983D01*
X12007850Y-11851217D01*
X12012083Y-11859683D01*
X12012083Y-11893550D01*
X12045950Y-11753850D02*
X12050183Y-11758083D01*
X12054417Y-11770783D01*
X12054417Y-11779250D01*
X12050183Y-11791950D01*
X12041717Y-11800417D01*
X12033250Y-11804650D01*
X12016317Y-11808883D01*
X12003617Y-11808883D01*
X11986683Y-11804650D01*
X11978217Y-11800417D01*
X11969750Y-11791950D01*
X11965517Y-11779250D01*
X11965517Y-11770783D01*
X11969750Y-11758083D01*
X11973983Y-11753850D01*
X12007850Y-11686117D02*
X12012083Y-11673417D01*
X12016317Y-11669183D01*
X12024783Y-11664950D01*
X12037483Y-11664950D01*
X12045950Y-11669183D01*
X12050183Y-11673417D01*
X12054417Y-11681883D01*
X12054417Y-11715750D01*
X11965517Y-11715750D01*
X11965517Y-11686117D01*
X11969750Y-11677650D01*
X11973983Y-11673417D01*
X11982450Y-11669183D01*
X11990917Y-11669183D01*
X11999383Y-11673417D01*
X12003617Y-11677650D01*
X12007850Y-11686117D01*
X12007850Y-11715750D01*
X11965517Y-11542183D02*
X11965517Y-11533717D01*
X11969750Y-11525250D01*
X11973983Y-11521017D01*
X11982450Y-11516783D01*
X11999383Y-11512550D01*
X12020550Y-11512550D01*
X12037483Y-11516783D01*
X12045950Y-11521017D01*
X12050183Y-11525250D01*
X12054417Y-11533717D01*
X12054417Y-11542183D01*
X12050183Y-11550650D01*
X12045950Y-11554883D01*
X12037483Y-11559117D01*
X12020550Y-11563350D01*
X11999383Y-11563350D01*
X11982450Y-11559117D01*
X11973983Y-11554883D01*
X11969750Y-11550650D01*
X11965517Y-11542183D01*
X12045950Y-11474450D02*
X12050183Y-11470217D01*
X12054417Y-11474450D01*
X12050183Y-11478683D01*
X12045950Y-11474450D01*
X12054417Y-11474450D01*
X12054417Y-11385550D02*
X12054417Y-11436350D01*
X12054417Y-11410950D02*
X11965517Y-11410950D01*
X11978217Y-11419417D01*
X11986683Y-11427883D01*
X11990917Y-11436350D01*
X12803717Y-15515167D02*
X12803717Y-15557500D01*
X12714817Y-15557500D01*
X12803717Y-15485533D02*
X12744450Y-15485533D01*
X12714817Y-15485533D02*
X12719050Y-15489767D01*
X12723283Y-15485533D01*
X12719050Y-15481300D01*
X12714817Y-15485533D01*
X12723283Y-15485533D01*
X12799483Y-15405100D02*
X12803717Y-15413567D01*
X12803717Y-15430500D01*
X12799483Y-15438967D01*
X12795250Y-15443200D01*
X12786783Y-15447433D01*
X12761383Y-15447433D01*
X12752917Y-15443200D01*
X12748683Y-15438967D01*
X12744450Y-15430500D01*
X12744450Y-15413567D01*
X12748683Y-15405100D01*
X12799483Y-15333133D02*
X12803717Y-15341600D01*
X12803717Y-15358533D01*
X12799483Y-15367000D01*
X12791017Y-15371233D01*
X12757150Y-15371233D01*
X12748683Y-15367000D01*
X12744450Y-15358533D01*
X12744450Y-15341600D01*
X12748683Y-15333133D01*
X12757150Y-15328900D01*
X12765617Y-15328900D01*
X12774083Y-15371233D01*
X12744450Y-15290800D02*
X12803717Y-15290800D01*
X12752917Y-15290800D02*
X12748683Y-15286567D01*
X12744450Y-15278100D01*
X12744450Y-15265400D01*
X12748683Y-15256933D01*
X12757150Y-15252700D01*
X12803717Y-15252700D01*
X12799483Y-15214600D02*
X12803717Y-15206133D01*
X12803717Y-15189200D01*
X12799483Y-15180733D01*
X12791017Y-15176500D01*
X12786783Y-15176500D01*
X12778317Y-15180733D01*
X12774083Y-15189200D01*
X12774083Y-15201900D01*
X12769850Y-15210367D01*
X12761383Y-15214600D01*
X12757150Y-15214600D01*
X12748683Y-15210367D01*
X12744450Y-15201900D01*
X12744450Y-15189200D01*
X12748683Y-15180733D01*
X12799483Y-15104533D02*
X12803717Y-15113000D01*
X12803717Y-15129933D01*
X12799483Y-15138400D01*
X12791017Y-15142633D01*
X12757150Y-15142633D01*
X12748683Y-15138400D01*
X12744450Y-15129933D01*
X12744450Y-15113000D01*
X12748683Y-15104533D01*
X12757150Y-15100300D01*
X12765617Y-15100300D01*
X12774083Y-15142633D01*
X12803717Y-15024100D02*
X12714817Y-15024100D01*
X12799483Y-15024100D02*
X12803717Y-15032567D01*
X12803717Y-15049500D01*
X12799483Y-15057967D01*
X12795250Y-15062200D01*
X12786783Y-15066433D01*
X12761383Y-15066433D01*
X12752917Y-15062200D01*
X12748683Y-15057967D01*
X12744450Y-15049500D01*
X12744450Y-15032567D01*
X12748683Y-15024100D01*
X12744450Y-14875933D02*
X12803717Y-14875933D01*
X12744450Y-14914033D02*
X12791017Y-14914033D01*
X12799483Y-14909800D01*
X12803717Y-14901333D01*
X12803717Y-14888633D01*
X12799483Y-14880167D01*
X12795250Y-14875933D01*
X12744450Y-14833600D02*
X12803717Y-14833600D01*
X12752917Y-14833600D02*
X12748683Y-14829367D01*
X12744450Y-14820900D01*
X12744450Y-14808200D01*
X12748683Y-14799733D01*
X12757150Y-14795500D01*
X12803717Y-14795500D01*
X12803717Y-14715067D02*
X12714817Y-14715067D01*
X12799483Y-14715067D02*
X12803717Y-14723533D01*
X12803717Y-14740467D01*
X12799483Y-14748933D01*
X12795250Y-14753167D01*
X12786783Y-14757400D01*
X12761383Y-14757400D01*
X12752917Y-14753167D01*
X12748683Y-14748933D01*
X12744450Y-14740467D01*
X12744450Y-14723533D01*
X12748683Y-14715067D01*
X12799483Y-14638867D02*
X12803717Y-14647333D01*
X12803717Y-14664267D01*
X12799483Y-14672733D01*
X12791017Y-14676967D01*
X12757150Y-14676967D01*
X12748683Y-14672733D01*
X12744450Y-14664267D01*
X12744450Y-14647333D01*
X12748683Y-14638867D01*
X12757150Y-14634633D01*
X12765617Y-14634633D01*
X12774083Y-14676967D01*
X12803717Y-14596533D02*
X12744450Y-14596533D01*
X12761383Y-14596533D02*
X12752917Y-14592300D01*
X12748683Y-14588067D01*
X12744450Y-14579600D01*
X12744450Y-14571133D01*
X12795250Y-14422967D02*
X12799483Y-14427200D01*
X12803717Y-14439900D01*
X12803717Y-14448367D01*
X12799483Y-14461067D01*
X12791017Y-14469533D01*
X12782550Y-14473767D01*
X12765617Y-14478000D01*
X12752917Y-14478000D01*
X12735983Y-14473767D01*
X12727517Y-14469533D01*
X12719050Y-14461067D01*
X12714817Y-14448367D01*
X12714817Y-14439900D01*
X12719050Y-14427200D01*
X12723283Y-14422967D01*
X12757150Y-14384867D02*
X12757150Y-14355233D01*
X12803717Y-14342533D02*
X12803717Y-14384867D01*
X12714817Y-14384867D01*
X12714817Y-14342533D01*
X12803717Y-14253633D02*
X12761383Y-14283267D01*
X12803717Y-14304433D02*
X12714817Y-14304433D01*
X12714817Y-14270567D01*
X12719050Y-14262100D01*
X12723283Y-14257867D01*
X12731750Y-14253633D01*
X12744450Y-14253633D01*
X12752917Y-14257867D01*
X12757150Y-14262100D01*
X12761383Y-14270567D01*
X12761383Y-14304433D01*
X12803717Y-14215533D02*
X12714817Y-14215533D01*
X12803717Y-14164733D01*
X12714817Y-14164733D01*
X12714817Y-14037733D02*
X12714817Y-14020800D01*
X12719050Y-14012333D01*
X12727517Y-14003867D01*
X12744450Y-13999633D01*
X12774083Y-13999633D01*
X12791017Y-14003867D01*
X12799483Y-14012333D01*
X12803717Y-14020800D01*
X12803717Y-14037733D01*
X12799483Y-14046200D01*
X12791017Y-14054667D01*
X12774083Y-14058900D01*
X12744450Y-14058900D01*
X12727517Y-14054667D01*
X12719050Y-14046200D01*
X12714817Y-14037733D01*
X12803717Y-13961533D02*
X12714817Y-13961533D01*
X12757150Y-13961533D02*
X12757150Y-13910733D01*
X12803717Y-13910733D02*
X12714817Y-13910733D01*
X12803717Y-13826067D02*
X12803717Y-13868400D01*
X12714817Y-13868400D01*
X12744450Y-13737167D02*
X12803717Y-13716000D01*
X12744450Y-13694833D01*
X12795250Y-13660967D02*
X12799483Y-13656733D01*
X12803717Y-13660967D01*
X12799483Y-13665200D01*
X12795250Y-13660967D01*
X12803717Y-13660967D01*
X12803717Y-13572067D02*
X12803717Y-13622867D01*
X12803717Y-13597467D02*
X12714817Y-13597467D01*
X12727517Y-13605933D01*
X12735983Y-13614400D01*
X12740217Y-13622867D01*
X12795250Y-13533967D02*
X12799483Y-13529733D01*
X12803717Y-13533967D01*
X12799483Y-13538200D01*
X12795250Y-13533967D01*
X12803717Y-13533967D01*
X12723283Y-13495867D02*
X12719050Y-13491633D01*
X12714817Y-13483167D01*
X12714817Y-13462000D01*
X12719050Y-13453533D01*
X12723283Y-13449300D01*
X12731750Y-13445067D01*
X12740217Y-13445067D01*
X12752917Y-13449300D01*
X12803717Y-13500100D01*
X12803717Y-13445067D01*
X12524317Y-14634633D02*
X12435417Y-14634633D01*
X12520083Y-14634633D02*
X12524317Y-14643100D01*
X12524317Y-14660033D01*
X12520083Y-14668500D01*
X12515850Y-14672733D01*
X12507383Y-14676967D01*
X12481983Y-14676967D01*
X12473517Y-14672733D01*
X12469283Y-14668500D01*
X12465050Y-14660033D01*
X12465050Y-14643100D01*
X12469283Y-14634633D01*
X12524317Y-14592300D02*
X12435417Y-14592300D01*
X12469283Y-14592300D02*
X12465050Y-14583833D01*
X12465050Y-14566900D01*
X12469283Y-14558433D01*
X12473517Y-14554200D01*
X12481983Y-14549967D01*
X12507383Y-14549967D01*
X12515850Y-14554200D01*
X12520083Y-14558433D01*
X12524317Y-14566900D01*
X12524317Y-14583833D01*
X12520083Y-14592300D01*
X12477750Y-14444133D02*
X12477750Y-14414500D01*
X12524317Y-14401800D02*
X12524317Y-14444133D01*
X12435417Y-14444133D01*
X12435417Y-14401800D01*
X12524317Y-14351000D02*
X12520083Y-14359467D01*
X12511617Y-14363700D01*
X12435417Y-14363700D01*
X12520083Y-14283267D02*
X12524317Y-14291733D01*
X12524317Y-14308667D01*
X12520083Y-14317133D01*
X12511617Y-14321367D01*
X12477750Y-14321367D01*
X12469283Y-14317133D01*
X12465050Y-14308667D01*
X12465050Y-14291733D01*
X12469283Y-14283267D01*
X12477750Y-14279033D01*
X12486217Y-14279033D01*
X12494683Y-14321367D01*
X12520083Y-14202833D02*
X12524317Y-14211300D01*
X12524317Y-14228233D01*
X12520083Y-14236700D01*
X12515850Y-14240933D01*
X12507383Y-14245167D01*
X12481983Y-14245167D01*
X12473517Y-14240933D01*
X12469283Y-14236700D01*
X12465050Y-14228233D01*
X12465050Y-14211300D01*
X12469283Y-14202833D01*
X12465050Y-14177433D02*
X12465050Y-14143567D01*
X12435417Y-14164733D02*
X12511617Y-14164733D01*
X12520083Y-14160500D01*
X12524317Y-14152033D01*
X12524317Y-14143567D01*
X12524317Y-14113933D02*
X12465050Y-14113933D01*
X12481983Y-14113933D02*
X12473517Y-14109700D01*
X12469283Y-14105467D01*
X12465050Y-14097000D01*
X12465050Y-14088533D01*
X12524317Y-14046200D02*
X12520083Y-14054667D01*
X12515850Y-14058900D01*
X12507383Y-14063133D01*
X12481983Y-14063133D01*
X12473517Y-14058900D01*
X12469283Y-14054667D01*
X12465050Y-14046200D01*
X12465050Y-14033500D01*
X12469283Y-14025033D01*
X12473517Y-14020800D01*
X12481983Y-14016567D01*
X12507383Y-14016567D01*
X12515850Y-14020800D01*
X12520083Y-14025033D01*
X12524317Y-14033500D01*
X12524317Y-14046200D01*
X12465050Y-13978467D02*
X12524317Y-13978467D01*
X12473517Y-13978467D02*
X12469283Y-13974233D01*
X12465050Y-13965767D01*
X12465050Y-13953067D01*
X12469283Y-13944600D01*
X12477750Y-13940367D01*
X12524317Y-13940367D01*
X12524317Y-13898033D02*
X12465050Y-13898033D01*
X12435417Y-13898033D02*
X12439650Y-13902267D01*
X12443883Y-13898033D01*
X12439650Y-13893800D01*
X12435417Y-13898033D01*
X12443883Y-13898033D01*
X12520083Y-13817600D02*
X12524317Y-13826067D01*
X12524317Y-13843000D01*
X12520083Y-13851467D01*
X12515850Y-13855700D01*
X12507383Y-13859933D01*
X12481983Y-13859933D01*
X12473517Y-13855700D01*
X12469283Y-13851467D01*
X12465050Y-13843000D01*
X12465050Y-13826067D01*
X12469283Y-13817600D01*
X12520083Y-13783733D02*
X12524317Y-13775267D01*
X12524317Y-13758333D01*
X12520083Y-13749867D01*
X12511617Y-13745633D01*
X12507383Y-13745633D01*
X12498917Y-13749867D01*
X12494683Y-13758333D01*
X12494683Y-13771033D01*
X12490450Y-13779500D01*
X12481983Y-13783733D01*
X12477750Y-13783733D01*
X12469283Y-13779500D01*
X12465050Y-13771033D01*
X12465050Y-13758333D01*
X12469283Y-13749867D01*
D10*
X12631057Y-10504714D02*
X12643152Y-10468429D01*
X12655248Y-10456333D01*
X12679438Y-10444238D01*
X12715724Y-10444238D01*
X12739914Y-10456333D01*
X12752009Y-10468429D01*
X12764105Y-10492619D01*
X12764105Y-10589381D01*
X12510105Y-10589381D01*
X12510105Y-10504714D01*
X12522200Y-10480524D01*
X12534295Y-10468429D01*
X12558486Y-10456333D01*
X12582676Y-10456333D01*
X12606867Y-10468429D01*
X12618962Y-10480524D01*
X12631057Y-10504714D01*
X12631057Y-10589381D01*
X12691533Y-10347476D02*
X12691533Y-10226524D01*
X12764105Y-10371667D02*
X12510105Y-10287000D01*
X12764105Y-10202333D01*
X12739914Y-9972524D02*
X12752009Y-9984619D01*
X12764105Y-10020905D01*
X12764105Y-10045095D01*
X12752009Y-10081381D01*
X12727819Y-10105571D01*
X12703628Y-10117667D01*
X12655248Y-10129762D01*
X12618962Y-10129762D01*
X12570581Y-10117667D01*
X12546390Y-10105571D01*
X12522200Y-10081381D01*
X12510105Y-10045095D01*
X12510105Y-10020905D01*
X12522200Y-9984619D01*
X12534295Y-9972524D01*
X12764105Y-9863667D02*
X12510105Y-9863667D01*
X12764105Y-9718524D02*
X12618962Y-9827381D01*
X12510105Y-9718524D02*
X12655248Y-9863667D01*
X16758557Y-12993914D02*
X16758557Y-13078581D01*
X16891605Y-13078581D02*
X16637605Y-13078581D01*
X16637605Y-12957628D01*
X16891605Y-12715724D02*
X16770652Y-12800390D01*
X16891605Y-12860867D02*
X16637605Y-12860867D01*
X16637605Y-12764105D01*
X16649700Y-12739914D01*
X16661795Y-12727819D01*
X16685986Y-12715724D01*
X16722271Y-12715724D01*
X16746462Y-12727819D01*
X16758557Y-12739914D01*
X16770652Y-12764105D01*
X16770652Y-12860867D01*
X16637605Y-12558486D02*
X16637605Y-12510105D01*
X16649700Y-12485914D01*
X16673890Y-12461724D01*
X16722271Y-12449628D01*
X16806938Y-12449628D01*
X16855319Y-12461724D01*
X16879510Y-12485914D01*
X16891605Y-12510105D01*
X16891605Y-12558486D01*
X16879510Y-12582676D01*
X16855319Y-12606867D01*
X16806938Y-12618962D01*
X16722271Y-12618962D01*
X16673890Y-12606867D01*
X16649700Y-12582676D01*
X16637605Y-12558486D01*
X16891605Y-12340771D02*
X16637605Y-12340771D01*
X16891605Y-12195628D01*
X16637605Y-12195628D01*
X16637605Y-12110962D02*
X16637605Y-11965819D01*
X16891605Y-12038390D02*
X16637605Y-12038390D01*
X16794843Y-11687628D02*
X16794843Y-11494105D01*
X16867414Y-11034486D02*
X16879510Y-11046581D01*
X16891605Y-11082867D01*
X16891605Y-11107057D01*
X16879510Y-11143343D01*
X16855319Y-11167533D01*
X16831129Y-11179629D01*
X16782748Y-11191724D01*
X16746462Y-11191724D01*
X16698081Y-11179629D01*
X16673890Y-11167533D01*
X16649700Y-11143343D01*
X16637605Y-11107057D01*
X16637605Y-11082867D01*
X16649700Y-11046581D01*
X16661795Y-11034486D01*
X16637605Y-10877248D02*
X16637605Y-10828867D01*
X16649700Y-10804676D01*
X16673890Y-10780486D01*
X16722271Y-10768390D01*
X16806938Y-10768390D01*
X16855319Y-10780486D01*
X16879510Y-10804676D01*
X16891605Y-10828867D01*
X16891605Y-10877248D01*
X16879510Y-10901438D01*
X16855319Y-10925629D01*
X16806938Y-10937724D01*
X16722271Y-10937724D01*
X16673890Y-10925629D01*
X16649700Y-10901438D01*
X16637605Y-10877248D01*
X16891605Y-10659533D02*
X16637605Y-10659533D01*
X16819033Y-10574867D01*
X16637605Y-10490200D01*
X16891605Y-10490200D01*
X16891605Y-10369248D02*
X16637605Y-10369248D01*
X16637605Y-10272486D01*
X16649700Y-10248295D01*
X16661795Y-10236200D01*
X16685986Y-10224105D01*
X16722271Y-10224105D01*
X16746462Y-10236200D01*
X16758557Y-10248295D01*
X16770652Y-10272486D01*
X16770652Y-10369248D01*
X16637605Y-10066867D02*
X16637605Y-10018486D01*
X16649700Y-9994295D01*
X16673890Y-9970105D01*
X16722271Y-9958010D01*
X16806938Y-9958010D01*
X16855319Y-9970105D01*
X16879510Y-9994295D01*
X16891605Y-10018486D01*
X16891605Y-10066867D01*
X16879510Y-10091057D01*
X16855319Y-10115248D01*
X16806938Y-10127343D01*
X16722271Y-10127343D01*
X16673890Y-10115248D01*
X16649700Y-10091057D01*
X16637605Y-10066867D01*
X16891605Y-9849152D02*
X16637605Y-9849152D01*
X16891605Y-9704010D01*
X16637605Y-9704010D01*
X16758557Y-9583057D02*
X16758557Y-9498390D01*
X16891605Y-9462105D02*
X16891605Y-9583057D01*
X16637605Y-9583057D01*
X16637605Y-9462105D01*
X16891605Y-9353248D02*
X16637605Y-9353248D01*
X16891605Y-9208105D01*
X16637605Y-9208105D01*
X16637605Y-9123438D02*
X16637605Y-8978295D01*
X16891605Y-9050867D02*
X16637605Y-9050867D01*
X16879510Y-8905724D02*
X16891605Y-8869438D01*
X16891605Y-8808962D01*
X16879510Y-8784771D01*
X16867414Y-8772676D01*
X16843224Y-8760581D01*
X16819033Y-8760581D01*
X16794843Y-8772676D01*
X16782748Y-8784771D01*
X16770652Y-8808962D01*
X16758557Y-8857343D01*
X16746462Y-8881533D01*
X16734367Y-8893629D01*
X16710176Y-8905724D01*
X16685986Y-8905724D01*
X16661795Y-8893629D01*
X16649700Y-8881533D01*
X16637605Y-8857343D01*
X16637605Y-8796867D01*
X16649700Y-8760581D01*
X16625509Y-8470295D02*
X16952081Y-8688010D01*
X16891605Y-8264676D02*
X16891605Y-8385628D01*
X16637605Y-8385628D01*
X16819033Y-8192105D02*
X16819033Y-8071152D01*
X16891605Y-8216295D02*
X16637605Y-8131628D01*
X16891605Y-8046962D01*
X16758557Y-7877628D02*
X16770652Y-7841343D01*
X16782748Y-7829248D01*
X16806938Y-7817152D01*
X16843224Y-7817152D01*
X16867414Y-7829248D01*
X16879510Y-7841343D01*
X16891605Y-7865533D01*
X16891605Y-7962295D01*
X16637605Y-7962295D01*
X16637605Y-7877628D01*
X16649700Y-7853438D01*
X16661795Y-7841343D01*
X16685986Y-7829248D01*
X16710176Y-7829248D01*
X16734367Y-7841343D01*
X16746462Y-7853438D01*
X16758557Y-7877628D01*
X16758557Y-7962295D01*
X16758557Y-7708295D02*
X16758557Y-7623628D01*
X16891605Y-7587343D02*
X16891605Y-7708295D01*
X16637605Y-7708295D01*
X16637605Y-7587343D01*
X16891605Y-7357533D02*
X16891605Y-7478486D01*
X16637605Y-7478486D01*
D12*
X15421014Y-4286657D02*
X15349586Y-4286657D01*
X15342443Y-4358086D01*
X15349586Y-4350943D01*
X15363871Y-4343800D01*
X15399586Y-4343800D01*
X15413871Y-4350943D01*
X15421014Y-4358086D01*
X15428157Y-4372371D01*
X15428157Y-4408086D01*
X15421014Y-4422371D01*
X15413871Y-4429514D01*
X15399586Y-4436657D01*
X15363871Y-4436657D01*
X15349586Y-4429514D01*
X15342443Y-4422371D01*
X15471014Y-4286657D02*
X15521014Y-4436657D01*
X15571014Y-4286657D01*
X15813871Y-4293800D02*
X15799586Y-4286657D01*
X15778157Y-4286657D01*
X15756728Y-4293800D01*
X15742443Y-4308086D01*
X15735300Y-4322371D01*
X15728157Y-4350943D01*
X15728157Y-4372371D01*
X15735300Y-4400943D01*
X15742443Y-4415229D01*
X15756728Y-4429514D01*
X15778157Y-4436657D01*
X15792443Y-4436657D01*
X15813871Y-4429514D01*
X15821014Y-4422371D01*
X15821014Y-4372371D01*
X15792443Y-4372371D01*
X15885300Y-4436657D02*
X15885300Y-4286657D01*
X15971014Y-4436657D01*
X15971014Y-4286657D01*
X16042443Y-4436657D02*
X16042443Y-4286657D01*
X16078157Y-4286657D01*
X16099586Y-4293800D01*
X16113871Y-4308086D01*
X16121014Y-4322371D01*
X16128157Y-4350943D01*
X16128157Y-4372371D01*
X16121014Y-4400943D01*
X16113871Y-4415229D01*
X16099586Y-4429514D01*
X16078157Y-4436657D01*
X16042443Y-4436657D01*
D13*
X14541500Y-4889500D02*
X12890500Y-4889500D01*
X16510000Y-4889500D02*
X14859000Y-4889500D01*
X14859000Y-15684500D02*
X16510000Y-15684500D01*
X12890500Y-15684500D02*
X14541500Y-15684500D01*
X16510000Y-15684500D02*
X16510000Y-4889500D01*
X14859000Y-15684500D02*
X14859000Y-4889500D01*
X14541500Y-15684500D02*
X14541500Y-4889500D01*
X12890500Y-15684500D02*
X12890500Y-4889500D01*
G04 #@! TO.C,REF\002A\002A*
X17498105Y-4572000D02*
G75*
G03X17498105Y-4572000I-289605J0D01*
G01*
X12481605Y-4572000D02*
G75*
G03X12481605Y-4572000I-289605J0D01*
G01*
X17498105Y-16002000D02*
G75*
G03X17498105Y-16002000I-289605J0D01*
G01*
X12481605Y-16002000D02*
G75*
G03X12481605Y-16002000I-289605J0D01*
G01*
D14*
G04 #@! TO.C,G\002A\002A\002A*
G36*
X12066411Y-13717976D02*
X12080649Y-13717983D01*
X12094219Y-13718003D01*
X12106953Y-13718037D01*
X12118685Y-13718081D01*
X12129247Y-13718136D01*
X12138473Y-13718200D01*
X12146196Y-13718272D01*
X12152249Y-13718351D01*
X12156465Y-13718437D01*
X12158677Y-13718527D01*
X12158980Y-13718575D01*
X12158101Y-13719440D01*
X12157569Y-13719671D01*
X12150041Y-13722343D01*
X12144193Y-13724485D01*
X12139561Y-13726277D01*
X12135682Y-13727898D01*
X12132093Y-13729527D01*
X12132022Y-13729561D01*
X12113750Y-13739293D01*
X12096610Y-13750690D01*
X12080877Y-13763543D01*
X12066826Y-13777642D01*
X12063253Y-13781758D01*
X12050260Y-13798794D01*
X12039344Y-13816578D01*
X12030462Y-13835216D01*
X12023571Y-13854813D01*
X12018627Y-13875476D01*
X12015586Y-13897311D01*
X12015507Y-13898172D01*
X12014891Y-13916845D01*
X12016293Y-13935984D01*
X12019622Y-13955247D01*
X12024788Y-13974292D01*
X12031700Y-13992776D01*
X12040267Y-14010359D01*
X12049008Y-14024674D01*
X12052644Y-14029838D01*
X12056813Y-14035431D01*
X12061115Y-14040943D01*
X12065145Y-14045863D01*
X12068501Y-14049680D01*
X12069781Y-14050998D01*
X12070898Y-14052069D01*
X12071725Y-14052957D01*
X12072083Y-14053677D01*
X12071797Y-14054248D01*
X12070689Y-14054687D01*
X12068582Y-14055011D01*
X12065298Y-14055237D01*
X12060661Y-14055384D01*
X12054493Y-14055467D01*
X12046618Y-14055505D01*
X12036859Y-14055515D01*
X12025037Y-14055513D01*
X11973842Y-14055513D01*
X11973842Y-13717976D01*
X12066411Y-13717976D01*
X12066411Y-13717976D01*
G37*
X12066411Y-13717976D02*
X12080649Y-13717983D01*
X12094219Y-13718003D01*
X12106953Y-13718037D01*
X12118685Y-13718081D01*
X12129247Y-13718136D01*
X12138473Y-13718200D01*
X12146196Y-13718272D01*
X12152249Y-13718351D01*
X12156465Y-13718437D01*
X12158677Y-13718527D01*
X12158980Y-13718575D01*
X12158101Y-13719440D01*
X12157569Y-13719671D01*
X12150041Y-13722343D01*
X12144193Y-13724485D01*
X12139561Y-13726277D01*
X12135682Y-13727898D01*
X12132093Y-13729527D01*
X12132022Y-13729561D01*
X12113750Y-13739293D01*
X12096610Y-13750690D01*
X12080877Y-13763543D01*
X12066826Y-13777642D01*
X12063253Y-13781758D01*
X12050260Y-13798794D01*
X12039344Y-13816578D01*
X12030462Y-13835216D01*
X12023571Y-13854813D01*
X12018627Y-13875476D01*
X12015586Y-13897311D01*
X12015507Y-13898172D01*
X12014891Y-13916845D01*
X12016293Y-13935984D01*
X12019622Y-13955247D01*
X12024788Y-13974292D01*
X12031700Y-13992776D01*
X12040267Y-14010359D01*
X12049008Y-14024674D01*
X12052644Y-14029838D01*
X12056813Y-14035431D01*
X12061115Y-14040943D01*
X12065145Y-14045863D01*
X12068501Y-14049680D01*
X12069781Y-14050998D01*
X12070898Y-14052069D01*
X12071725Y-14052957D01*
X12072083Y-14053677D01*
X12071797Y-14054248D01*
X12070689Y-14054687D01*
X12068582Y-14055011D01*
X12065298Y-14055237D01*
X12060661Y-14055384D01*
X12054493Y-14055467D01*
X12046618Y-14055505D01*
X12036859Y-14055515D01*
X12025037Y-14055513D01*
X11973842Y-14055513D01*
X11973842Y-13717976D01*
X12066411Y-13717976D01*
G36*
X12073874Y-13904722D02*
X12074010Y-13898498D01*
X12074280Y-13893544D01*
X12074724Y-13889366D01*
X12075384Y-13885471D01*
X12076299Y-13881364D01*
X12076502Y-13880536D01*
X12079519Y-13869609D01*
X12082984Y-13859866D01*
X12087303Y-13850234D01*
X12089811Y-13845309D01*
X12098949Y-13830308D01*
X12109784Y-13816687D01*
X12122141Y-13804561D01*
X12135848Y-13794044D01*
X12150729Y-13785252D01*
X12166611Y-13778300D01*
X12183322Y-13773301D01*
X12200686Y-13770372D01*
X12203571Y-13770098D01*
X12221382Y-13769684D01*
X12238847Y-13771420D01*
X12255794Y-13775224D01*
X12272051Y-13781014D01*
X12287446Y-13788706D01*
X12301806Y-13798220D01*
X12314960Y-13809471D01*
X12326735Y-13822378D01*
X12334270Y-13832661D01*
X12342744Y-13846823D01*
X12349299Y-13861129D01*
X12354213Y-13876233D01*
X12356063Y-13883922D01*
X12356701Y-13887914D01*
X12357283Y-13893435D01*
X12357781Y-13899942D01*
X12358171Y-13906887D01*
X12358426Y-13913725D01*
X12358519Y-13919910D01*
X12358426Y-13924896D01*
X12358154Y-13927949D01*
X12357736Y-13930489D01*
X12357103Y-13934398D01*
X12356417Y-13938673D01*
X12353125Y-13952989D01*
X12347893Y-13967485D01*
X12340950Y-13981716D01*
X12332525Y-13995238D01*
X12322850Y-14007607D01*
X12318153Y-14012673D01*
X12304861Y-14024713D01*
X12290441Y-14034825D01*
X12274818Y-14043053D01*
X12257919Y-14049437D01*
X12248162Y-14052151D01*
X12241058Y-14053495D01*
X12232428Y-14054503D01*
X12222981Y-14055144D01*
X12213428Y-14055387D01*
X12204480Y-14055201D01*
X12196847Y-14054553D01*
X12196139Y-14054455D01*
X12178343Y-14050792D01*
X12161507Y-14045102D01*
X12145694Y-14037416D01*
X12130968Y-14027765D01*
X12117395Y-14016181D01*
X12116937Y-14015737D01*
X12105026Y-14002826D01*
X12095101Y-13989170D01*
X12087001Y-13974489D01*
X12080566Y-13958506D01*
X12076933Y-13946267D01*
X12075818Y-13941796D01*
X12075004Y-13937956D01*
X12074445Y-13934247D01*
X12074094Y-13930170D01*
X12073906Y-13925225D01*
X12073834Y-13918913D01*
X12073829Y-13912709D01*
X12073874Y-13904722D01*
X12073874Y-13904722D01*
G37*
X12073874Y-13904722D02*
X12074010Y-13898498D01*
X12074280Y-13893544D01*
X12074724Y-13889366D01*
X12075384Y-13885471D01*
X12076299Y-13881364D01*
X12076502Y-13880536D01*
X12079519Y-13869609D01*
X12082984Y-13859866D01*
X12087303Y-13850234D01*
X12089811Y-13845309D01*
X12098949Y-13830308D01*
X12109784Y-13816687D01*
X12122141Y-13804561D01*
X12135848Y-13794044D01*
X12150729Y-13785252D01*
X12166611Y-13778300D01*
X12183322Y-13773301D01*
X12200686Y-13770372D01*
X12203571Y-13770098D01*
X12221382Y-13769684D01*
X12238847Y-13771420D01*
X12255794Y-13775224D01*
X12272051Y-13781014D01*
X12287446Y-13788706D01*
X12301806Y-13798220D01*
X12314960Y-13809471D01*
X12326735Y-13822378D01*
X12334270Y-13832661D01*
X12342744Y-13846823D01*
X12349299Y-13861129D01*
X12354213Y-13876233D01*
X12356063Y-13883922D01*
X12356701Y-13887914D01*
X12357283Y-13893435D01*
X12357781Y-13899942D01*
X12358171Y-13906887D01*
X12358426Y-13913725D01*
X12358519Y-13919910D01*
X12358426Y-13924896D01*
X12358154Y-13927949D01*
X12357736Y-13930489D01*
X12357103Y-13934398D01*
X12356417Y-13938673D01*
X12353125Y-13952989D01*
X12347893Y-13967485D01*
X12340950Y-13981716D01*
X12332525Y-13995238D01*
X12322850Y-14007607D01*
X12318153Y-14012673D01*
X12304861Y-14024713D01*
X12290441Y-14034825D01*
X12274818Y-14043053D01*
X12257919Y-14049437D01*
X12248162Y-14052151D01*
X12241058Y-14053495D01*
X12232428Y-14054503D01*
X12222981Y-14055144D01*
X12213428Y-14055387D01*
X12204480Y-14055201D01*
X12196847Y-14054553D01*
X12196139Y-14054455D01*
X12178343Y-14050792D01*
X12161507Y-14045102D01*
X12145694Y-14037416D01*
X12130968Y-14027765D01*
X12117395Y-14016181D01*
X12116937Y-14015737D01*
X12105026Y-14002826D01*
X12095101Y-13989170D01*
X12087001Y-13974489D01*
X12080566Y-13958506D01*
X12076933Y-13946267D01*
X12075818Y-13941796D01*
X12075004Y-13937956D01*
X12074445Y-13934247D01*
X12074094Y-13930170D01*
X12073906Y-13925225D01*
X12073834Y-13918913D01*
X12073829Y-13912709D01*
X12073874Y-13904722D01*
G36*
X12073894Y-14361736D02*
X12076713Y-14345060D01*
X12081427Y-14328992D01*
X12087944Y-14313676D01*
X12096175Y-14299253D01*
X12106028Y-14285868D01*
X12117413Y-14273663D01*
X12130240Y-14262782D01*
X12144416Y-14253366D01*
X12159853Y-14245560D01*
X12176458Y-14239507D01*
X12190589Y-14236009D01*
X12196414Y-14235210D01*
X12203849Y-14234712D01*
X12212266Y-14234509D01*
X12221038Y-14234593D01*
X12229539Y-14234958D01*
X12237141Y-14235596D01*
X12243218Y-14236501D01*
X12243647Y-14236591D01*
X12261462Y-14241558D01*
X12278456Y-14248581D01*
X12294420Y-14257574D01*
X12296704Y-14259081D01*
X12302844Y-14263700D01*
X12309712Y-14269666D01*
X12316784Y-14276455D01*
X12323540Y-14283545D01*
X12329458Y-14290410D01*
X12333947Y-14296426D01*
X12342915Y-14311798D01*
X12349939Y-14328048D01*
X12354963Y-14344933D01*
X12357933Y-14362209D01*
X12358793Y-14379632D01*
X12357489Y-14396958D01*
X12357147Y-14399260D01*
X12354690Y-14411617D01*
X12351234Y-14423203D01*
X12346482Y-14434951D01*
X12344154Y-14439900D01*
X12335468Y-14455306D01*
X12325252Y-14469188D01*
X12313676Y-14481504D01*
X12300907Y-14492212D01*
X12287114Y-14501267D01*
X12272464Y-14508629D01*
X12257127Y-14514254D01*
X12241270Y-14518099D01*
X12225062Y-14520123D01*
X12208670Y-14520282D01*
X12192264Y-14518534D01*
X12176011Y-14514836D01*
X12160080Y-14509145D01*
X12144639Y-14501419D01*
X12132451Y-14493529D01*
X12119507Y-14482900D01*
X12107760Y-14470634D01*
X12097429Y-14457048D01*
X12088732Y-14442459D01*
X12081888Y-14427184D01*
X12077712Y-14413983D01*
X12074303Y-14396341D01*
X12073060Y-14378877D01*
X12073894Y-14361736D01*
X12073894Y-14361736D01*
G37*
X12073894Y-14361736D02*
X12076713Y-14345060D01*
X12081427Y-14328992D01*
X12087944Y-14313676D01*
X12096175Y-14299253D01*
X12106028Y-14285868D01*
X12117413Y-14273663D01*
X12130240Y-14262782D01*
X12144416Y-14253366D01*
X12159853Y-14245560D01*
X12176458Y-14239507D01*
X12190589Y-14236009D01*
X12196414Y-14235210D01*
X12203849Y-14234712D01*
X12212266Y-14234509D01*
X12221038Y-14234593D01*
X12229539Y-14234958D01*
X12237141Y-14235596D01*
X12243218Y-14236501D01*
X12243647Y-14236591D01*
X12261462Y-14241558D01*
X12278456Y-14248581D01*
X12294420Y-14257574D01*
X12296704Y-14259081D01*
X12302844Y-14263700D01*
X12309712Y-14269666D01*
X12316784Y-14276455D01*
X12323540Y-14283545D01*
X12329458Y-14290410D01*
X12333947Y-14296426D01*
X12342915Y-14311798D01*
X12349939Y-14328048D01*
X12354963Y-14344933D01*
X12357933Y-14362209D01*
X12358793Y-14379632D01*
X12357489Y-14396958D01*
X12357147Y-14399260D01*
X12354690Y-14411617D01*
X12351234Y-14423203D01*
X12346482Y-14434951D01*
X12344154Y-14439900D01*
X12335468Y-14455306D01*
X12325252Y-14469188D01*
X12313676Y-14481504D01*
X12300907Y-14492212D01*
X12287114Y-14501267D01*
X12272464Y-14508629D01*
X12257127Y-14514254D01*
X12241270Y-14518099D01*
X12225062Y-14520123D01*
X12208670Y-14520282D01*
X12192264Y-14518534D01*
X12176011Y-14514836D01*
X12160080Y-14509145D01*
X12144639Y-14501419D01*
X12132451Y-14493529D01*
X12119507Y-14482900D01*
X12107760Y-14470634D01*
X12097429Y-14457048D01*
X12088732Y-14442459D01*
X12081888Y-14427184D01*
X12077712Y-14413983D01*
X12074303Y-14396341D01*
X12073060Y-14378877D01*
X12073894Y-14361736D01*
G36*
X12274117Y-13718653D02*
X12277243Y-13718495D01*
X12282190Y-13718352D01*
X12288741Y-13718227D01*
X12296678Y-13718124D01*
X12305783Y-13718045D01*
X12315838Y-13717994D01*
X12326625Y-13717976D01*
X12327184Y-13717976D01*
X12381371Y-13717976D01*
X12381371Y-13757487D01*
X12381361Y-13766677D01*
X12381331Y-13775111D01*
X12381284Y-13782532D01*
X12381223Y-13788685D01*
X12381150Y-13793314D01*
X12381067Y-13796164D01*
X12380989Y-13796998D01*
X12380184Y-13796164D01*
X12378313Y-13793914D01*
X12375683Y-13790622D01*
X12373517Y-13787850D01*
X12361695Y-13774143D01*
X12348258Y-13761301D01*
X12333577Y-13749587D01*
X12318021Y-13739269D01*
X12301961Y-13730610D01*
X12285766Y-13723877D01*
X12282910Y-13722905D01*
X12278597Y-13721402D01*
X12275237Y-13720070D01*
X12273309Y-13719107D01*
X12273032Y-13718822D01*
X12274117Y-13718653D01*
X12274117Y-13718653D01*
G37*
X12274117Y-13718653D02*
X12277243Y-13718495D01*
X12282190Y-13718352D01*
X12288741Y-13718227D01*
X12296678Y-13718124D01*
X12305783Y-13718045D01*
X12315838Y-13717994D01*
X12326625Y-13717976D01*
X12327184Y-13717976D01*
X12381371Y-13717976D01*
X12381371Y-13757487D01*
X12381361Y-13766677D01*
X12381331Y-13775111D01*
X12381284Y-13782532D01*
X12381223Y-13788685D01*
X12381150Y-13793314D01*
X12381067Y-13796164D01*
X12380989Y-13796998D01*
X12380184Y-13796164D01*
X12378313Y-13793914D01*
X12375683Y-13790622D01*
X12373517Y-13787850D01*
X12361695Y-13774143D01*
X12348258Y-13761301D01*
X12333577Y-13749587D01*
X12318021Y-13739269D01*
X12301961Y-13730610D01*
X12285766Y-13723877D01*
X12282910Y-13722905D01*
X12278597Y-13721402D01*
X12275237Y-13720070D01*
X12273309Y-13719107D01*
X12273032Y-13718822D01*
X12274117Y-13718653D01*
G36*
X12098447Y-14114216D02*
X12119006Y-14114212D01*
X12137448Y-14114200D01*
X12153912Y-14114173D01*
X12168537Y-14114130D01*
X12181462Y-14114064D01*
X12192829Y-14113973D01*
X12202776Y-14113852D01*
X12211443Y-14113696D01*
X12218970Y-14113503D01*
X12225497Y-14113268D01*
X12231163Y-14112986D01*
X12236107Y-14112653D01*
X12240471Y-14112267D01*
X12244393Y-14111821D01*
X12248013Y-14111313D01*
X12251471Y-14110738D01*
X12254906Y-14110092D01*
X12257655Y-14109537D01*
X12273795Y-14105353D01*
X12290224Y-14099492D01*
X12306389Y-14092217D01*
X12321734Y-14083790D01*
X12335706Y-14074473D01*
X12341936Y-14069619D01*
X12347259Y-14064959D01*
X12353367Y-14059177D01*
X12359679Y-14052858D01*
X12365617Y-14046587D01*
X12370603Y-14040949D01*
X12372087Y-14039144D01*
X12375101Y-14035400D01*
X12377713Y-14032193D01*
X12379504Y-14030037D01*
X12379892Y-14029589D01*
X12380135Y-14029639D01*
X12380351Y-14030438D01*
X12380541Y-14032100D01*
X12380708Y-14034738D01*
X12380851Y-14038468D01*
X12380974Y-14043401D01*
X12381077Y-14049653D01*
X12381162Y-14057337D01*
X12381230Y-14066566D01*
X12381283Y-14077455D01*
X12381322Y-14090117D01*
X12381349Y-14104667D01*
X12381365Y-14121217D01*
X12381371Y-14139881D01*
X12381371Y-14145056D01*
X12381371Y-14262176D01*
X12372336Y-14250943D01*
X12358287Y-14235261D01*
X12342696Y-14221168D01*
X12325729Y-14208774D01*
X12307550Y-14198190D01*
X12288326Y-14189526D01*
X12272680Y-14184164D01*
X12269185Y-14183114D01*
X12266049Y-14182173D01*
X12263137Y-14181333D01*
X12260314Y-14180589D01*
X12257444Y-14179933D01*
X12254394Y-14179360D01*
X12251028Y-14178863D01*
X12247212Y-14178436D01*
X12242810Y-14178073D01*
X12237687Y-14177766D01*
X12231709Y-14177509D01*
X12224741Y-14177297D01*
X12216648Y-14177122D01*
X12207294Y-14176978D01*
X12196546Y-14176859D01*
X12184267Y-14176759D01*
X12170324Y-14176671D01*
X12154582Y-14176588D01*
X12136904Y-14176504D01*
X12117158Y-14176413D01*
X12108744Y-14176374D01*
X11974407Y-14175740D01*
X11973806Y-14114216D01*
X12098447Y-14114216D01*
X12098447Y-14114216D01*
G37*
X12098447Y-14114216D02*
X12119006Y-14114212D01*
X12137448Y-14114200D01*
X12153912Y-14114173D01*
X12168537Y-14114130D01*
X12181462Y-14114064D01*
X12192829Y-14113973D01*
X12202776Y-14113852D01*
X12211443Y-14113696D01*
X12218970Y-14113503D01*
X12225497Y-14113268D01*
X12231163Y-14112986D01*
X12236107Y-14112653D01*
X12240471Y-14112267D01*
X12244393Y-14111821D01*
X12248013Y-14111313D01*
X12251471Y-14110738D01*
X12254906Y-14110092D01*
X12257655Y-14109537D01*
X12273795Y-14105353D01*
X12290224Y-14099492D01*
X12306389Y-14092217D01*
X12321734Y-14083790D01*
X12335706Y-14074473D01*
X12341936Y-14069619D01*
X12347259Y-14064959D01*
X12353367Y-14059177D01*
X12359679Y-14052858D01*
X12365617Y-14046587D01*
X12370603Y-14040949D01*
X12372087Y-14039144D01*
X12375101Y-14035400D01*
X12377713Y-14032193D01*
X12379504Y-14030037D01*
X12379892Y-14029589D01*
X12380135Y-14029639D01*
X12380351Y-14030438D01*
X12380541Y-14032100D01*
X12380708Y-14034738D01*
X12380851Y-14038468D01*
X12380974Y-14043401D01*
X12381077Y-14049653D01*
X12381162Y-14057337D01*
X12381230Y-14066566D01*
X12381283Y-14077455D01*
X12381322Y-14090117D01*
X12381349Y-14104667D01*
X12381365Y-14121217D01*
X12381371Y-14139881D01*
X12381371Y-14145056D01*
X12381371Y-14262176D01*
X12372336Y-14250943D01*
X12358287Y-14235261D01*
X12342696Y-14221168D01*
X12325729Y-14208774D01*
X12307550Y-14198190D01*
X12288326Y-14189526D01*
X12272680Y-14184164D01*
X12269185Y-14183114D01*
X12266049Y-14182173D01*
X12263137Y-14181333D01*
X12260314Y-14180589D01*
X12257444Y-14179933D01*
X12254394Y-14179360D01*
X12251028Y-14178863D01*
X12247212Y-14178436D01*
X12242810Y-14178073D01*
X12237687Y-14177766D01*
X12231709Y-14177509D01*
X12224741Y-14177297D01*
X12216648Y-14177122D01*
X12207294Y-14176978D01*
X12196546Y-14176859D01*
X12184267Y-14176759D01*
X12170324Y-14176671D01*
X12154582Y-14176588D01*
X12136904Y-14176504D01*
X12117158Y-14176413D01*
X12108744Y-14176374D01*
X11974407Y-14175740D01*
X11973806Y-14114216D01*
X12098447Y-14114216D01*
G36*
X11974122Y-14471791D02*
X11974407Y-14234442D01*
X12023796Y-14234148D01*
X12034110Y-14234101D01*
X12043694Y-14234086D01*
X12052320Y-14234100D01*
X12059759Y-14234142D01*
X12065782Y-14234210D01*
X12070160Y-14234303D01*
X12072666Y-14234419D01*
X12073184Y-14234510D01*
X12072480Y-14235584D01*
X12070589Y-14237919D01*
X12067849Y-14241107D01*
X12066194Y-14242974D01*
X12054483Y-14257528D01*
X12043875Y-14273657D01*
X12034645Y-14290851D01*
X12027065Y-14308601D01*
X12021407Y-14326396D01*
X12021238Y-14327048D01*
X12018269Y-14341209D01*
X12016259Y-14356447D01*
X12015244Y-14372071D01*
X12015260Y-14387394D01*
X12016342Y-14401726D01*
X12017103Y-14407162D01*
X12021603Y-14428233D01*
X12028080Y-14448379D01*
X12036436Y-14467493D01*
X12046572Y-14485469D01*
X12058391Y-14502196D01*
X12071795Y-14517569D01*
X12086687Y-14531479D01*
X12102969Y-14543818D01*
X12120543Y-14554479D01*
X12139311Y-14563354D01*
X12159176Y-14570335D01*
X12167001Y-14572471D01*
X12177064Y-14574791D01*
X12186448Y-14576440D01*
X12195808Y-14577483D01*
X12205799Y-14577983D01*
X12217078Y-14578005D01*
X12222470Y-14577884D01*
X12239580Y-14576874D01*
X12255222Y-14574767D01*
X12269978Y-14571418D01*
X12284426Y-14566681D01*
X12299147Y-14560413D01*
X12306032Y-14557046D01*
X12323822Y-14547000D01*
X12339973Y-14535660D01*
X12354805Y-14522764D01*
X12368637Y-14508052D01*
X12374382Y-14501068D01*
X12381371Y-14492245D01*
X12381371Y-14709140D01*
X11973837Y-14709140D01*
X11974122Y-14471791D01*
X11974122Y-14471791D01*
G37*
X11974122Y-14471791D02*
X11974407Y-14234442D01*
X12023796Y-14234148D01*
X12034110Y-14234101D01*
X12043694Y-14234086D01*
X12052320Y-14234100D01*
X12059759Y-14234142D01*
X12065782Y-14234210D01*
X12070160Y-14234303D01*
X12072666Y-14234419D01*
X12073184Y-14234510D01*
X12072480Y-14235584D01*
X12070589Y-14237919D01*
X12067849Y-14241107D01*
X12066194Y-14242974D01*
X12054483Y-14257528D01*
X12043875Y-14273657D01*
X12034645Y-14290851D01*
X12027065Y-14308601D01*
X12021407Y-14326396D01*
X12021238Y-14327048D01*
X12018269Y-14341209D01*
X12016259Y-14356447D01*
X12015244Y-14372071D01*
X12015260Y-14387394D01*
X12016342Y-14401726D01*
X12017103Y-14407162D01*
X12021603Y-14428233D01*
X12028080Y-14448379D01*
X12036436Y-14467493D01*
X12046572Y-14485469D01*
X12058391Y-14502196D01*
X12071795Y-14517569D01*
X12086687Y-14531479D01*
X12102969Y-14543818D01*
X12120543Y-14554479D01*
X12139311Y-14563354D01*
X12159176Y-14570335D01*
X12167001Y-14572471D01*
X12177064Y-14574791D01*
X12186448Y-14576440D01*
X12195808Y-14577483D01*
X12205799Y-14577983D01*
X12217078Y-14578005D01*
X12222470Y-14577884D01*
X12239580Y-14576874D01*
X12255222Y-14574767D01*
X12269978Y-14571418D01*
X12284426Y-14566681D01*
X12299147Y-14560413D01*
X12306032Y-14557046D01*
X12323822Y-14547000D01*
X12339973Y-14535660D01*
X12354805Y-14522764D01*
X12368637Y-14508052D01*
X12374382Y-14501068D01*
X12381371Y-14492245D01*
X12381371Y-14709140D01*
X11973837Y-14709140D01*
X11974122Y-14471791D01*
G36*
X11904133Y-15158844D02*
X11917072Y-15156175D01*
X11933501Y-15152898D01*
X11942291Y-15151185D01*
X11965631Y-15146682D01*
X11975099Y-15122266D01*
X11980088Y-15108865D01*
X11983519Y-15098632D01*
X11984567Y-15094321D01*
X11982279Y-15089380D01*
X11976239Y-15079575D01*
X11967675Y-15066886D01*
X11966247Y-15064854D01*
X11956936Y-15051556D01*
X11949397Y-15040583D01*
X11945116Y-15034096D01*
X11944899Y-15033736D01*
X11946283Y-15028674D01*
X11952270Y-15019578D01*
X11961315Y-15008237D01*
X11971877Y-14996443D01*
X11982413Y-14985986D01*
X11991378Y-14978654D01*
X11993506Y-14977346D01*
X11999291Y-14976936D01*
X12008664Y-14980824D01*
X12022751Y-14989544D01*
X12030854Y-14995136D01*
X12061380Y-15016643D01*
X12088634Y-15005060D01*
X12105706Y-14996756D01*
X12115283Y-14989389D01*
X12117979Y-14984447D01*
X12119855Y-14975645D01*
X12122649Y-14961746D01*
X12125344Y-14947900D01*
X12130617Y-14920383D01*
X12211050Y-14920383D01*
X12217863Y-14955418D01*
X12221150Y-14971529D01*
X12224001Y-14984073D01*
X12225945Y-14991032D01*
X12226329Y-14991779D01*
X12230810Y-14993879D01*
X12241018Y-14998144D01*
X12254790Y-15003670D01*
X12255500Y-15003950D01*
X12283017Y-15014796D01*
X12308417Y-14996895D01*
X12321476Y-14987765D01*
X12332092Y-14980478D01*
X12338127Y-14976498D01*
X12338369Y-14976354D01*
X12343117Y-14978022D01*
X12352135Y-14984668D01*
X12363905Y-14995097D01*
X12371229Y-15002240D01*
X12399537Y-15030767D01*
X12380435Y-15057893D01*
X12369566Y-15074119D01*
X12363649Y-15085655D01*
X12362211Y-15094315D01*
X12364783Y-15101910D01*
X12367818Y-15106401D01*
X12372629Y-15113832D01*
X12374033Y-15117521D01*
X12370326Y-15120034D01*
X12360078Y-15125115D01*
X12344598Y-15132164D01*
X12325194Y-15140578D01*
X12310776Y-15146627D01*
X12247519Y-15172829D01*
X12231719Y-15155340D01*
X12214979Y-15139294D01*
X12198908Y-15129922D01*
X12181103Y-15126009D01*
X12173024Y-15125700D01*
X12147057Y-15129341D01*
X12125287Y-15140307D01*
X12115011Y-15149520D01*
X12101264Y-15169621D01*
X12094826Y-15191346D01*
X12095094Y-15213305D01*
X12101463Y-15234107D01*
X12113330Y-15252362D01*
X12130092Y-15266682D01*
X12151146Y-15275674D01*
X12170833Y-15278100D01*
X12193542Y-15274992D01*
X12213519Y-15265099D01*
X12231401Y-15248833D01*
X12247519Y-15230971D01*
X12310776Y-15257173D01*
X12332063Y-15266160D01*
X12350295Y-15274183D01*
X12364166Y-15280639D01*
X12372365Y-15284926D01*
X12374033Y-15286279D01*
X12371741Y-15291556D01*
X12367818Y-15297399D01*
X12362525Y-15307256D01*
X12362834Y-15317228D01*
X12369069Y-15329589D01*
X12373267Y-15335673D01*
X12385115Y-15351933D01*
X12392406Y-15363094D01*
X12395057Y-15371242D01*
X12392985Y-15378468D01*
X12386106Y-15386859D01*
X12374338Y-15398503D01*
X12370620Y-15402170D01*
X12341967Y-15430603D01*
X12314840Y-15411502D01*
X12301037Y-15402390D01*
X12289170Y-15395640D01*
X12281452Y-15392490D01*
X12280638Y-15392400D01*
X12273926Y-15393862D01*
X12262348Y-15397537D01*
X12248844Y-15402358D01*
X12236353Y-15407261D01*
X12227815Y-15411178D01*
X12226343Y-15412090D01*
X12224823Y-15416517D01*
X12222194Y-15427252D01*
X12218933Y-15442287D01*
X12217697Y-15448368D01*
X12210691Y-15483417D01*
X12130617Y-15483417D01*
X12125344Y-15455900D01*
X12122279Y-15440181D01*
X12119562Y-15426734D01*
X12117979Y-15419353D01*
X12113189Y-15412301D01*
X12101496Y-15404724D01*
X12088601Y-15398726D01*
X12061314Y-15387129D01*
X12034582Y-15405805D01*
X12021130Y-15415153D01*
X12010072Y-15422747D01*
X12003507Y-15427147D01*
X12003009Y-15427461D01*
X11998025Y-15426042D01*
X11989251Y-15419719D01*
X11978302Y-15410103D01*
X11966793Y-15398810D01*
X11956336Y-15387452D01*
X11948547Y-15377643D01*
X11945039Y-15370995D01*
X11945162Y-15369639D01*
X11948836Y-15364029D01*
X11955962Y-15353641D01*
X11965082Y-15340597D01*
X11966247Y-15338946D01*
X11975084Y-15325994D01*
X11981582Y-15315630D01*
X11984511Y-15309833D01*
X11984567Y-15309479D01*
X11983135Y-15303929D01*
X11979415Y-15293056D01*
X11975099Y-15281534D01*
X11965631Y-15257118D01*
X11942291Y-15252615D01*
X11926000Y-15249417D01*
X11910541Y-15246293D01*
X11904133Y-15244956D01*
X11889317Y-15241799D01*
X11889317Y-15162001D01*
X11904133Y-15158844D01*
X11904133Y-15158844D01*
G37*
X11904133Y-15158844D02*
X11917072Y-15156175D01*
X11933501Y-15152898D01*
X11942291Y-15151185D01*
X11965631Y-15146682D01*
X11975099Y-15122266D01*
X11980088Y-15108865D01*
X11983519Y-15098632D01*
X11984567Y-15094321D01*
X11982279Y-15089380D01*
X11976239Y-15079575D01*
X11967675Y-15066886D01*
X11966247Y-15064854D01*
X11956936Y-15051556D01*
X11949397Y-15040583D01*
X11945116Y-15034096D01*
X11944899Y-15033736D01*
X11946283Y-15028674D01*
X11952270Y-15019578D01*
X11961315Y-15008237D01*
X11971877Y-14996443D01*
X11982413Y-14985986D01*
X11991378Y-14978654D01*
X11993506Y-14977346D01*
X11999291Y-14976936D01*
X12008664Y-14980824D01*
X12022751Y-14989544D01*
X12030854Y-14995136D01*
X12061380Y-15016643D01*
X12088634Y-15005060D01*
X12105706Y-14996756D01*
X12115283Y-14989389D01*
X12117979Y-14984447D01*
X12119855Y-14975645D01*
X12122649Y-14961746D01*
X12125344Y-14947900D01*
X12130617Y-14920383D01*
X12211050Y-14920383D01*
X12217863Y-14955418D01*
X12221150Y-14971529D01*
X12224001Y-14984073D01*
X12225945Y-14991032D01*
X12226329Y-14991779D01*
X12230810Y-14993879D01*
X12241018Y-14998144D01*
X12254790Y-15003670D01*
X12255500Y-15003950D01*
X12283017Y-15014796D01*
X12308417Y-14996895D01*
X12321476Y-14987765D01*
X12332092Y-14980478D01*
X12338127Y-14976498D01*
X12338369Y-14976354D01*
X12343117Y-14978022D01*
X12352135Y-14984668D01*
X12363905Y-14995097D01*
X12371229Y-15002240D01*
X12399537Y-15030767D01*
X12380435Y-15057893D01*
X12369566Y-15074119D01*
X12363649Y-15085655D01*
X12362211Y-15094315D01*
X12364783Y-15101910D01*
X12367818Y-15106401D01*
X12372629Y-15113832D01*
X12374033Y-15117521D01*
X12370326Y-15120034D01*
X12360078Y-15125115D01*
X12344598Y-15132164D01*
X12325194Y-15140578D01*
X12310776Y-15146627D01*
X12247519Y-15172829D01*
X12231719Y-15155340D01*
X12214979Y-15139294D01*
X12198908Y-15129922D01*
X12181103Y-15126009D01*
X12173024Y-15125700D01*
X12147057Y-15129341D01*
X12125287Y-15140307D01*
X12115011Y-15149520D01*
X12101264Y-15169621D01*
X12094826Y-15191346D01*
X12095094Y-15213305D01*
X12101463Y-15234107D01*
X12113330Y-15252362D01*
X12130092Y-15266682D01*
X12151146Y-15275674D01*
X12170833Y-15278100D01*
X12193542Y-15274992D01*
X12213519Y-15265099D01*
X12231401Y-15248833D01*
X12247519Y-15230971D01*
X12310776Y-15257173D01*
X12332063Y-15266160D01*
X12350295Y-15274183D01*
X12364166Y-15280639D01*
X12372365Y-15284926D01*
X12374033Y-15286279D01*
X12371741Y-15291556D01*
X12367818Y-15297399D01*
X12362525Y-15307256D01*
X12362834Y-15317228D01*
X12369069Y-15329589D01*
X12373267Y-15335673D01*
X12385115Y-15351933D01*
X12392406Y-15363094D01*
X12395057Y-15371242D01*
X12392985Y-15378468D01*
X12386106Y-15386859D01*
X12374338Y-15398503D01*
X12370620Y-15402170D01*
X12341967Y-15430603D01*
X12314840Y-15411502D01*
X12301037Y-15402390D01*
X12289170Y-15395640D01*
X12281452Y-15392490D01*
X12280638Y-15392400D01*
X12273926Y-15393862D01*
X12262348Y-15397537D01*
X12248844Y-15402358D01*
X12236353Y-15407261D01*
X12227815Y-15411178D01*
X12226343Y-15412090D01*
X12224823Y-15416517D01*
X12222194Y-15427252D01*
X12218933Y-15442287D01*
X12217697Y-15448368D01*
X12210691Y-15483417D01*
X12130617Y-15483417D01*
X12125344Y-15455900D01*
X12122279Y-15440181D01*
X12119562Y-15426734D01*
X12117979Y-15419353D01*
X12113189Y-15412301D01*
X12101496Y-15404724D01*
X12088601Y-15398726D01*
X12061314Y-15387129D01*
X12034582Y-15405805D01*
X12021130Y-15415153D01*
X12010072Y-15422747D01*
X12003507Y-15427147D01*
X12003009Y-15427461D01*
X11998025Y-15426042D01*
X11989251Y-15419719D01*
X11978302Y-15410103D01*
X11966793Y-15398810D01*
X11956336Y-15387452D01*
X11948547Y-15377643D01*
X11945039Y-15370995D01*
X11945162Y-15369639D01*
X11948836Y-15364029D01*
X11955962Y-15353641D01*
X11965082Y-15340597D01*
X11966247Y-15338946D01*
X11975084Y-15325994D01*
X11981582Y-15315630D01*
X11984511Y-15309833D01*
X11984567Y-15309479D01*
X11983135Y-15303929D01*
X11979415Y-15293056D01*
X11975099Y-15281534D01*
X11965631Y-15257118D01*
X11942291Y-15252615D01*
X11926000Y-15249417D01*
X11910541Y-15246293D01*
X11904133Y-15244956D01*
X11889317Y-15241799D01*
X11889317Y-15162001D01*
X11904133Y-15158844D01*
G36*
X12458304Y-14854721D02*
X12468326Y-14843990D01*
X12482296Y-14838269D01*
X12487548Y-14837833D01*
X12501033Y-14837833D01*
X12501033Y-14861469D01*
X12502037Y-14876424D01*
X12505053Y-14883157D01*
X12510083Y-14881672D01*
X12515517Y-14874638D01*
X12517616Y-14865964D01*
X12514518Y-14858683D01*
X12511162Y-14850584D01*
X12513917Y-14843974D01*
X12514369Y-14843417D01*
X12518895Y-14839632D01*
X12523452Y-14841906D01*
X12527312Y-14846334D01*
X12534089Y-14860771D01*
X12533332Y-14876240D01*
X12525200Y-14890233D01*
X12524509Y-14890942D01*
X12511148Y-14899432D01*
X12495721Y-14902058D01*
X12481938Y-14899758D01*
X12481938Y-14882488D01*
X12483747Y-14879059D01*
X12484100Y-14870234D01*
X12483300Y-14860179D01*
X12480390Y-14856948D01*
X12477750Y-14857469D01*
X12472279Y-14863269D01*
X12471400Y-14867401D01*
X12474456Y-14876338D01*
X12477750Y-14880167D01*
X12481938Y-14882488D01*
X12481938Y-14899758D01*
X12480285Y-14899483D01*
X12466897Y-14892368D01*
X12457614Y-14881376D01*
X12454467Y-14868397D01*
X12458304Y-14854721D01*
X12458304Y-14854721D01*
G37*
X12458304Y-14854721D02*
X12468326Y-14843990D01*
X12482296Y-14838269D01*
X12487548Y-14837833D01*
X12501033Y-14837833D01*
X12501033Y-14861469D01*
X12502037Y-14876424D01*
X12505053Y-14883157D01*
X12510083Y-14881672D01*
X12515517Y-14874638D01*
X12517616Y-14865964D01*
X12514518Y-14858683D01*
X12511162Y-14850584D01*
X12513917Y-14843974D01*
X12514369Y-14843417D01*
X12518895Y-14839632D01*
X12523452Y-14841906D01*
X12527312Y-14846334D01*
X12534089Y-14860771D01*
X12533332Y-14876240D01*
X12525200Y-14890233D01*
X12524509Y-14890942D01*
X12511148Y-14899432D01*
X12495721Y-14902058D01*
X12481938Y-14899758D01*
X12481938Y-14882488D01*
X12483747Y-14879059D01*
X12484100Y-14870234D01*
X12483300Y-14860179D01*
X12480390Y-14856948D01*
X12477750Y-14857469D01*
X12472279Y-14863269D01*
X12471400Y-14867401D01*
X12474456Y-14876338D01*
X12477750Y-14880167D01*
X12481938Y-14882488D01*
X12481938Y-14899758D01*
X12480285Y-14899483D01*
X12466897Y-14892368D01*
X12457614Y-14881376D01*
X12454467Y-14868397D01*
X12458304Y-14854721D01*
G36*
X12456326Y-14919569D02*
X12460358Y-14911827D01*
X12465847Y-14906445D01*
X12471320Y-14908046D01*
X12472869Y-14909262D01*
X12477170Y-14915127D01*
X12474703Y-14922411D01*
X12474416Y-14922876D01*
X12471792Y-14933000D01*
X12476652Y-14941183D01*
X12488044Y-14946237D01*
X12493777Y-14947081D01*
X12507019Y-14945438D01*
X12514822Y-14938801D01*
X12516028Y-14928604D01*
X12513686Y-14922412D01*
X12511165Y-14912669D01*
X12514894Y-14906629D01*
X12519654Y-14905567D01*
X12525221Y-14909198D01*
X12530631Y-14917959D01*
X12534202Y-14928651D01*
X12534771Y-14934341D01*
X12532573Y-14943998D01*
X12530106Y-14949355D01*
X12520939Y-14958127D01*
X12506921Y-14964432D01*
X12491589Y-14966961D01*
X12484234Y-14966342D01*
X12469945Y-14959857D01*
X12459858Y-14948362D01*
X12454981Y-14934164D01*
X12456326Y-14919569D01*
X12456326Y-14919569D01*
G37*
X12456326Y-14919569D02*
X12460358Y-14911827D01*
X12465847Y-14906445D01*
X12471320Y-14908046D01*
X12472869Y-14909262D01*
X12477170Y-14915127D01*
X12474703Y-14922411D01*
X12474416Y-14922876D01*
X12471792Y-14933000D01*
X12476652Y-14941183D01*
X12488044Y-14946237D01*
X12493777Y-14947081D01*
X12507019Y-14945438D01*
X12514822Y-14938801D01*
X12516028Y-14928604D01*
X12513686Y-14922412D01*
X12511165Y-14912669D01*
X12514894Y-14906629D01*
X12519654Y-14905567D01*
X12525221Y-14909198D01*
X12530631Y-14917959D01*
X12534202Y-14928651D01*
X12534771Y-14934341D01*
X12532573Y-14943998D01*
X12530106Y-14949355D01*
X12520939Y-14958127D01*
X12506921Y-14964432D01*
X12491589Y-14966961D01*
X12484234Y-14966342D01*
X12469945Y-14959857D01*
X12459858Y-14948362D01*
X12454981Y-14934164D01*
X12456326Y-14919569D01*
G36*
X12455941Y-14979089D02*
X12457630Y-14969556D01*
X12459233Y-14966620D01*
X12465602Y-14966655D01*
X12471285Y-14971702D01*
X12473150Y-14978668D01*
X12472791Y-14980013D01*
X12472723Y-14989056D01*
X12480553Y-14995148D01*
X12496231Y-14998264D01*
X12507902Y-14998700D01*
X12522623Y-14998974D01*
X12530771Y-15000190D01*
X12534232Y-15002940D01*
X12534900Y-15007167D01*
X12534285Y-15011124D01*
X12531387Y-15013612D01*
X12524625Y-15014968D01*
X12512417Y-15015529D01*
X12495240Y-15015633D01*
X12455580Y-15015633D01*
X12455371Y-14992385D01*
X12455941Y-14979089D01*
X12455941Y-14979089D01*
G37*
X12455941Y-14979089D02*
X12457630Y-14969556D01*
X12459233Y-14966620D01*
X12465602Y-14966655D01*
X12471285Y-14971702D01*
X12473150Y-14978668D01*
X12472791Y-14980013D01*
X12472723Y-14989056D01*
X12480553Y-14995148D01*
X12496231Y-14998264D01*
X12507902Y-14998700D01*
X12522623Y-14998974D01*
X12530771Y-15000190D01*
X12534232Y-15002940D01*
X12534900Y-15007167D01*
X12534285Y-15011124D01*
X12531387Y-15013612D01*
X12524625Y-15014968D01*
X12512417Y-15015529D01*
X12495240Y-15015633D01*
X12455580Y-15015633D01*
X12455371Y-14992385D01*
X12455941Y-14979089D01*
G36*
X12455080Y-15037079D02*
X12457975Y-15034591D01*
X12464730Y-15033235D01*
X12476925Y-15032672D01*
X12494195Y-15032567D01*
X12533923Y-15032567D01*
X12533923Y-15053868D01*
X12531653Y-15073580D01*
X12526322Y-15084559D01*
X12521208Y-15089522D01*
X12514387Y-15092371D01*
X12503564Y-15093661D01*
X12487652Y-15093950D01*
X12471626Y-15093758D01*
X12462189Y-15092814D01*
X12457465Y-15090568D01*
X12455578Y-15086469D01*
X12455230Y-15084425D01*
X12455037Y-15079445D01*
X12457399Y-15076595D01*
X12464067Y-15075281D01*
X12476795Y-15074914D01*
X12483453Y-15074900D01*
X12501379Y-15074187D01*
X12511844Y-15071678D01*
X12515762Y-15066817D01*
X12514046Y-15059046D01*
X12513012Y-15056908D01*
X12509029Y-15052690D01*
X12501238Y-15050393D01*
X12487645Y-15049543D01*
X12481834Y-15049500D01*
X12466992Y-15049233D01*
X12458733Y-15048046D01*
X12455184Y-15045359D01*
X12454467Y-15041033D01*
X12455080Y-15037079D01*
X12455080Y-15037079D01*
G37*
X12455080Y-15037079D02*
X12457975Y-15034591D01*
X12464730Y-15033235D01*
X12476925Y-15032672D01*
X12494195Y-15032567D01*
X12533923Y-15032567D01*
X12533923Y-15053868D01*
X12531653Y-15073580D01*
X12526322Y-15084559D01*
X12521208Y-15089522D01*
X12514387Y-15092371D01*
X12503564Y-15093661D01*
X12487652Y-15093950D01*
X12471626Y-15093758D01*
X12462189Y-15092814D01*
X12457465Y-15090568D01*
X12455578Y-15086469D01*
X12455230Y-15084425D01*
X12455037Y-15079445D01*
X12457399Y-15076595D01*
X12464067Y-15075281D01*
X12476795Y-15074914D01*
X12483453Y-15074900D01*
X12501379Y-15074187D01*
X12511844Y-15071678D01*
X12515762Y-15066817D01*
X12514046Y-15059046D01*
X12513012Y-15056908D01*
X12509029Y-15052690D01*
X12501238Y-15050393D01*
X12487645Y-15049543D01*
X12481834Y-15049500D01*
X12466992Y-15049233D01*
X12458733Y-15048046D01*
X12455184Y-15045359D01*
X12454467Y-15041033D01*
X12455080Y-15037079D01*
G36*
X12458213Y-15122871D02*
X12468650Y-15111604D01*
X12484576Y-15105413D01*
X12494683Y-15104533D01*
X12512790Y-15107533D01*
X12525907Y-15115590D01*
X12533183Y-15127291D01*
X12533772Y-15141223D01*
X12526822Y-15155972D01*
X12526126Y-15156879D01*
X12519624Y-15163560D01*
X12511776Y-15166904D01*
X12499513Y-15167988D01*
X12495320Y-15168025D01*
X12495320Y-15151100D01*
X12507370Y-15148493D01*
X12514340Y-15142131D01*
X12515679Y-15134200D01*
X12510839Y-15126888D01*
X12502371Y-15123009D01*
X12490339Y-15122732D01*
X12481671Y-15125072D01*
X12473129Y-15131729D01*
X12471800Y-15139263D01*
X12476817Y-15146022D01*
X12487312Y-15150352D01*
X12495320Y-15151100D01*
X12495320Y-15168025D01*
X12494376Y-15168033D01*
X12474577Y-15165661D01*
X12461607Y-15158435D01*
X12455242Y-15146189D01*
X12454467Y-15138208D01*
X12458213Y-15122871D01*
X12458213Y-15122871D01*
G37*
X12458213Y-15122871D02*
X12468650Y-15111604D01*
X12484576Y-15105413D01*
X12494683Y-15104533D01*
X12512790Y-15107533D01*
X12525907Y-15115590D01*
X12533183Y-15127291D01*
X12533772Y-15141223D01*
X12526822Y-15155972D01*
X12526126Y-15156879D01*
X12519624Y-15163560D01*
X12511776Y-15166904D01*
X12499513Y-15167988D01*
X12495320Y-15168025D01*
X12495320Y-15151100D01*
X12507370Y-15148493D01*
X12514340Y-15142131D01*
X12515679Y-15134200D01*
X12510839Y-15126888D01*
X12502371Y-15123009D01*
X12490339Y-15122732D01*
X12481671Y-15125072D01*
X12473129Y-15131729D01*
X12471800Y-15139263D01*
X12476817Y-15146022D01*
X12487312Y-15150352D01*
X12495320Y-15151100D01*
X12495320Y-15168025D01*
X12494376Y-15168033D01*
X12474577Y-15165661D01*
X12461607Y-15158435D01*
X12455242Y-15146189D01*
X12454467Y-15138208D01*
X12458213Y-15122871D01*
G36*
X12455469Y-15198691D02*
X12459364Y-15187316D01*
X12464654Y-15179989D01*
X12469479Y-15179949D01*
X12472793Y-15186036D01*
X12473552Y-15197090D01*
X12472947Y-15202394D01*
X12471854Y-15213212D01*
X12473590Y-15217974D01*
X12477209Y-15218833D01*
X12482682Y-15215486D01*
X12484100Y-15207075D01*
X12487227Y-15192016D01*
X12495580Y-15181218D01*
X12507618Y-15176558D01*
X12509222Y-15176500D01*
X12519762Y-15178493D01*
X12526120Y-15182472D01*
X12531847Y-15195060D01*
X12533035Y-15211228D01*
X12529540Y-15227324D01*
X12528009Y-15230730D01*
X12522903Y-15239525D01*
X12519004Y-15241628D01*
X12514784Y-15238632D01*
X12510919Y-15231628D01*
X12513320Y-15223839D01*
X12517382Y-15211777D01*
X12517079Y-15201048D01*
X12513260Y-15195257D01*
X12507547Y-15195476D01*
X12503142Y-15202352D01*
X12501127Y-15214080D01*
X12501098Y-15215561D01*
X12497398Y-15227654D01*
X12488147Y-15235555D01*
X12475890Y-15237549D01*
X12470432Y-15236203D01*
X12459734Y-15228069D01*
X12454615Y-15214984D01*
X12455469Y-15198691D01*
X12455469Y-15198691D01*
G37*
X12455469Y-15198691D02*
X12459364Y-15187316D01*
X12464654Y-15179989D01*
X12469479Y-15179949D01*
X12472793Y-15186036D01*
X12473552Y-15197090D01*
X12472947Y-15202394D01*
X12471854Y-15213212D01*
X12473590Y-15217974D01*
X12477209Y-15218833D01*
X12482682Y-15215486D01*
X12484100Y-15207075D01*
X12487227Y-15192016D01*
X12495580Y-15181218D01*
X12507618Y-15176558D01*
X12509222Y-15176500D01*
X12519762Y-15178493D01*
X12526120Y-15182472D01*
X12531847Y-15195060D01*
X12533035Y-15211228D01*
X12529540Y-15227324D01*
X12528009Y-15230730D01*
X12522903Y-15239525D01*
X12519004Y-15241628D01*
X12514784Y-15238632D01*
X12510919Y-15231628D01*
X12513320Y-15223839D01*
X12517382Y-15211777D01*
X12517079Y-15201048D01*
X12513260Y-15195257D01*
X12507547Y-15195476D01*
X12503142Y-15202352D01*
X12501127Y-15214080D01*
X12501098Y-15215561D01*
X12497398Y-15227654D01*
X12488147Y-15235555D01*
X12475890Y-15237549D01*
X12470432Y-15236203D01*
X12459734Y-15228069D01*
X12454615Y-15214984D01*
X12455469Y-15198691D01*
G36*
X12456314Y-15304844D02*
X12460404Y-15293277D01*
X12468956Y-15286405D01*
X12483292Y-15283125D01*
X12503150Y-15282333D01*
X12519402Y-15282541D01*
X12528938Y-15283469D01*
X12533509Y-15285572D01*
X12534860Y-15289306D01*
X12534900Y-15290607D01*
X12533903Y-15295110D01*
X12529693Y-15297804D01*
X12520444Y-15299307D01*
X12506767Y-15300132D01*
X12490175Y-15301449D01*
X12480096Y-15303925D01*
X12474601Y-15308086D01*
X12473959Y-15309040D01*
X12472462Y-15317273D01*
X12478618Y-15323571D01*
X12491759Y-15327567D01*
X12510309Y-15328900D01*
X12524219Y-15329229D01*
X12531636Y-15330668D01*
X12534523Y-15333892D01*
X12534900Y-15337367D01*
X12534285Y-15341324D01*
X12531387Y-15343812D01*
X12524625Y-15345168D01*
X12512417Y-15345729D01*
X12495240Y-15345833D01*
X12455580Y-15345833D01*
X12455368Y-15322205D01*
X12456314Y-15304844D01*
X12456314Y-15304844D01*
G37*
X12456314Y-15304844D02*
X12460404Y-15293277D01*
X12468956Y-15286405D01*
X12483292Y-15283125D01*
X12503150Y-15282333D01*
X12519402Y-15282541D01*
X12528938Y-15283469D01*
X12533509Y-15285572D01*
X12534860Y-15289306D01*
X12534900Y-15290607D01*
X12533903Y-15295110D01*
X12529693Y-15297804D01*
X12520444Y-15299307D01*
X12506767Y-15300132D01*
X12490175Y-15301449D01*
X12480096Y-15303925D01*
X12474601Y-15308086D01*
X12473959Y-15309040D01*
X12472462Y-15317273D01*
X12478618Y-15323571D01*
X12491759Y-15327567D01*
X12510309Y-15328900D01*
X12524219Y-15329229D01*
X12531636Y-15330668D01*
X12534523Y-15333892D01*
X12534900Y-15337367D01*
X12534285Y-15341324D01*
X12531387Y-15343812D01*
X12524625Y-15345168D01*
X12512417Y-15345729D01*
X12495240Y-15345833D01*
X12455580Y-15345833D01*
X12455368Y-15322205D01*
X12456314Y-15304844D01*
G36*
X12458466Y-15372522D02*
X12468370Y-15362158D01*
X12483708Y-15355989D01*
X12485158Y-15355734D01*
X12501033Y-15353192D01*
X12501033Y-15377029D01*
X12501630Y-15391455D01*
X12503664Y-15398917D01*
X12507098Y-15400867D01*
X12513290Y-15397327D01*
X12516349Y-15388912D01*
X12515326Y-15378927D01*
X12514166Y-15376275D01*
X12512312Y-15367478D01*
X12514778Y-15363415D01*
X12520949Y-15359037D01*
X12525692Y-15361468D01*
X12529987Y-15369316D01*
X12534493Y-15384539D01*
X12532027Y-15397502D01*
X12526382Y-15406321D01*
X12513012Y-15416880D01*
X12495765Y-15420684D01*
X12478808Y-15417967D01*
X12478808Y-15399808D01*
X12482823Y-15397605D01*
X12484100Y-15388167D01*
X12482702Y-15378463D01*
X12478808Y-15376525D01*
X12474676Y-15381627D01*
X12473517Y-15388167D01*
X12475512Y-15396545D01*
X12478808Y-15399808D01*
X12478808Y-15417967D01*
X12477732Y-15417794D01*
X12463626Y-15409716D01*
X12455865Y-15398207D01*
X12454221Y-15385174D01*
X12458466Y-15372522D01*
X12458466Y-15372522D01*
G37*
X12458466Y-15372522D02*
X12468370Y-15362158D01*
X12483708Y-15355989D01*
X12485158Y-15355734D01*
X12501033Y-15353192D01*
X12501033Y-15377029D01*
X12501630Y-15391455D01*
X12503664Y-15398917D01*
X12507098Y-15400867D01*
X12513290Y-15397327D01*
X12516349Y-15388912D01*
X12515326Y-15378927D01*
X12514166Y-15376275D01*
X12512312Y-15367478D01*
X12514778Y-15363415D01*
X12520949Y-15359037D01*
X12525692Y-15361468D01*
X12529987Y-15369316D01*
X12534493Y-15384539D01*
X12532027Y-15397502D01*
X12526382Y-15406321D01*
X12513012Y-15416880D01*
X12495765Y-15420684D01*
X12478808Y-15417967D01*
X12478808Y-15399808D01*
X12482823Y-15397605D01*
X12484100Y-15388167D01*
X12482702Y-15378463D01*
X12478808Y-15376525D01*
X12474676Y-15381627D01*
X12473517Y-15388167D01*
X12475512Y-15396545D01*
X12478808Y-15399808D01*
X12478808Y-15417967D01*
X12477732Y-15417794D01*
X12463626Y-15409716D01*
X12455865Y-15398207D01*
X12454221Y-15385174D01*
X12458466Y-15372522D01*
G36*
X12460329Y-15516868D02*
X12471938Y-15507685D01*
X12488489Y-15502860D01*
X12495447Y-15502467D01*
X12513248Y-15505528D01*
X12526121Y-15513724D01*
X12533199Y-15525576D01*
X12533615Y-15539604D01*
X12526502Y-15554328D01*
X12526126Y-15554812D01*
X12519458Y-15561604D01*
X12511350Y-15564936D01*
X12498647Y-15565944D01*
X12495114Y-15565967D01*
X12492807Y-15565830D01*
X12492807Y-15548308D01*
X12505905Y-15547241D01*
X12512324Y-15542432D01*
X12515550Y-15532778D01*
X12511549Y-15524757D01*
X12501561Y-15520021D01*
X12495053Y-15519400D01*
X12481453Y-15521922D01*
X12473915Y-15528103D01*
X12472599Y-15535866D01*
X12477667Y-15543131D01*
X12489280Y-15547821D01*
X12492807Y-15548308D01*
X12492807Y-15565830D01*
X12480182Y-15565085D01*
X12470423Y-15561782D01*
X12463671Y-15556169D01*
X12455343Y-15542550D01*
X12454513Y-15528970D01*
X12460329Y-15516868D01*
X12460329Y-15516868D01*
G37*
X12460329Y-15516868D02*
X12471938Y-15507685D01*
X12488489Y-15502860D01*
X12495447Y-15502467D01*
X12513248Y-15505528D01*
X12526121Y-15513724D01*
X12533199Y-15525576D01*
X12533615Y-15539604D01*
X12526502Y-15554328D01*
X12526126Y-15554812D01*
X12519458Y-15561604D01*
X12511350Y-15564936D01*
X12498647Y-15565944D01*
X12495114Y-15565967D01*
X12492807Y-15565830D01*
X12492807Y-15548308D01*
X12505905Y-15547241D01*
X12512324Y-15542432D01*
X12515550Y-15532778D01*
X12511549Y-15524757D01*
X12501561Y-15520021D01*
X12495053Y-15519400D01*
X12481453Y-15521922D01*
X12473915Y-15528103D01*
X12472599Y-15535866D01*
X12477667Y-15543131D01*
X12489280Y-15547821D01*
X12492807Y-15548308D01*
X12492807Y-15565830D01*
X12480182Y-15565085D01*
X12470423Y-15561782D01*
X12463671Y-15556169D01*
X12455343Y-15542550D01*
X12454513Y-15528970D01*
X12460329Y-15516868D01*
G36*
X12576862Y-14939295D02*
X12586997Y-14927240D01*
X12601223Y-14919740D01*
X12611299Y-14918267D01*
X12616060Y-14919321D01*
X12618555Y-14923808D01*
X12619477Y-14933708D01*
X12619567Y-14941860D01*
X12619930Y-14955366D01*
X12621423Y-14962219D01*
X12624646Y-14964215D01*
X12626975Y-14963978D01*
X12631999Y-14960661D01*
X12634145Y-14952060D01*
X12634383Y-14945009D01*
X12635538Y-14930638D01*
X12638832Y-14923795D01*
X12644013Y-14924798D01*
X12647429Y-14928607D01*
X12652198Y-14940808D01*
X12652912Y-14955875D01*
X12649401Y-14969151D01*
X12648954Y-14969958D01*
X12641036Y-14976670D01*
X12627963Y-14981607D01*
X12613006Y-14983854D01*
X12602009Y-14983124D01*
X12597469Y-14981066D01*
X12597469Y-14964657D01*
X12602799Y-14963806D01*
X12606402Y-14956922D01*
X12606867Y-14952133D01*
X12605095Y-14942324D01*
X12600969Y-14939433D01*
X12594463Y-14942960D01*
X12591551Y-14951238D01*
X12592636Y-14958483D01*
X12597469Y-14964657D01*
X12597469Y-14981066D01*
X12590902Y-14978089D01*
X12580673Y-14969088D01*
X12574079Y-14958900D01*
X12573000Y-14953878D01*
X12576862Y-14939295D01*
X12576862Y-14939295D01*
G37*
X12576862Y-14939295D02*
X12586997Y-14927240D01*
X12601223Y-14919740D01*
X12611299Y-14918267D01*
X12616060Y-14919321D01*
X12618555Y-14923808D01*
X12619477Y-14933708D01*
X12619567Y-14941860D01*
X12619930Y-14955366D01*
X12621423Y-14962219D01*
X12624646Y-14964215D01*
X12626975Y-14963978D01*
X12631999Y-14960661D01*
X12634145Y-14952060D01*
X12634383Y-14945009D01*
X12635538Y-14930638D01*
X12638832Y-14923795D01*
X12644013Y-14924798D01*
X12647429Y-14928607D01*
X12652198Y-14940808D01*
X12652912Y-14955875D01*
X12649401Y-14969151D01*
X12648954Y-14969958D01*
X12641036Y-14976670D01*
X12627963Y-14981607D01*
X12613006Y-14983854D01*
X12602009Y-14983124D01*
X12597469Y-14981066D01*
X12597469Y-14964657D01*
X12602799Y-14963806D01*
X12606402Y-14956922D01*
X12606867Y-14952133D01*
X12605095Y-14942324D01*
X12600969Y-14939433D01*
X12594463Y-14942960D01*
X12591551Y-14951238D01*
X12592636Y-14958483D01*
X12597469Y-14964657D01*
X12597469Y-14981066D01*
X12590902Y-14978089D01*
X12580673Y-14969088D01*
X12574079Y-14958900D01*
X12573000Y-14953878D01*
X12576862Y-14939295D01*
G36*
X12574719Y-14999603D02*
X12576132Y-14989108D01*
X12577277Y-14985929D01*
X12582392Y-14982829D01*
X12588073Y-14986077D01*
X12592573Y-14993879D01*
X12594167Y-15003258D01*
X12594528Y-15009620D01*
X12596865Y-15013308D01*
X12603057Y-15015192D01*
X12614982Y-15016142D01*
X12622742Y-15016498D01*
X12638017Y-15017421D01*
X12646783Y-15018986D01*
X12650996Y-15021908D01*
X12652611Y-15026902D01*
X12652691Y-15027438D01*
X12653014Y-15031952D01*
X12651395Y-15034726D01*
X12646290Y-15036105D01*
X12636155Y-15036432D01*
X12619447Y-15036051D01*
X12614667Y-15035905D01*
X12575269Y-15034683D01*
X12574501Y-15013173D01*
X12574719Y-14999603D01*
X12574719Y-14999603D01*
G37*
X12574719Y-14999603D02*
X12576132Y-14989108D01*
X12577277Y-14985929D01*
X12582392Y-14982829D01*
X12588073Y-14986077D01*
X12592573Y-14993879D01*
X12594167Y-15003258D01*
X12594528Y-15009620D01*
X12596865Y-15013308D01*
X12603057Y-15015192D01*
X12614982Y-15016142D01*
X12622742Y-15016498D01*
X12638017Y-15017421D01*
X12646783Y-15018986D01*
X12650996Y-15021908D01*
X12652611Y-15026902D01*
X12652691Y-15027438D01*
X12653014Y-15031952D01*
X12651395Y-15034726D01*
X12646290Y-15036105D01*
X12636155Y-15036432D01*
X12619447Y-15036051D01*
X12614667Y-15035905D01*
X12575269Y-15034683D01*
X12574501Y-15013173D01*
X12574719Y-14999603D01*
G36*
X12575917Y-15069015D02*
X12581108Y-15057735D01*
X12585604Y-15053785D01*
X12593780Y-15051608D01*
X12607421Y-15050066D01*
X12623067Y-15049500D01*
X12652523Y-15049500D01*
X12652873Y-15074339D01*
X12652318Y-15090454D01*
X12649739Y-15100546D01*
X12645586Y-15106089D01*
X12633541Y-15112763D01*
X12631838Y-15112642D01*
X12631838Y-15094210D01*
X12632036Y-15094093D01*
X12635722Y-15087601D01*
X12635273Y-15078252D01*
X12631450Y-15070093D01*
X12626975Y-15067217D01*
X12621134Y-15068570D01*
X12619631Y-15075648D01*
X12621483Y-15086978D01*
X12625990Y-15093817D01*
X12631838Y-15094210D01*
X12631838Y-15112642D01*
X12622157Y-15111950D01*
X12613001Y-15104580D01*
X12607637Y-15091585D01*
X12606867Y-15083064D01*
X12605754Y-15071346D01*
X12602118Y-15066651D01*
X12600597Y-15066433D01*
X12594918Y-15070263D01*
X12591576Y-15080495D01*
X12591177Y-15095244D01*
X12591209Y-15095638D01*
X12589870Y-15104841D01*
X12585260Y-15107301D01*
X12579593Y-15102726D01*
X12576978Y-15097513D01*
X12574332Y-15083328D01*
X12575917Y-15069015D01*
X12575917Y-15069015D01*
G37*
X12575917Y-15069015D02*
X12581108Y-15057735D01*
X12585604Y-15053785D01*
X12593780Y-15051608D01*
X12607421Y-15050066D01*
X12623067Y-15049500D01*
X12652523Y-15049500D01*
X12652873Y-15074339D01*
X12652318Y-15090454D01*
X12649739Y-15100546D01*
X12645586Y-15106089D01*
X12633541Y-15112763D01*
X12631838Y-15112642D01*
X12631838Y-15094210D01*
X12632036Y-15094093D01*
X12635722Y-15087601D01*
X12635273Y-15078252D01*
X12631450Y-15070093D01*
X12626975Y-15067217D01*
X12621134Y-15068570D01*
X12619631Y-15075648D01*
X12621483Y-15086978D01*
X12625990Y-15093817D01*
X12631838Y-15094210D01*
X12631838Y-15112642D01*
X12622157Y-15111950D01*
X12613001Y-15104580D01*
X12607637Y-15091585D01*
X12606867Y-15083064D01*
X12605754Y-15071346D01*
X12602118Y-15066651D01*
X12600597Y-15066433D01*
X12594918Y-15070263D01*
X12591576Y-15080495D01*
X12591177Y-15095244D01*
X12591209Y-15095638D01*
X12589870Y-15104841D01*
X12585260Y-15107301D01*
X12579593Y-15102726D01*
X12576978Y-15097513D01*
X12574332Y-15083328D01*
X12575917Y-15069015D01*
G36*
X12573986Y-15114570D02*
X12575341Y-15113000D01*
X12580164Y-15114139D01*
X12591172Y-15117197D01*
X12606447Y-15121632D01*
X12615745Y-15124394D01*
X12633741Y-15130022D01*
X12644949Y-15134327D01*
X12650784Y-15138076D01*
X12652663Y-15142037D01*
X12652563Y-15144327D01*
X12649213Y-15150398D01*
X12640141Y-15155620D01*
X12628033Y-15159741D01*
X12604750Y-15166616D01*
X12629092Y-15174448D01*
X12644706Y-15180372D01*
X12652716Y-15185953D01*
X12652965Y-15191591D01*
X12645296Y-15197690D01*
X12629553Y-15204650D01*
X12615387Y-15209670D01*
X12596980Y-15215339D01*
X12583340Y-15218509D01*
X12575775Y-15218901D01*
X12574795Y-15218313D01*
X12573793Y-15210396D01*
X12581142Y-15203499D01*
X12596780Y-15197679D01*
X12598011Y-15197357D01*
X12609518Y-15193899D01*
X12616266Y-15190860D01*
X12617075Y-15189477D01*
X12611997Y-15186825D01*
X12601689Y-15182753D01*
X12594926Y-15180368D01*
X12583311Y-15175317D01*
X12576222Y-15170052D01*
X12575117Y-15167685D01*
X12578898Y-15163039D01*
X12589002Y-15157335D01*
X12599800Y-15152965D01*
X12624483Y-15144211D01*
X12598742Y-15137055D01*
X12584069Y-15132415D01*
X12576090Y-15128154D01*
X12573148Y-15123267D01*
X12573000Y-15121449D01*
X12573986Y-15114570D01*
X12573986Y-15114570D01*
G37*
X12573986Y-15114570D02*
X12575341Y-15113000D01*
X12580164Y-15114139D01*
X12591172Y-15117197D01*
X12606447Y-15121632D01*
X12615745Y-15124394D01*
X12633741Y-15130022D01*
X12644949Y-15134327D01*
X12650784Y-15138076D01*
X12652663Y-15142037D01*
X12652563Y-15144327D01*
X12649213Y-15150398D01*
X12640141Y-15155620D01*
X12628033Y-15159741D01*
X12604750Y-15166616D01*
X12629092Y-15174448D01*
X12644706Y-15180372D01*
X12652716Y-15185953D01*
X12652965Y-15191591D01*
X12645296Y-15197690D01*
X12629553Y-15204650D01*
X12615387Y-15209670D01*
X12596980Y-15215339D01*
X12583340Y-15218509D01*
X12575775Y-15218901D01*
X12574795Y-15218313D01*
X12573793Y-15210396D01*
X12581142Y-15203499D01*
X12596780Y-15197679D01*
X12598011Y-15197357D01*
X12609518Y-15193899D01*
X12616266Y-15190860D01*
X12617075Y-15189477D01*
X12611997Y-15186825D01*
X12601689Y-15182753D01*
X12594926Y-15180368D01*
X12583311Y-15175317D01*
X12576222Y-15170052D01*
X12575117Y-15167685D01*
X12578898Y-15163039D01*
X12589002Y-15157335D01*
X12599800Y-15152965D01*
X12624483Y-15144211D01*
X12598742Y-15137055D01*
X12584069Y-15132415D01*
X12576090Y-15128154D01*
X12573148Y-15123267D01*
X12573000Y-15121449D01*
X12573986Y-15114570D01*
G36*
X12543838Y-15232294D02*
X12546155Y-15229928D01*
X12551675Y-15228456D01*
X12561754Y-15227668D01*
X12577749Y-15227353D01*
X12597800Y-15227300D01*
X12652234Y-15227300D01*
X12652594Y-15252628D01*
X12652316Y-15267576D01*
X12650485Y-15276634D01*
X12646396Y-15282337D01*
X12643784Y-15284378D01*
X12631579Y-15289259D01*
X12615680Y-15291016D01*
X12614789Y-15290947D01*
X12614789Y-15273867D01*
X12627152Y-15271439D01*
X12634475Y-15265437D01*
X12635913Y-15257780D01*
X12630624Y-15250387D01*
X12626229Y-15247839D01*
X12614121Y-15245193D01*
X12602257Y-15246925D01*
X12593994Y-15252353D01*
X12592697Y-15254658D01*
X12593434Y-15262806D01*
X12600337Y-15269783D01*
X12611142Y-15273621D01*
X12614789Y-15273867D01*
X12614789Y-15290947D01*
X12599412Y-15289760D01*
X12586104Y-15285599D01*
X12581467Y-15282333D01*
X12574019Y-15271045D01*
X12574534Y-15258885D01*
X12577382Y-15252422D01*
X12579301Y-15247421D01*
X12576853Y-15245016D01*
X12568347Y-15244274D01*
X12562566Y-15244233D01*
X12550604Y-15243688D01*
X12544924Y-15241421D01*
X12543377Y-15236484D01*
X12543367Y-15235767D01*
X12543838Y-15232294D01*
X12543838Y-15232294D01*
G37*
X12543838Y-15232294D02*
X12546155Y-15229928D01*
X12551675Y-15228456D01*
X12561754Y-15227668D01*
X12577749Y-15227353D01*
X12597800Y-15227300D01*
X12652234Y-15227300D01*
X12652594Y-15252628D01*
X12652316Y-15267576D01*
X12650485Y-15276634D01*
X12646396Y-15282337D01*
X12643784Y-15284378D01*
X12631579Y-15289259D01*
X12615680Y-15291016D01*
X12614789Y-15290947D01*
X12614789Y-15273867D01*
X12627152Y-15271439D01*
X12634475Y-15265437D01*
X12635913Y-15257780D01*
X12630624Y-15250387D01*
X12626229Y-15247839D01*
X12614121Y-15245193D01*
X12602257Y-15246925D01*
X12593994Y-15252353D01*
X12592697Y-15254658D01*
X12593434Y-15262806D01*
X12600337Y-15269783D01*
X12611142Y-15273621D01*
X12614789Y-15273867D01*
X12614789Y-15290947D01*
X12599412Y-15289760D01*
X12586104Y-15285599D01*
X12581467Y-15282333D01*
X12574019Y-15271045D01*
X12574534Y-15258885D01*
X12577382Y-15252422D01*
X12579301Y-15247421D01*
X12576853Y-15245016D01*
X12568347Y-15244274D01*
X12562566Y-15244233D01*
X12550604Y-15243688D01*
X12544924Y-15241421D01*
X12543377Y-15236484D01*
X12543367Y-15235767D01*
X12543838Y-15232294D01*
G36*
X12574987Y-15326258D02*
X12577752Y-15324667D01*
X12580020Y-15322657D01*
X12577279Y-15318372D01*
X12574616Y-15311008D01*
X12574782Y-15301552D01*
X12577282Y-15293628D01*
X12581029Y-15290800D01*
X12587631Y-15294583D01*
X12592930Y-15304150D01*
X12594819Y-15311967D01*
X12596199Y-15317617D01*
X12599695Y-15320925D01*
X12607283Y-15322668D01*
X12620936Y-15323624D01*
X12624858Y-15323802D01*
X12640162Y-15324756D01*
X12648815Y-15326339D01*
X12652632Y-15329154D01*
X12653433Y-15333327D01*
X12652781Y-15337175D01*
X12649781Y-15339604D01*
X12642866Y-15340937D01*
X12630470Y-15341494D01*
X12613217Y-15341600D01*
X12594525Y-15341472D01*
X12582728Y-15340868D01*
X12576255Y-15339457D01*
X12573536Y-15336909D01*
X12573000Y-15333133D01*
X12574987Y-15326258D01*
X12574987Y-15326258D01*
G37*
X12574987Y-15326258D02*
X12577752Y-15324667D01*
X12580020Y-15322657D01*
X12577279Y-15318372D01*
X12574616Y-15311008D01*
X12574782Y-15301552D01*
X12577282Y-15293628D01*
X12581029Y-15290800D01*
X12587631Y-15294583D01*
X12592930Y-15304150D01*
X12594819Y-15311967D01*
X12596199Y-15317617D01*
X12599695Y-15320925D01*
X12607283Y-15322668D01*
X12620936Y-15323624D01*
X12624858Y-15323802D01*
X12640162Y-15324756D01*
X12648815Y-15326339D01*
X12652632Y-15329154D01*
X12653433Y-15333327D01*
X12652781Y-15337175D01*
X12649781Y-15339604D01*
X12642866Y-15340937D01*
X12630470Y-15341494D01*
X12613217Y-15341600D01*
X12594525Y-15341472D01*
X12582728Y-15340868D01*
X12576255Y-15339457D01*
X12573536Y-15336909D01*
X12573000Y-15333133D01*
X12574987Y-15326258D01*
G36*
X12574827Y-15377871D02*
X12579590Y-15367942D01*
X12583868Y-15363144D01*
X12589784Y-15360312D01*
X12599457Y-15358945D01*
X12615009Y-15358542D01*
X12619369Y-15358533D01*
X12652558Y-15358533D01*
X12652838Y-15381974D01*
X12652116Y-15397858D01*
X12649031Y-15408133D01*
X12644809Y-15413724D01*
X12635078Y-15420810D01*
X12629092Y-15420702D01*
X12629092Y-15400082D01*
X12634421Y-15399156D01*
X12636391Y-15392370D01*
X12636500Y-15388477D01*
X12635274Y-15379087D01*
X12630579Y-15375671D01*
X12627752Y-15375467D01*
X12621500Y-15377135D01*
X12620055Y-15383707D01*
X12620344Y-15387072D01*
X12623958Y-15396723D01*
X12629092Y-15400082D01*
X12629092Y-15420702D01*
X12625554Y-15420638D01*
X12616275Y-15415443D01*
X12609488Y-15407864D01*
X12606972Y-15396156D01*
X12606867Y-15391849D01*
X12606209Y-15380903D01*
X12603632Y-15376456D01*
X12599458Y-15376318D01*
X12594109Y-15380130D01*
X12592116Y-15389861D01*
X12592050Y-15393161D01*
X12590783Y-15406472D01*
X12587244Y-15412469D01*
X12581827Y-15410720D01*
X12579004Y-15407459D01*
X12573582Y-15393475D01*
X12574827Y-15377871D01*
X12574827Y-15377871D01*
G37*
X12574827Y-15377871D02*
X12579590Y-15367942D01*
X12583868Y-15363144D01*
X12589784Y-15360312D01*
X12599457Y-15358945D01*
X12615009Y-15358542D01*
X12619369Y-15358533D01*
X12652558Y-15358533D01*
X12652838Y-15381974D01*
X12652116Y-15397858D01*
X12649031Y-15408133D01*
X12644809Y-15413724D01*
X12635078Y-15420810D01*
X12629092Y-15420702D01*
X12629092Y-15400082D01*
X12634421Y-15399156D01*
X12636391Y-15392370D01*
X12636500Y-15388477D01*
X12635274Y-15379087D01*
X12630579Y-15375671D01*
X12627752Y-15375467D01*
X12621500Y-15377135D01*
X12620055Y-15383707D01*
X12620344Y-15387072D01*
X12623958Y-15396723D01*
X12629092Y-15400082D01*
X12629092Y-15420702D01*
X12625554Y-15420638D01*
X12616275Y-15415443D01*
X12609488Y-15407864D01*
X12606972Y-15396156D01*
X12606867Y-15391849D01*
X12606209Y-15380903D01*
X12603632Y-15376456D01*
X12599458Y-15376318D01*
X12594109Y-15380130D01*
X12592116Y-15389861D01*
X12592050Y-15393161D01*
X12590783Y-15406472D01*
X12587244Y-15412469D01*
X12581827Y-15410720D01*
X12579004Y-15407459D01*
X12573582Y-15393475D01*
X12574827Y-15377871D01*
G36*
X12456385Y-15449222D02*
X12461680Y-15437906D01*
X12472214Y-15431686D01*
X12489246Y-15429390D01*
X12495368Y-15429290D01*
X12510164Y-15429891D01*
X12519386Y-15432280D01*
X12525882Y-15437340D01*
X12527524Y-15439262D01*
X12533569Y-15452293D01*
X12533238Y-15461033D01*
X12532249Y-15467801D01*
X12534036Y-15471309D01*
X12540478Y-15472630D01*
X12553452Y-15472833D01*
X12553950Y-15472833D01*
X12567144Y-15472647D01*
X12573750Y-15471374D01*
X12575647Y-15467944D01*
X12574712Y-15461288D01*
X12574662Y-15461033D01*
X12575660Y-15447226D01*
X12580501Y-15439107D01*
X12585762Y-15433790D01*
X12592358Y-15430692D01*
X12602622Y-15429199D01*
X12618884Y-15428694D01*
X12620009Y-15428682D01*
X12636112Y-15428718D01*
X12645617Y-15429553D01*
X12650390Y-15431703D01*
X12652294Y-15435682D01*
X12652643Y-15437709D01*
X12652727Y-15442663D01*
X12650040Y-15445595D01*
X12642820Y-15447182D01*
X12629303Y-15448103D01*
X12625127Y-15448292D01*
X12609892Y-15449143D01*
X12601256Y-15450537D01*
X12597352Y-15453238D01*
X12596315Y-15458014D01*
X12596283Y-15460133D01*
X12596799Y-15465766D01*
X12599594Y-15469058D01*
X12606545Y-15470785D01*
X12619524Y-15471725D01*
X12624858Y-15471968D01*
X12640195Y-15472937D01*
X12648866Y-15474544D01*
X12652674Y-15477379D01*
X12653433Y-15481282D01*
X12652200Y-15485967D01*
X12647224Y-15488677D01*
X12636595Y-15490144D01*
X12629092Y-15490614D01*
X12616650Y-15490966D01*
X12597745Y-15491132D01*
X12574379Y-15491111D01*
X12548553Y-15490902D01*
X12530044Y-15490644D01*
X12489687Y-15489974D01*
X12489687Y-15472048D01*
X12503330Y-15471261D01*
X12513536Y-15467164D01*
X12517936Y-15460756D01*
X12517967Y-15460133D01*
X12515100Y-15455039D01*
X12511912Y-15451912D01*
X12503913Y-15448937D01*
X12492010Y-15448081D01*
X12489687Y-15448218D01*
X12479030Y-15449843D01*
X12474440Y-15453506D01*
X12473517Y-15460133D01*
X12474658Y-15467202D01*
X12479678Y-15470620D01*
X12489687Y-15472048D01*
X12489687Y-15489974D01*
X12455338Y-15489404D01*
X12455068Y-15466808D01*
X12456385Y-15449222D01*
X12456385Y-15449222D01*
G37*
X12456385Y-15449222D02*
X12461680Y-15437906D01*
X12472214Y-15431686D01*
X12489246Y-15429390D01*
X12495368Y-15429290D01*
X12510164Y-15429891D01*
X12519386Y-15432280D01*
X12525882Y-15437340D01*
X12527524Y-15439262D01*
X12533569Y-15452293D01*
X12533238Y-15461033D01*
X12532249Y-15467801D01*
X12534036Y-15471309D01*
X12540478Y-15472630D01*
X12553452Y-15472833D01*
X12553950Y-15472833D01*
X12567144Y-15472647D01*
X12573750Y-15471374D01*
X12575647Y-15467944D01*
X12574712Y-15461288D01*
X12574662Y-15461033D01*
X12575660Y-15447226D01*
X12580501Y-15439107D01*
X12585762Y-15433790D01*
X12592358Y-15430692D01*
X12602622Y-15429199D01*
X12618884Y-15428694D01*
X12620009Y-15428682D01*
X12636112Y-15428718D01*
X12645617Y-15429553D01*
X12650390Y-15431703D01*
X12652294Y-15435682D01*
X12652643Y-15437709D01*
X12652727Y-15442663D01*
X12650040Y-15445595D01*
X12642820Y-15447182D01*
X12629303Y-15448103D01*
X12625127Y-15448292D01*
X12609892Y-15449143D01*
X12601256Y-15450537D01*
X12597352Y-15453238D01*
X12596315Y-15458014D01*
X12596283Y-15460133D01*
X12596799Y-15465766D01*
X12599594Y-15469058D01*
X12606545Y-15470785D01*
X12619524Y-15471725D01*
X12624858Y-15471968D01*
X12640195Y-15472937D01*
X12648866Y-15474544D01*
X12652674Y-15477379D01*
X12653433Y-15481282D01*
X12652200Y-15485967D01*
X12647224Y-15488677D01*
X12636595Y-15490144D01*
X12629092Y-15490614D01*
X12616650Y-15490966D01*
X12597745Y-15491132D01*
X12574379Y-15491111D01*
X12548553Y-15490902D01*
X12530044Y-15490644D01*
X12489687Y-15489974D01*
X12489687Y-15472048D01*
X12503330Y-15471261D01*
X12513536Y-15467164D01*
X12517936Y-15460756D01*
X12517967Y-15460133D01*
X12515100Y-15455039D01*
X12511912Y-15451912D01*
X12503913Y-15448937D01*
X12492010Y-15448081D01*
X12489687Y-15448218D01*
X12479030Y-15449843D01*
X12474440Y-15453506D01*
X12473517Y-15460133D01*
X12474658Y-15467202D01*
X12479678Y-15470620D01*
X12489687Y-15472048D01*
X12489687Y-15489974D01*
X12455338Y-15489404D01*
X12455068Y-15466808D01*
X12456385Y-15449222D01*
D13*
G04 #@! TO.C,C101*
X14497050Y-4578350D02*
X14611350Y-4578350D01*
G04 #@! TO.C,C102*
X14801850Y-4578350D02*
X14916150Y-4578350D01*
G04 #@! TO.C,CON102*
X15405100Y-4495800D02*
X15430500Y-4521200D01*
X15405100Y-4749800D02*
X15430500Y-4724400D01*
X15405100Y-4559300D02*
X15468600Y-4495800D01*
X15405100Y-4686300D02*
X15468600Y-4749800D01*
X15913100Y-4749800D02*
X15405100Y-4749800D01*
X15913100Y-4495800D02*
X15913100Y-4749800D01*
X15405100Y-4495800D02*
X15913100Y-4495800D01*
X15405100Y-4749800D02*
X15405100Y-4495800D01*
G04 #@! TO.C,CON103*
X13271500Y-5905500D02*
X13271500Y-14668500D01*
X14160500Y-5905500D02*
X13271500Y-5905500D01*
X14160500Y-14668500D02*
X14160500Y-5905500D01*
X14160500Y-14668500D02*
X13271500Y-14668500D01*
G04 #@! TO.C,CON104*
X16129000Y-13779500D02*
X16129000Y-6794500D01*
X15240000Y-13779500D02*
X16129000Y-13779500D01*
X15240000Y-6794500D02*
X15240000Y-13779500D01*
X15240000Y-6794500D02*
X16129000Y-6794500D01*
G04 #@! TO.C,CON101*
X13241000Y-4190780D02*
X14191000Y-4190780D01*
G04 #@! TO.C,C101*
D11*
X14433550Y-4684183D02*
X14437783Y-4688417D01*
X14442017Y-4701117D01*
X14442017Y-4709583D01*
X14437783Y-4722283D01*
X14429317Y-4730750D01*
X14420850Y-4734983D01*
X14403917Y-4739217D01*
X14391217Y-4739217D01*
X14374283Y-4734983D01*
X14365817Y-4730750D01*
X14357350Y-4722283D01*
X14353117Y-4709583D01*
X14353117Y-4701117D01*
X14357350Y-4688417D01*
X14361583Y-4684183D01*
X14442017Y-4599517D02*
X14442017Y-4650317D01*
X14442017Y-4624917D02*
X14353117Y-4624917D01*
X14365817Y-4633383D01*
X14374283Y-4641850D01*
X14378517Y-4650317D01*
X14353117Y-4544483D02*
X14353117Y-4536017D01*
X14357350Y-4527550D01*
X14361583Y-4523317D01*
X14370050Y-4519083D01*
X14386983Y-4514850D01*
X14408150Y-4514850D01*
X14425083Y-4519083D01*
X14433550Y-4523317D01*
X14437783Y-4527550D01*
X14442017Y-4536017D01*
X14442017Y-4544483D01*
X14437783Y-4552950D01*
X14433550Y-4557183D01*
X14425083Y-4561417D01*
X14408150Y-4565650D01*
X14386983Y-4565650D01*
X14370050Y-4561417D01*
X14361583Y-4557183D01*
X14357350Y-4552950D01*
X14353117Y-4544483D01*
X14442017Y-4430183D02*
X14442017Y-4480983D01*
X14442017Y-4455583D02*
X14353117Y-4455583D01*
X14365817Y-4464050D01*
X14374283Y-4472517D01*
X14378517Y-4480983D01*
G04 #@! TO.C,C102*
X14738350Y-4684183D02*
X14742583Y-4688417D01*
X14746817Y-4701117D01*
X14746817Y-4709583D01*
X14742583Y-4722283D01*
X14734117Y-4730750D01*
X14725650Y-4734983D01*
X14708717Y-4739217D01*
X14696017Y-4739217D01*
X14679083Y-4734983D01*
X14670617Y-4730750D01*
X14662150Y-4722283D01*
X14657917Y-4709583D01*
X14657917Y-4701117D01*
X14662150Y-4688417D01*
X14666383Y-4684183D01*
X14746817Y-4599517D02*
X14746817Y-4650317D01*
X14746817Y-4624917D02*
X14657917Y-4624917D01*
X14670617Y-4633383D01*
X14679083Y-4641850D01*
X14683317Y-4650317D01*
X14657917Y-4544483D02*
X14657917Y-4536017D01*
X14662150Y-4527550D01*
X14666383Y-4523317D01*
X14674850Y-4519083D01*
X14691783Y-4514850D01*
X14712950Y-4514850D01*
X14729883Y-4519083D01*
X14738350Y-4523317D01*
X14742583Y-4527550D01*
X14746817Y-4536017D01*
X14746817Y-4544483D01*
X14742583Y-4552950D01*
X14738350Y-4557183D01*
X14729883Y-4561417D01*
X14712950Y-4565650D01*
X14691783Y-4565650D01*
X14674850Y-4561417D01*
X14666383Y-4557183D01*
X14662150Y-4552950D01*
X14657917Y-4544483D01*
X14666383Y-4480983D02*
X14662150Y-4476750D01*
X14657917Y-4468283D01*
X14657917Y-4447117D01*
X14662150Y-4438650D01*
X14666383Y-4434417D01*
X14674850Y-4430183D01*
X14683317Y-4430183D01*
X14696017Y-4434417D01*
X14746817Y-4485217D01*
X14746817Y-4430183D01*
G04 #@! TO.C,CON102*
X16025283Y-4654550D02*
X16021050Y-4658783D01*
X16008350Y-4663017D01*
X15999883Y-4663017D01*
X15987183Y-4658783D01*
X15978717Y-4650317D01*
X15974483Y-4641850D01*
X15970250Y-4624917D01*
X15970250Y-4612217D01*
X15974483Y-4595283D01*
X15978717Y-4586817D01*
X15987183Y-4578350D01*
X15999883Y-4574117D01*
X16008350Y-4574117D01*
X16021050Y-4578350D01*
X16025283Y-4582583D01*
X16080317Y-4574117D02*
X16097250Y-4574117D01*
X16105717Y-4578350D01*
X16114183Y-4586817D01*
X16118417Y-4603750D01*
X16118417Y-4633383D01*
X16114183Y-4650317D01*
X16105717Y-4658783D01*
X16097250Y-4663017D01*
X16080317Y-4663017D01*
X16071850Y-4658783D01*
X16063383Y-4650317D01*
X16059150Y-4633383D01*
X16059150Y-4603750D01*
X16063383Y-4586817D01*
X16071850Y-4578350D01*
X16080317Y-4574117D01*
X16156517Y-4663017D02*
X16156517Y-4574117D01*
X16207317Y-4663017D01*
X16207317Y-4574117D01*
X16296217Y-4663017D02*
X16245417Y-4663017D01*
X16270817Y-4663017D02*
X16270817Y-4574117D01*
X16262350Y-4586817D01*
X16253883Y-4595283D01*
X16245417Y-4599517D01*
X16351250Y-4574117D02*
X16359717Y-4574117D01*
X16368183Y-4578350D01*
X16372417Y-4582583D01*
X16376650Y-4591050D01*
X16380883Y-4607983D01*
X16380883Y-4629150D01*
X16376650Y-4646083D01*
X16372417Y-4654550D01*
X16368183Y-4658783D01*
X16359717Y-4663017D01*
X16351250Y-4663017D01*
X16342783Y-4658783D01*
X16338550Y-4654550D01*
X16334317Y-4646083D01*
X16330083Y-4629150D01*
X16330083Y-4607983D01*
X16334317Y-4591050D01*
X16338550Y-4582583D01*
X16342783Y-4578350D01*
X16351250Y-4574117D01*
X16414750Y-4582583D02*
X16418983Y-4578350D01*
X16427450Y-4574117D01*
X16448617Y-4574117D01*
X16457083Y-4578350D01*
X16461317Y-4582583D01*
X16465550Y-4591050D01*
X16465550Y-4599517D01*
X16461317Y-4612217D01*
X16410517Y-4663017D01*
X16465550Y-4663017D01*
G04 #@! TO.C,CON103*
X13332883Y-5873750D02*
X13328650Y-5877983D01*
X13315950Y-5882217D01*
X13307483Y-5882217D01*
X13294783Y-5877983D01*
X13286317Y-5869517D01*
X13282083Y-5861050D01*
X13277850Y-5844117D01*
X13277850Y-5831417D01*
X13282083Y-5814483D01*
X13286317Y-5806017D01*
X13294783Y-5797550D01*
X13307483Y-5793317D01*
X13315950Y-5793317D01*
X13328650Y-5797550D01*
X13332883Y-5801783D01*
X13387917Y-5793317D02*
X13404850Y-5793317D01*
X13413317Y-5797550D01*
X13421783Y-5806017D01*
X13426017Y-5822950D01*
X13426017Y-5852583D01*
X13421783Y-5869517D01*
X13413317Y-5877983D01*
X13404850Y-5882217D01*
X13387917Y-5882217D01*
X13379450Y-5877983D01*
X13370983Y-5869517D01*
X13366750Y-5852583D01*
X13366750Y-5822950D01*
X13370983Y-5806017D01*
X13379450Y-5797550D01*
X13387917Y-5793317D01*
X13464117Y-5882217D02*
X13464117Y-5793317D01*
X13514917Y-5882217D01*
X13514917Y-5793317D01*
X13603817Y-5882217D02*
X13553017Y-5882217D01*
X13578417Y-5882217D02*
X13578417Y-5793317D01*
X13569950Y-5806017D01*
X13561483Y-5814483D01*
X13553017Y-5818717D01*
X13658850Y-5793317D02*
X13667317Y-5793317D01*
X13675783Y-5797550D01*
X13680017Y-5801783D01*
X13684250Y-5810250D01*
X13688483Y-5827183D01*
X13688483Y-5848350D01*
X13684250Y-5865283D01*
X13680017Y-5873750D01*
X13675783Y-5877983D01*
X13667317Y-5882217D01*
X13658850Y-5882217D01*
X13650383Y-5877983D01*
X13646150Y-5873750D01*
X13641917Y-5865283D01*
X13637683Y-5848350D01*
X13637683Y-5827183D01*
X13641917Y-5810250D01*
X13646150Y-5801783D01*
X13650383Y-5797550D01*
X13658850Y-5793317D01*
X13718117Y-5793317D02*
X13773150Y-5793317D01*
X13743517Y-5827183D01*
X13756217Y-5827183D01*
X13764683Y-5831417D01*
X13768917Y-5835650D01*
X13773150Y-5844117D01*
X13773150Y-5865283D01*
X13768917Y-5873750D01*
X13764683Y-5877983D01*
X13756217Y-5882217D01*
X13730817Y-5882217D01*
X13722350Y-5877983D01*
X13718117Y-5873750D01*
G04 #@! TO.C,CON104*
X15301383Y-6762750D02*
X15297150Y-6766983D01*
X15284450Y-6771217D01*
X15275983Y-6771217D01*
X15263283Y-6766983D01*
X15254817Y-6758517D01*
X15250583Y-6750050D01*
X15246350Y-6733117D01*
X15246350Y-6720417D01*
X15250583Y-6703483D01*
X15254817Y-6695017D01*
X15263283Y-6686550D01*
X15275983Y-6682317D01*
X15284450Y-6682317D01*
X15297150Y-6686550D01*
X15301383Y-6690783D01*
X15356417Y-6682317D02*
X15373350Y-6682317D01*
X15381817Y-6686550D01*
X15390283Y-6695017D01*
X15394517Y-6711950D01*
X15394517Y-6741583D01*
X15390283Y-6758517D01*
X15381817Y-6766983D01*
X15373350Y-6771217D01*
X15356417Y-6771217D01*
X15347950Y-6766983D01*
X15339483Y-6758517D01*
X15335250Y-6741583D01*
X15335250Y-6711950D01*
X15339483Y-6695017D01*
X15347950Y-6686550D01*
X15356417Y-6682317D01*
X15432617Y-6771217D02*
X15432617Y-6682317D01*
X15483417Y-6771217D01*
X15483417Y-6682317D01*
X15572317Y-6771217D02*
X15521517Y-6771217D01*
X15546917Y-6771217D02*
X15546917Y-6682317D01*
X15538450Y-6695017D01*
X15529983Y-6703483D01*
X15521517Y-6707717D01*
X15627350Y-6682317D02*
X15635817Y-6682317D01*
X15644283Y-6686550D01*
X15648517Y-6690783D01*
X15652750Y-6699250D01*
X15656983Y-6716183D01*
X15656983Y-6737350D01*
X15652750Y-6754283D01*
X15648517Y-6762750D01*
X15644283Y-6766983D01*
X15635817Y-6771217D01*
X15627350Y-6771217D01*
X15618883Y-6766983D01*
X15614650Y-6762750D01*
X15610417Y-6754283D01*
X15606183Y-6737350D01*
X15606183Y-6716183D01*
X15610417Y-6699250D01*
X15614650Y-6690783D01*
X15618883Y-6686550D01*
X15627350Y-6682317D01*
X15733183Y-6711950D02*
X15733183Y-6771217D01*
X15712017Y-6678083D02*
X15690850Y-6741583D01*
X15745883Y-6741583D01*
G04 #@! TO.C,CON101*
X13145770Y-4665557D02*
X13150003Y-4669790D01*
X13154237Y-4682490D01*
X13154237Y-4690957D01*
X13150003Y-4703657D01*
X13141537Y-4712123D01*
X13133070Y-4716357D01*
X13116137Y-4720590D01*
X13103437Y-4720590D01*
X13086503Y-4716357D01*
X13078037Y-4712123D01*
X13069570Y-4703657D01*
X13065337Y-4690957D01*
X13065337Y-4682490D01*
X13069570Y-4669790D01*
X13073803Y-4665557D01*
X13065337Y-4610523D02*
X13065337Y-4593590D01*
X13069570Y-4585123D01*
X13078037Y-4576657D01*
X13094970Y-4572423D01*
X13124603Y-4572423D01*
X13141537Y-4576657D01*
X13150003Y-4585123D01*
X13154237Y-4593590D01*
X13154237Y-4610523D01*
X13150003Y-4618990D01*
X13141537Y-4627457D01*
X13124603Y-4631690D01*
X13094970Y-4631690D01*
X13078037Y-4627457D01*
X13069570Y-4618990D01*
X13065337Y-4610523D01*
X13154237Y-4534323D02*
X13065337Y-4534323D01*
X13154237Y-4483523D01*
X13065337Y-4483523D01*
X13154237Y-4394623D02*
X13154237Y-4445423D01*
X13154237Y-4420023D02*
X13065337Y-4420023D01*
X13078037Y-4428490D01*
X13086503Y-4436957D01*
X13090737Y-4445423D01*
X13065337Y-4339590D02*
X13065337Y-4331123D01*
X13069570Y-4322657D01*
X13073803Y-4318423D01*
X13082270Y-4314190D01*
X13099203Y-4309957D01*
X13120370Y-4309957D01*
X13137303Y-4314190D01*
X13145770Y-4318423D01*
X13150003Y-4322657D01*
X13154237Y-4331123D01*
X13154237Y-4339590D01*
X13150003Y-4348057D01*
X13145770Y-4352290D01*
X13137303Y-4356523D01*
X13120370Y-4360757D01*
X13099203Y-4360757D01*
X13082270Y-4356523D01*
X13073803Y-4352290D01*
X13069570Y-4348057D01*
X13065337Y-4339590D01*
X13154237Y-4225290D02*
X13154237Y-4276090D01*
X13154237Y-4250690D02*
X13065337Y-4250690D01*
X13078037Y-4259157D01*
X13086503Y-4267623D01*
X13090737Y-4276090D01*
G04 #@! TD*
M02*
