G04 #@! TF.GenerationSoftware,KiCad,Pcbnew,5.0.1-33cea8e~68~ubuntu18.04.1*
G04 #@! TF.CreationDate,2018-11-20T23:31:39-05:00*
G04 #@! TF.ProjectId,power-pcb,706F7765722D7063622E6B696361645F,0.1*
G04 #@! TF.SameCoordinates,Original*
G04 #@! TF.FileFunction,Copper,L2,Bot,Signal*
G04 #@! TF.FilePolarity,Positive*
%FSLAX45Y45*%
G04 Gerber Fmt 4.5, Leading zero omitted, Abs format (unit mm)*
G04 Created by KiCad (PCBNEW 5.0.1-33cea8e~68~ubuntu18.04.1) date Tue 20 Nov 2018 11:31:39 PM EST*
%MOMM*%
%LPD*%
G01*
G04 APERTURE LIST*
G04 #@! TA.AperFunction,ComponentPad*
%ADD10C,3.810000*%
G04 #@! TD*
G04 #@! TA.AperFunction,ComponentPad*
%ADD11C,1.524000*%
G04 #@! TD*
G04 #@! TA.AperFunction,Conductor*
%ADD12C,0.177800*%
G04 #@! TD*
G04 APERTURE END LIST*
D10*
G04 #@! TO.P,REF\002A\002A,1*
G04 #@! TO.N,N/C*
X17208500Y-4572000D03*
G04 #@! TD*
G04 #@! TO.P,REF\002A\002A,1*
G04 #@! TO.N,N/C*
X12192000Y-4572000D03*
G04 #@! TD*
G04 #@! TO.P,REF\002A\002A,1*
G04 #@! TO.N,N/C*
X17208500Y-16002000D03*
G04 #@! TD*
G04 #@! TO.P,REF\002A\002A,1*
G04 #@! TO.N,N/C*
X12192000Y-16002000D03*
G04 #@! TD*
D11*
G04 #@! TO.P,CON102,1*
G04 #@! TO.N,+5V*
X15532100Y-4622800D03*
G04 #@! TO.P,CON102,2*
G04 #@! TO.N,GND*
X15786100Y-4622800D03*
G04 #@! TD*
G04 #@! TO.P,CON103,A22*
G04 #@! TO.N,Net-(CON103-PadA22)*
X13462000Y-8890000D03*
G04 #@! TO.P,CON103,A21*
G04 #@! TO.N,Net-(CON103-PadA21)*
X13462000Y-9144000D03*
G04 #@! TO.P,CON103,A20*
G04 #@! TO.N,Net-(CON103-PadA20)*
X13462000Y-9398000D03*
G04 #@! TO.P,CON103,A19*
G04 #@! TO.N,Net-(CON103-PadA19)*
X13462000Y-9652000D03*
G04 #@! TO.P,CON103,A18*
G04 #@! TO.N,GND*
X13462000Y-9906000D03*
G04 #@! TO.P,CON103,A17*
G04 #@! TO.N,Net-(CON103-PadA17)*
X13462000Y-10160000D03*
G04 #@! TO.P,CON103,A16*
G04 #@! TO.N,Net-(CON103-PadA16)*
X13462000Y-10414000D03*
G04 #@! TO.P,CON103,A15*
G04 #@! TO.N,Net-(CON103-PadA15)*
X13462000Y-10668000D03*
G04 #@! TO.P,CON103,A14*
G04 #@! TO.N,Net-(CON103-PadA14)*
X13462000Y-10922000D03*
G04 #@! TO.P,CON103,A13*
G04 #@! TO.N,Net-(CON103-PadA13)*
X13462000Y-11176000D03*
G04 #@! TO.P,CON103,A12*
G04 #@! TO.N,Net-(CON103-PadA12)*
X13462000Y-11430000D03*
G04 #@! TO.P,CON103,A11*
G04 #@! TO.N,Net-(CON103-PadA11)*
X13462000Y-11684000D03*
G04 #@! TO.P,CON103,A10*
G04 #@! TO.N,Net-(CON103-PadA10)*
X13462000Y-11938000D03*
G04 #@! TO.P,CON103,A9*
G04 #@! TO.N,Net-(CON103-PadA9)*
X13462000Y-12192000D03*
G04 #@! TO.P,CON103,A8*
G04 #@! TO.N,Net-(CON103-PadA8)*
X13462000Y-12446000D03*
G04 #@! TO.P,CON103,A7*
G04 #@! TO.N,Net-(CON103-PadA7)*
X13462000Y-12700000D03*
G04 #@! TO.P,CON103,A6*
G04 #@! TO.N,Net-(CON103-PadA6)*
X13462000Y-12954000D03*
G04 #@! TO.P,CON103,A5*
G04 #@! TO.N,Net-(CON103-PadA5)*
X13462000Y-13208000D03*
G04 #@! TO.P,CON103,A4*
G04 #@! TO.N,Net-(CON103-PadA4)*
X13462000Y-13462000D03*
G04 #@! TO.P,CON103,A3*
G04 #@! TO.N,Net-(CON103-PadA3)*
X13462000Y-13716000D03*
G04 #@! TO.P,CON103,A2*
G04 #@! TO.N,+5V*
X13462000Y-13970000D03*
G04 #@! TO.P,CON103,A1*
G04 #@! TO.N,GND*
X13462000Y-14224000D03*
G04 #@! TO.P,CON103,B22*
G04 #@! TO.N,Net-(CON103-PadB22)*
X13970000Y-8890000D03*
G04 #@! TO.P,CON103,B21*
G04 #@! TO.N,Net-(CON103-PadB21)*
X13970000Y-9144000D03*
G04 #@! TO.P,CON103,B20*
G04 #@! TO.N,Net-(CON103-PadB20)*
X13970000Y-9398000D03*
G04 #@! TO.P,CON103,B19*
G04 #@! TO.N,Net-(CON103-PadB19)*
X13970000Y-9652000D03*
G04 #@! TO.P,CON103,B18*
G04 #@! TO.N,Net-(CON103-PadB18)*
X13970000Y-9906000D03*
G04 #@! TO.P,CON103,B17*
G04 #@! TO.N,Net-(CON103-PadB17)*
X13970000Y-10160000D03*
G04 #@! TO.P,CON103,B16*
G04 #@! TO.N,Net-(CON103-PadB16)*
X13970000Y-10414000D03*
G04 #@! TO.P,CON103,B15*
G04 #@! TO.N,Net-(CON103-PadB15)*
X13970000Y-10668000D03*
G04 #@! TO.P,CON103,B14*
G04 #@! TO.N,Net-(CON103-PadB14)*
X13970000Y-10922000D03*
G04 #@! TO.P,CON103,B13*
G04 #@! TO.N,Net-(CON103-PadB13)*
X13970000Y-11176000D03*
G04 #@! TO.P,CON103,B12*
G04 #@! TO.N,Net-(CON103-PadB12)*
X13970000Y-11430000D03*
G04 #@! TO.P,CON103,B11*
G04 #@! TO.N,Net-(CON103-PadB11)*
X13970000Y-11684000D03*
G04 #@! TO.P,CON103,B10*
G04 #@! TO.N,Net-(CON103-PadB10)*
X13970000Y-11938000D03*
G04 #@! TO.P,CON103,B9*
G04 #@! TO.N,Net-(CON103-PadB9)*
X13970000Y-12192000D03*
G04 #@! TO.P,CON103,B8*
G04 #@! TO.N,Net-(CON103-PadB8)*
X13970000Y-12446000D03*
G04 #@! TO.P,CON103,B7*
G04 #@! TO.N,Net-(CON103-PadB7)*
X13970000Y-12700000D03*
G04 #@! TO.P,CON103,B6*
G04 #@! TO.N,Net-(CON103-PadB6)*
X13970000Y-12954000D03*
G04 #@! TO.P,CON103,B5*
G04 #@! TO.N,Net-(CON103-PadB5)*
X13970000Y-13208000D03*
G04 #@! TO.P,CON103,B4*
G04 #@! TO.N,Net-(CON103-PadB4)*
X13970000Y-13462000D03*
G04 #@! TO.P,CON103,B3*
G04 #@! TO.N,Net-(CON103-PadB3)*
X13970000Y-13716000D03*
G04 #@! TO.P,CON103,B2*
G04 #@! TO.N,Net-(CON103-PadB2)*
X13970000Y-13970000D03*
G04 #@! TO.P,CON103,B1*
G04 #@! TO.N,Net-(CON103-PadB1)*
X13970000Y-14224000D03*
G04 #@! TO.P,CON103,B23*
G04 #@! TO.N,Net-(CON103-PadB23)*
X13970000Y-8636000D03*
G04 #@! TO.P,CON103,B24*
G04 #@! TO.N,Net-(CON103-PadB24)*
X13970000Y-8382000D03*
G04 #@! TO.P,CON103,B25*
G04 #@! TO.N,Net-(CON103-PadB25)*
X13970000Y-8128000D03*
G04 #@! TO.P,CON103,B26*
G04 #@! TO.N,Net-(CON103-PadB26)*
X13970000Y-7874000D03*
G04 #@! TO.P,CON103,B27*
G04 #@! TO.N,Net-(CON103-PadB27)*
X13970000Y-7620000D03*
G04 #@! TO.P,CON103,B28*
G04 #@! TO.N,Net-(CON103-PadB28)*
X13970000Y-7366000D03*
G04 #@! TO.P,CON103,B29*
G04 #@! TO.N,Net-(CON103-PadB29)*
X13970000Y-7112000D03*
G04 #@! TO.P,CON103,B30*
G04 #@! TO.N,Net-(CON103-PadB30)*
X13970000Y-6858000D03*
G04 #@! TO.P,CON103,B31*
G04 #@! TO.N,Net-(CON103-PadB31)*
X13970000Y-6604000D03*
G04 #@! TO.P,CON103,B32*
G04 #@! TO.N,Net-(CON103-PadB32)*
X13970000Y-6350000D03*
G04 #@! TO.P,CON103,A27*
G04 #@! TO.N,Net-(CON103-PadA27)*
X13462000Y-7620000D03*
G04 #@! TO.P,CON103,A28*
G04 #@! TO.N,Net-(CON103-PadA28)*
X13462000Y-7366000D03*
G04 #@! TO.P,CON103,A29*
G04 #@! TO.N,Net-(CON103-PadA29)*
X13462000Y-7112000D03*
G04 #@! TO.P,CON103,A30*
G04 #@! TO.N,Net-(CON103-PadA30)*
X13462000Y-6858000D03*
G04 #@! TO.P,CON103,A31*
G04 #@! TO.N,+5V*
X13462000Y-6604000D03*
G04 #@! TO.P,CON103,A32*
G04 #@! TO.N,GND*
X13462000Y-6350000D03*
G04 #@! TO.P,CON103,A23*
G04 #@! TO.N,Net-(CON103-PadA23)*
X13462000Y-8636000D03*
G04 #@! TO.P,CON103,A24*
G04 #@! TO.N,Net-(CON103-PadA24)*
X13462000Y-8382000D03*
G04 #@! TO.P,CON103,A25*
G04 #@! TO.N,Net-(CON103-PadA25)*
X13462000Y-8128000D03*
G04 #@! TO.P,CON103,A26*
G04 #@! TO.N,Net-(CON103-PadA26)*
X13462000Y-7874000D03*
G04 #@! TD*
G04 #@! TO.P,CON104,44*
G04 #@! TO.N,Net-(CON104-Pad44)*
X15938500Y-12573000D03*
G04 #@! TO.P,CON104,42*
G04 #@! TO.N,Net-(CON104-Pad42)*
X15938500Y-12319000D03*
G04 #@! TO.P,CON104,40*
G04 #@! TO.N,Net-(CON104-Pad40)*
X15938500Y-12065000D03*
G04 #@! TO.P,CON104,38*
G04 #@! TO.N,Net-(CON104-Pad38)*
X15938500Y-11811000D03*
G04 #@! TO.P,CON104,36*
G04 #@! TO.N,Net-(CON104-Pad36)*
X15938500Y-11557000D03*
G04 #@! TO.P,CON104,34*
G04 #@! TO.N,Net-(CON104-Pad34)*
X15938500Y-11303000D03*
G04 #@! TO.P,CON104,32*
G04 #@! TO.N,Net-(CON104-Pad32)*
X15938500Y-11049000D03*
G04 #@! TO.P,CON104,30*
G04 #@! TO.N,Net-(CON104-Pad30)*
X15938500Y-10795000D03*
G04 #@! TO.P,CON104,28*
G04 #@! TO.N,Net-(CON104-Pad28)*
X15938500Y-10541000D03*
G04 #@! TO.P,CON104,26*
G04 #@! TO.N,Net-(CON104-Pad26)*
X15938500Y-10287000D03*
G04 #@! TO.P,CON104,24*
G04 #@! TO.N,Net-(CON104-Pad24)*
X15938500Y-10033000D03*
G04 #@! TO.P,CON104,22*
G04 #@! TO.N,Net-(CON104-Pad22)*
X15938500Y-9779000D03*
G04 #@! TO.P,CON104,20*
G04 #@! TO.N,GND*
X15938500Y-9525000D03*
G04 #@! TO.P,CON104,18*
G04 #@! TO.N,Net-(CON104-Pad18)*
X15938500Y-9271000D03*
G04 #@! TO.P,CON104,16*
G04 #@! TO.N,Net-(CON104-Pad16)*
X15938500Y-9017000D03*
G04 #@! TO.P,CON104,14*
G04 #@! TO.N,Net-(CON104-Pad14)*
X15938500Y-8763000D03*
G04 #@! TO.P,CON104,12*
G04 #@! TO.N,Net-(CON104-Pad12)*
X15938500Y-8509000D03*
G04 #@! TO.P,CON104,10*
G04 #@! TO.N,Net-(CON104-Pad10)*
X15938500Y-8255000D03*
G04 #@! TO.P,CON104,8*
G04 #@! TO.N,Net-(CON104-Pad8)*
X15938500Y-8001000D03*
G04 #@! TO.P,CON104,6*
G04 #@! TO.N,Net-(CON104-Pad6)*
X15938500Y-7747000D03*
G04 #@! TO.P,CON104,4*
G04 #@! TO.N,Net-(CON104-Pad4)*
X15938500Y-7493000D03*
G04 #@! TO.P,CON104,2*
G04 #@! TO.N,Net-(CON104-Pad2)*
X15938500Y-7239000D03*
G04 #@! TO.P,CON104,43*
G04 #@! TO.N,Net-(CON104-Pad43)*
X15430500Y-12573000D03*
G04 #@! TO.P,CON104,41*
G04 #@! TO.N,Net-(CON104-Pad41)*
X15430500Y-12319000D03*
G04 #@! TO.P,CON104,39*
G04 #@! TO.N,Net-(CON104-Pad39)*
X15430500Y-12065000D03*
G04 #@! TO.P,CON104,37*
G04 #@! TO.N,Net-(CON104-Pad37)*
X15430500Y-11811000D03*
G04 #@! TO.P,CON104,35*
G04 #@! TO.N,+5V*
X15430500Y-11557000D03*
G04 #@! TO.P,CON104,33*
G04 #@! TO.N,Net-(CON104-Pad33)*
X15430500Y-11303000D03*
G04 #@! TO.P,CON104,31*
G04 #@! TO.N,Net-(CON104-Pad31)*
X15430500Y-11049000D03*
G04 #@! TO.P,CON104,29*
G04 #@! TO.N,Net-(CON104-Pad29)*
X15430500Y-10795000D03*
G04 #@! TO.P,CON104,27*
G04 #@! TO.N,Net-(CON104-Pad27)*
X15430500Y-10541000D03*
G04 #@! TO.P,CON104,25*
G04 #@! TO.N,Net-(CON104-Pad25)*
X15430500Y-10287000D03*
G04 #@! TO.P,CON104,23*
G04 #@! TO.N,Net-(CON104-Pad23)*
X15430500Y-10033000D03*
G04 #@! TO.P,CON104,21*
G04 #@! TO.N,GND*
X15430500Y-9779000D03*
G04 #@! TO.P,CON104,19*
X15430500Y-9525000D03*
G04 #@! TO.P,CON104,17*
G04 #@! TO.N,Net-(CON104-Pad17)*
X15430500Y-9271000D03*
G04 #@! TO.P,CON104,15*
G04 #@! TO.N,Net-(CON104-Pad15)*
X15430500Y-9017000D03*
G04 #@! TO.P,CON104,13*
G04 #@! TO.N,Net-(CON104-Pad13)*
X15430500Y-8763000D03*
G04 #@! TO.P,CON104,11*
G04 #@! TO.N,Net-(CON104-Pad11)*
X15430500Y-8509000D03*
G04 #@! TO.P,CON104,9*
G04 #@! TO.N,Net-(CON104-Pad9)*
X15430500Y-8255000D03*
G04 #@! TO.P,CON104,7*
G04 #@! TO.N,Net-(CON104-Pad7)*
X15430500Y-8001000D03*
G04 #@! TO.P,CON104,5*
G04 #@! TO.N,Net-(CON104-Pad5)*
X15430500Y-7747000D03*
G04 #@! TO.P,CON104,3*
G04 #@! TO.N,Net-(CON104-Pad3)*
X15430500Y-7493000D03*
G04 #@! TO.P,CON104,1*
G04 #@! TO.N,+5V*
X15430500Y-7239000D03*
G04 #@! TO.P,CON104,45*
G04 #@! TO.N,Net-(CON104-Pad45)*
X15430500Y-12827000D03*
G04 #@! TO.P,CON104,47*
G04 #@! TO.N,Net-(CON104-Pad47)*
X15430500Y-13081000D03*
G04 #@! TO.P,CON104,49*
G04 #@! TO.N,Net-(CON104-Pad49)*
X15430500Y-13335000D03*
G04 #@! TO.P,CON104,46*
G04 #@! TO.N,Net-(CON104-Pad46)*
X15938500Y-12827000D03*
G04 #@! TO.P,CON104,48*
G04 #@! TO.N,Net-(CON104-Pad48)*
X15938500Y-13081000D03*
G04 #@! TO.P,CON104,50*
G04 #@! TO.N,Net-(CON104-Pad50)*
X15938500Y-13335000D03*
G04 #@! TD*
D12*
G04 #@! TO.N,GND*
G36*
X17517110Y-16310610D02*
X11883390Y-16310610D01*
X11883390Y-15952234D01*
X11941810Y-15952234D01*
X11941810Y-16051766D01*
X11979899Y-16143721D01*
X12050279Y-16214101D01*
X12142234Y-16252190D01*
X12241766Y-16252190D01*
X12333721Y-16214101D01*
X12404101Y-16143721D01*
X12442190Y-16051766D01*
X12442190Y-15952234D01*
X16958310Y-15952234D01*
X16958310Y-16051766D01*
X16996399Y-16143721D01*
X17066779Y-16214101D01*
X17158734Y-16252190D01*
X17258266Y-16252190D01*
X17350221Y-16214101D01*
X17420601Y-16143721D01*
X17458690Y-16051766D01*
X17458690Y-15952234D01*
X17420601Y-15860279D01*
X17350221Y-15789899D01*
X17258266Y-15751810D01*
X17158734Y-15751810D01*
X17066779Y-15789899D01*
X16996399Y-15860279D01*
X16958310Y-15952234D01*
X12442190Y-15952234D01*
X12404101Y-15860279D01*
X12333721Y-15789899D01*
X12241766Y-15751810D01*
X12142234Y-15751810D01*
X12050279Y-15789899D01*
X11979899Y-15860279D01*
X11941810Y-15952234D01*
X11883390Y-15952234D01*
X11883390Y-14322311D01*
X13387038Y-14322311D01*
X13394498Y-14344997D01*
X13445940Y-14361618D01*
X13499827Y-14357289D01*
X13529502Y-14344997D01*
X13536962Y-14322311D01*
X13462000Y-14247349D01*
X13387038Y-14322311D01*
X11883390Y-14322311D01*
X11883390Y-14207940D01*
X13324382Y-14207940D01*
X13328711Y-14261827D01*
X13341003Y-14291502D01*
X13363689Y-14298962D01*
X13438651Y-14224000D01*
X13485349Y-14224000D01*
X13560311Y-14298962D01*
X13582997Y-14291502D01*
X13599618Y-14240060D01*
X13595289Y-14186173D01*
X13582997Y-14156498D01*
X13560311Y-14149038D01*
X13485349Y-14224000D01*
X13438651Y-14224000D01*
X13363689Y-14149038D01*
X13341003Y-14156498D01*
X13324382Y-14207940D01*
X11883390Y-14207940D01*
X11883390Y-10132970D01*
X13326110Y-10132970D01*
X13326110Y-10187030D01*
X13346798Y-10236976D01*
X13385024Y-10275202D01*
X13413507Y-10287000D01*
X13385024Y-10298798D01*
X13346798Y-10337025D01*
X13326110Y-10386970D01*
X13326110Y-10441030D01*
X13346798Y-10490976D01*
X13385024Y-10529202D01*
X13413507Y-10541000D01*
X13385024Y-10552798D01*
X13346798Y-10591025D01*
X13326110Y-10640970D01*
X13326110Y-10695030D01*
X13346798Y-10744976D01*
X13385024Y-10783202D01*
X13413507Y-10795000D01*
X13385024Y-10806798D01*
X13346798Y-10845025D01*
X13326110Y-10894970D01*
X13326110Y-10949030D01*
X13346798Y-10998976D01*
X13385024Y-11037202D01*
X13413507Y-11049000D01*
X13385024Y-11060798D01*
X13346798Y-11099025D01*
X13326110Y-11148970D01*
X13326110Y-11203030D01*
X13346798Y-11252975D01*
X13385024Y-11291202D01*
X13413507Y-11303000D01*
X13385024Y-11314798D01*
X13346798Y-11353024D01*
X13326110Y-11402970D01*
X13326110Y-11457030D01*
X13346798Y-11506975D01*
X13385024Y-11545202D01*
X13413507Y-11557000D01*
X13385024Y-11568798D01*
X13346798Y-11607024D01*
X13326110Y-11656970D01*
X13326110Y-11711030D01*
X13346798Y-11760975D01*
X13385024Y-11799202D01*
X13413507Y-11811000D01*
X13385024Y-11822798D01*
X13346798Y-11861024D01*
X13326110Y-11910970D01*
X13326110Y-11965030D01*
X13346798Y-12014975D01*
X13385024Y-12053202D01*
X13413507Y-12065000D01*
X13385024Y-12076798D01*
X13346798Y-12115024D01*
X13326110Y-12164970D01*
X13326110Y-12219030D01*
X13346798Y-12268975D01*
X13385024Y-12307202D01*
X13413507Y-12319000D01*
X13385024Y-12330798D01*
X13346798Y-12369024D01*
X13326110Y-12418970D01*
X13326110Y-12473030D01*
X13346798Y-12522975D01*
X13385024Y-12561202D01*
X13413507Y-12573000D01*
X13385024Y-12584798D01*
X13346798Y-12623024D01*
X13326110Y-12672970D01*
X13326110Y-12727030D01*
X13346798Y-12776975D01*
X13385024Y-12815202D01*
X13413507Y-12827000D01*
X13385024Y-12838798D01*
X13346798Y-12877024D01*
X13326110Y-12926970D01*
X13326110Y-12981030D01*
X13346798Y-13030975D01*
X13385024Y-13069202D01*
X13413507Y-13081000D01*
X13385024Y-13092798D01*
X13346798Y-13131024D01*
X13326110Y-13180970D01*
X13326110Y-13235030D01*
X13346798Y-13284975D01*
X13385024Y-13323202D01*
X13413507Y-13335000D01*
X13385024Y-13346798D01*
X13346798Y-13385024D01*
X13326110Y-13434970D01*
X13326110Y-13489030D01*
X13346798Y-13538975D01*
X13385024Y-13577202D01*
X13413507Y-13589000D01*
X13385024Y-13600798D01*
X13346798Y-13639024D01*
X13326110Y-13688970D01*
X13326110Y-13743030D01*
X13346798Y-13792975D01*
X13385024Y-13831202D01*
X13413507Y-13843000D01*
X13385024Y-13854798D01*
X13346798Y-13893024D01*
X13326110Y-13942970D01*
X13326110Y-13997030D01*
X13346798Y-14046975D01*
X13385024Y-14085202D01*
X13411249Y-14096065D01*
X13394498Y-14103003D01*
X13387038Y-14125689D01*
X13462000Y-14200651D01*
X13536962Y-14125689D01*
X13529502Y-14103003D01*
X13510681Y-14096922D01*
X13538975Y-14085202D01*
X13577202Y-14046975D01*
X13597890Y-13997030D01*
X13597890Y-13942970D01*
X13577202Y-13893024D01*
X13538975Y-13854798D01*
X13510492Y-13843000D01*
X13538975Y-13831202D01*
X13577202Y-13792975D01*
X13597890Y-13743030D01*
X13597890Y-13688970D01*
X13577202Y-13639024D01*
X13538975Y-13600798D01*
X13510492Y-13589000D01*
X13538975Y-13577202D01*
X13577202Y-13538975D01*
X13597890Y-13489030D01*
X13597890Y-13434970D01*
X13577202Y-13385024D01*
X13538975Y-13346798D01*
X13510492Y-13335000D01*
X13538975Y-13323202D01*
X13577202Y-13284975D01*
X13597890Y-13235030D01*
X13597890Y-13180970D01*
X13577202Y-13131024D01*
X13538975Y-13092798D01*
X13510492Y-13081000D01*
X13538975Y-13069202D01*
X13577202Y-13030975D01*
X13597890Y-12981030D01*
X13597890Y-12926970D01*
X13577202Y-12877024D01*
X13538975Y-12838798D01*
X13510492Y-12827000D01*
X13538975Y-12815202D01*
X13577202Y-12776975D01*
X13597890Y-12727030D01*
X13597890Y-12672970D01*
X13577202Y-12623024D01*
X13538975Y-12584798D01*
X13510492Y-12573000D01*
X13538975Y-12561202D01*
X13577202Y-12522975D01*
X13597890Y-12473030D01*
X13597890Y-12418970D01*
X13577202Y-12369024D01*
X13538975Y-12330798D01*
X13510492Y-12319000D01*
X13538975Y-12307202D01*
X13577202Y-12268975D01*
X13597890Y-12219030D01*
X13597890Y-12164970D01*
X13577202Y-12115024D01*
X13538975Y-12076798D01*
X13510492Y-12065000D01*
X13538975Y-12053202D01*
X13577202Y-12014975D01*
X13597890Y-11965030D01*
X13597890Y-11910970D01*
X13577202Y-11861024D01*
X13538975Y-11822798D01*
X13510492Y-11811000D01*
X13538975Y-11799202D01*
X13577202Y-11760975D01*
X13597890Y-11711030D01*
X13597890Y-11656970D01*
X13577202Y-11607024D01*
X13538975Y-11568798D01*
X13510492Y-11557000D01*
X13538975Y-11545202D01*
X13577202Y-11506975D01*
X13597890Y-11457030D01*
X13597890Y-11402970D01*
X13577202Y-11353024D01*
X13538975Y-11314798D01*
X13510492Y-11303000D01*
X13538975Y-11291202D01*
X13577202Y-11252975D01*
X13597890Y-11203030D01*
X13597890Y-11148970D01*
X13577202Y-11099025D01*
X13538975Y-11060798D01*
X13510492Y-11049000D01*
X13538975Y-11037202D01*
X13577202Y-10998976D01*
X13597890Y-10949030D01*
X13597890Y-10894970D01*
X13577202Y-10845025D01*
X13538975Y-10806798D01*
X13510492Y-10795000D01*
X13538975Y-10783202D01*
X13577202Y-10744976D01*
X13597890Y-10695030D01*
X13597890Y-10640970D01*
X13577202Y-10591025D01*
X13538975Y-10552798D01*
X13510492Y-10541000D01*
X13538975Y-10529202D01*
X13577202Y-10490976D01*
X13597890Y-10441030D01*
X13597890Y-10386970D01*
X13577202Y-10337025D01*
X13538975Y-10298798D01*
X13510492Y-10287000D01*
X13538975Y-10275202D01*
X13577202Y-10236976D01*
X13597890Y-10187030D01*
X13597890Y-10132970D01*
X13577202Y-10083025D01*
X13538975Y-10044798D01*
X13512751Y-10033935D01*
X13529502Y-10026997D01*
X13536962Y-10004311D01*
X13462000Y-9929349D01*
X13387038Y-10004311D01*
X13394498Y-10026997D01*
X13413319Y-10033078D01*
X13385024Y-10044798D01*
X13346798Y-10083025D01*
X13326110Y-10132970D01*
X11883390Y-10132970D01*
X11883390Y-9889940D01*
X13324382Y-9889940D01*
X13328711Y-9943827D01*
X13341003Y-9973502D01*
X13363689Y-9980962D01*
X13438651Y-9906000D01*
X13485349Y-9906000D01*
X13560311Y-9980962D01*
X13582997Y-9973502D01*
X13599618Y-9922060D01*
X13595289Y-9868173D01*
X13582997Y-9838498D01*
X13560311Y-9831038D01*
X13485349Y-9906000D01*
X13438651Y-9906000D01*
X13363689Y-9831038D01*
X13341003Y-9838498D01*
X13324382Y-9889940D01*
X11883390Y-9889940D01*
X11883390Y-6576970D01*
X13326110Y-6576970D01*
X13326110Y-6631030D01*
X13346798Y-6680975D01*
X13385024Y-6719202D01*
X13413507Y-6731000D01*
X13385024Y-6742798D01*
X13346798Y-6781024D01*
X13326110Y-6830970D01*
X13326110Y-6885030D01*
X13346798Y-6934975D01*
X13385024Y-6973202D01*
X13413507Y-6985000D01*
X13385024Y-6996798D01*
X13346798Y-7035024D01*
X13326110Y-7084970D01*
X13326110Y-7139030D01*
X13346798Y-7188975D01*
X13385024Y-7227202D01*
X13413507Y-7239000D01*
X13385024Y-7250798D01*
X13346798Y-7289024D01*
X13326110Y-7338970D01*
X13326110Y-7393030D01*
X13346798Y-7442975D01*
X13385024Y-7481202D01*
X13413507Y-7493000D01*
X13385024Y-7504798D01*
X13346798Y-7543024D01*
X13326110Y-7592970D01*
X13326110Y-7647030D01*
X13346798Y-7696975D01*
X13385024Y-7735202D01*
X13413507Y-7747000D01*
X13385024Y-7758798D01*
X13346798Y-7797024D01*
X13326110Y-7846970D01*
X13326110Y-7901030D01*
X13346798Y-7950975D01*
X13385024Y-7989202D01*
X13413507Y-8001000D01*
X13385024Y-8012798D01*
X13346798Y-8051024D01*
X13326110Y-8100970D01*
X13326110Y-8155030D01*
X13346798Y-8204975D01*
X13385024Y-8243202D01*
X13413507Y-8255000D01*
X13385024Y-8266798D01*
X13346798Y-8305024D01*
X13326110Y-8354970D01*
X13326110Y-8409030D01*
X13346798Y-8458976D01*
X13385024Y-8497202D01*
X13413507Y-8509000D01*
X13385024Y-8520798D01*
X13346798Y-8559025D01*
X13326110Y-8608970D01*
X13326110Y-8663030D01*
X13346798Y-8712976D01*
X13385024Y-8751202D01*
X13413507Y-8763000D01*
X13385024Y-8774798D01*
X13346798Y-8813025D01*
X13326110Y-8862970D01*
X13326110Y-8917030D01*
X13346798Y-8966976D01*
X13385024Y-9005202D01*
X13413507Y-9017000D01*
X13385024Y-9028798D01*
X13346798Y-9067025D01*
X13326110Y-9116970D01*
X13326110Y-9171030D01*
X13346798Y-9220976D01*
X13385024Y-9259202D01*
X13413507Y-9271000D01*
X13385024Y-9282798D01*
X13346798Y-9321025D01*
X13326110Y-9370970D01*
X13326110Y-9425030D01*
X13346798Y-9474976D01*
X13385024Y-9513202D01*
X13413507Y-9525000D01*
X13385024Y-9536798D01*
X13346798Y-9575025D01*
X13326110Y-9624970D01*
X13326110Y-9679030D01*
X13346798Y-9728976D01*
X13385024Y-9767202D01*
X13411249Y-9778065D01*
X13394498Y-9785003D01*
X13387038Y-9807689D01*
X13462000Y-9882651D01*
X13536962Y-9807689D01*
X13529502Y-9785003D01*
X13510681Y-9778922D01*
X13538975Y-9767202D01*
X13577202Y-9728976D01*
X13597890Y-9679030D01*
X13597890Y-9624970D01*
X13577202Y-9575025D01*
X13538975Y-9536798D01*
X13510492Y-9525000D01*
X13538975Y-9513202D01*
X13577202Y-9474976D01*
X13597890Y-9425030D01*
X13597890Y-9370970D01*
X13577202Y-9321025D01*
X13538975Y-9282798D01*
X13510492Y-9271000D01*
X13538975Y-9259202D01*
X13577202Y-9220976D01*
X13597890Y-9171030D01*
X13597890Y-9116970D01*
X13577202Y-9067025D01*
X13538975Y-9028798D01*
X13510492Y-9017000D01*
X13538975Y-9005202D01*
X13577202Y-8966976D01*
X13597890Y-8917030D01*
X13597890Y-8862970D01*
X13577202Y-8813025D01*
X13538975Y-8774798D01*
X13510492Y-8763000D01*
X13538975Y-8751202D01*
X13577202Y-8712976D01*
X13597890Y-8663030D01*
X13597890Y-8608970D01*
X13577202Y-8559025D01*
X13538975Y-8520798D01*
X13510492Y-8509000D01*
X13538975Y-8497202D01*
X13577202Y-8458976D01*
X13597890Y-8409030D01*
X13597890Y-8354970D01*
X13577202Y-8305024D01*
X13538975Y-8266798D01*
X13510492Y-8255000D01*
X13538975Y-8243202D01*
X13577202Y-8204975D01*
X13597890Y-8155030D01*
X13597890Y-8100970D01*
X13577202Y-8051024D01*
X13538975Y-8012798D01*
X13510492Y-8001000D01*
X13538975Y-7989202D01*
X13577202Y-7950975D01*
X13597890Y-7901030D01*
X13597890Y-7846970D01*
X13577202Y-7797024D01*
X13538975Y-7758798D01*
X13510492Y-7747000D01*
X13538975Y-7735202D01*
X13577202Y-7696975D01*
X13597890Y-7647030D01*
X13597890Y-7592970D01*
X13577202Y-7543024D01*
X13538975Y-7504798D01*
X13510492Y-7493000D01*
X13538975Y-7481202D01*
X13577202Y-7442975D01*
X13597890Y-7393030D01*
X13597890Y-7338970D01*
X13577202Y-7289024D01*
X13538975Y-7250798D01*
X13510492Y-7239000D01*
X13538975Y-7227202D01*
X13577202Y-7188975D01*
X13597890Y-7139030D01*
X13597890Y-7084970D01*
X13577202Y-7035024D01*
X13538975Y-6996798D01*
X13510492Y-6985000D01*
X13538975Y-6973202D01*
X13577202Y-6934975D01*
X13597890Y-6885030D01*
X13597890Y-6830970D01*
X13577202Y-6781024D01*
X13538975Y-6742798D01*
X13510492Y-6731000D01*
X13538975Y-6719202D01*
X13577202Y-6680975D01*
X13597890Y-6631030D01*
X13597890Y-6576970D01*
X13577202Y-6527024D01*
X13538975Y-6488798D01*
X13512751Y-6477935D01*
X13529502Y-6470997D01*
X13536962Y-6448311D01*
X13462000Y-6373349D01*
X13387038Y-6448311D01*
X13394498Y-6470997D01*
X13413319Y-6477078D01*
X13385024Y-6488798D01*
X13346798Y-6527024D01*
X13326110Y-6576970D01*
X11883390Y-6576970D01*
X11883390Y-6333940D01*
X13324382Y-6333940D01*
X13328711Y-6387827D01*
X13341003Y-6417502D01*
X13363689Y-6424962D01*
X13438651Y-6350000D01*
X13485349Y-6350000D01*
X13560311Y-6424962D01*
X13582997Y-6417502D01*
X13599618Y-6366060D01*
X13596156Y-6322970D01*
X13834110Y-6322970D01*
X13834110Y-6377030D01*
X13854798Y-6426975D01*
X13893024Y-6465202D01*
X13921507Y-6477000D01*
X13893024Y-6488798D01*
X13854798Y-6527024D01*
X13834110Y-6576970D01*
X13834110Y-6631030D01*
X13854798Y-6680975D01*
X13893024Y-6719202D01*
X13921507Y-6731000D01*
X13893024Y-6742798D01*
X13854798Y-6781024D01*
X13834110Y-6830970D01*
X13834110Y-6885030D01*
X13854798Y-6934975D01*
X13893024Y-6973202D01*
X13921507Y-6985000D01*
X13893024Y-6996798D01*
X13854798Y-7035024D01*
X13834110Y-7084970D01*
X13834110Y-7139030D01*
X13854798Y-7188975D01*
X13893024Y-7227202D01*
X13921507Y-7239000D01*
X13893024Y-7250798D01*
X13854798Y-7289024D01*
X13834110Y-7338970D01*
X13834110Y-7393030D01*
X13854798Y-7442975D01*
X13893024Y-7481202D01*
X13921507Y-7493000D01*
X13893024Y-7504798D01*
X13854798Y-7543024D01*
X13834110Y-7592970D01*
X13834110Y-7647030D01*
X13854798Y-7696975D01*
X13893024Y-7735202D01*
X13921507Y-7747000D01*
X13893024Y-7758798D01*
X13854798Y-7797024D01*
X13834110Y-7846970D01*
X13834110Y-7901030D01*
X13854798Y-7950975D01*
X13893024Y-7989202D01*
X13921507Y-8001000D01*
X13893024Y-8012798D01*
X13854798Y-8051024D01*
X13834110Y-8100970D01*
X13834110Y-8155030D01*
X13854798Y-8204975D01*
X13893024Y-8243202D01*
X13921507Y-8255000D01*
X13893024Y-8266798D01*
X13854798Y-8305024D01*
X13834110Y-8354970D01*
X13834110Y-8409030D01*
X13854798Y-8458976D01*
X13893024Y-8497202D01*
X13921507Y-8509000D01*
X13893024Y-8520798D01*
X13854798Y-8559025D01*
X13834110Y-8608970D01*
X13834110Y-8663030D01*
X13854798Y-8712976D01*
X13893024Y-8751202D01*
X13921507Y-8763000D01*
X13893024Y-8774798D01*
X13854798Y-8813025D01*
X13834110Y-8862970D01*
X13834110Y-8917030D01*
X13854798Y-8966976D01*
X13893024Y-9005202D01*
X13921507Y-9017000D01*
X13893024Y-9028798D01*
X13854798Y-9067025D01*
X13834110Y-9116970D01*
X13834110Y-9171030D01*
X13854798Y-9220976D01*
X13893024Y-9259202D01*
X13921507Y-9271000D01*
X13893024Y-9282798D01*
X13854798Y-9321025D01*
X13834110Y-9370970D01*
X13834110Y-9425030D01*
X13854798Y-9474976D01*
X13893024Y-9513202D01*
X13921507Y-9525000D01*
X13893024Y-9536798D01*
X13854798Y-9575025D01*
X13834110Y-9624970D01*
X13834110Y-9679030D01*
X13854798Y-9728976D01*
X13893024Y-9767202D01*
X13921507Y-9779000D01*
X13893024Y-9790798D01*
X13854798Y-9829025D01*
X13834110Y-9878970D01*
X13834110Y-9933030D01*
X13854798Y-9982976D01*
X13893024Y-10021202D01*
X13921507Y-10033000D01*
X13893024Y-10044798D01*
X13854798Y-10083025D01*
X13834110Y-10132970D01*
X13834110Y-10187030D01*
X13854798Y-10236976D01*
X13893024Y-10275202D01*
X13921507Y-10287000D01*
X13893024Y-10298798D01*
X13854798Y-10337025D01*
X13834110Y-10386970D01*
X13834110Y-10441030D01*
X13854798Y-10490976D01*
X13893024Y-10529202D01*
X13921507Y-10541000D01*
X13893024Y-10552798D01*
X13854798Y-10591025D01*
X13834110Y-10640970D01*
X13834110Y-10695030D01*
X13854798Y-10744976D01*
X13893024Y-10783202D01*
X13921507Y-10795000D01*
X13893024Y-10806798D01*
X13854798Y-10845025D01*
X13834110Y-10894970D01*
X13834110Y-10949030D01*
X13854798Y-10998976D01*
X13893024Y-11037202D01*
X13921507Y-11049000D01*
X13893024Y-11060798D01*
X13854798Y-11099025D01*
X13834110Y-11148970D01*
X13834110Y-11203030D01*
X13854798Y-11252975D01*
X13893024Y-11291202D01*
X13921507Y-11303000D01*
X13893024Y-11314798D01*
X13854798Y-11353024D01*
X13834110Y-11402970D01*
X13834110Y-11457030D01*
X13854798Y-11506975D01*
X13893024Y-11545202D01*
X13921507Y-11557000D01*
X13893024Y-11568798D01*
X13854798Y-11607024D01*
X13834110Y-11656970D01*
X13834110Y-11711030D01*
X13854798Y-11760975D01*
X13893024Y-11799202D01*
X13921507Y-11811000D01*
X13893024Y-11822798D01*
X13854798Y-11861024D01*
X13834110Y-11910970D01*
X13834110Y-11965030D01*
X13854798Y-12014975D01*
X13893024Y-12053202D01*
X13921507Y-12065000D01*
X13893024Y-12076798D01*
X13854798Y-12115024D01*
X13834110Y-12164970D01*
X13834110Y-12219030D01*
X13854798Y-12268975D01*
X13893024Y-12307202D01*
X13921507Y-12319000D01*
X13893024Y-12330798D01*
X13854798Y-12369024D01*
X13834110Y-12418970D01*
X13834110Y-12473030D01*
X13854798Y-12522975D01*
X13893024Y-12561202D01*
X13921507Y-12573000D01*
X13893024Y-12584798D01*
X13854798Y-12623024D01*
X13834110Y-12672970D01*
X13834110Y-12727030D01*
X13854798Y-12776975D01*
X13893024Y-12815202D01*
X13921507Y-12827000D01*
X13893024Y-12838798D01*
X13854798Y-12877024D01*
X13834110Y-12926970D01*
X13834110Y-12981030D01*
X13854798Y-13030975D01*
X13893024Y-13069202D01*
X13921507Y-13081000D01*
X13893024Y-13092798D01*
X13854798Y-13131024D01*
X13834110Y-13180970D01*
X13834110Y-13235030D01*
X13854798Y-13284975D01*
X13893024Y-13323202D01*
X13921507Y-13335000D01*
X13893024Y-13346798D01*
X13854798Y-13385024D01*
X13834110Y-13434970D01*
X13834110Y-13489030D01*
X13854798Y-13538975D01*
X13893024Y-13577202D01*
X13921507Y-13589000D01*
X13893024Y-13600798D01*
X13854798Y-13639024D01*
X13834110Y-13688970D01*
X13834110Y-13743030D01*
X13854798Y-13792975D01*
X13893024Y-13831202D01*
X13921507Y-13843000D01*
X13893024Y-13854798D01*
X13854798Y-13893024D01*
X13834110Y-13942970D01*
X13834110Y-13997030D01*
X13854798Y-14046975D01*
X13893024Y-14085202D01*
X13921507Y-14097000D01*
X13893024Y-14108798D01*
X13854798Y-14147024D01*
X13834110Y-14196970D01*
X13834110Y-14251030D01*
X13854798Y-14300975D01*
X13893024Y-14339202D01*
X13942970Y-14359890D01*
X13997030Y-14359890D01*
X14046975Y-14339202D01*
X14085202Y-14300975D01*
X14105890Y-14251030D01*
X14105890Y-14196970D01*
X14085202Y-14147024D01*
X14046975Y-14108798D01*
X14018492Y-14097000D01*
X14046975Y-14085202D01*
X14085202Y-14046975D01*
X14105890Y-13997030D01*
X14105890Y-13942970D01*
X14085202Y-13893024D01*
X14046975Y-13854798D01*
X14018492Y-13843000D01*
X14046975Y-13831202D01*
X14085202Y-13792975D01*
X14105890Y-13743030D01*
X14105890Y-13688970D01*
X14085202Y-13639024D01*
X14046975Y-13600798D01*
X14018492Y-13589000D01*
X14046975Y-13577202D01*
X14085202Y-13538975D01*
X14105890Y-13489030D01*
X14105890Y-13434970D01*
X14085202Y-13385024D01*
X14046975Y-13346798D01*
X14018492Y-13335000D01*
X14046975Y-13323202D01*
X14085202Y-13284975D01*
X14105890Y-13235030D01*
X14105890Y-13180970D01*
X14085202Y-13131024D01*
X14046975Y-13092798D01*
X14018492Y-13081000D01*
X14046975Y-13069202D01*
X14085202Y-13030975D01*
X14105890Y-12981030D01*
X14105890Y-12926970D01*
X14085202Y-12877024D01*
X14046975Y-12838798D01*
X14018492Y-12827000D01*
X14046975Y-12815202D01*
X14085202Y-12776975D01*
X14105890Y-12727030D01*
X14105890Y-12672970D01*
X14085202Y-12623024D01*
X14046975Y-12584798D01*
X14018492Y-12573000D01*
X14046975Y-12561202D01*
X14085202Y-12522975D01*
X14105890Y-12473030D01*
X14105890Y-12418970D01*
X14085202Y-12369024D01*
X14046975Y-12330798D01*
X14018492Y-12319000D01*
X14046975Y-12307202D01*
X14085202Y-12268975D01*
X14105890Y-12219030D01*
X14105890Y-12164970D01*
X14085202Y-12115024D01*
X14046975Y-12076798D01*
X14018492Y-12065000D01*
X14046975Y-12053202D01*
X14085202Y-12014975D01*
X14105890Y-11965030D01*
X14105890Y-11910970D01*
X14085202Y-11861024D01*
X14046975Y-11822798D01*
X14018492Y-11811000D01*
X14046975Y-11799202D01*
X14085202Y-11760975D01*
X14105890Y-11711030D01*
X14105890Y-11656970D01*
X14085202Y-11607024D01*
X14046975Y-11568798D01*
X14018492Y-11557000D01*
X14046975Y-11545202D01*
X14085202Y-11506975D01*
X14105890Y-11457030D01*
X14105890Y-11402970D01*
X14085202Y-11353024D01*
X14046975Y-11314798D01*
X14018492Y-11303000D01*
X14046975Y-11291202D01*
X14085202Y-11252975D01*
X14105890Y-11203030D01*
X14105890Y-11148970D01*
X14085202Y-11099025D01*
X14046975Y-11060798D01*
X14018492Y-11049000D01*
X14046975Y-11037202D01*
X14085202Y-10998976D01*
X14105890Y-10949030D01*
X14105890Y-10894970D01*
X14085202Y-10845025D01*
X14046975Y-10806798D01*
X14018492Y-10795000D01*
X14046975Y-10783202D01*
X14085202Y-10744976D01*
X14105890Y-10695030D01*
X14105890Y-10640970D01*
X14085202Y-10591025D01*
X14046975Y-10552798D01*
X14018492Y-10541000D01*
X14046975Y-10529202D01*
X14085202Y-10490976D01*
X14105890Y-10441030D01*
X14105890Y-10386970D01*
X14085202Y-10337025D01*
X14046975Y-10298798D01*
X14018492Y-10287000D01*
X14046975Y-10275202D01*
X14085202Y-10236976D01*
X14105890Y-10187030D01*
X14105890Y-10132970D01*
X14085202Y-10083025D01*
X14046975Y-10044798D01*
X14018492Y-10033000D01*
X14046975Y-10021202D01*
X14062208Y-10005970D01*
X15294610Y-10005970D01*
X15294610Y-10060030D01*
X15315298Y-10109976D01*
X15353524Y-10148202D01*
X15382007Y-10160000D01*
X15353524Y-10171798D01*
X15315298Y-10210025D01*
X15294610Y-10259970D01*
X15294610Y-10314030D01*
X15315298Y-10363976D01*
X15353524Y-10402202D01*
X15382007Y-10414000D01*
X15353524Y-10425798D01*
X15315298Y-10464025D01*
X15294610Y-10513970D01*
X15294610Y-10568030D01*
X15315298Y-10617976D01*
X15353524Y-10656202D01*
X15382007Y-10668000D01*
X15353524Y-10679798D01*
X15315298Y-10718025D01*
X15294610Y-10767970D01*
X15294610Y-10822030D01*
X15315298Y-10871976D01*
X15353524Y-10910202D01*
X15382007Y-10922000D01*
X15353524Y-10933798D01*
X15315298Y-10972025D01*
X15294610Y-11021970D01*
X15294610Y-11076030D01*
X15315298Y-11125976D01*
X15353524Y-11164202D01*
X15382007Y-11176000D01*
X15353524Y-11187798D01*
X15315298Y-11226024D01*
X15294610Y-11275970D01*
X15294610Y-11330030D01*
X15315298Y-11379975D01*
X15353524Y-11418202D01*
X15382007Y-11430000D01*
X15353524Y-11441798D01*
X15315298Y-11480024D01*
X15294610Y-11529970D01*
X15294610Y-11584030D01*
X15315298Y-11633975D01*
X15353524Y-11672202D01*
X15382007Y-11684000D01*
X15353524Y-11695798D01*
X15315298Y-11734024D01*
X15294610Y-11783970D01*
X15294610Y-11838030D01*
X15315298Y-11887975D01*
X15353524Y-11926202D01*
X15382007Y-11938000D01*
X15353524Y-11949798D01*
X15315298Y-11988024D01*
X15294610Y-12037970D01*
X15294610Y-12092030D01*
X15315298Y-12141975D01*
X15353524Y-12180202D01*
X15382007Y-12192000D01*
X15353524Y-12203798D01*
X15315298Y-12242024D01*
X15294610Y-12291970D01*
X15294610Y-12346030D01*
X15315298Y-12395975D01*
X15353524Y-12434202D01*
X15382007Y-12446000D01*
X15353524Y-12457798D01*
X15315298Y-12496024D01*
X15294610Y-12545970D01*
X15294610Y-12600030D01*
X15315298Y-12649975D01*
X15353524Y-12688202D01*
X15382007Y-12700000D01*
X15353524Y-12711798D01*
X15315298Y-12750024D01*
X15294610Y-12799970D01*
X15294610Y-12854030D01*
X15315298Y-12903975D01*
X15353524Y-12942202D01*
X15382007Y-12954000D01*
X15353524Y-12965798D01*
X15315298Y-13004024D01*
X15294610Y-13053970D01*
X15294610Y-13108030D01*
X15315298Y-13157975D01*
X15353524Y-13196202D01*
X15382007Y-13208000D01*
X15353524Y-13219798D01*
X15315298Y-13258024D01*
X15294610Y-13307970D01*
X15294610Y-13362030D01*
X15315298Y-13411975D01*
X15353524Y-13450202D01*
X15403470Y-13470890D01*
X15457530Y-13470890D01*
X15507475Y-13450202D01*
X15545702Y-13411975D01*
X15566390Y-13362030D01*
X15566390Y-13307970D01*
X15545702Y-13258024D01*
X15507475Y-13219798D01*
X15478992Y-13208000D01*
X15507475Y-13196202D01*
X15545702Y-13157975D01*
X15566390Y-13108030D01*
X15566390Y-13053970D01*
X15545702Y-13004024D01*
X15507475Y-12965798D01*
X15478992Y-12954000D01*
X15507475Y-12942202D01*
X15545702Y-12903975D01*
X15566390Y-12854030D01*
X15566390Y-12799970D01*
X15545702Y-12750024D01*
X15507475Y-12711798D01*
X15478992Y-12700000D01*
X15507475Y-12688202D01*
X15545702Y-12649975D01*
X15566390Y-12600030D01*
X15566390Y-12545970D01*
X15545702Y-12496024D01*
X15507475Y-12457798D01*
X15478992Y-12446000D01*
X15507475Y-12434202D01*
X15545702Y-12395975D01*
X15566390Y-12346030D01*
X15566390Y-12291970D01*
X15545702Y-12242024D01*
X15507475Y-12203798D01*
X15478992Y-12192000D01*
X15507475Y-12180202D01*
X15545702Y-12141975D01*
X15566390Y-12092030D01*
X15566390Y-12037970D01*
X15545702Y-11988024D01*
X15507475Y-11949798D01*
X15478992Y-11938000D01*
X15507475Y-11926202D01*
X15545702Y-11887975D01*
X15566390Y-11838030D01*
X15566390Y-11783970D01*
X15545702Y-11734024D01*
X15507475Y-11695798D01*
X15478992Y-11684000D01*
X15507475Y-11672202D01*
X15545702Y-11633975D01*
X15566390Y-11584030D01*
X15566390Y-11529970D01*
X15545702Y-11480024D01*
X15507475Y-11441798D01*
X15478992Y-11430000D01*
X15507475Y-11418202D01*
X15545702Y-11379975D01*
X15566390Y-11330030D01*
X15566390Y-11275970D01*
X15545702Y-11226024D01*
X15507475Y-11187798D01*
X15478992Y-11176000D01*
X15507475Y-11164202D01*
X15545702Y-11125976D01*
X15566390Y-11076030D01*
X15566390Y-11021970D01*
X15545702Y-10972025D01*
X15507475Y-10933798D01*
X15478992Y-10922000D01*
X15507475Y-10910202D01*
X15545702Y-10871976D01*
X15566390Y-10822030D01*
X15566390Y-10767970D01*
X15545702Y-10718025D01*
X15507475Y-10679798D01*
X15478992Y-10668000D01*
X15507475Y-10656202D01*
X15545702Y-10617976D01*
X15566390Y-10568030D01*
X15566390Y-10513970D01*
X15545702Y-10464025D01*
X15507475Y-10425798D01*
X15478992Y-10414000D01*
X15507475Y-10402202D01*
X15545702Y-10363976D01*
X15566390Y-10314030D01*
X15566390Y-10259970D01*
X15545702Y-10210025D01*
X15507475Y-10171798D01*
X15478992Y-10160000D01*
X15507475Y-10148202D01*
X15545702Y-10109976D01*
X15566390Y-10060030D01*
X15566390Y-10005970D01*
X15545702Y-9956025D01*
X15507475Y-9917798D01*
X15481251Y-9906935D01*
X15498002Y-9899997D01*
X15505462Y-9877311D01*
X15430500Y-9802349D01*
X15355538Y-9877311D01*
X15362998Y-9899997D01*
X15381819Y-9906078D01*
X15353524Y-9917798D01*
X15315298Y-9956025D01*
X15294610Y-10005970D01*
X14062208Y-10005970D01*
X14085202Y-9982976D01*
X14105890Y-9933030D01*
X14105890Y-9878970D01*
X14085202Y-9829025D01*
X14046975Y-9790798D01*
X14018492Y-9779000D01*
X14046975Y-9767202D01*
X14051237Y-9762940D01*
X15292882Y-9762940D01*
X15297211Y-9816827D01*
X15309503Y-9846502D01*
X15332189Y-9853962D01*
X15407151Y-9779000D01*
X15453849Y-9779000D01*
X15528811Y-9853962D01*
X15551497Y-9846502D01*
X15568118Y-9795060D01*
X15564656Y-9751970D01*
X15802610Y-9751970D01*
X15802610Y-9806030D01*
X15823298Y-9855976D01*
X15861524Y-9894202D01*
X15890007Y-9906000D01*
X15861524Y-9917798D01*
X15823298Y-9956025D01*
X15802610Y-10005970D01*
X15802610Y-10060030D01*
X15823298Y-10109976D01*
X15861524Y-10148202D01*
X15890007Y-10160000D01*
X15861524Y-10171798D01*
X15823298Y-10210025D01*
X15802610Y-10259970D01*
X15802610Y-10314030D01*
X15823298Y-10363976D01*
X15861524Y-10402202D01*
X15890007Y-10414000D01*
X15861524Y-10425798D01*
X15823298Y-10464025D01*
X15802610Y-10513970D01*
X15802610Y-10568030D01*
X15823298Y-10617976D01*
X15861524Y-10656202D01*
X15890007Y-10668000D01*
X15861524Y-10679798D01*
X15823298Y-10718025D01*
X15802610Y-10767970D01*
X15802610Y-10822030D01*
X15823298Y-10871976D01*
X15861524Y-10910202D01*
X15890007Y-10922000D01*
X15861524Y-10933798D01*
X15823298Y-10972025D01*
X15802610Y-11021970D01*
X15802610Y-11076030D01*
X15823298Y-11125976D01*
X15861524Y-11164202D01*
X15890007Y-11176000D01*
X15861524Y-11187798D01*
X15823298Y-11226024D01*
X15802610Y-11275970D01*
X15802610Y-11330030D01*
X15823298Y-11379975D01*
X15861524Y-11418202D01*
X15890007Y-11430000D01*
X15861524Y-11441798D01*
X15823298Y-11480024D01*
X15802610Y-11529970D01*
X15802610Y-11584030D01*
X15823298Y-11633975D01*
X15861524Y-11672202D01*
X15890007Y-11684000D01*
X15861524Y-11695798D01*
X15823298Y-11734024D01*
X15802610Y-11783970D01*
X15802610Y-11838030D01*
X15823298Y-11887975D01*
X15861524Y-11926202D01*
X15890007Y-11938000D01*
X15861524Y-11949798D01*
X15823298Y-11988024D01*
X15802610Y-12037970D01*
X15802610Y-12092030D01*
X15823298Y-12141975D01*
X15861524Y-12180202D01*
X15890007Y-12192000D01*
X15861524Y-12203798D01*
X15823298Y-12242024D01*
X15802610Y-12291970D01*
X15802610Y-12346030D01*
X15823298Y-12395975D01*
X15861524Y-12434202D01*
X15890007Y-12446000D01*
X15861524Y-12457798D01*
X15823298Y-12496024D01*
X15802610Y-12545970D01*
X15802610Y-12600030D01*
X15823298Y-12649975D01*
X15861524Y-12688202D01*
X15890007Y-12700000D01*
X15861524Y-12711798D01*
X15823298Y-12750024D01*
X15802610Y-12799970D01*
X15802610Y-12854030D01*
X15823298Y-12903975D01*
X15861524Y-12942202D01*
X15890007Y-12954000D01*
X15861524Y-12965798D01*
X15823298Y-13004024D01*
X15802610Y-13053970D01*
X15802610Y-13108030D01*
X15823298Y-13157975D01*
X15861524Y-13196202D01*
X15890007Y-13208000D01*
X15861524Y-13219798D01*
X15823298Y-13258024D01*
X15802610Y-13307970D01*
X15802610Y-13362030D01*
X15823298Y-13411975D01*
X15861524Y-13450202D01*
X15911470Y-13470890D01*
X15965530Y-13470890D01*
X16015475Y-13450202D01*
X16053702Y-13411975D01*
X16074390Y-13362030D01*
X16074390Y-13307970D01*
X16053702Y-13258024D01*
X16015475Y-13219798D01*
X15986992Y-13208000D01*
X16015475Y-13196202D01*
X16053702Y-13157975D01*
X16074390Y-13108030D01*
X16074390Y-13053970D01*
X16053702Y-13004024D01*
X16015475Y-12965798D01*
X15986992Y-12954000D01*
X16015475Y-12942202D01*
X16053702Y-12903975D01*
X16074390Y-12854030D01*
X16074390Y-12799970D01*
X16053702Y-12750024D01*
X16015475Y-12711798D01*
X15986992Y-12700000D01*
X16015475Y-12688202D01*
X16053702Y-12649975D01*
X16074390Y-12600030D01*
X16074390Y-12545970D01*
X16053702Y-12496024D01*
X16015475Y-12457798D01*
X15986992Y-12446000D01*
X16015475Y-12434202D01*
X16053702Y-12395975D01*
X16074390Y-12346030D01*
X16074390Y-12291970D01*
X16053702Y-12242024D01*
X16015475Y-12203798D01*
X15986992Y-12192000D01*
X16015475Y-12180202D01*
X16053702Y-12141975D01*
X16074390Y-12092030D01*
X16074390Y-12037970D01*
X16053702Y-11988024D01*
X16015475Y-11949798D01*
X15986992Y-11938000D01*
X16015475Y-11926202D01*
X16053702Y-11887975D01*
X16074390Y-11838030D01*
X16074390Y-11783970D01*
X16053702Y-11734024D01*
X16015475Y-11695798D01*
X15986992Y-11684000D01*
X16015475Y-11672202D01*
X16053702Y-11633975D01*
X16074390Y-11584030D01*
X16074390Y-11529970D01*
X16053702Y-11480024D01*
X16015475Y-11441798D01*
X15986992Y-11430000D01*
X16015475Y-11418202D01*
X16053702Y-11379975D01*
X16074390Y-11330030D01*
X16074390Y-11275970D01*
X16053702Y-11226024D01*
X16015475Y-11187798D01*
X15986992Y-11176000D01*
X16015475Y-11164202D01*
X16053702Y-11125976D01*
X16074390Y-11076030D01*
X16074390Y-11021970D01*
X16053702Y-10972025D01*
X16015475Y-10933798D01*
X15986992Y-10922000D01*
X16015475Y-10910202D01*
X16053702Y-10871976D01*
X16074390Y-10822030D01*
X16074390Y-10767970D01*
X16053702Y-10718025D01*
X16015475Y-10679798D01*
X15986992Y-10668000D01*
X16015475Y-10656202D01*
X16053702Y-10617976D01*
X16074390Y-10568030D01*
X16074390Y-10513970D01*
X16053702Y-10464025D01*
X16015475Y-10425798D01*
X15986992Y-10414000D01*
X16015475Y-10402202D01*
X16053702Y-10363976D01*
X16074390Y-10314030D01*
X16074390Y-10259970D01*
X16053702Y-10210025D01*
X16015475Y-10171798D01*
X15986992Y-10160000D01*
X16015475Y-10148202D01*
X16053702Y-10109976D01*
X16074390Y-10060030D01*
X16074390Y-10005970D01*
X16053702Y-9956025D01*
X16015475Y-9917798D01*
X15986992Y-9906000D01*
X16015475Y-9894202D01*
X16053702Y-9855976D01*
X16074390Y-9806030D01*
X16074390Y-9751970D01*
X16053702Y-9702025D01*
X16015475Y-9663798D01*
X15989251Y-9652935D01*
X16006002Y-9645997D01*
X16013462Y-9623311D01*
X15938500Y-9548349D01*
X15863538Y-9623311D01*
X15870998Y-9645997D01*
X15889819Y-9652078D01*
X15861524Y-9663798D01*
X15823298Y-9702025D01*
X15802610Y-9751970D01*
X15564656Y-9751970D01*
X15563789Y-9741173D01*
X15551497Y-9711498D01*
X15528811Y-9704038D01*
X15453849Y-9779000D01*
X15407151Y-9779000D01*
X15332189Y-9704038D01*
X15309503Y-9711498D01*
X15292882Y-9762940D01*
X14051237Y-9762940D01*
X14085202Y-9728976D01*
X14105890Y-9679030D01*
X14105890Y-9624970D01*
X14105203Y-9623311D01*
X15355538Y-9623311D01*
X15362998Y-9645997D01*
X15379282Y-9651258D01*
X15362998Y-9658003D01*
X15355538Y-9680689D01*
X15430500Y-9755651D01*
X15505462Y-9680689D01*
X15498002Y-9658003D01*
X15481718Y-9652742D01*
X15498002Y-9645997D01*
X15505462Y-9623311D01*
X15430500Y-9548349D01*
X15355538Y-9623311D01*
X14105203Y-9623311D01*
X14085202Y-9575025D01*
X14046975Y-9536798D01*
X14018492Y-9525000D01*
X14046975Y-9513202D01*
X14051237Y-9508940D01*
X15292882Y-9508940D01*
X15297211Y-9562827D01*
X15309503Y-9592502D01*
X15332189Y-9599962D01*
X15407151Y-9525000D01*
X15453849Y-9525000D01*
X15528811Y-9599962D01*
X15551497Y-9592502D01*
X15568118Y-9541060D01*
X15565538Y-9508940D01*
X15800882Y-9508940D01*
X15805211Y-9562827D01*
X15817503Y-9592502D01*
X15840189Y-9599962D01*
X15915151Y-9525000D01*
X15961849Y-9525000D01*
X16036811Y-9599962D01*
X16059497Y-9592502D01*
X16076118Y-9541060D01*
X16071789Y-9487173D01*
X16059497Y-9457498D01*
X16036811Y-9450038D01*
X15961849Y-9525000D01*
X15915151Y-9525000D01*
X15840189Y-9450038D01*
X15817503Y-9457498D01*
X15800882Y-9508940D01*
X15565538Y-9508940D01*
X15563789Y-9487173D01*
X15551497Y-9457498D01*
X15528811Y-9450038D01*
X15453849Y-9525000D01*
X15407151Y-9525000D01*
X15332189Y-9450038D01*
X15309503Y-9457498D01*
X15292882Y-9508940D01*
X14051237Y-9508940D01*
X14085202Y-9474976D01*
X14105890Y-9425030D01*
X14105890Y-9370970D01*
X14085202Y-9321025D01*
X14046975Y-9282798D01*
X14018492Y-9271000D01*
X14046975Y-9259202D01*
X14085202Y-9220976D01*
X14105890Y-9171030D01*
X14105890Y-9116970D01*
X14085202Y-9067025D01*
X14046975Y-9028798D01*
X14018492Y-9017000D01*
X14046975Y-9005202D01*
X14085202Y-8966976D01*
X14105890Y-8917030D01*
X14105890Y-8862970D01*
X14085202Y-8813025D01*
X14046975Y-8774798D01*
X14018492Y-8763000D01*
X14046975Y-8751202D01*
X14085202Y-8712976D01*
X14105890Y-8663030D01*
X14105890Y-8608970D01*
X14085202Y-8559025D01*
X14046975Y-8520798D01*
X14018492Y-8509000D01*
X14046975Y-8497202D01*
X14085202Y-8458976D01*
X14105890Y-8409030D01*
X14105890Y-8354970D01*
X14085202Y-8305024D01*
X14046975Y-8266798D01*
X14018492Y-8255000D01*
X14046975Y-8243202D01*
X14085202Y-8204975D01*
X14105890Y-8155030D01*
X14105890Y-8100970D01*
X14085202Y-8051024D01*
X14046975Y-8012798D01*
X14018492Y-8001000D01*
X14046975Y-7989202D01*
X14085202Y-7950975D01*
X14105890Y-7901030D01*
X14105890Y-7846970D01*
X14085202Y-7797024D01*
X14046975Y-7758798D01*
X14018492Y-7747000D01*
X14046975Y-7735202D01*
X14085202Y-7696975D01*
X14105890Y-7647030D01*
X14105890Y-7592970D01*
X14085202Y-7543024D01*
X14046975Y-7504798D01*
X14018492Y-7493000D01*
X14046975Y-7481202D01*
X14085202Y-7442975D01*
X14105890Y-7393030D01*
X14105890Y-7338970D01*
X14085202Y-7289024D01*
X14046975Y-7250798D01*
X14018492Y-7239000D01*
X14046975Y-7227202D01*
X14062208Y-7211970D01*
X15294610Y-7211970D01*
X15294610Y-7266030D01*
X15315298Y-7315975D01*
X15353524Y-7354202D01*
X15382007Y-7366000D01*
X15353524Y-7377798D01*
X15315298Y-7416024D01*
X15294610Y-7465970D01*
X15294610Y-7520030D01*
X15315298Y-7569975D01*
X15353524Y-7608202D01*
X15382007Y-7620000D01*
X15353524Y-7631798D01*
X15315298Y-7670024D01*
X15294610Y-7719970D01*
X15294610Y-7774030D01*
X15315298Y-7823975D01*
X15353524Y-7862202D01*
X15382007Y-7874000D01*
X15353524Y-7885798D01*
X15315298Y-7924024D01*
X15294610Y-7973970D01*
X15294610Y-8028030D01*
X15315298Y-8077975D01*
X15353524Y-8116202D01*
X15382007Y-8128000D01*
X15353524Y-8139798D01*
X15315298Y-8178024D01*
X15294610Y-8227970D01*
X15294610Y-8282030D01*
X15315298Y-8331975D01*
X15353524Y-8370202D01*
X15382007Y-8382000D01*
X15353524Y-8393798D01*
X15315298Y-8432025D01*
X15294610Y-8481970D01*
X15294610Y-8536030D01*
X15315298Y-8585976D01*
X15353524Y-8624202D01*
X15382007Y-8636000D01*
X15353524Y-8647798D01*
X15315298Y-8686025D01*
X15294610Y-8735970D01*
X15294610Y-8790030D01*
X15315298Y-8839976D01*
X15353524Y-8878202D01*
X15382007Y-8890000D01*
X15353524Y-8901798D01*
X15315298Y-8940025D01*
X15294610Y-8989970D01*
X15294610Y-9044030D01*
X15315298Y-9093976D01*
X15353524Y-9132202D01*
X15382007Y-9144000D01*
X15353524Y-9155798D01*
X15315298Y-9194025D01*
X15294610Y-9243970D01*
X15294610Y-9298030D01*
X15315298Y-9347976D01*
X15353524Y-9386202D01*
X15379749Y-9397065D01*
X15362998Y-9404003D01*
X15355538Y-9426689D01*
X15430500Y-9501651D01*
X15505462Y-9426689D01*
X15498002Y-9404003D01*
X15479181Y-9397922D01*
X15507475Y-9386202D01*
X15545702Y-9347976D01*
X15566390Y-9298030D01*
X15566390Y-9243970D01*
X15545702Y-9194025D01*
X15507475Y-9155798D01*
X15478992Y-9144000D01*
X15507475Y-9132202D01*
X15545702Y-9093976D01*
X15566390Y-9044030D01*
X15566390Y-8989970D01*
X15545702Y-8940025D01*
X15507475Y-8901798D01*
X15478992Y-8890000D01*
X15507475Y-8878202D01*
X15545702Y-8839976D01*
X15566390Y-8790030D01*
X15566390Y-8735970D01*
X15545702Y-8686025D01*
X15507475Y-8647798D01*
X15478992Y-8636000D01*
X15507475Y-8624202D01*
X15545702Y-8585976D01*
X15566390Y-8536030D01*
X15566390Y-8481970D01*
X15545702Y-8432025D01*
X15507475Y-8393798D01*
X15478992Y-8382000D01*
X15507475Y-8370202D01*
X15545702Y-8331975D01*
X15566390Y-8282030D01*
X15566390Y-8227970D01*
X15545702Y-8178024D01*
X15507475Y-8139798D01*
X15478992Y-8128000D01*
X15507475Y-8116202D01*
X15545702Y-8077975D01*
X15566390Y-8028030D01*
X15566390Y-7973970D01*
X15545702Y-7924024D01*
X15507475Y-7885798D01*
X15478992Y-7874000D01*
X15507475Y-7862202D01*
X15545702Y-7823975D01*
X15566390Y-7774030D01*
X15566390Y-7719970D01*
X15545702Y-7670024D01*
X15507475Y-7631798D01*
X15478992Y-7620000D01*
X15507475Y-7608202D01*
X15545702Y-7569975D01*
X15566390Y-7520030D01*
X15566390Y-7465970D01*
X15545702Y-7416024D01*
X15507475Y-7377798D01*
X15478992Y-7366000D01*
X15507475Y-7354202D01*
X15545702Y-7315975D01*
X15566390Y-7266030D01*
X15566390Y-7211970D01*
X15802610Y-7211970D01*
X15802610Y-7266030D01*
X15823298Y-7315975D01*
X15861524Y-7354202D01*
X15890007Y-7366000D01*
X15861524Y-7377798D01*
X15823298Y-7416024D01*
X15802610Y-7465970D01*
X15802610Y-7520030D01*
X15823298Y-7569975D01*
X15861524Y-7608202D01*
X15890007Y-7620000D01*
X15861524Y-7631798D01*
X15823298Y-7670024D01*
X15802610Y-7719970D01*
X15802610Y-7774030D01*
X15823298Y-7823975D01*
X15861524Y-7862202D01*
X15890007Y-7874000D01*
X15861524Y-7885798D01*
X15823298Y-7924024D01*
X15802610Y-7973970D01*
X15802610Y-8028030D01*
X15823298Y-8077975D01*
X15861524Y-8116202D01*
X15890007Y-8128000D01*
X15861524Y-8139798D01*
X15823298Y-8178024D01*
X15802610Y-8227970D01*
X15802610Y-8282030D01*
X15823298Y-8331975D01*
X15861524Y-8370202D01*
X15890007Y-8382000D01*
X15861524Y-8393798D01*
X15823298Y-8432025D01*
X15802610Y-8481970D01*
X15802610Y-8536030D01*
X15823298Y-8585976D01*
X15861524Y-8624202D01*
X15890007Y-8636000D01*
X15861524Y-8647798D01*
X15823298Y-8686025D01*
X15802610Y-8735970D01*
X15802610Y-8790030D01*
X15823298Y-8839976D01*
X15861524Y-8878202D01*
X15890007Y-8890000D01*
X15861524Y-8901798D01*
X15823298Y-8940025D01*
X15802610Y-8989970D01*
X15802610Y-9044030D01*
X15823298Y-9093976D01*
X15861524Y-9132202D01*
X15890007Y-9144000D01*
X15861524Y-9155798D01*
X15823298Y-9194025D01*
X15802610Y-9243970D01*
X15802610Y-9298030D01*
X15823298Y-9347976D01*
X15861524Y-9386202D01*
X15887749Y-9397065D01*
X15870998Y-9404003D01*
X15863538Y-9426689D01*
X15938500Y-9501651D01*
X16013462Y-9426689D01*
X16006002Y-9404003D01*
X15987181Y-9397922D01*
X16015475Y-9386202D01*
X16053702Y-9347976D01*
X16074390Y-9298030D01*
X16074390Y-9243970D01*
X16053702Y-9194025D01*
X16015475Y-9155798D01*
X15986992Y-9144000D01*
X16015475Y-9132202D01*
X16053702Y-9093976D01*
X16074390Y-9044030D01*
X16074390Y-8989970D01*
X16053702Y-8940025D01*
X16015475Y-8901798D01*
X15986992Y-8890000D01*
X16015475Y-8878202D01*
X16053702Y-8839976D01*
X16074390Y-8790030D01*
X16074390Y-8735970D01*
X16053702Y-8686025D01*
X16015475Y-8647798D01*
X15986992Y-8636000D01*
X16015475Y-8624202D01*
X16053702Y-8585976D01*
X16074390Y-8536030D01*
X16074390Y-8481970D01*
X16053702Y-8432025D01*
X16015475Y-8393798D01*
X15986992Y-8382000D01*
X16015475Y-8370202D01*
X16053702Y-8331975D01*
X16074390Y-8282030D01*
X16074390Y-8227970D01*
X16053702Y-8178024D01*
X16015475Y-8139798D01*
X15986992Y-8128000D01*
X16015475Y-8116202D01*
X16053702Y-8077975D01*
X16074390Y-8028030D01*
X16074390Y-7973970D01*
X16053702Y-7924024D01*
X16015475Y-7885798D01*
X15986992Y-7874000D01*
X16015475Y-7862202D01*
X16053702Y-7823975D01*
X16074390Y-7774030D01*
X16074390Y-7719970D01*
X16053702Y-7670024D01*
X16015475Y-7631798D01*
X15986992Y-7620000D01*
X16015475Y-7608202D01*
X16053702Y-7569975D01*
X16074390Y-7520030D01*
X16074390Y-7465970D01*
X16053702Y-7416024D01*
X16015475Y-7377798D01*
X15986992Y-7366000D01*
X16015475Y-7354202D01*
X16053702Y-7315975D01*
X16074390Y-7266030D01*
X16074390Y-7211970D01*
X16053702Y-7162024D01*
X16015475Y-7123798D01*
X15965530Y-7103110D01*
X15911470Y-7103110D01*
X15861524Y-7123798D01*
X15823298Y-7162024D01*
X15802610Y-7211970D01*
X15566390Y-7211970D01*
X15545702Y-7162024D01*
X15507475Y-7123798D01*
X15457530Y-7103110D01*
X15403470Y-7103110D01*
X15353524Y-7123798D01*
X15315298Y-7162024D01*
X15294610Y-7211970D01*
X14062208Y-7211970D01*
X14085202Y-7188975D01*
X14105890Y-7139030D01*
X14105890Y-7084970D01*
X14085202Y-7035024D01*
X14046975Y-6996798D01*
X14018492Y-6985000D01*
X14046975Y-6973202D01*
X14085202Y-6934975D01*
X14105890Y-6885030D01*
X14105890Y-6830970D01*
X14085202Y-6781024D01*
X14046975Y-6742798D01*
X14018492Y-6731000D01*
X14046975Y-6719202D01*
X14085202Y-6680975D01*
X14105890Y-6631030D01*
X14105890Y-6576970D01*
X14085202Y-6527024D01*
X14046975Y-6488798D01*
X14018492Y-6477000D01*
X14046975Y-6465202D01*
X14085202Y-6426975D01*
X14105890Y-6377030D01*
X14105890Y-6322970D01*
X14085202Y-6273024D01*
X14046975Y-6234798D01*
X13997030Y-6214110D01*
X13942970Y-6214110D01*
X13893024Y-6234798D01*
X13854798Y-6273024D01*
X13834110Y-6322970D01*
X13596156Y-6322970D01*
X13595289Y-6312173D01*
X13582997Y-6282498D01*
X13560311Y-6275038D01*
X13485349Y-6350000D01*
X13438651Y-6350000D01*
X13363689Y-6275038D01*
X13341003Y-6282498D01*
X13324382Y-6333940D01*
X11883390Y-6333940D01*
X11883390Y-6251689D01*
X13387038Y-6251689D01*
X13462000Y-6326651D01*
X13536962Y-6251689D01*
X13529502Y-6229003D01*
X13478060Y-6212382D01*
X13424173Y-6216711D01*
X13394498Y-6229003D01*
X13387038Y-6251689D01*
X11883390Y-6251689D01*
X11883390Y-4522234D01*
X11941810Y-4522234D01*
X11941810Y-4621766D01*
X11979899Y-4713721D01*
X12050279Y-4784101D01*
X12142234Y-4822190D01*
X12241766Y-4822190D01*
X12333721Y-4784101D01*
X12404101Y-4713721D01*
X12442190Y-4621766D01*
X12442190Y-4595770D01*
X15396210Y-4595770D01*
X15396210Y-4649830D01*
X15416898Y-4699776D01*
X15455124Y-4738002D01*
X15505070Y-4758690D01*
X15559130Y-4758690D01*
X15609075Y-4738002D01*
X15625967Y-4721111D01*
X15711138Y-4721111D01*
X15718598Y-4743797D01*
X15770040Y-4760418D01*
X15823927Y-4756089D01*
X15853602Y-4743797D01*
X15861062Y-4721111D01*
X15786100Y-4646149D01*
X15711138Y-4721111D01*
X15625967Y-4721111D01*
X15647302Y-4699776D01*
X15658165Y-4673551D01*
X15665103Y-4690302D01*
X15687789Y-4697762D01*
X15762751Y-4622800D01*
X15809449Y-4622800D01*
X15884411Y-4697762D01*
X15907097Y-4690302D01*
X15923718Y-4638860D01*
X15919389Y-4584973D01*
X15907097Y-4555298D01*
X15884411Y-4547838D01*
X15809449Y-4622800D01*
X15762751Y-4622800D01*
X15687789Y-4547838D01*
X15665103Y-4555298D01*
X15659022Y-4574119D01*
X15647302Y-4545825D01*
X15625967Y-4524489D01*
X15711138Y-4524489D01*
X15786100Y-4599451D01*
X15861062Y-4524489D01*
X15860320Y-4522234D01*
X16958310Y-4522234D01*
X16958310Y-4621766D01*
X16996399Y-4713721D01*
X17066779Y-4784101D01*
X17158734Y-4822190D01*
X17258266Y-4822190D01*
X17350221Y-4784101D01*
X17420601Y-4713721D01*
X17458690Y-4621766D01*
X17458690Y-4522234D01*
X17420601Y-4430279D01*
X17350221Y-4359899D01*
X17258266Y-4321810D01*
X17158734Y-4321810D01*
X17066779Y-4359899D01*
X16996399Y-4430279D01*
X16958310Y-4522234D01*
X15860320Y-4522234D01*
X15853602Y-4501803D01*
X15802160Y-4485182D01*
X15748273Y-4489511D01*
X15718598Y-4501803D01*
X15711138Y-4524489D01*
X15625967Y-4524489D01*
X15609075Y-4507598D01*
X15559130Y-4486910D01*
X15505070Y-4486910D01*
X15455124Y-4507598D01*
X15416898Y-4545825D01*
X15396210Y-4595770D01*
X12442190Y-4595770D01*
X12442190Y-4522234D01*
X12404101Y-4430279D01*
X12333721Y-4359899D01*
X12241766Y-4321810D01*
X12142234Y-4321810D01*
X12050279Y-4359899D01*
X11979899Y-4430279D01*
X11941810Y-4522234D01*
X11883390Y-4522234D01*
X11883390Y-4263390D01*
X17517110Y-4263390D01*
X17517110Y-16310610D01*
X17517110Y-16310610D01*
G37*
X17517110Y-16310610D02*
X11883390Y-16310610D01*
X11883390Y-15952234D01*
X11941810Y-15952234D01*
X11941810Y-16051766D01*
X11979899Y-16143721D01*
X12050279Y-16214101D01*
X12142234Y-16252190D01*
X12241766Y-16252190D01*
X12333721Y-16214101D01*
X12404101Y-16143721D01*
X12442190Y-16051766D01*
X12442190Y-15952234D01*
X16958310Y-15952234D01*
X16958310Y-16051766D01*
X16996399Y-16143721D01*
X17066779Y-16214101D01*
X17158734Y-16252190D01*
X17258266Y-16252190D01*
X17350221Y-16214101D01*
X17420601Y-16143721D01*
X17458690Y-16051766D01*
X17458690Y-15952234D01*
X17420601Y-15860279D01*
X17350221Y-15789899D01*
X17258266Y-15751810D01*
X17158734Y-15751810D01*
X17066779Y-15789899D01*
X16996399Y-15860279D01*
X16958310Y-15952234D01*
X12442190Y-15952234D01*
X12404101Y-15860279D01*
X12333721Y-15789899D01*
X12241766Y-15751810D01*
X12142234Y-15751810D01*
X12050279Y-15789899D01*
X11979899Y-15860279D01*
X11941810Y-15952234D01*
X11883390Y-15952234D01*
X11883390Y-14322311D01*
X13387038Y-14322311D01*
X13394498Y-14344997D01*
X13445940Y-14361618D01*
X13499827Y-14357289D01*
X13529502Y-14344997D01*
X13536962Y-14322311D01*
X13462000Y-14247349D01*
X13387038Y-14322311D01*
X11883390Y-14322311D01*
X11883390Y-14207940D01*
X13324382Y-14207940D01*
X13328711Y-14261827D01*
X13341003Y-14291502D01*
X13363689Y-14298962D01*
X13438651Y-14224000D01*
X13485349Y-14224000D01*
X13560311Y-14298962D01*
X13582997Y-14291502D01*
X13599618Y-14240060D01*
X13595289Y-14186173D01*
X13582997Y-14156498D01*
X13560311Y-14149038D01*
X13485349Y-14224000D01*
X13438651Y-14224000D01*
X13363689Y-14149038D01*
X13341003Y-14156498D01*
X13324382Y-14207940D01*
X11883390Y-14207940D01*
X11883390Y-10132970D01*
X13326110Y-10132970D01*
X13326110Y-10187030D01*
X13346798Y-10236976D01*
X13385024Y-10275202D01*
X13413507Y-10287000D01*
X13385024Y-10298798D01*
X13346798Y-10337025D01*
X13326110Y-10386970D01*
X13326110Y-10441030D01*
X13346798Y-10490976D01*
X13385024Y-10529202D01*
X13413507Y-10541000D01*
X13385024Y-10552798D01*
X13346798Y-10591025D01*
X13326110Y-10640970D01*
X13326110Y-10695030D01*
X13346798Y-10744976D01*
X13385024Y-10783202D01*
X13413507Y-10795000D01*
X13385024Y-10806798D01*
X13346798Y-10845025D01*
X13326110Y-10894970D01*
X13326110Y-10949030D01*
X13346798Y-10998976D01*
X13385024Y-11037202D01*
X13413507Y-11049000D01*
X13385024Y-11060798D01*
X13346798Y-11099025D01*
X13326110Y-11148970D01*
X13326110Y-11203030D01*
X13346798Y-11252975D01*
X13385024Y-11291202D01*
X13413507Y-11303000D01*
X13385024Y-11314798D01*
X13346798Y-11353024D01*
X13326110Y-11402970D01*
X13326110Y-11457030D01*
X13346798Y-11506975D01*
X13385024Y-11545202D01*
X13413507Y-11557000D01*
X13385024Y-11568798D01*
X13346798Y-11607024D01*
X13326110Y-11656970D01*
X13326110Y-11711030D01*
X13346798Y-11760975D01*
X13385024Y-11799202D01*
X13413507Y-11811000D01*
X13385024Y-11822798D01*
X13346798Y-11861024D01*
X13326110Y-11910970D01*
X13326110Y-11965030D01*
X13346798Y-12014975D01*
X13385024Y-12053202D01*
X13413507Y-12065000D01*
X13385024Y-12076798D01*
X13346798Y-12115024D01*
X13326110Y-12164970D01*
X13326110Y-12219030D01*
X13346798Y-12268975D01*
X13385024Y-12307202D01*
X13413507Y-12319000D01*
X13385024Y-12330798D01*
X13346798Y-12369024D01*
X13326110Y-12418970D01*
X13326110Y-12473030D01*
X13346798Y-12522975D01*
X13385024Y-12561202D01*
X13413507Y-12573000D01*
X13385024Y-12584798D01*
X13346798Y-12623024D01*
X13326110Y-12672970D01*
X13326110Y-12727030D01*
X13346798Y-12776975D01*
X13385024Y-12815202D01*
X13413507Y-12827000D01*
X13385024Y-12838798D01*
X13346798Y-12877024D01*
X13326110Y-12926970D01*
X13326110Y-12981030D01*
X13346798Y-13030975D01*
X13385024Y-13069202D01*
X13413507Y-13081000D01*
X13385024Y-13092798D01*
X13346798Y-13131024D01*
X13326110Y-13180970D01*
X13326110Y-13235030D01*
X13346798Y-13284975D01*
X13385024Y-13323202D01*
X13413507Y-13335000D01*
X13385024Y-13346798D01*
X13346798Y-13385024D01*
X13326110Y-13434970D01*
X13326110Y-13489030D01*
X13346798Y-13538975D01*
X13385024Y-13577202D01*
X13413507Y-13589000D01*
X13385024Y-13600798D01*
X13346798Y-13639024D01*
X13326110Y-13688970D01*
X13326110Y-13743030D01*
X13346798Y-13792975D01*
X13385024Y-13831202D01*
X13413507Y-13843000D01*
X13385024Y-13854798D01*
X13346798Y-13893024D01*
X13326110Y-13942970D01*
X13326110Y-13997030D01*
X13346798Y-14046975D01*
X13385024Y-14085202D01*
X13411249Y-14096065D01*
X13394498Y-14103003D01*
X13387038Y-14125689D01*
X13462000Y-14200651D01*
X13536962Y-14125689D01*
X13529502Y-14103003D01*
X13510681Y-14096922D01*
X13538975Y-14085202D01*
X13577202Y-14046975D01*
X13597890Y-13997030D01*
X13597890Y-13942970D01*
X13577202Y-13893024D01*
X13538975Y-13854798D01*
X13510492Y-13843000D01*
X13538975Y-13831202D01*
X13577202Y-13792975D01*
X13597890Y-13743030D01*
X13597890Y-13688970D01*
X13577202Y-13639024D01*
X13538975Y-13600798D01*
X13510492Y-13589000D01*
X13538975Y-13577202D01*
X13577202Y-13538975D01*
X13597890Y-13489030D01*
X13597890Y-13434970D01*
X13577202Y-13385024D01*
X13538975Y-13346798D01*
X13510492Y-13335000D01*
X13538975Y-13323202D01*
X13577202Y-13284975D01*
X13597890Y-13235030D01*
X13597890Y-13180970D01*
X13577202Y-13131024D01*
X13538975Y-13092798D01*
X13510492Y-13081000D01*
X13538975Y-13069202D01*
X13577202Y-13030975D01*
X13597890Y-12981030D01*
X13597890Y-12926970D01*
X13577202Y-12877024D01*
X13538975Y-12838798D01*
X13510492Y-12827000D01*
X13538975Y-12815202D01*
X13577202Y-12776975D01*
X13597890Y-12727030D01*
X13597890Y-12672970D01*
X13577202Y-12623024D01*
X13538975Y-12584798D01*
X13510492Y-12573000D01*
X13538975Y-12561202D01*
X13577202Y-12522975D01*
X13597890Y-12473030D01*
X13597890Y-12418970D01*
X13577202Y-12369024D01*
X13538975Y-12330798D01*
X13510492Y-12319000D01*
X13538975Y-12307202D01*
X13577202Y-12268975D01*
X13597890Y-12219030D01*
X13597890Y-12164970D01*
X13577202Y-12115024D01*
X13538975Y-12076798D01*
X13510492Y-12065000D01*
X13538975Y-12053202D01*
X13577202Y-12014975D01*
X13597890Y-11965030D01*
X13597890Y-11910970D01*
X13577202Y-11861024D01*
X13538975Y-11822798D01*
X13510492Y-11811000D01*
X13538975Y-11799202D01*
X13577202Y-11760975D01*
X13597890Y-11711030D01*
X13597890Y-11656970D01*
X13577202Y-11607024D01*
X13538975Y-11568798D01*
X13510492Y-11557000D01*
X13538975Y-11545202D01*
X13577202Y-11506975D01*
X13597890Y-11457030D01*
X13597890Y-11402970D01*
X13577202Y-11353024D01*
X13538975Y-11314798D01*
X13510492Y-11303000D01*
X13538975Y-11291202D01*
X13577202Y-11252975D01*
X13597890Y-11203030D01*
X13597890Y-11148970D01*
X13577202Y-11099025D01*
X13538975Y-11060798D01*
X13510492Y-11049000D01*
X13538975Y-11037202D01*
X13577202Y-10998976D01*
X13597890Y-10949030D01*
X13597890Y-10894970D01*
X13577202Y-10845025D01*
X13538975Y-10806798D01*
X13510492Y-10795000D01*
X13538975Y-10783202D01*
X13577202Y-10744976D01*
X13597890Y-10695030D01*
X13597890Y-10640970D01*
X13577202Y-10591025D01*
X13538975Y-10552798D01*
X13510492Y-10541000D01*
X13538975Y-10529202D01*
X13577202Y-10490976D01*
X13597890Y-10441030D01*
X13597890Y-10386970D01*
X13577202Y-10337025D01*
X13538975Y-10298798D01*
X13510492Y-10287000D01*
X13538975Y-10275202D01*
X13577202Y-10236976D01*
X13597890Y-10187030D01*
X13597890Y-10132970D01*
X13577202Y-10083025D01*
X13538975Y-10044798D01*
X13512751Y-10033935D01*
X13529502Y-10026997D01*
X13536962Y-10004311D01*
X13462000Y-9929349D01*
X13387038Y-10004311D01*
X13394498Y-10026997D01*
X13413319Y-10033078D01*
X13385024Y-10044798D01*
X13346798Y-10083025D01*
X13326110Y-10132970D01*
X11883390Y-10132970D01*
X11883390Y-9889940D01*
X13324382Y-9889940D01*
X13328711Y-9943827D01*
X13341003Y-9973502D01*
X13363689Y-9980962D01*
X13438651Y-9906000D01*
X13485349Y-9906000D01*
X13560311Y-9980962D01*
X13582997Y-9973502D01*
X13599618Y-9922060D01*
X13595289Y-9868173D01*
X13582997Y-9838498D01*
X13560311Y-9831038D01*
X13485349Y-9906000D01*
X13438651Y-9906000D01*
X13363689Y-9831038D01*
X13341003Y-9838498D01*
X13324382Y-9889940D01*
X11883390Y-9889940D01*
X11883390Y-6576970D01*
X13326110Y-6576970D01*
X13326110Y-6631030D01*
X13346798Y-6680975D01*
X13385024Y-6719202D01*
X13413507Y-6731000D01*
X13385024Y-6742798D01*
X13346798Y-6781024D01*
X13326110Y-6830970D01*
X13326110Y-6885030D01*
X13346798Y-6934975D01*
X13385024Y-6973202D01*
X13413507Y-6985000D01*
X13385024Y-6996798D01*
X13346798Y-7035024D01*
X13326110Y-7084970D01*
X13326110Y-7139030D01*
X13346798Y-7188975D01*
X13385024Y-7227202D01*
X13413507Y-7239000D01*
X13385024Y-7250798D01*
X13346798Y-7289024D01*
X13326110Y-7338970D01*
X13326110Y-7393030D01*
X13346798Y-7442975D01*
X13385024Y-7481202D01*
X13413507Y-7493000D01*
X13385024Y-7504798D01*
X13346798Y-7543024D01*
X13326110Y-7592970D01*
X13326110Y-7647030D01*
X13346798Y-7696975D01*
X13385024Y-7735202D01*
X13413507Y-7747000D01*
X13385024Y-7758798D01*
X13346798Y-7797024D01*
X13326110Y-7846970D01*
X13326110Y-7901030D01*
X13346798Y-7950975D01*
X13385024Y-7989202D01*
X13413507Y-8001000D01*
X13385024Y-8012798D01*
X13346798Y-8051024D01*
X13326110Y-8100970D01*
X13326110Y-8155030D01*
X13346798Y-8204975D01*
X13385024Y-8243202D01*
X13413507Y-8255000D01*
X13385024Y-8266798D01*
X13346798Y-8305024D01*
X13326110Y-8354970D01*
X13326110Y-8409030D01*
X13346798Y-8458976D01*
X13385024Y-8497202D01*
X13413507Y-8509000D01*
X13385024Y-8520798D01*
X13346798Y-8559025D01*
X13326110Y-8608970D01*
X13326110Y-8663030D01*
X13346798Y-8712976D01*
X13385024Y-8751202D01*
X13413507Y-8763000D01*
X13385024Y-8774798D01*
X13346798Y-8813025D01*
X13326110Y-8862970D01*
X13326110Y-8917030D01*
X13346798Y-8966976D01*
X13385024Y-9005202D01*
X13413507Y-9017000D01*
X13385024Y-9028798D01*
X13346798Y-9067025D01*
X13326110Y-9116970D01*
X13326110Y-9171030D01*
X13346798Y-9220976D01*
X13385024Y-9259202D01*
X13413507Y-9271000D01*
X13385024Y-9282798D01*
X13346798Y-9321025D01*
X13326110Y-9370970D01*
X13326110Y-9425030D01*
X13346798Y-9474976D01*
X13385024Y-9513202D01*
X13413507Y-9525000D01*
X13385024Y-9536798D01*
X13346798Y-9575025D01*
X13326110Y-9624970D01*
X13326110Y-9679030D01*
X13346798Y-9728976D01*
X13385024Y-9767202D01*
X13411249Y-9778065D01*
X13394498Y-9785003D01*
X13387038Y-9807689D01*
X13462000Y-9882651D01*
X13536962Y-9807689D01*
X13529502Y-9785003D01*
X13510681Y-9778922D01*
X13538975Y-9767202D01*
X13577202Y-9728976D01*
X13597890Y-9679030D01*
X13597890Y-9624970D01*
X13577202Y-9575025D01*
X13538975Y-9536798D01*
X13510492Y-9525000D01*
X13538975Y-9513202D01*
X13577202Y-9474976D01*
X13597890Y-9425030D01*
X13597890Y-9370970D01*
X13577202Y-9321025D01*
X13538975Y-9282798D01*
X13510492Y-9271000D01*
X13538975Y-9259202D01*
X13577202Y-9220976D01*
X13597890Y-9171030D01*
X13597890Y-9116970D01*
X13577202Y-9067025D01*
X13538975Y-9028798D01*
X13510492Y-9017000D01*
X13538975Y-9005202D01*
X13577202Y-8966976D01*
X13597890Y-8917030D01*
X13597890Y-8862970D01*
X13577202Y-8813025D01*
X13538975Y-8774798D01*
X13510492Y-8763000D01*
X13538975Y-8751202D01*
X13577202Y-8712976D01*
X13597890Y-8663030D01*
X13597890Y-8608970D01*
X13577202Y-8559025D01*
X13538975Y-8520798D01*
X13510492Y-8509000D01*
X13538975Y-8497202D01*
X13577202Y-8458976D01*
X13597890Y-8409030D01*
X13597890Y-8354970D01*
X13577202Y-8305024D01*
X13538975Y-8266798D01*
X13510492Y-8255000D01*
X13538975Y-8243202D01*
X13577202Y-8204975D01*
X13597890Y-8155030D01*
X13597890Y-8100970D01*
X13577202Y-8051024D01*
X13538975Y-8012798D01*
X13510492Y-8001000D01*
X13538975Y-7989202D01*
X13577202Y-7950975D01*
X13597890Y-7901030D01*
X13597890Y-7846970D01*
X13577202Y-7797024D01*
X13538975Y-7758798D01*
X13510492Y-7747000D01*
X13538975Y-7735202D01*
X13577202Y-7696975D01*
X13597890Y-7647030D01*
X13597890Y-7592970D01*
X13577202Y-7543024D01*
X13538975Y-7504798D01*
X13510492Y-7493000D01*
X13538975Y-7481202D01*
X13577202Y-7442975D01*
X13597890Y-7393030D01*
X13597890Y-7338970D01*
X13577202Y-7289024D01*
X13538975Y-7250798D01*
X13510492Y-7239000D01*
X13538975Y-7227202D01*
X13577202Y-7188975D01*
X13597890Y-7139030D01*
X13597890Y-7084970D01*
X13577202Y-7035024D01*
X13538975Y-6996798D01*
X13510492Y-6985000D01*
X13538975Y-6973202D01*
X13577202Y-6934975D01*
X13597890Y-6885030D01*
X13597890Y-6830970D01*
X13577202Y-6781024D01*
X13538975Y-6742798D01*
X13510492Y-6731000D01*
X13538975Y-6719202D01*
X13577202Y-6680975D01*
X13597890Y-6631030D01*
X13597890Y-6576970D01*
X13577202Y-6527024D01*
X13538975Y-6488798D01*
X13512751Y-6477935D01*
X13529502Y-6470997D01*
X13536962Y-6448311D01*
X13462000Y-6373349D01*
X13387038Y-6448311D01*
X13394498Y-6470997D01*
X13413319Y-6477078D01*
X13385024Y-6488798D01*
X13346798Y-6527024D01*
X13326110Y-6576970D01*
X11883390Y-6576970D01*
X11883390Y-6333940D01*
X13324382Y-6333940D01*
X13328711Y-6387827D01*
X13341003Y-6417502D01*
X13363689Y-6424962D01*
X13438651Y-6350000D01*
X13485349Y-6350000D01*
X13560311Y-6424962D01*
X13582997Y-6417502D01*
X13599618Y-6366060D01*
X13596156Y-6322970D01*
X13834110Y-6322970D01*
X13834110Y-6377030D01*
X13854798Y-6426975D01*
X13893024Y-6465202D01*
X13921507Y-6477000D01*
X13893024Y-6488798D01*
X13854798Y-6527024D01*
X13834110Y-6576970D01*
X13834110Y-6631030D01*
X13854798Y-6680975D01*
X13893024Y-6719202D01*
X13921507Y-6731000D01*
X13893024Y-6742798D01*
X13854798Y-6781024D01*
X13834110Y-6830970D01*
X13834110Y-6885030D01*
X13854798Y-6934975D01*
X13893024Y-6973202D01*
X13921507Y-6985000D01*
X13893024Y-6996798D01*
X13854798Y-7035024D01*
X13834110Y-7084970D01*
X13834110Y-7139030D01*
X13854798Y-7188975D01*
X13893024Y-7227202D01*
X13921507Y-7239000D01*
X13893024Y-7250798D01*
X13854798Y-7289024D01*
X13834110Y-7338970D01*
X13834110Y-7393030D01*
X13854798Y-7442975D01*
X13893024Y-7481202D01*
X13921507Y-7493000D01*
X13893024Y-7504798D01*
X13854798Y-7543024D01*
X13834110Y-7592970D01*
X13834110Y-7647030D01*
X13854798Y-7696975D01*
X13893024Y-7735202D01*
X13921507Y-7747000D01*
X13893024Y-7758798D01*
X13854798Y-7797024D01*
X13834110Y-7846970D01*
X13834110Y-7901030D01*
X13854798Y-7950975D01*
X13893024Y-7989202D01*
X13921507Y-8001000D01*
X13893024Y-8012798D01*
X13854798Y-8051024D01*
X13834110Y-8100970D01*
X13834110Y-8155030D01*
X13854798Y-8204975D01*
X13893024Y-8243202D01*
X13921507Y-8255000D01*
X13893024Y-8266798D01*
X13854798Y-8305024D01*
X13834110Y-8354970D01*
X13834110Y-8409030D01*
X13854798Y-8458976D01*
X13893024Y-8497202D01*
X13921507Y-8509000D01*
X13893024Y-8520798D01*
X13854798Y-8559025D01*
X13834110Y-8608970D01*
X13834110Y-8663030D01*
X13854798Y-8712976D01*
X13893024Y-8751202D01*
X13921507Y-8763000D01*
X13893024Y-8774798D01*
X13854798Y-8813025D01*
X13834110Y-8862970D01*
X13834110Y-8917030D01*
X13854798Y-8966976D01*
X13893024Y-9005202D01*
X13921507Y-9017000D01*
X13893024Y-9028798D01*
X13854798Y-9067025D01*
X13834110Y-9116970D01*
X13834110Y-9171030D01*
X13854798Y-9220976D01*
X13893024Y-9259202D01*
X13921507Y-9271000D01*
X13893024Y-9282798D01*
X13854798Y-9321025D01*
X13834110Y-9370970D01*
X13834110Y-9425030D01*
X13854798Y-9474976D01*
X13893024Y-9513202D01*
X13921507Y-9525000D01*
X13893024Y-9536798D01*
X13854798Y-9575025D01*
X13834110Y-9624970D01*
X13834110Y-9679030D01*
X13854798Y-9728976D01*
X13893024Y-9767202D01*
X13921507Y-9779000D01*
X13893024Y-9790798D01*
X13854798Y-9829025D01*
X13834110Y-9878970D01*
X13834110Y-9933030D01*
X13854798Y-9982976D01*
X13893024Y-10021202D01*
X13921507Y-10033000D01*
X13893024Y-10044798D01*
X13854798Y-10083025D01*
X13834110Y-10132970D01*
X13834110Y-10187030D01*
X13854798Y-10236976D01*
X13893024Y-10275202D01*
X13921507Y-10287000D01*
X13893024Y-10298798D01*
X13854798Y-10337025D01*
X13834110Y-10386970D01*
X13834110Y-10441030D01*
X13854798Y-10490976D01*
X13893024Y-10529202D01*
X13921507Y-10541000D01*
X13893024Y-10552798D01*
X13854798Y-10591025D01*
X13834110Y-10640970D01*
X13834110Y-10695030D01*
X13854798Y-10744976D01*
X13893024Y-10783202D01*
X13921507Y-10795000D01*
X13893024Y-10806798D01*
X13854798Y-10845025D01*
X13834110Y-10894970D01*
X13834110Y-10949030D01*
X13854798Y-10998976D01*
X13893024Y-11037202D01*
X13921507Y-11049000D01*
X13893024Y-11060798D01*
X13854798Y-11099025D01*
X13834110Y-11148970D01*
X13834110Y-11203030D01*
X13854798Y-11252975D01*
X13893024Y-11291202D01*
X13921507Y-11303000D01*
X13893024Y-11314798D01*
X13854798Y-11353024D01*
X13834110Y-11402970D01*
X13834110Y-11457030D01*
X13854798Y-11506975D01*
X13893024Y-11545202D01*
X13921507Y-11557000D01*
X13893024Y-11568798D01*
X13854798Y-11607024D01*
X13834110Y-11656970D01*
X13834110Y-11711030D01*
X13854798Y-11760975D01*
X13893024Y-11799202D01*
X13921507Y-11811000D01*
X13893024Y-11822798D01*
X13854798Y-11861024D01*
X13834110Y-11910970D01*
X13834110Y-11965030D01*
X13854798Y-12014975D01*
X13893024Y-12053202D01*
X13921507Y-12065000D01*
X13893024Y-12076798D01*
X13854798Y-12115024D01*
X13834110Y-12164970D01*
X13834110Y-12219030D01*
X13854798Y-12268975D01*
X13893024Y-12307202D01*
X13921507Y-12319000D01*
X13893024Y-12330798D01*
X13854798Y-12369024D01*
X13834110Y-12418970D01*
X13834110Y-12473030D01*
X13854798Y-12522975D01*
X13893024Y-12561202D01*
X13921507Y-12573000D01*
X13893024Y-12584798D01*
X13854798Y-12623024D01*
X13834110Y-12672970D01*
X13834110Y-12727030D01*
X13854798Y-12776975D01*
X13893024Y-12815202D01*
X13921507Y-12827000D01*
X13893024Y-12838798D01*
X13854798Y-12877024D01*
X13834110Y-12926970D01*
X13834110Y-12981030D01*
X13854798Y-13030975D01*
X13893024Y-13069202D01*
X13921507Y-13081000D01*
X13893024Y-13092798D01*
X13854798Y-13131024D01*
X13834110Y-13180970D01*
X13834110Y-13235030D01*
X13854798Y-13284975D01*
X13893024Y-13323202D01*
X13921507Y-13335000D01*
X13893024Y-13346798D01*
X13854798Y-13385024D01*
X13834110Y-13434970D01*
X13834110Y-13489030D01*
X13854798Y-13538975D01*
X13893024Y-13577202D01*
X13921507Y-13589000D01*
X13893024Y-13600798D01*
X13854798Y-13639024D01*
X13834110Y-13688970D01*
X13834110Y-13743030D01*
X13854798Y-13792975D01*
X13893024Y-13831202D01*
X13921507Y-13843000D01*
X13893024Y-13854798D01*
X13854798Y-13893024D01*
X13834110Y-13942970D01*
X13834110Y-13997030D01*
X13854798Y-14046975D01*
X13893024Y-14085202D01*
X13921507Y-14097000D01*
X13893024Y-14108798D01*
X13854798Y-14147024D01*
X13834110Y-14196970D01*
X13834110Y-14251030D01*
X13854798Y-14300975D01*
X13893024Y-14339202D01*
X13942970Y-14359890D01*
X13997030Y-14359890D01*
X14046975Y-14339202D01*
X14085202Y-14300975D01*
X14105890Y-14251030D01*
X14105890Y-14196970D01*
X14085202Y-14147024D01*
X14046975Y-14108798D01*
X14018492Y-14097000D01*
X14046975Y-14085202D01*
X14085202Y-14046975D01*
X14105890Y-13997030D01*
X14105890Y-13942970D01*
X14085202Y-13893024D01*
X14046975Y-13854798D01*
X14018492Y-13843000D01*
X14046975Y-13831202D01*
X14085202Y-13792975D01*
X14105890Y-13743030D01*
X14105890Y-13688970D01*
X14085202Y-13639024D01*
X14046975Y-13600798D01*
X14018492Y-13589000D01*
X14046975Y-13577202D01*
X14085202Y-13538975D01*
X14105890Y-13489030D01*
X14105890Y-13434970D01*
X14085202Y-13385024D01*
X14046975Y-13346798D01*
X14018492Y-13335000D01*
X14046975Y-13323202D01*
X14085202Y-13284975D01*
X14105890Y-13235030D01*
X14105890Y-13180970D01*
X14085202Y-13131024D01*
X14046975Y-13092798D01*
X14018492Y-13081000D01*
X14046975Y-13069202D01*
X14085202Y-13030975D01*
X14105890Y-12981030D01*
X14105890Y-12926970D01*
X14085202Y-12877024D01*
X14046975Y-12838798D01*
X14018492Y-12827000D01*
X14046975Y-12815202D01*
X14085202Y-12776975D01*
X14105890Y-12727030D01*
X14105890Y-12672970D01*
X14085202Y-12623024D01*
X14046975Y-12584798D01*
X14018492Y-12573000D01*
X14046975Y-12561202D01*
X14085202Y-12522975D01*
X14105890Y-12473030D01*
X14105890Y-12418970D01*
X14085202Y-12369024D01*
X14046975Y-12330798D01*
X14018492Y-12319000D01*
X14046975Y-12307202D01*
X14085202Y-12268975D01*
X14105890Y-12219030D01*
X14105890Y-12164970D01*
X14085202Y-12115024D01*
X14046975Y-12076798D01*
X14018492Y-12065000D01*
X14046975Y-12053202D01*
X14085202Y-12014975D01*
X14105890Y-11965030D01*
X14105890Y-11910970D01*
X14085202Y-11861024D01*
X14046975Y-11822798D01*
X14018492Y-11811000D01*
X14046975Y-11799202D01*
X14085202Y-11760975D01*
X14105890Y-11711030D01*
X14105890Y-11656970D01*
X14085202Y-11607024D01*
X14046975Y-11568798D01*
X14018492Y-11557000D01*
X14046975Y-11545202D01*
X14085202Y-11506975D01*
X14105890Y-11457030D01*
X14105890Y-11402970D01*
X14085202Y-11353024D01*
X14046975Y-11314798D01*
X14018492Y-11303000D01*
X14046975Y-11291202D01*
X14085202Y-11252975D01*
X14105890Y-11203030D01*
X14105890Y-11148970D01*
X14085202Y-11099025D01*
X14046975Y-11060798D01*
X14018492Y-11049000D01*
X14046975Y-11037202D01*
X14085202Y-10998976D01*
X14105890Y-10949030D01*
X14105890Y-10894970D01*
X14085202Y-10845025D01*
X14046975Y-10806798D01*
X14018492Y-10795000D01*
X14046975Y-10783202D01*
X14085202Y-10744976D01*
X14105890Y-10695030D01*
X14105890Y-10640970D01*
X14085202Y-10591025D01*
X14046975Y-10552798D01*
X14018492Y-10541000D01*
X14046975Y-10529202D01*
X14085202Y-10490976D01*
X14105890Y-10441030D01*
X14105890Y-10386970D01*
X14085202Y-10337025D01*
X14046975Y-10298798D01*
X14018492Y-10287000D01*
X14046975Y-10275202D01*
X14085202Y-10236976D01*
X14105890Y-10187030D01*
X14105890Y-10132970D01*
X14085202Y-10083025D01*
X14046975Y-10044798D01*
X14018492Y-10033000D01*
X14046975Y-10021202D01*
X14062208Y-10005970D01*
X15294610Y-10005970D01*
X15294610Y-10060030D01*
X15315298Y-10109976D01*
X15353524Y-10148202D01*
X15382007Y-10160000D01*
X15353524Y-10171798D01*
X15315298Y-10210025D01*
X15294610Y-10259970D01*
X15294610Y-10314030D01*
X15315298Y-10363976D01*
X15353524Y-10402202D01*
X15382007Y-10414000D01*
X15353524Y-10425798D01*
X15315298Y-10464025D01*
X15294610Y-10513970D01*
X15294610Y-10568030D01*
X15315298Y-10617976D01*
X15353524Y-10656202D01*
X15382007Y-10668000D01*
X15353524Y-10679798D01*
X15315298Y-10718025D01*
X15294610Y-10767970D01*
X15294610Y-10822030D01*
X15315298Y-10871976D01*
X15353524Y-10910202D01*
X15382007Y-10922000D01*
X15353524Y-10933798D01*
X15315298Y-10972025D01*
X15294610Y-11021970D01*
X15294610Y-11076030D01*
X15315298Y-11125976D01*
X15353524Y-11164202D01*
X15382007Y-11176000D01*
X15353524Y-11187798D01*
X15315298Y-11226024D01*
X15294610Y-11275970D01*
X15294610Y-11330030D01*
X15315298Y-11379975D01*
X15353524Y-11418202D01*
X15382007Y-11430000D01*
X15353524Y-11441798D01*
X15315298Y-11480024D01*
X15294610Y-11529970D01*
X15294610Y-11584030D01*
X15315298Y-11633975D01*
X15353524Y-11672202D01*
X15382007Y-11684000D01*
X15353524Y-11695798D01*
X15315298Y-11734024D01*
X15294610Y-11783970D01*
X15294610Y-11838030D01*
X15315298Y-11887975D01*
X15353524Y-11926202D01*
X15382007Y-11938000D01*
X15353524Y-11949798D01*
X15315298Y-11988024D01*
X15294610Y-12037970D01*
X15294610Y-12092030D01*
X15315298Y-12141975D01*
X15353524Y-12180202D01*
X15382007Y-12192000D01*
X15353524Y-12203798D01*
X15315298Y-12242024D01*
X15294610Y-12291970D01*
X15294610Y-12346030D01*
X15315298Y-12395975D01*
X15353524Y-12434202D01*
X15382007Y-12446000D01*
X15353524Y-12457798D01*
X15315298Y-12496024D01*
X15294610Y-12545970D01*
X15294610Y-12600030D01*
X15315298Y-12649975D01*
X15353524Y-12688202D01*
X15382007Y-12700000D01*
X15353524Y-12711798D01*
X15315298Y-12750024D01*
X15294610Y-12799970D01*
X15294610Y-12854030D01*
X15315298Y-12903975D01*
X15353524Y-12942202D01*
X15382007Y-12954000D01*
X15353524Y-12965798D01*
X15315298Y-13004024D01*
X15294610Y-13053970D01*
X15294610Y-13108030D01*
X15315298Y-13157975D01*
X15353524Y-13196202D01*
X15382007Y-13208000D01*
X15353524Y-13219798D01*
X15315298Y-13258024D01*
X15294610Y-13307970D01*
X15294610Y-13362030D01*
X15315298Y-13411975D01*
X15353524Y-13450202D01*
X15403470Y-13470890D01*
X15457530Y-13470890D01*
X15507475Y-13450202D01*
X15545702Y-13411975D01*
X15566390Y-13362030D01*
X15566390Y-13307970D01*
X15545702Y-13258024D01*
X15507475Y-13219798D01*
X15478992Y-13208000D01*
X15507475Y-13196202D01*
X15545702Y-13157975D01*
X15566390Y-13108030D01*
X15566390Y-13053970D01*
X15545702Y-13004024D01*
X15507475Y-12965798D01*
X15478992Y-12954000D01*
X15507475Y-12942202D01*
X15545702Y-12903975D01*
X15566390Y-12854030D01*
X15566390Y-12799970D01*
X15545702Y-12750024D01*
X15507475Y-12711798D01*
X15478992Y-12700000D01*
X15507475Y-12688202D01*
X15545702Y-12649975D01*
X15566390Y-12600030D01*
X15566390Y-12545970D01*
X15545702Y-12496024D01*
X15507475Y-12457798D01*
X15478992Y-12446000D01*
X15507475Y-12434202D01*
X15545702Y-12395975D01*
X15566390Y-12346030D01*
X15566390Y-12291970D01*
X15545702Y-12242024D01*
X15507475Y-12203798D01*
X15478992Y-12192000D01*
X15507475Y-12180202D01*
X15545702Y-12141975D01*
X15566390Y-12092030D01*
X15566390Y-12037970D01*
X15545702Y-11988024D01*
X15507475Y-11949798D01*
X15478992Y-11938000D01*
X15507475Y-11926202D01*
X15545702Y-11887975D01*
X15566390Y-11838030D01*
X15566390Y-11783970D01*
X15545702Y-11734024D01*
X15507475Y-11695798D01*
X15478992Y-11684000D01*
X15507475Y-11672202D01*
X15545702Y-11633975D01*
X15566390Y-11584030D01*
X15566390Y-11529970D01*
X15545702Y-11480024D01*
X15507475Y-11441798D01*
X15478992Y-11430000D01*
X15507475Y-11418202D01*
X15545702Y-11379975D01*
X15566390Y-11330030D01*
X15566390Y-11275970D01*
X15545702Y-11226024D01*
X15507475Y-11187798D01*
X15478992Y-11176000D01*
X15507475Y-11164202D01*
X15545702Y-11125976D01*
X15566390Y-11076030D01*
X15566390Y-11021970D01*
X15545702Y-10972025D01*
X15507475Y-10933798D01*
X15478992Y-10922000D01*
X15507475Y-10910202D01*
X15545702Y-10871976D01*
X15566390Y-10822030D01*
X15566390Y-10767970D01*
X15545702Y-10718025D01*
X15507475Y-10679798D01*
X15478992Y-10668000D01*
X15507475Y-10656202D01*
X15545702Y-10617976D01*
X15566390Y-10568030D01*
X15566390Y-10513970D01*
X15545702Y-10464025D01*
X15507475Y-10425798D01*
X15478992Y-10414000D01*
X15507475Y-10402202D01*
X15545702Y-10363976D01*
X15566390Y-10314030D01*
X15566390Y-10259970D01*
X15545702Y-10210025D01*
X15507475Y-10171798D01*
X15478992Y-10160000D01*
X15507475Y-10148202D01*
X15545702Y-10109976D01*
X15566390Y-10060030D01*
X15566390Y-10005970D01*
X15545702Y-9956025D01*
X15507475Y-9917798D01*
X15481251Y-9906935D01*
X15498002Y-9899997D01*
X15505462Y-9877311D01*
X15430500Y-9802349D01*
X15355538Y-9877311D01*
X15362998Y-9899997D01*
X15381819Y-9906078D01*
X15353524Y-9917798D01*
X15315298Y-9956025D01*
X15294610Y-10005970D01*
X14062208Y-10005970D01*
X14085202Y-9982976D01*
X14105890Y-9933030D01*
X14105890Y-9878970D01*
X14085202Y-9829025D01*
X14046975Y-9790798D01*
X14018492Y-9779000D01*
X14046975Y-9767202D01*
X14051237Y-9762940D01*
X15292882Y-9762940D01*
X15297211Y-9816827D01*
X15309503Y-9846502D01*
X15332189Y-9853962D01*
X15407151Y-9779000D01*
X15453849Y-9779000D01*
X15528811Y-9853962D01*
X15551497Y-9846502D01*
X15568118Y-9795060D01*
X15564656Y-9751970D01*
X15802610Y-9751970D01*
X15802610Y-9806030D01*
X15823298Y-9855976D01*
X15861524Y-9894202D01*
X15890007Y-9906000D01*
X15861524Y-9917798D01*
X15823298Y-9956025D01*
X15802610Y-10005970D01*
X15802610Y-10060030D01*
X15823298Y-10109976D01*
X15861524Y-10148202D01*
X15890007Y-10160000D01*
X15861524Y-10171798D01*
X15823298Y-10210025D01*
X15802610Y-10259970D01*
X15802610Y-10314030D01*
X15823298Y-10363976D01*
X15861524Y-10402202D01*
X15890007Y-10414000D01*
X15861524Y-10425798D01*
X15823298Y-10464025D01*
X15802610Y-10513970D01*
X15802610Y-10568030D01*
X15823298Y-10617976D01*
X15861524Y-10656202D01*
X15890007Y-10668000D01*
X15861524Y-10679798D01*
X15823298Y-10718025D01*
X15802610Y-10767970D01*
X15802610Y-10822030D01*
X15823298Y-10871976D01*
X15861524Y-10910202D01*
X15890007Y-10922000D01*
X15861524Y-10933798D01*
X15823298Y-10972025D01*
X15802610Y-11021970D01*
X15802610Y-11076030D01*
X15823298Y-11125976D01*
X15861524Y-11164202D01*
X15890007Y-11176000D01*
X15861524Y-11187798D01*
X15823298Y-11226024D01*
X15802610Y-11275970D01*
X15802610Y-11330030D01*
X15823298Y-11379975D01*
X15861524Y-11418202D01*
X15890007Y-11430000D01*
X15861524Y-11441798D01*
X15823298Y-11480024D01*
X15802610Y-11529970D01*
X15802610Y-11584030D01*
X15823298Y-11633975D01*
X15861524Y-11672202D01*
X15890007Y-11684000D01*
X15861524Y-11695798D01*
X15823298Y-11734024D01*
X15802610Y-11783970D01*
X15802610Y-11838030D01*
X15823298Y-11887975D01*
X15861524Y-11926202D01*
X15890007Y-11938000D01*
X15861524Y-11949798D01*
X15823298Y-11988024D01*
X15802610Y-12037970D01*
X15802610Y-12092030D01*
X15823298Y-12141975D01*
X15861524Y-12180202D01*
X15890007Y-12192000D01*
X15861524Y-12203798D01*
X15823298Y-12242024D01*
X15802610Y-12291970D01*
X15802610Y-12346030D01*
X15823298Y-12395975D01*
X15861524Y-12434202D01*
X15890007Y-12446000D01*
X15861524Y-12457798D01*
X15823298Y-12496024D01*
X15802610Y-12545970D01*
X15802610Y-12600030D01*
X15823298Y-12649975D01*
X15861524Y-12688202D01*
X15890007Y-12700000D01*
X15861524Y-12711798D01*
X15823298Y-12750024D01*
X15802610Y-12799970D01*
X15802610Y-12854030D01*
X15823298Y-12903975D01*
X15861524Y-12942202D01*
X15890007Y-12954000D01*
X15861524Y-12965798D01*
X15823298Y-13004024D01*
X15802610Y-13053970D01*
X15802610Y-13108030D01*
X15823298Y-13157975D01*
X15861524Y-13196202D01*
X15890007Y-13208000D01*
X15861524Y-13219798D01*
X15823298Y-13258024D01*
X15802610Y-13307970D01*
X15802610Y-13362030D01*
X15823298Y-13411975D01*
X15861524Y-13450202D01*
X15911470Y-13470890D01*
X15965530Y-13470890D01*
X16015475Y-13450202D01*
X16053702Y-13411975D01*
X16074390Y-13362030D01*
X16074390Y-13307970D01*
X16053702Y-13258024D01*
X16015475Y-13219798D01*
X15986992Y-13208000D01*
X16015475Y-13196202D01*
X16053702Y-13157975D01*
X16074390Y-13108030D01*
X16074390Y-13053970D01*
X16053702Y-13004024D01*
X16015475Y-12965798D01*
X15986992Y-12954000D01*
X16015475Y-12942202D01*
X16053702Y-12903975D01*
X16074390Y-12854030D01*
X16074390Y-12799970D01*
X16053702Y-12750024D01*
X16015475Y-12711798D01*
X15986992Y-12700000D01*
X16015475Y-12688202D01*
X16053702Y-12649975D01*
X16074390Y-12600030D01*
X16074390Y-12545970D01*
X16053702Y-12496024D01*
X16015475Y-12457798D01*
X15986992Y-12446000D01*
X16015475Y-12434202D01*
X16053702Y-12395975D01*
X16074390Y-12346030D01*
X16074390Y-12291970D01*
X16053702Y-12242024D01*
X16015475Y-12203798D01*
X15986992Y-12192000D01*
X16015475Y-12180202D01*
X16053702Y-12141975D01*
X16074390Y-12092030D01*
X16074390Y-12037970D01*
X16053702Y-11988024D01*
X16015475Y-11949798D01*
X15986992Y-11938000D01*
X16015475Y-11926202D01*
X16053702Y-11887975D01*
X16074390Y-11838030D01*
X16074390Y-11783970D01*
X16053702Y-11734024D01*
X16015475Y-11695798D01*
X15986992Y-11684000D01*
X16015475Y-11672202D01*
X16053702Y-11633975D01*
X16074390Y-11584030D01*
X16074390Y-11529970D01*
X16053702Y-11480024D01*
X16015475Y-11441798D01*
X15986992Y-11430000D01*
X16015475Y-11418202D01*
X16053702Y-11379975D01*
X16074390Y-11330030D01*
X16074390Y-11275970D01*
X16053702Y-11226024D01*
X16015475Y-11187798D01*
X15986992Y-11176000D01*
X16015475Y-11164202D01*
X16053702Y-11125976D01*
X16074390Y-11076030D01*
X16074390Y-11021970D01*
X16053702Y-10972025D01*
X16015475Y-10933798D01*
X15986992Y-10922000D01*
X16015475Y-10910202D01*
X16053702Y-10871976D01*
X16074390Y-10822030D01*
X16074390Y-10767970D01*
X16053702Y-10718025D01*
X16015475Y-10679798D01*
X15986992Y-10668000D01*
X16015475Y-10656202D01*
X16053702Y-10617976D01*
X16074390Y-10568030D01*
X16074390Y-10513970D01*
X16053702Y-10464025D01*
X16015475Y-10425798D01*
X15986992Y-10414000D01*
X16015475Y-10402202D01*
X16053702Y-10363976D01*
X16074390Y-10314030D01*
X16074390Y-10259970D01*
X16053702Y-10210025D01*
X16015475Y-10171798D01*
X15986992Y-10160000D01*
X16015475Y-10148202D01*
X16053702Y-10109976D01*
X16074390Y-10060030D01*
X16074390Y-10005970D01*
X16053702Y-9956025D01*
X16015475Y-9917798D01*
X15986992Y-9906000D01*
X16015475Y-9894202D01*
X16053702Y-9855976D01*
X16074390Y-9806030D01*
X16074390Y-9751970D01*
X16053702Y-9702025D01*
X16015475Y-9663798D01*
X15989251Y-9652935D01*
X16006002Y-9645997D01*
X16013462Y-9623311D01*
X15938500Y-9548349D01*
X15863538Y-9623311D01*
X15870998Y-9645997D01*
X15889819Y-9652078D01*
X15861524Y-9663798D01*
X15823298Y-9702025D01*
X15802610Y-9751970D01*
X15564656Y-9751970D01*
X15563789Y-9741173D01*
X15551497Y-9711498D01*
X15528811Y-9704038D01*
X15453849Y-9779000D01*
X15407151Y-9779000D01*
X15332189Y-9704038D01*
X15309503Y-9711498D01*
X15292882Y-9762940D01*
X14051237Y-9762940D01*
X14085202Y-9728976D01*
X14105890Y-9679030D01*
X14105890Y-9624970D01*
X14105203Y-9623311D01*
X15355538Y-9623311D01*
X15362998Y-9645997D01*
X15379282Y-9651258D01*
X15362998Y-9658003D01*
X15355538Y-9680689D01*
X15430500Y-9755651D01*
X15505462Y-9680689D01*
X15498002Y-9658003D01*
X15481718Y-9652742D01*
X15498002Y-9645997D01*
X15505462Y-9623311D01*
X15430500Y-9548349D01*
X15355538Y-9623311D01*
X14105203Y-9623311D01*
X14085202Y-9575025D01*
X14046975Y-9536798D01*
X14018492Y-9525000D01*
X14046975Y-9513202D01*
X14051237Y-9508940D01*
X15292882Y-9508940D01*
X15297211Y-9562827D01*
X15309503Y-9592502D01*
X15332189Y-9599962D01*
X15407151Y-9525000D01*
X15453849Y-9525000D01*
X15528811Y-9599962D01*
X15551497Y-9592502D01*
X15568118Y-9541060D01*
X15565538Y-9508940D01*
X15800882Y-9508940D01*
X15805211Y-9562827D01*
X15817503Y-9592502D01*
X15840189Y-9599962D01*
X15915151Y-9525000D01*
X15961849Y-9525000D01*
X16036811Y-9599962D01*
X16059497Y-9592502D01*
X16076118Y-9541060D01*
X16071789Y-9487173D01*
X16059497Y-9457498D01*
X16036811Y-9450038D01*
X15961849Y-9525000D01*
X15915151Y-9525000D01*
X15840189Y-9450038D01*
X15817503Y-9457498D01*
X15800882Y-9508940D01*
X15565538Y-9508940D01*
X15563789Y-9487173D01*
X15551497Y-9457498D01*
X15528811Y-9450038D01*
X15453849Y-9525000D01*
X15407151Y-9525000D01*
X15332189Y-9450038D01*
X15309503Y-9457498D01*
X15292882Y-9508940D01*
X14051237Y-9508940D01*
X14085202Y-9474976D01*
X14105890Y-9425030D01*
X14105890Y-9370970D01*
X14085202Y-9321025D01*
X14046975Y-9282798D01*
X14018492Y-9271000D01*
X14046975Y-9259202D01*
X14085202Y-9220976D01*
X14105890Y-9171030D01*
X14105890Y-9116970D01*
X14085202Y-9067025D01*
X14046975Y-9028798D01*
X14018492Y-9017000D01*
X14046975Y-9005202D01*
X14085202Y-8966976D01*
X14105890Y-8917030D01*
X14105890Y-8862970D01*
X14085202Y-8813025D01*
X14046975Y-8774798D01*
X14018492Y-8763000D01*
X14046975Y-8751202D01*
X14085202Y-8712976D01*
X14105890Y-8663030D01*
X14105890Y-8608970D01*
X14085202Y-8559025D01*
X14046975Y-8520798D01*
X14018492Y-8509000D01*
X14046975Y-8497202D01*
X14085202Y-8458976D01*
X14105890Y-8409030D01*
X14105890Y-8354970D01*
X14085202Y-8305024D01*
X14046975Y-8266798D01*
X14018492Y-8255000D01*
X14046975Y-8243202D01*
X14085202Y-8204975D01*
X14105890Y-8155030D01*
X14105890Y-8100970D01*
X14085202Y-8051024D01*
X14046975Y-8012798D01*
X14018492Y-8001000D01*
X14046975Y-7989202D01*
X14085202Y-7950975D01*
X14105890Y-7901030D01*
X14105890Y-7846970D01*
X14085202Y-7797024D01*
X14046975Y-7758798D01*
X14018492Y-7747000D01*
X14046975Y-7735202D01*
X14085202Y-7696975D01*
X14105890Y-7647030D01*
X14105890Y-7592970D01*
X14085202Y-7543024D01*
X14046975Y-7504798D01*
X14018492Y-7493000D01*
X14046975Y-7481202D01*
X14085202Y-7442975D01*
X14105890Y-7393030D01*
X14105890Y-7338970D01*
X14085202Y-7289024D01*
X14046975Y-7250798D01*
X14018492Y-7239000D01*
X14046975Y-7227202D01*
X14062208Y-7211970D01*
X15294610Y-7211970D01*
X15294610Y-7266030D01*
X15315298Y-7315975D01*
X15353524Y-7354202D01*
X15382007Y-7366000D01*
X15353524Y-7377798D01*
X15315298Y-7416024D01*
X15294610Y-7465970D01*
X15294610Y-7520030D01*
X15315298Y-7569975D01*
X15353524Y-7608202D01*
X15382007Y-7620000D01*
X15353524Y-7631798D01*
X15315298Y-7670024D01*
X15294610Y-7719970D01*
X15294610Y-7774030D01*
X15315298Y-7823975D01*
X15353524Y-7862202D01*
X15382007Y-7874000D01*
X15353524Y-7885798D01*
X15315298Y-7924024D01*
X15294610Y-7973970D01*
X15294610Y-8028030D01*
X15315298Y-8077975D01*
X15353524Y-8116202D01*
X15382007Y-8128000D01*
X15353524Y-8139798D01*
X15315298Y-8178024D01*
X15294610Y-8227970D01*
X15294610Y-8282030D01*
X15315298Y-8331975D01*
X15353524Y-8370202D01*
X15382007Y-8382000D01*
X15353524Y-8393798D01*
X15315298Y-8432025D01*
X15294610Y-8481970D01*
X15294610Y-8536030D01*
X15315298Y-8585976D01*
X15353524Y-8624202D01*
X15382007Y-8636000D01*
X15353524Y-8647798D01*
X15315298Y-8686025D01*
X15294610Y-8735970D01*
X15294610Y-8790030D01*
X15315298Y-8839976D01*
X15353524Y-8878202D01*
X15382007Y-8890000D01*
X15353524Y-8901798D01*
X15315298Y-8940025D01*
X15294610Y-8989970D01*
X15294610Y-9044030D01*
X15315298Y-9093976D01*
X15353524Y-9132202D01*
X15382007Y-9144000D01*
X15353524Y-9155798D01*
X15315298Y-9194025D01*
X15294610Y-9243970D01*
X15294610Y-9298030D01*
X15315298Y-9347976D01*
X15353524Y-9386202D01*
X15379749Y-9397065D01*
X15362998Y-9404003D01*
X15355538Y-9426689D01*
X15430500Y-9501651D01*
X15505462Y-9426689D01*
X15498002Y-9404003D01*
X15479181Y-9397922D01*
X15507475Y-9386202D01*
X15545702Y-9347976D01*
X15566390Y-9298030D01*
X15566390Y-9243970D01*
X15545702Y-9194025D01*
X15507475Y-9155798D01*
X15478992Y-9144000D01*
X15507475Y-9132202D01*
X15545702Y-9093976D01*
X15566390Y-9044030D01*
X15566390Y-8989970D01*
X15545702Y-8940025D01*
X15507475Y-8901798D01*
X15478992Y-8890000D01*
X15507475Y-8878202D01*
X15545702Y-8839976D01*
X15566390Y-8790030D01*
X15566390Y-8735970D01*
X15545702Y-8686025D01*
X15507475Y-8647798D01*
X15478992Y-8636000D01*
X15507475Y-8624202D01*
X15545702Y-8585976D01*
X15566390Y-8536030D01*
X15566390Y-8481970D01*
X15545702Y-8432025D01*
X15507475Y-8393798D01*
X15478992Y-8382000D01*
X15507475Y-8370202D01*
X15545702Y-8331975D01*
X15566390Y-8282030D01*
X15566390Y-8227970D01*
X15545702Y-8178024D01*
X15507475Y-8139798D01*
X15478992Y-8128000D01*
X15507475Y-8116202D01*
X15545702Y-8077975D01*
X15566390Y-8028030D01*
X15566390Y-7973970D01*
X15545702Y-7924024D01*
X15507475Y-7885798D01*
X15478992Y-7874000D01*
X15507475Y-7862202D01*
X15545702Y-7823975D01*
X15566390Y-7774030D01*
X15566390Y-7719970D01*
X15545702Y-7670024D01*
X15507475Y-7631798D01*
X15478992Y-7620000D01*
X15507475Y-7608202D01*
X15545702Y-7569975D01*
X15566390Y-7520030D01*
X15566390Y-7465970D01*
X15545702Y-7416024D01*
X15507475Y-7377798D01*
X15478992Y-7366000D01*
X15507475Y-7354202D01*
X15545702Y-7315975D01*
X15566390Y-7266030D01*
X15566390Y-7211970D01*
X15802610Y-7211970D01*
X15802610Y-7266030D01*
X15823298Y-7315975D01*
X15861524Y-7354202D01*
X15890007Y-7366000D01*
X15861524Y-7377798D01*
X15823298Y-7416024D01*
X15802610Y-7465970D01*
X15802610Y-7520030D01*
X15823298Y-7569975D01*
X15861524Y-7608202D01*
X15890007Y-7620000D01*
X15861524Y-7631798D01*
X15823298Y-7670024D01*
X15802610Y-7719970D01*
X15802610Y-7774030D01*
X15823298Y-7823975D01*
X15861524Y-7862202D01*
X15890007Y-7874000D01*
X15861524Y-7885798D01*
X15823298Y-7924024D01*
X15802610Y-7973970D01*
X15802610Y-8028030D01*
X15823298Y-8077975D01*
X15861524Y-8116202D01*
X15890007Y-8128000D01*
X15861524Y-8139798D01*
X15823298Y-8178024D01*
X15802610Y-8227970D01*
X15802610Y-8282030D01*
X15823298Y-8331975D01*
X15861524Y-8370202D01*
X15890007Y-8382000D01*
X15861524Y-8393798D01*
X15823298Y-8432025D01*
X15802610Y-8481970D01*
X15802610Y-8536030D01*
X15823298Y-8585976D01*
X15861524Y-8624202D01*
X15890007Y-8636000D01*
X15861524Y-8647798D01*
X15823298Y-8686025D01*
X15802610Y-8735970D01*
X15802610Y-8790030D01*
X15823298Y-8839976D01*
X15861524Y-8878202D01*
X15890007Y-8890000D01*
X15861524Y-8901798D01*
X15823298Y-8940025D01*
X15802610Y-8989970D01*
X15802610Y-9044030D01*
X15823298Y-9093976D01*
X15861524Y-9132202D01*
X15890007Y-9144000D01*
X15861524Y-9155798D01*
X15823298Y-9194025D01*
X15802610Y-9243970D01*
X15802610Y-9298030D01*
X15823298Y-9347976D01*
X15861524Y-9386202D01*
X15887749Y-9397065D01*
X15870998Y-9404003D01*
X15863538Y-9426689D01*
X15938500Y-9501651D01*
X16013462Y-9426689D01*
X16006002Y-9404003D01*
X15987181Y-9397922D01*
X16015475Y-9386202D01*
X16053702Y-9347976D01*
X16074390Y-9298030D01*
X16074390Y-9243970D01*
X16053702Y-9194025D01*
X16015475Y-9155798D01*
X15986992Y-9144000D01*
X16015475Y-9132202D01*
X16053702Y-9093976D01*
X16074390Y-9044030D01*
X16074390Y-8989970D01*
X16053702Y-8940025D01*
X16015475Y-8901798D01*
X15986992Y-8890000D01*
X16015475Y-8878202D01*
X16053702Y-8839976D01*
X16074390Y-8790030D01*
X16074390Y-8735970D01*
X16053702Y-8686025D01*
X16015475Y-8647798D01*
X15986992Y-8636000D01*
X16015475Y-8624202D01*
X16053702Y-8585976D01*
X16074390Y-8536030D01*
X16074390Y-8481970D01*
X16053702Y-8432025D01*
X16015475Y-8393798D01*
X15986992Y-8382000D01*
X16015475Y-8370202D01*
X16053702Y-8331975D01*
X16074390Y-8282030D01*
X16074390Y-8227970D01*
X16053702Y-8178024D01*
X16015475Y-8139798D01*
X15986992Y-8128000D01*
X16015475Y-8116202D01*
X16053702Y-8077975D01*
X16074390Y-8028030D01*
X16074390Y-7973970D01*
X16053702Y-7924024D01*
X16015475Y-7885798D01*
X15986992Y-7874000D01*
X16015475Y-7862202D01*
X16053702Y-7823975D01*
X16074390Y-7774030D01*
X16074390Y-7719970D01*
X16053702Y-7670024D01*
X16015475Y-7631798D01*
X15986992Y-7620000D01*
X16015475Y-7608202D01*
X16053702Y-7569975D01*
X16074390Y-7520030D01*
X16074390Y-7465970D01*
X16053702Y-7416024D01*
X16015475Y-7377798D01*
X15986992Y-7366000D01*
X16015475Y-7354202D01*
X16053702Y-7315975D01*
X16074390Y-7266030D01*
X16074390Y-7211970D01*
X16053702Y-7162024D01*
X16015475Y-7123798D01*
X15965530Y-7103110D01*
X15911470Y-7103110D01*
X15861524Y-7123798D01*
X15823298Y-7162024D01*
X15802610Y-7211970D01*
X15566390Y-7211970D01*
X15545702Y-7162024D01*
X15507475Y-7123798D01*
X15457530Y-7103110D01*
X15403470Y-7103110D01*
X15353524Y-7123798D01*
X15315298Y-7162024D01*
X15294610Y-7211970D01*
X14062208Y-7211970D01*
X14085202Y-7188975D01*
X14105890Y-7139030D01*
X14105890Y-7084970D01*
X14085202Y-7035024D01*
X14046975Y-6996798D01*
X14018492Y-6985000D01*
X14046975Y-6973202D01*
X14085202Y-6934975D01*
X14105890Y-6885030D01*
X14105890Y-6830970D01*
X14085202Y-6781024D01*
X14046975Y-6742798D01*
X14018492Y-6731000D01*
X14046975Y-6719202D01*
X14085202Y-6680975D01*
X14105890Y-6631030D01*
X14105890Y-6576970D01*
X14085202Y-6527024D01*
X14046975Y-6488798D01*
X14018492Y-6477000D01*
X14046975Y-6465202D01*
X14085202Y-6426975D01*
X14105890Y-6377030D01*
X14105890Y-6322970D01*
X14085202Y-6273024D01*
X14046975Y-6234798D01*
X13997030Y-6214110D01*
X13942970Y-6214110D01*
X13893024Y-6234798D01*
X13854798Y-6273024D01*
X13834110Y-6322970D01*
X13596156Y-6322970D01*
X13595289Y-6312173D01*
X13582997Y-6282498D01*
X13560311Y-6275038D01*
X13485349Y-6350000D01*
X13438651Y-6350000D01*
X13363689Y-6275038D01*
X13341003Y-6282498D01*
X13324382Y-6333940D01*
X11883390Y-6333940D01*
X11883390Y-6251689D01*
X13387038Y-6251689D01*
X13462000Y-6326651D01*
X13536962Y-6251689D01*
X13529502Y-6229003D01*
X13478060Y-6212382D01*
X13424173Y-6216711D01*
X13394498Y-6229003D01*
X13387038Y-6251689D01*
X11883390Y-6251689D01*
X11883390Y-4522234D01*
X11941810Y-4522234D01*
X11941810Y-4621766D01*
X11979899Y-4713721D01*
X12050279Y-4784101D01*
X12142234Y-4822190D01*
X12241766Y-4822190D01*
X12333721Y-4784101D01*
X12404101Y-4713721D01*
X12442190Y-4621766D01*
X12442190Y-4595770D01*
X15396210Y-4595770D01*
X15396210Y-4649830D01*
X15416898Y-4699776D01*
X15455124Y-4738002D01*
X15505070Y-4758690D01*
X15559130Y-4758690D01*
X15609075Y-4738002D01*
X15625967Y-4721111D01*
X15711138Y-4721111D01*
X15718598Y-4743797D01*
X15770040Y-4760418D01*
X15823927Y-4756089D01*
X15853602Y-4743797D01*
X15861062Y-4721111D01*
X15786100Y-4646149D01*
X15711138Y-4721111D01*
X15625967Y-4721111D01*
X15647302Y-4699776D01*
X15658165Y-4673551D01*
X15665103Y-4690302D01*
X15687789Y-4697762D01*
X15762751Y-4622800D01*
X15809449Y-4622800D01*
X15884411Y-4697762D01*
X15907097Y-4690302D01*
X15923718Y-4638860D01*
X15919389Y-4584973D01*
X15907097Y-4555298D01*
X15884411Y-4547838D01*
X15809449Y-4622800D01*
X15762751Y-4622800D01*
X15687789Y-4547838D01*
X15665103Y-4555298D01*
X15659022Y-4574119D01*
X15647302Y-4545825D01*
X15625967Y-4524489D01*
X15711138Y-4524489D01*
X15786100Y-4599451D01*
X15861062Y-4524489D01*
X15860320Y-4522234D01*
X16958310Y-4522234D01*
X16958310Y-4621766D01*
X16996399Y-4713721D01*
X17066779Y-4784101D01*
X17158734Y-4822190D01*
X17258266Y-4822190D01*
X17350221Y-4784101D01*
X17420601Y-4713721D01*
X17458690Y-4621766D01*
X17458690Y-4522234D01*
X17420601Y-4430279D01*
X17350221Y-4359899D01*
X17258266Y-4321810D01*
X17158734Y-4321810D01*
X17066779Y-4359899D01*
X16996399Y-4430279D01*
X16958310Y-4522234D01*
X15860320Y-4522234D01*
X15853602Y-4501803D01*
X15802160Y-4485182D01*
X15748273Y-4489511D01*
X15718598Y-4501803D01*
X15711138Y-4524489D01*
X15625967Y-4524489D01*
X15609075Y-4507598D01*
X15559130Y-4486910D01*
X15505070Y-4486910D01*
X15455124Y-4507598D01*
X15416898Y-4545825D01*
X15396210Y-4595770D01*
X12442190Y-4595770D01*
X12442190Y-4522234D01*
X12404101Y-4430279D01*
X12333721Y-4359899D01*
X12241766Y-4321810D01*
X12142234Y-4321810D01*
X12050279Y-4359899D01*
X11979899Y-4430279D01*
X11941810Y-4522234D01*
X11883390Y-4522234D01*
X11883390Y-4263390D01*
X17517110Y-4263390D01*
X17517110Y-16310610D01*
G04 #@! TD*
M02*
