M48
; DRILL file {KiCad (6.0.5)} date Mon Nov  7 18:45:33 2022
; FORMAT={-:-/ absolute / inch / decimal}
; #@! TF.CreationDate,2022-11-07T18:45:33-05:00
; #@! TF.GenerationSoftware,Kicad,Pcbnew,(6.0.5)
; #@! TF.FileFunction,MixedPlating,1,2
FMAT,2
INCH
; #@! TA.AperFunction,Plated,PTH,ComponentDrill
T1C0.0400
; #@! TA.AperFunction,Plated,PTH,ComponentDrill
T2C0.0917
; #@! TA.AperFunction,Plated,PTH,ComponentDrill
T3C0.1250
%
G90
G05
T1
X5.3Y-2.5
X5.3Y-2.6
X5.3Y-2.7
X5.3Y-2.8
X5.3Y-2.9
X5.3Y-3.0
X5.3Y-3.1
X5.3Y-3.2
X5.3Y-3.3
X5.3Y-3.4
X5.3Y-3.5
X5.3Y-3.6
X5.3Y-3.7
X5.3Y-3.8
X5.3Y-3.9
X5.3Y-4.0
X5.3Y-4.1
X5.3Y-4.2
X5.3Y-4.3
X5.3Y-4.4
X5.3Y-4.5
X5.3Y-4.6
X5.3Y-4.7
X5.3Y-4.8
X5.3Y-4.9
X5.3Y-5.0
X5.3Y-5.1
X5.3Y-5.2
X5.3Y-5.3
X5.3Y-5.4
X5.3Y-5.5
X5.3Y-5.6
X5.5Y-2.5
X5.5Y-2.6
X5.5Y-2.7
X5.5Y-2.8
X5.5Y-2.9
X5.5Y-3.0
X5.5Y-3.1
X5.5Y-3.2
X5.5Y-3.3
X5.5Y-3.4
X5.5Y-3.5
X5.5Y-3.6
X5.5Y-3.7
X5.5Y-3.8
X5.5Y-3.9
X5.5Y-4.0
X5.5Y-4.1
X5.5Y-4.2
X5.5Y-4.3
X5.5Y-4.4
X5.5Y-4.5
X5.5Y-4.6
X5.5Y-4.7
X5.5Y-4.8
X5.5Y-4.9
X5.5Y-5.0
X5.5Y-5.1
X5.5Y-5.2
X5.5Y-5.3
X5.5Y-5.4
X5.5Y-5.5
X5.5Y-5.6
X5.7Y-1.6
X5.8Y-1.6
X6.075Y-2.85
X6.075Y-2.95
X6.075Y-3.05
X6.075Y-3.15
X6.075Y-3.25
X6.075Y-3.35
X6.075Y-3.45
X6.075Y-3.55
X6.075Y-3.65
X6.075Y-3.75
X6.075Y-3.85
X6.075Y-3.95
X6.075Y-4.05
X6.075Y-4.15
X6.075Y-4.25
X6.075Y-4.35
X6.075Y-4.45
X6.075Y-4.55
X6.075Y-4.65
X6.075Y-4.75
X6.075Y-4.85
X6.075Y-4.95
X6.075Y-5.05
X6.075Y-5.15
X6.075Y-5.25
X6.2008Y-1.662
X6.2008Y-1.7407
X6.275Y-2.85
X6.275Y-2.95
X6.275Y-3.05
X6.275Y-3.15
X6.275Y-3.25
X6.275Y-3.35
X6.275Y-3.45
X6.275Y-3.55
X6.275Y-3.65
X6.275Y-3.75
X6.275Y-3.85
X6.275Y-3.95
X6.275Y-4.05
X6.275Y-4.15
X6.275Y-4.25
X6.275Y-4.35
X6.275Y-4.45
X6.275Y-4.55
X6.275Y-4.65
X6.275Y-4.75
X6.275Y-4.85
X6.275Y-4.95
X6.275Y-5.05
X6.275Y-5.15
X6.275Y-5.25
X6.2992Y-1.662
X6.2992Y-1.7407
T2
X6.013Y-1.5553
X6.487Y-1.5553
T3
X4.8Y-1.55
X4.8Y-6.3
X6.775Y-1.55
X6.775Y-6.3
T0
M30
