G04 #@! TF.GenerationSoftware,KiCad,Pcbnew,5.0.1-33cea8e~68~ubuntu18.04.1*
G04 #@! TF.CreationDate,2018-11-20T23:31:39-05:00*
G04 #@! TF.ProjectId,power-pcb,706F7765722D7063622E6B696361645F,0.1*
G04 #@! TF.SameCoordinates,Original*
G04 #@! TF.FileFunction,Soldermask,Top*
G04 #@! TF.FilePolarity,Negative*
%FSLAX45Y45*%
G04 Gerber Fmt 4.5, Leading zero omitted, Abs format (unit mm)*
G04 Created by KiCad (PCBNEW 5.0.1-33cea8e~68~ubuntu18.04.1) date Tue 20 Nov 2018 11:31:39 PM EST*
%MOMM*%
%LPD*%
G01*
G04 APERTURE LIST*
%ADD10C,0.100000*%
G04 APERTURE END LIST*
D10*
G36*
X17252958Y-15811411D02*
X17265554Y-15813917D01*
X17280299Y-15820024D01*
X17301151Y-15828661D01*
X17333188Y-15850068D01*
X17360432Y-15877312D01*
X17381839Y-15909349D01*
X17396583Y-15944946D01*
X17404100Y-15982735D01*
X17404100Y-16021265D01*
X17396583Y-16059054D01*
X17381839Y-16094651D01*
X17360432Y-16126688D01*
X17333188Y-16153932D01*
X17301151Y-16175338D01*
X17280299Y-16183976D01*
X17265554Y-16190083D01*
X17252958Y-16192589D01*
X17227765Y-16197600D01*
X17189235Y-16197600D01*
X17164042Y-16192589D01*
X17151446Y-16190083D01*
X17136701Y-16183976D01*
X17115849Y-16175338D01*
X17083812Y-16153932D01*
X17056568Y-16126688D01*
X17035162Y-16094651D01*
X17020417Y-16059054D01*
X17012900Y-16021265D01*
X17012900Y-15982735D01*
X17020417Y-15944946D01*
X17035162Y-15909349D01*
X17056568Y-15877312D01*
X17083812Y-15850068D01*
X17115849Y-15828661D01*
X17136701Y-15820024D01*
X17151446Y-15813917D01*
X17164042Y-15811411D01*
X17189235Y-15806400D01*
X17227765Y-15806400D01*
X17252958Y-15811411D01*
X17252958Y-15811411D01*
G37*
G36*
X12236458Y-15811411D02*
X12249054Y-15813917D01*
X12263799Y-15820024D01*
X12284651Y-15828661D01*
X12316688Y-15850068D01*
X12343932Y-15877312D01*
X12365338Y-15909349D01*
X12380083Y-15944946D01*
X12387600Y-15982735D01*
X12387600Y-16021265D01*
X12380083Y-16059054D01*
X12365338Y-16094651D01*
X12343932Y-16126688D01*
X12316688Y-16153932D01*
X12284651Y-16175338D01*
X12263799Y-16183976D01*
X12249054Y-16190083D01*
X12236458Y-16192589D01*
X12211265Y-16197600D01*
X12172735Y-16197600D01*
X12147542Y-16192589D01*
X12134946Y-16190083D01*
X12120201Y-16183976D01*
X12099349Y-16175338D01*
X12067312Y-16153932D01*
X12040068Y-16126688D01*
X12018661Y-16094651D01*
X12003917Y-16059054D01*
X11996400Y-16021265D01*
X11996400Y-15982735D01*
X12003917Y-15944946D01*
X12018661Y-15909349D01*
X12040068Y-15877312D01*
X12067312Y-15850068D01*
X12099349Y-15828661D01*
X12120201Y-15820024D01*
X12134946Y-15813917D01*
X12147542Y-15811411D01*
X12172735Y-15806400D01*
X12211265Y-15806400D01*
X12236458Y-15811411D01*
X12236458Y-15811411D01*
G37*
G36*
X13995190Y-14140959D02*
X14010907Y-14147469D01*
X14025051Y-14156920D01*
X14037080Y-14168949D01*
X14046531Y-14183093D01*
X14053041Y-14198810D01*
X14056360Y-14215494D01*
X14056360Y-14232506D01*
X14053041Y-14249190D01*
X14046531Y-14264907D01*
X14037080Y-14279051D01*
X14025051Y-14291080D01*
X14010907Y-14300531D01*
X13995190Y-14307041D01*
X13978506Y-14310360D01*
X13961494Y-14310360D01*
X13944810Y-14307041D01*
X13929093Y-14300531D01*
X13914949Y-14291080D01*
X13902920Y-14279051D01*
X13893469Y-14264907D01*
X13886959Y-14249190D01*
X13883640Y-14232506D01*
X13883640Y-14215494D01*
X13886959Y-14198810D01*
X13893469Y-14183093D01*
X13902920Y-14168949D01*
X13914949Y-14156920D01*
X13929093Y-14147469D01*
X13944810Y-14140959D01*
X13961494Y-14137640D01*
X13978506Y-14137640D01*
X13995190Y-14140959D01*
X13995190Y-14140959D01*
G37*
G36*
X13487190Y-14140959D02*
X13502907Y-14147469D01*
X13517051Y-14156920D01*
X13529080Y-14168949D01*
X13538531Y-14183093D01*
X13545041Y-14198810D01*
X13548360Y-14215494D01*
X13548360Y-14232506D01*
X13545041Y-14249190D01*
X13538531Y-14264907D01*
X13529080Y-14279051D01*
X13517051Y-14291080D01*
X13502907Y-14300531D01*
X13487190Y-14307041D01*
X13470506Y-14310360D01*
X13453494Y-14310360D01*
X13436810Y-14307041D01*
X13421093Y-14300531D01*
X13406949Y-14291080D01*
X13394920Y-14279051D01*
X13385469Y-14264907D01*
X13378959Y-14249190D01*
X13375640Y-14232506D01*
X13375640Y-14215494D01*
X13378959Y-14198810D01*
X13385469Y-14183093D01*
X13394920Y-14168949D01*
X13406949Y-14156920D01*
X13421093Y-14147469D01*
X13436810Y-14140959D01*
X13453494Y-14137640D01*
X13470506Y-14137640D01*
X13487190Y-14140959D01*
X13487190Y-14140959D01*
G37*
G36*
X13487190Y-13886959D02*
X13502907Y-13893469D01*
X13517051Y-13902920D01*
X13529080Y-13914949D01*
X13538531Y-13929093D01*
X13545041Y-13944810D01*
X13548360Y-13961494D01*
X13548360Y-13978506D01*
X13545041Y-13995190D01*
X13538531Y-14010907D01*
X13529080Y-14025051D01*
X13517051Y-14037080D01*
X13502907Y-14046531D01*
X13487190Y-14053041D01*
X13470506Y-14056360D01*
X13453494Y-14056360D01*
X13436810Y-14053041D01*
X13421093Y-14046531D01*
X13406949Y-14037080D01*
X13394920Y-14025051D01*
X13385469Y-14010907D01*
X13378959Y-13995190D01*
X13375640Y-13978506D01*
X13375640Y-13961494D01*
X13378959Y-13944810D01*
X13385469Y-13929093D01*
X13394920Y-13914949D01*
X13406949Y-13902920D01*
X13421093Y-13893469D01*
X13436810Y-13886959D01*
X13453494Y-13883640D01*
X13470506Y-13883640D01*
X13487190Y-13886959D01*
X13487190Y-13886959D01*
G37*
G36*
X13995190Y-13886959D02*
X14010907Y-13893469D01*
X14025051Y-13902920D01*
X14037080Y-13914949D01*
X14046531Y-13929093D01*
X14053041Y-13944810D01*
X14056360Y-13961494D01*
X14056360Y-13978506D01*
X14053041Y-13995190D01*
X14046531Y-14010907D01*
X14037080Y-14025051D01*
X14025051Y-14037080D01*
X14010907Y-14046531D01*
X13995190Y-14053041D01*
X13978506Y-14056360D01*
X13961494Y-14056360D01*
X13944810Y-14053041D01*
X13929093Y-14046531D01*
X13914949Y-14037080D01*
X13902920Y-14025051D01*
X13893469Y-14010907D01*
X13886959Y-13995190D01*
X13883640Y-13978506D01*
X13883640Y-13961494D01*
X13886959Y-13944810D01*
X13893469Y-13929093D01*
X13902920Y-13914949D01*
X13914949Y-13902920D01*
X13929093Y-13893469D01*
X13944810Y-13886959D01*
X13961494Y-13883640D01*
X13978506Y-13883640D01*
X13995190Y-13886959D01*
X13995190Y-13886959D01*
G37*
G36*
X13487190Y-13632959D02*
X13502907Y-13639469D01*
X13517051Y-13648920D01*
X13529080Y-13660949D01*
X13538531Y-13675093D01*
X13545041Y-13690810D01*
X13548360Y-13707494D01*
X13548360Y-13724506D01*
X13545041Y-13741190D01*
X13538531Y-13756907D01*
X13529080Y-13771051D01*
X13517051Y-13783080D01*
X13502907Y-13792531D01*
X13487190Y-13799041D01*
X13470506Y-13802360D01*
X13453494Y-13802360D01*
X13436810Y-13799041D01*
X13421093Y-13792531D01*
X13406949Y-13783080D01*
X13394920Y-13771051D01*
X13385469Y-13756907D01*
X13378959Y-13741190D01*
X13375640Y-13724506D01*
X13375640Y-13707494D01*
X13378959Y-13690810D01*
X13385469Y-13675093D01*
X13394920Y-13660949D01*
X13406949Y-13648920D01*
X13421093Y-13639469D01*
X13436810Y-13632959D01*
X13453494Y-13629640D01*
X13470506Y-13629640D01*
X13487190Y-13632959D01*
X13487190Y-13632959D01*
G37*
G36*
X13995190Y-13632959D02*
X14010907Y-13639469D01*
X14025051Y-13648920D01*
X14037080Y-13660949D01*
X14046531Y-13675093D01*
X14053041Y-13690810D01*
X14056360Y-13707494D01*
X14056360Y-13724506D01*
X14053041Y-13741190D01*
X14046531Y-13756907D01*
X14037080Y-13771051D01*
X14025051Y-13783080D01*
X14010907Y-13792531D01*
X13995190Y-13799041D01*
X13978506Y-13802360D01*
X13961494Y-13802360D01*
X13944810Y-13799041D01*
X13929093Y-13792531D01*
X13914949Y-13783080D01*
X13902920Y-13771051D01*
X13893469Y-13756907D01*
X13886959Y-13741190D01*
X13883640Y-13724506D01*
X13883640Y-13707494D01*
X13886959Y-13690810D01*
X13893469Y-13675093D01*
X13902920Y-13660949D01*
X13914949Y-13648920D01*
X13929093Y-13639469D01*
X13944810Y-13632959D01*
X13961494Y-13629640D01*
X13978506Y-13629640D01*
X13995190Y-13632959D01*
X13995190Y-13632959D01*
G37*
G36*
X13487190Y-13378959D02*
X13502907Y-13385469D01*
X13517051Y-13394920D01*
X13529080Y-13406949D01*
X13538531Y-13421093D01*
X13545041Y-13436810D01*
X13548360Y-13453494D01*
X13548360Y-13470506D01*
X13545041Y-13487190D01*
X13538531Y-13502907D01*
X13529080Y-13517051D01*
X13517051Y-13529080D01*
X13502907Y-13538531D01*
X13487190Y-13545041D01*
X13470506Y-13548360D01*
X13453494Y-13548360D01*
X13436810Y-13545041D01*
X13421093Y-13538531D01*
X13406949Y-13529080D01*
X13394920Y-13517051D01*
X13385469Y-13502907D01*
X13378959Y-13487190D01*
X13375640Y-13470506D01*
X13375640Y-13453494D01*
X13378959Y-13436810D01*
X13385469Y-13421093D01*
X13394920Y-13406949D01*
X13406949Y-13394920D01*
X13421093Y-13385469D01*
X13436810Y-13378959D01*
X13453494Y-13375640D01*
X13470506Y-13375640D01*
X13487190Y-13378959D01*
X13487190Y-13378959D01*
G37*
G36*
X13995190Y-13378959D02*
X14010907Y-13385469D01*
X14025051Y-13394920D01*
X14037080Y-13406949D01*
X14046531Y-13421093D01*
X14053041Y-13436810D01*
X14056360Y-13453494D01*
X14056360Y-13470506D01*
X14053041Y-13487190D01*
X14046531Y-13502907D01*
X14037080Y-13517051D01*
X14025051Y-13529080D01*
X14010907Y-13538531D01*
X13995190Y-13545041D01*
X13978506Y-13548360D01*
X13961494Y-13548360D01*
X13944810Y-13545041D01*
X13929093Y-13538531D01*
X13914949Y-13529080D01*
X13902920Y-13517051D01*
X13893469Y-13502907D01*
X13886959Y-13487190D01*
X13883640Y-13470506D01*
X13883640Y-13453494D01*
X13886959Y-13436810D01*
X13893469Y-13421093D01*
X13902920Y-13406949D01*
X13914949Y-13394920D01*
X13929093Y-13385469D01*
X13944810Y-13378959D01*
X13961494Y-13375640D01*
X13978506Y-13375640D01*
X13995190Y-13378959D01*
X13995190Y-13378959D01*
G37*
G36*
X15963690Y-13251959D02*
X15979407Y-13258469D01*
X15993551Y-13267920D01*
X16005580Y-13279949D01*
X16015031Y-13294093D01*
X16021541Y-13309810D01*
X16024860Y-13326494D01*
X16024860Y-13343506D01*
X16021541Y-13360190D01*
X16015031Y-13375907D01*
X16005580Y-13390051D01*
X15993551Y-13402080D01*
X15979407Y-13411531D01*
X15963690Y-13418041D01*
X15947006Y-13421360D01*
X15929994Y-13421360D01*
X15913310Y-13418041D01*
X15897593Y-13411531D01*
X15883449Y-13402080D01*
X15871420Y-13390051D01*
X15861969Y-13375907D01*
X15855459Y-13360190D01*
X15852140Y-13343506D01*
X15852140Y-13326494D01*
X15855459Y-13309810D01*
X15861969Y-13294093D01*
X15871420Y-13279949D01*
X15883449Y-13267920D01*
X15897593Y-13258469D01*
X15913310Y-13251959D01*
X15929994Y-13248640D01*
X15947006Y-13248640D01*
X15963690Y-13251959D01*
X15963690Y-13251959D01*
G37*
G36*
X15455690Y-13251959D02*
X15471407Y-13258469D01*
X15485551Y-13267920D01*
X15497580Y-13279949D01*
X15507031Y-13294093D01*
X15513541Y-13309810D01*
X15516860Y-13326494D01*
X15516860Y-13343506D01*
X15513541Y-13360190D01*
X15507031Y-13375907D01*
X15497580Y-13390051D01*
X15485551Y-13402080D01*
X15471407Y-13411531D01*
X15455690Y-13418041D01*
X15439006Y-13421360D01*
X15421994Y-13421360D01*
X15405310Y-13418041D01*
X15389593Y-13411531D01*
X15375449Y-13402080D01*
X15363420Y-13390051D01*
X15353969Y-13375907D01*
X15347459Y-13360190D01*
X15344140Y-13343506D01*
X15344140Y-13326494D01*
X15347459Y-13309810D01*
X15353969Y-13294093D01*
X15363420Y-13279949D01*
X15375449Y-13267920D01*
X15389593Y-13258469D01*
X15405310Y-13251959D01*
X15421994Y-13248640D01*
X15439006Y-13248640D01*
X15455690Y-13251959D01*
X15455690Y-13251959D01*
G37*
G36*
X13995190Y-13124959D02*
X14010907Y-13131469D01*
X14025051Y-13140920D01*
X14037080Y-13152949D01*
X14046531Y-13167093D01*
X14053041Y-13182810D01*
X14056360Y-13199494D01*
X14056360Y-13216506D01*
X14053041Y-13233190D01*
X14046531Y-13248907D01*
X14037080Y-13263051D01*
X14025051Y-13275080D01*
X14010907Y-13284531D01*
X13995190Y-13291041D01*
X13978506Y-13294360D01*
X13961494Y-13294360D01*
X13944810Y-13291041D01*
X13929093Y-13284531D01*
X13914949Y-13275080D01*
X13902920Y-13263051D01*
X13893469Y-13248907D01*
X13886959Y-13233190D01*
X13883640Y-13216506D01*
X13883640Y-13199494D01*
X13886959Y-13182810D01*
X13893469Y-13167093D01*
X13902920Y-13152949D01*
X13914949Y-13140920D01*
X13929093Y-13131469D01*
X13944810Y-13124959D01*
X13961494Y-13121640D01*
X13978506Y-13121640D01*
X13995190Y-13124959D01*
X13995190Y-13124959D01*
G37*
G36*
X13487190Y-13124959D02*
X13502907Y-13131469D01*
X13517051Y-13140920D01*
X13529080Y-13152949D01*
X13538531Y-13167093D01*
X13545041Y-13182810D01*
X13548360Y-13199494D01*
X13548360Y-13216506D01*
X13545041Y-13233190D01*
X13538531Y-13248907D01*
X13529080Y-13263051D01*
X13517051Y-13275080D01*
X13502907Y-13284531D01*
X13487190Y-13291041D01*
X13470506Y-13294360D01*
X13453494Y-13294360D01*
X13436810Y-13291041D01*
X13421093Y-13284531D01*
X13406949Y-13275080D01*
X13394920Y-13263051D01*
X13385469Y-13248907D01*
X13378959Y-13233190D01*
X13375640Y-13216506D01*
X13375640Y-13199494D01*
X13378959Y-13182810D01*
X13385469Y-13167093D01*
X13394920Y-13152949D01*
X13406949Y-13140920D01*
X13421093Y-13131469D01*
X13436810Y-13124959D01*
X13453494Y-13121640D01*
X13470506Y-13121640D01*
X13487190Y-13124959D01*
X13487190Y-13124959D01*
G37*
G36*
X15455690Y-12997959D02*
X15471407Y-13004469D01*
X15485551Y-13013920D01*
X15497580Y-13025949D01*
X15507031Y-13040093D01*
X15513541Y-13055810D01*
X15516860Y-13072494D01*
X15516860Y-13089506D01*
X15513541Y-13106190D01*
X15507031Y-13121907D01*
X15497580Y-13136051D01*
X15485551Y-13148080D01*
X15471407Y-13157531D01*
X15455690Y-13164041D01*
X15439006Y-13167360D01*
X15421994Y-13167360D01*
X15405310Y-13164041D01*
X15389593Y-13157531D01*
X15375449Y-13148080D01*
X15363420Y-13136051D01*
X15353969Y-13121907D01*
X15347459Y-13106190D01*
X15344140Y-13089506D01*
X15344140Y-13072494D01*
X15347459Y-13055810D01*
X15353969Y-13040093D01*
X15363420Y-13025949D01*
X15375449Y-13013920D01*
X15389593Y-13004469D01*
X15405310Y-12997959D01*
X15421994Y-12994640D01*
X15439006Y-12994640D01*
X15455690Y-12997959D01*
X15455690Y-12997959D01*
G37*
G36*
X15963690Y-12997959D02*
X15979407Y-13004469D01*
X15993551Y-13013920D01*
X16005580Y-13025949D01*
X16015031Y-13040093D01*
X16021541Y-13055810D01*
X16024860Y-13072494D01*
X16024860Y-13089506D01*
X16021541Y-13106190D01*
X16015031Y-13121907D01*
X16005580Y-13136051D01*
X15993551Y-13148080D01*
X15979407Y-13157531D01*
X15963690Y-13164041D01*
X15947006Y-13167360D01*
X15929994Y-13167360D01*
X15913310Y-13164041D01*
X15897593Y-13157531D01*
X15883449Y-13148080D01*
X15871420Y-13136051D01*
X15861969Y-13121907D01*
X15855459Y-13106190D01*
X15852140Y-13089506D01*
X15852140Y-13072494D01*
X15855459Y-13055810D01*
X15861969Y-13040093D01*
X15871420Y-13025949D01*
X15883449Y-13013920D01*
X15897593Y-13004469D01*
X15913310Y-12997959D01*
X15929994Y-12994640D01*
X15947006Y-12994640D01*
X15963690Y-12997959D01*
X15963690Y-12997959D01*
G37*
G36*
X13487190Y-12870959D02*
X13502907Y-12877469D01*
X13517051Y-12886920D01*
X13529080Y-12898949D01*
X13538531Y-12913093D01*
X13545041Y-12928810D01*
X13548360Y-12945494D01*
X13548360Y-12962506D01*
X13545041Y-12979190D01*
X13538531Y-12994907D01*
X13529080Y-13009051D01*
X13517051Y-13021080D01*
X13502907Y-13030531D01*
X13487190Y-13037041D01*
X13470506Y-13040360D01*
X13453494Y-13040360D01*
X13436810Y-13037041D01*
X13421093Y-13030531D01*
X13406949Y-13021080D01*
X13394920Y-13009051D01*
X13385469Y-12994907D01*
X13378959Y-12979190D01*
X13375640Y-12962506D01*
X13375640Y-12945494D01*
X13378959Y-12928810D01*
X13385469Y-12913093D01*
X13394920Y-12898949D01*
X13406949Y-12886920D01*
X13421093Y-12877469D01*
X13436810Y-12870959D01*
X13453494Y-12867640D01*
X13470506Y-12867640D01*
X13487190Y-12870959D01*
X13487190Y-12870959D01*
G37*
G36*
X13995190Y-12870959D02*
X14010907Y-12877469D01*
X14025051Y-12886920D01*
X14037080Y-12898949D01*
X14046531Y-12913093D01*
X14053041Y-12928810D01*
X14056360Y-12945494D01*
X14056360Y-12962506D01*
X14053041Y-12979190D01*
X14046531Y-12994907D01*
X14037080Y-13009051D01*
X14025051Y-13021080D01*
X14010907Y-13030531D01*
X13995190Y-13037041D01*
X13978506Y-13040360D01*
X13961494Y-13040360D01*
X13944810Y-13037041D01*
X13929093Y-13030531D01*
X13914949Y-13021080D01*
X13902920Y-13009051D01*
X13893469Y-12994907D01*
X13886959Y-12979190D01*
X13883640Y-12962506D01*
X13883640Y-12945494D01*
X13886959Y-12928810D01*
X13893469Y-12913093D01*
X13902920Y-12898949D01*
X13914949Y-12886920D01*
X13929093Y-12877469D01*
X13944810Y-12870959D01*
X13961494Y-12867640D01*
X13978506Y-12867640D01*
X13995190Y-12870959D01*
X13995190Y-12870959D01*
G37*
G36*
X15455690Y-12743959D02*
X15471407Y-12750469D01*
X15485551Y-12759920D01*
X15497580Y-12771949D01*
X15507031Y-12786093D01*
X15513541Y-12801810D01*
X15516860Y-12818494D01*
X15516860Y-12835506D01*
X15513541Y-12852190D01*
X15507031Y-12867907D01*
X15497580Y-12882051D01*
X15485551Y-12894080D01*
X15471407Y-12903531D01*
X15455690Y-12910041D01*
X15439006Y-12913360D01*
X15421994Y-12913360D01*
X15405310Y-12910041D01*
X15389593Y-12903531D01*
X15375449Y-12894080D01*
X15363420Y-12882051D01*
X15353969Y-12867907D01*
X15347459Y-12852190D01*
X15344140Y-12835506D01*
X15344140Y-12818494D01*
X15347459Y-12801810D01*
X15353969Y-12786093D01*
X15363420Y-12771949D01*
X15375449Y-12759920D01*
X15389593Y-12750469D01*
X15405310Y-12743959D01*
X15421994Y-12740640D01*
X15439006Y-12740640D01*
X15455690Y-12743959D01*
X15455690Y-12743959D01*
G37*
G36*
X15963690Y-12743959D02*
X15979407Y-12750469D01*
X15993551Y-12759920D01*
X16005580Y-12771949D01*
X16015031Y-12786093D01*
X16021541Y-12801810D01*
X16024860Y-12818494D01*
X16024860Y-12835506D01*
X16021541Y-12852190D01*
X16015031Y-12867907D01*
X16005580Y-12882051D01*
X15993551Y-12894080D01*
X15979407Y-12903531D01*
X15963690Y-12910041D01*
X15947006Y-12913360D01*
X15929994Y-12913360D01*
X15913310Y-12910041D01*
X15897593Y-12903531D01*
X15883449Y-12894080D01*
X15871420Y-12882051D01*
X15861969Y-12867907D01*
X15855459Y-12852190D01*
X15852140Y-12835506D01*
X15852140Y-12818494D01*
X15855459Y-12801810D01*
X15861969Y-12786093D01*
X15871420Y-12771949D01*
X15883449Y-12759920D01*
X15897593Y-12750469D01*
X15913310Y-12743959D01*
X15929994Y-12740640D01*
X15947006Y-12740640D01*
X15963690Y-12743959D01*
X15963690Y-12743959D01*
G37*
G36*
X13487190Y-12616959D02*
X13502907Y-12623469D01*
X13517051Y-12632920D01*
X13529080Y-12644949D01*
X13538531Y-12659093D01*
X13545041Y-12674810D01*
X13548360Y-12691494D01*
X13548360Y-12708506D01*
X13545041Y-12725190D01*
X13538531Y-12740907D01*
X13529080Y-12755051D01*
X13517051Y-12767080D01*
X13502907Y-12776531D01*
X13487190Y-12783041D01*
X13470506Y-12786360D01*
X13453494Y-12786360D01*
X13436810Y-12783041D01*
X13421093Y-12776531D01*
X13406949Y-12767080D01*
X13394920Y-12755051D01*
X13385469Y-12740907D01*
X13378959Y-12725190D01*
X13375640Y-12708506D01*
X13375640Y-12691494D01*
X13378959Y-12674810D01*
X13385469Y-12659093D01*
X13394920Y-12644949D01*
X13406949Y-12632920D01*
X13421093Y-12623469D01*
X13436810Y-12616959D01*
X13453494Y-12613640D01*
X13470506Y-12613640D01*
X13487190Y-12616959D01*
X13487190Y-12616959D01*
G37*
G36*
X13995190Y-12616959D02*
X14010907Y-12623469D01*
X14025051Y-12632920D01*
X14037080Y-12644949D01*
X14046531Y-12659093D01*
X14053041Y-12674810D01*
X14056360Y-12691494D01*
X14056360Y-12708506D01*
X14053041Y-12725190D01*
X14046531Y-12740907D01*
X14037080Y-12755051D01*
X14025051Y-12767080D01*
X14010907Y-12776531D01*
X13995190Y-12783041D01*
X13978506Y-12786360D01*
X13961494Y-12786360D01*
X13944810Y-12783041D01*
X13929093Y-12776531D01*
X13914949Y-12767080D01*
X13902920Y-12755051D01*
X13893469Y-12740907D01*
X13886959Y-12725190D01*
X13883640Y-12708506D01*
X13883640Y-12691494D01*
X13886959Y-12674810D01*
X13893469Y-12659093D01*
X13902920Y-12644949D01*
X13914949Y-12632920D01*
X13929093Y-12623469D01*
X13944810Y-12616959D01*
X13961494Y-12613640D01*
X13978506Y-12613640D01*
X13995190Y-12616959D01*
X13995190Y-12616959D01*
G37*
G36*
X15455690Y-12489959D02*
X15471407Y-12496469D01*
X15485551Y-12505920D01*
X15497580Y-12517949D01*
X15507031Y-12532093D01*
X15513541Y-12547810D01*
X15516860Y-12564494D01*
X15516860Y-12581506D01*
X15513541Y-12598190D01*
X15507031Y-12613907D01*
X15497580Y-12628051D01*
X15485551Y-12640080D01*
X15471407Y-12649531D01*
X15455690Y-12656041D01*
X15439006Y-12659360D01*
X15421994Y-12659360D01*
X15405310Y-12656041D01*
X15389593Y-12649531D01*
X15375449Y-12640080D01*
X15363420Y-12628051D01*
X15353969Y-12613907D01*
X15347459Y-12598190D01*
X15344140Y-12581506D01*
X15344140Y-12564494D01*
X15347459Y-12547810D01*
X15353969Y-12532093D01*
X15363420Y-12517949D01*
X15375449Y-12505920D01*
X15389593Y-12496469D01*
X15405310Y-12489959D01*
X15421994Y-12486640D01*
X15439006Y-12486640D01*
X15455690Y-12489959D01*
X15455690Y-12489959D01*
G37*
G36*
X15963690Y-12489959D02*
X15979407Y-12496469D01*
X15993551Y-12505920D01*
X16005580Y-12517949D01*
X16015031Y-12532093D01*
X16021541Y-12547810D01*
X16024860Y-12564494D01*
X16024860Y-12581506D01*
X16021541Y-12598190D01*
X16015031Y-12613907D01*
X16005580Y-12628051D01*
X15993551Y-12640080D01*
X15979407Y-12649531D01*
X15963690Y-12656041D01*
X15947006Y-12659360D01*
X15929994Y-12659360D01*
X15913310Y-12656041D01*
X15897593Y-12649531D01*
X15883449Y-12640080D01*
X15871420Y-12628051D01*
X15861969Y-12613907D01*
X15855459Y-12598190D01*
X15852140Y-12581506D01*
X15852140Y-12564494D01*
X15855459Y-12547810D01*
X15861969Y-12532093D01*
X15871420Y-12517949D01*
X15883449Y-12505920D01*
X15897593Y-12496469D01*
X15913310Y-12489959D01*
X15929994Y-12486640D01*
X15947006Y-12486640D01*
X15963690Y-12489959D01*
X15963690Y-12489959D01*
G37*
G36*
X13487190Y-12362959D02*
X13502907Y-12369469D01*
X13517051Y-12378920D01*
X13529080Y-12390949D01*
X13538531Y-12405093D01*
X13545041Y-12420810D01*
X13548360Y-12437494D01*
X13548360Y-12454506D01*
X13545041Y-12471190D01*
X13538531Y-12486907D01*
X13529080Y-12501051D01*
X13517051Y-12513080D01*
X13502907Y-12522531D01*
X13487190Y-12529041D01*
X13470506Y-12532360D01*
X13453494Y-12532360D01*
X13436810Y-12529041D01*
X13421093Y-12522531D01*
X13406949Y-12513080D01*
X13394920Y-12501051D01*
X13385469Y-12486907D01*
X13378959Y-12471190D01*
X13375640Y-12454506D01*
X13375640Y-12437494D01*
X13378959Y-12420810D01*
X13385469Y-12405093D01*
X13394920Y-12390949D01*
X13406949Y-12378920D01*
X13421093Y-12369469D01*
X13436810Y-12362959D01*
X13453494Y-12359640D01*
X13470506Y-12359640D01*
X13487190Y-12362959D01*
X13487190Y-12362959D01*
G37*
G36*
X13995190Y-12362959D02*
X14010907Y-12369469D01*
X14025051Y-12378920D01*
X14037080Y-12390949D01*
X14046531Y-12405093D01*
X14053041Y-12420810D01*
X14056360Y-12437494D01*
X14056360Y-12454506D01*
X14053041Y-12471190D01*
X14046531Y-12486907D01*
X14037080Y-12501051D01*
X14025051Y-12513080D01*
X14010907Y-12522531D01*
X13995190Y-12529041D01*
X13978506Y-12532360D01*
X13961494Y-12532360D01*
X13944810Y-12529041D01*
X13929093Y-12522531D01*
X13914949Y-12513080D01*
X13902920Y-12501051D01*
X13893469Y-12486907D01*
X13886959Y-12471190D01*
X13883640Y-12454506D01*
X13883640Y-12437494D01*
X13886959Y-12420810D01*
X13893469Y-12405093D01*
X13902920Y-12390949D01*
X13914949Y-12378920D01*
X13929093Y-12369469D01*
X13944810Y-12362959D01*
X13961494Y-12359640D01*
X13978506Y-12359640D01*
X13995190Y-12362959D01*
X13995190Y-12362959D01*
G37*
G36*
X15963690Y-12235959D02*
X15979407Y-12242469D01*
X15993551Y-12251920D01*
X16005580Y-12263949D01*
X16015031Y-12278093D01*
X16021541Y-12293810D01*
X16024860Y-12310494D01*
X16024860Y-12327506D01*
X16021541Y-12344190D01*
X16015031Y-12359907D01*
X16005580Y-12374051D01*
X15993551Y-12386080D01*
X15979407Y-12395531D01*
X15963690Y-12402041D01*
X15947006Y-12405360D01*
X15929994Y-12405360D01*
X15913310Y-12402041D01*
X15897593Y-12395531D01*
X15883449Y-12386080D01*
X15871420Y-12374051D01*
X15861969Y-12359907D01*
X15855459Y-12344190D01*
X15852140Y-12327506D01*
X15852140Y-12310494D01*
X15855459Y-12293810D01*
X15861969Y-12278093D01*
X15871420Y-12263949D01*
X15883449Y-12251920D01*
X15897593Y-12242469D01*
X15913310Y-12235959D01*
X15929994Y-12232640D01*
X15947006Y-12232640D01*
X15963690Y-12235959D01*
X15963690Y-12235959D01*
G37*
G36*
X15455690Y-12235959D02*
X15471407Y-12242469D01*
X15485551Y-12251920D01*
X15497580Y-12263949D01*
X15507031Y-12278093D01*
X15513541Y-12293810D01*
X15516860Y-12310494D01*
X15516860Y-12327506D01*
X15513541Y-12344190D01*
X15507031Y-12359907D01*
X15497580Y-12374051D01*
X15485551Y-12386080D01*
X15471407Y-12395531D01*
X15455690Y-12402041D01*
X15439006Y-12405360D01*
X15421994Y-12405360D01*
X15405310Y-12402041D01*
X15389593Y-12395531D01*
X15375449Y-12386080D01*
X15363420Y-12374051D01*
X15353969Y-12359907D01*
X15347459Y-12344190D01*
X15344140Y-12327506D01*
X15344140Y-12310494D01*
X15347459Y-12293810D01*
X15353969Y-12278093D01*
X15363420Y-12263949D01*
X15375449Y-12251920D01*
X15389593Y-12242469D01*
X15405310Y-12235959D01*
X15421994Y-12232640D01*
X15439006Y-12232640D01*
X15455690Y-12235959D01*
X15455690Y-12235959D01*
G37*
G36*
X13995190Y-12108959D02*
X14010907Y-12115469D01*
X14025051Y-12124920D01*
X14037080Y-12136949D01*
X14046531Y-12151093D01*
X14053041Y-12166810D01*
X14056360Y-12183494D01*
X14056360Y-12200506D01*
X14053041Y-12217190D01*
X14046531Y-12232907D01*
X14037080Y-12247051D01*
X14025051Y-12259080D01*
X14010907Y-12268531D01*
X13995190Y-12275041D01*
X13978506Y-12278360D01*
X13961494Y-12278360D01*
X13944810Y-12275041D01*
X13929093Y-12268531D01*
X13914949Y-12259080D01*
X13902920Y-12247051D01*
X13893469Y-12232907D01*
X13886959Y-12217190D01*
X13883640Y-12200506D01*
X13883640Y-12183494D01*
X13886959Y-12166810D01*
X13893469Y-12151093D01*
X13902920Y-12136949D01*
X13914949Y-12124920D01*
X13929093Y-12115469D01*
X13944810Y-12108959D01*
X13961494Y-12105640D01*
X13978506Y-12105640D01*
X13995190Y-12108959D01*
X13995190Y-12108959D01*
G37*
G36*
X13487190Y-12108959D02*
X13502907Y-12115469D01*
X13517051Y-12124920D01*
X13529080Y-12136949D01*
X13538531Y-12151093D01*
X13545041Y-12166810D01*
X13548360Y-12183494D01*
X13548360Y-12200506D01*
X13545041Y-12217190D01*
X13538531Y-12232907D01*
X13529080Y-12247051D01*
X13517051Y-12259080D01*
X13502907Y-12268531D01*
X13487190Y-12275041D01*
X13470506Y-12278360D01*
X13453494Y-12278360D01*
X13436810Y-12275041D01*
X13421093Y-12268531D01*
X13406949Y-12259080D01*
X13394920Y-12247051D01*
X13385469Y-12232907D01*
X13378959Y-12217190D01*
X13375640Y-12200506D01*
X13375640Y-12183494D01*
X13378959Y-12166810D01*
X13385469Y-12151093D01*
X13394920Y-12136949D01*
X13406949Y-12124920D01*
X13421093Y-12115469D01*
X13436810Y-12108959D01*
X13453494Y-12105640D01*
X13470506Y-12105640D01*
X13487190Y-12108959D01*
X13487190Y-12108959D01*
G37*
G36*
X15455690Y-11981959D02*
X15471407Y-11988469D01*
X15485551Y-11997920D01*
X15497580Y-12009949D01*
X15507031Y-12024093D01*
X15513541Y-12039810D01*
X15516860Y-12056494D01*
X15516860Y-12073506D01*
X15513541Y-12090190D01*
X15507031Y-12105907D01*
X15497580Y-12120051D01*
X15485551Y-12132080D01*
X15471407Y-12141531D01*
X15455690Y-12148041D01*
X15439006Y-12151360D01*
X15421994Y-12151360D01*
X15405310Y-12148041D01*
X15389593Y-12141531D01*
X15375449Y-12132080D01*
X15363420Y-12120051D01*
X15353969Y-12105907D01*
X15347459Y-12090190D01*
X15344140Y-12073506D01*
X15344140Y-12056494D01*
X15347459Y-12039810D01*
X15353969Y-12024093D01*
X15363420Y-12009949D01*
X15375449Y-11997920D01*
X15389593Y-11988469D01*
X15405310Y-11981959D01*
X15421994Y-11978640D01*
X15439006Y-11978640D01*
X15455690Y-11981959D01*
X15455690Y-11981959D01*
G37*
G36*
X15963690Y-11981959D02*
X15979407Y-11988469D01*
X15993551Y-11997920D01*
X16005580Y-12009949D01*
X16015031Y-12024093D01*
X16021541Y-12039810D01*
X16024860Y-12056494D01*
X16024860Y-12073506D01*
X16021541Y-12090190D01*
X16015031Y-12105907D01*
X16005580Y-12120051D01*
X15993551Y-12132080D01*
X15979407Y-12141531D01*
X15963690Y-12148041D01*
X15947006Y-12151360D01*
X15929994Y-12151360D01*
X15913310Y-12148041D01*
X15897593Y-12141531D01*
X15883449Y-12132080D01*
X15871420Y-12120051D01*
X15861969Y-12105907D01*
X15855459Y-12090190D01*
X15852140Y-12073506D01*
X15852140Y-12056494D01*
X15855459Y-12039810D01*
X15861969Y-12024093D01*
X15871420Y-12009949D01*
X15883449Y-11997920D01*
X15897593Y-11988469D01*
X15913310Y-11981959D01*
X15929994Y-11978640D01*
X15947006Y-11978640D01*
X15963690Y-11981959D01*
X15963690Y-11981959D01*
G37*
G36*
X13487190Y-11854959D02*
X13502907Y-11861469D01*
X13517051Y-11870920D01*
X13529080Y-11882949D01*
X13538531Y-11897093D01*
X13545041Y-11912810D01*
X13548360Y-11929494D01*
X13548360Y-11946506D01*
X13545041Y-11963190D01*
X13538531Y-11978907D01*
X13529080Y-11993051D01*
X13517051Y-12005080D01*
X13502907Y-12014531D01*
X13487190Y-12021041D01*
X13470506Y-12024360D01*
X13453494Y-12024360D01*
X13436810Y-12021041D01*
X13421093Y-12014531D01*
X13406949Y-12005080D01*
X13394920Y-11993051D01*
X13385469Y-11978907D01*
X13378959Y-11963190D01*
X13375640Y-11946506D01*
X13375640Y-11929494D01*
X13378959Y-11912810D01*
X13385469Y-11897093D01*
X13394920Y-11882949D01*
X13406949Y-11870920D01*
X13421093Y-11861469D01*
X13436810Y-11854959D01*
X13453494Y-11851640D01*
X13470506Y-11851640D01*
X13487190Y-11854959D01*
X13487190Y-11854959D01*
G37*
G36*
X13995190Y-11854959D02*
X14010907Y-11861469D01*
X14025051Y-11870920D01*
X14037080Y-11882949D01*
X14046531Y-11897093D01*
X14053041Y-11912810D01*
X14056360Y-11929494D01*
X14056360Y-11946506D01*
X14053041Y-11963190D01*
X14046531Y-11978907D01*
X14037080Y-11993051D01*
X14025051Y-12005080D01*
X14010907Y-12014531D01*
X13995190Y-12021041D01*
X13978506Y-12024360D01*
X13961494Y-12024360D01*
X13944810Y-12021041D01*
X13929093Y-12014531D01*
X13914949Y-12005080D01*
X13902920Y-11993051D01*
X13893469Y-11978907D01*
X13886959Y-11963190D01*
X13883640Y-11946506D01*
X13883640Y-11929494D01*
X13886959Y-11912810D01*
X13893469Y-11897093D01*
X13902920Y-11882949D01*
X13914949Y-11870920D01*
X13929093Y-11861469D01*
X13944810Y-11854959D01*
X13961494Y-11851640D01*
X13978506Y-11851640D01*
X13995190Y-11854959D01*
X13995190Y-11854959D01*
G37*
G36*
X15455690Y-11727959D02*
X15471407Y-11734469D01*
X15485551Y-11743920D01*
X15497580Y-11755949D01*
X15507031Y-11770093D01*
X15513541Y-11785810D01*
X15516860Y-11802494D01*
X15516860Y-11819506D01*
X15513541Y-11836190D01*
X15507031Y-11851907D01*
X15497580Y-11866051D01*
X15485551Y-11878080D01*
X15471407Y-11887531D01*
X15455690Y-11894041D01*
X15439006Y-11897360D01*
X15421994Y-11897360D01*
X15405310Y-11894041D01*
X15389593Y-11887531D01*
X15375449Y-11878080D01*
X15363420Y-11866051D01*
X15353969Y-11851907D01*
X15347459Y-11836190D01*
X15344140Y-11819506D01*
X15344140Y-11802494D01*
X15347459Y-11785810D01*
X15353969Y-11770093D01*
X15363420Y-11755949D01*
X15375449Y-11743920D01*
X15389593Y-11734469D01*
X15405310Y-11727959D01*
X15421994Y-11724640D01*
X15439006Y-11724640D01*
X15455690Y-11727959D01*
X15455690Y-11727959D01*
G37*
G36*
X15963690Y-11727959D02*
X15979407Y-11734469D01*
X15993551Y-11743920D01*
X16005580Y-11755949D01*
X16015031Y-11770093D01*
X16021541Y-11785810D01*
X16024860Y-11802494D01*
X16024860Y-11819506D01*
X16021541Y-11836190D01*
X16015031Y-11851907D01*
X16005580Y-11866051D01*
X15993551Y-11878080D01*
X15979407Y-11887531D01*
X15963690Y-11894041D01*
X15947006Y-11897360D01*
X15929994Y-11897360D01*
X15913310Y-11894041D01*
X15897593Y-11887531D01*
X15883449Y-11878080D01*
X15871420Y-11866051D01*
X15861969Y-11851907D01*
X15855459Y-11836190D01*
X15852140Y-11819506D01*
X15852140Y-11802494D01*
X15855459Y-11785810D01*
X15861969Y-11770093D01*
X15871420Y-11755949D01*
X15883449Y-11743920D01*
X15897593Y-11734469D01*
X15913310Y-11727959D01*
X15929994Y-11724640D01*
X15947006Y-11724640D01*
X15963690Y-11727959D01*
X15963690Y-11727959D01*
G37*
G36*
X13995190Y-11600959D02*
X14010907Y-11607469D01*
X14025051Y-11616920D01*
X14037080Y-11628949D01*
X14046531Y-11643093D01*
X14053041Y-11658810D01*
X14056360Y-11675494D01*
X14056360Y-11692506D01*
X14053041Y-11709190D01*
X14046531Y-11724907D01*
X14037080Y-11739051D01*
X14025051Y-11751080D01*
X14010907Y-11760531D01*
X13995190Y-11767041D01*
X13978506Y-11770360D01*
X13961494Y-11770360D01*
X13944810Y-11767041D01*
X13929093Y-11760531D01*
X13914949Y-11751080D01*
X13902920Y-11739051D01*
X13893469Y-11724907D01*
X13886959Y-11709190D01*
X13883640Y-11692506D01*
X13883640Y-11675494D01*
X13886959Y-11658810D01*
X13893469Y-11643093D01*
X13902920Y-11628949D01*
X13914949Y-11616920D01*
X13929093Y-11607469D01*
X13944810Y-11600959D01*
X13961494Y-11597640D01*
X13978506Y-11597640D01*
X13995190Y-11600959D01*
X13995190Y-11600959D01*
G37*
G36*
X13487190Y-11600959D02*
X13502907Y-11607469D01*
X13517051Y-11616920D01*
X13529080Y-11628949D01*
X13538531Y-11643093D01*
X13545041Y-11658810D01*
X13548360Y-11675494D01*
X13548360Y-11692506D01*
X13545041Y-11709190D01*
X13538531Y-11724907D01*
X13529080Y-11739051D01*
X13517051Y-11751080D01*
X13502907Y-11760531D01*
X13487190Y-11767041D01*
X13470506Y-11770360D01*
X13453494Y-11770360D01*
X13436810Y-11767041D01*
X13421093Y-11760531D01*
X13406949Y-11751080D01*
X13394920Y-11739051D01*
X13385469Y-11724907D01*
X13378959Y-11709190D01*
X13375640Y-11692506D01*
X13375640Y-11675494D01*
X13378959Y-11658810D01*
X13385469Y-11643093D01*
X13394920Y-11628949D01*
X13406949Y-11616920D01*
X13421093Y-11607469D01*
X13436810Y-11600959D01*
X13453494Y-11597640D01*
X13470506Y-11597640D01*
X13487190Y-11600959D01*
X13487190Y-11600959D01*
G37*
G36*
X15963690Y-11473959D02*
X15979407Y-11480469D01*
X15993551Y-11489920D01*
X16005580Y-11501949D01*
X16015031Y-11516093D01*
X16021541Y-11531810D01*
X16024860Y-11548494D01*
X16024860Y-11565506D01*
X16021541Y-11582190D01*
X16015031Y-11597907D01*
X16005580Y-11612051D01*
X15993551Y-11624080D01*
X15979407Y-11633531D01*
X15963690Y-11640041D01*
X15947006Y-11643360D01*
X15929994Y-11643360D01*
X15913310Y-11640041D01*
X15897593Y-11633531D01*
X15883449Y-11624080D01*
X15871420Y-11612051D01*
X15861969Y-11597907D01*
X15855459Y-11582190D01*
X15852140Y-11565506D01*
X15852140Y-11548494D01*
X15855459Y-11531810D01*
X15861969Y-11516093D01*
X15871420Y-11501949D01*
X15883449Y-11489920D01*
X15897593Y-11480469D01*
X15913310Y-11473959D01*
X15929994Y-11470640D01*
X15947006Y-11470640D01*
X15963690Y-11473959D01*
X15963690Y-11473959D01*
G37*
G36*
X15455690Y-11473959D02*
X15471407Y-11480469D01*
X15485551Y-11489920D01*
X15497580Y-11501949D01*
X15507031Y-11516093D01*
X15513541Y-11531810D01*
X15516860Y-11548494D01*
X15516860Y-11565506D01*
X15513541Y-11582190D01*
X15507031Y-11597907D01*
X15497580Y-11612051D01*
X15485551Y-11624080D01*
X15471407Y-11633531D01*
X15455690Y-11640041D01*
X15439006Y-11643360D01*
X15421994Y-11643360D01*
X15405310Y-11640041D01*
X15389593Y-11633531D01*
X15375449Y-11624080D01*
X15363420Y-11612051D01*
X15353969Y-11597907D01*
X15347459Y-11582190D01*
X15344140Y-11565506D01*
X15344140Y-11548494D01*
X15347459Y-11531810D01*
X15353969Y-11516093D01*
X15363420Y-11501949D01*
X15375449Y-11489920D01*
X15389593Y-11480469D01*
X15405310Y-11473959D01*
X15421994Y-11470640D01*
X15439006Y-11470640D01*
X15455690Y-11473959D01*
X15455690Y-11473959D01*
G37*
G36*
X13487190Y-11346959D02*
X13502907Y-11353469D01*
X13517051Y-11362920D01*
X13529080Y-11374949D01*
X13538531Y-11389093D01*
X13545041Y-11404810D01*
X13548360Y-11421494D01*
X13548360Y-11438506D01*
X13545041Y-11455190D01*
X13538531Y-11470907D01*
X13529080Y-11485051D01*
X13517051Y-11497080D01*
X13502907Y-11506531D01*
X13487190Y-11513041D01*
X13470506Y-11516360D01*
X13453494Y-11516360D01*
X13436810Y-11513041D01*
X13421093Y-11506531D01*
X13406949Y-11497080D01*
X13394920Y-11485051D01*
X13385469Y-11470907D01*
X13378959Y-11455190D01*
X13375640Y-11438506D01*
X13375640Y-11421494D01*
X13378959Y-11404810D01*
X13385469Y-11389093D01*
X13394920Y-11374949D01*
X13406949Y-11362920D01*
X13421093Y-11353469D01*
X13436810Y-11346959D01*
X13453494Y-11343640D01*
X13470506Y-11343640D01*
X13487190Y-11346959D01*
X13487190Y-11346959D01*
G37*
G36*
X13995190Y-11346959D02*
X14010907Y-11353469D01*
X14025051Y-11362920D01*
X14037080Y-11374949D01*
X14046531Y-11389093D01*
X14053041Y-11404810D01*
X14056360Y-11421494D01*
X14056360Y-11438506D01*
X14053041Y-11455190D01*
X14046531Y-11470907D01*
X14037080Y-11485051D01*
X14025051Y-11497080D01*
X14010907Y-11506531D01*
X13995190Y-11513041D01*
X13978506Y-11516360D01*
X13961494Y-11516360D01*
X13944810Y-11513041D01*
X13929093Y-11506531D01*
X13914949Y-11497080D01*
X13902920Y-11485051D01*
X13893469Y-11470907D01*
X13886959Y-11455190D01*
X13883640Y-11438506D01*
X13883640Y-11421494D01*
X13886959Y-11404810D01*
X13893469Y-11389093D01*
X13902920Y-11374949D01*
X13914949Y-11362920D01*
X13929093Y-11353469D01*
X13944810Y-11346959D01*
X13961494Y-11343640D01*
X13978506Y-11343640D01*
X13995190Y-11346959D01*
X13995190Y-11346959D01*
G37*
G36*
X15963690Y-11219959D02*
X15979407Y-11226469D01*
X15993551Y-11235920D01*
X16005580Y-11247949D01*
X16015031Y-11262093D01*
X16021541Y-11277810D01*
X16024860Y-11294494D01*
X16024860Y-11311506D01*
X16021541Y-11328190D01*
X16015031Y-11343907D01*
X16005580Y-11358051D01*
X15993551Y-11370080D01*
X15979407Y-11379531D01*
X15963690Y-11386041D01*
X15947006Y-11389360D01*
X15929994Y-11389360D01*
X15913310Y-11386041D01*
X15897593Y-11379531D01*
X15883449Y-11370080D01*
X15871420Y-11358051D01*
X15861969Y-11343907D01*
X15855459Y-11328190D01*
X15852140Y-11311506D01*
X15852140Y-11294494D01*
X15855459Y-11277810D01*
X15861969Y-11262093D01*
X15871420Y-11247949D01*
X15883449Y-11235920D01*
X15897593Y-11226469D01*
X15913310Y-11219959D01*
X15929994Y-11216640D01*
X15947006Y-11216640D01*
X15963690Y-11219959D01*
X15963690Y-11219959D01*
G37*
G36*
X15455690Y-11219959D02*
X15471407Y-11226469D01*
X15485551Y-11235920D01*
X15497580Y-11247949D01*
X15507031Y-11262093D01*
X15513541Y-11277810D01*
X15516860Y-11294494D01*
X15516860Y-11311506D01*
X15513541Y-11328190D01*
X15507031Y-11343907D01*
X15497580Y-11358051D01*
X15485551Y-11370080D01*
X15471407Y-11379531D01*
X15455690Y-11386041D01*
X15439006Y-11389360D01*
X15421994Y-11389360D01*
X15405310Y-11386041D01*
X15389593Y-11379531D01*
X15375449Y-11370080D01*
X15363420Y-11358051D01*
X15353969Y-11343907D01*
X15347459Y-11328190D01*
X15344140Y-11311506D01*
X15344140Y-11294494D01*
X15347459Y-11277810D01*
X15353969Y-11262093D01*
X15363420Y-11247949D01*
X15375449Y-11235920D01*
X15389593Y-11226469D01*
X15405310Y-11219959D01*
X15421994Y-11216640D01*
X15439006Y-11216640D01*
X15455690Y-11219959D01*
X15455690Y-11219959D01*
G37*
G36*
X13487190Y-11092959D02*
X13502907Y-11099469D01*
X13517051Y-11108920D01*
X13529080Y-11120949D01*
X13538531Y-11135093D01*
X13545041Y-11150810D01*
X13548360Y-11167494D01*
X13548360Y-11184506D01*
X13545041Y-11201190D01*
X13538531Y-11216907D01*
X13529080Y-11231051D01*
X13517051Y-11243080D01*
X13502907Y-11252531D01*
X13487190Y-11259041D01*
X13470506Y-11262360D01*
X13453494Y-11262360D01*
X13436810Y-11259041D01*
X13421093Y-11252531D01*
X13406949Y-11243080D01*
X13394920Y-11231051D01*
X13385469Y-11216907D01*
X13378959Y-11201190D01*
X13375640Y-11184506D01*
X13375640Y-11167494D01*
X13378959Y-11150810D01*
X13385469Y-11135093D01*
X13394920Y-11120949D01*
X13406949Y-11108920D01*
X13421093Y-11099469D01*
X13436810Y-11092959D01*
X13453494Y-11089640D01*
X13470506Y-11089640D01*
X13487190Y-11092959D01*
X13487190Y-11092959D01*
G37*
G36*
X13995190Y-11092959D02*
X14010907Y-11099469D01*
X14025051Y-11108920D01*
X14037080Y-11120949D01*
X14046531Y-11135093D01*
X14053041Y-11150810D01*
X14056360Y-11167494D01*
X14056360Y-11184506D01*
X14053041Y-11201190D01*
X14046531Y-11216907D01*
X14037080Y-11231051D01*
X14025051Y-11243080D01*
X14010907Y-11252531D01*
X13995190Y-11259041D01*
X13978506Y-11262360D01*
X13961494Y-11262360D01*
X13944810Y-11259041D01*
X13929093Y-11252531D01*
X13914949Y-11243080D01*
X13902920Y-11231051D01*
X13893469Y-11216907D01*
X13886959Y-11201190D01*
X13883640Y-11184506D01*
X13883640Y-11167494D01*
X13886959Y-11150810D01*
X13893469Y-11135093D01*
X13902920Y-11120949D01*
X13914949Y-11108920D01*
X13929093Y-11099469D01*
X13944810Y-11092959D01*
X13961494Y-11089640D01*
X13978506Y-11089640D01*
X13995190Y-11092959D01*
X13995190Y-11092959D01*
G37*
G36*
X15455690Y-10965959D02*
X15471407Y-10972469D01*
X15485551Y-10981920D01*
X15497580Y-10993949D01*
X15507031Y-11008093D01*
X15513541Y-11023810D01*
X15516860Y-11040494D01*
X15516860Y-11057506D01*
X15513541Y-11074190D01*
X15507031Y-11089907D01*
X15497580Y-11104051D01*
X15485551Y-11116080D01*
X15471407Y-11125531D01*
X15455690Y-11132041D01*
X15439006Y-11135360D01*
X15421994Y-11135360D01*
X15405310Y-11132041D01*
X15389593Y-11125531D01*
X15375449Y-11116080D01*
X15363420Y-11104051D01*
X15353969Y-11089907D01*
X15347459Y-11074190D01*
X15344140Y-11057506D01*
X15344140Y-11040494D01*
X15347459Y-11023810D01*
X15353969Y-11008093D01*
X15363420Y-10993949D01*
X15375449Y-10981920D01*
X15389593Y-10972469D01*
X15405310Y-10965959D01*
X15421994Y-10962640D01*
X15439006Y-10962640D01*
X15455690Y-10965959D01*
X15455690Y-10965959D01*
G37*
G36*
X15963690Y-10965959D02*
X15979407Y-10972469D01*
X15993551Y-10981920D01*
X16005580Y-10993949D01*
X16015031Y-11008093D01*
X16021541Y-11023810D01*
X16024860Y-11040494D01*
X16024860Y-11057506D01*
X16021541Y-11074190D01*
X16015031Y-11089907D01*
X16005580Y-11104051D01*
X15993551Y-11116080D01*
X15979407Y-11125531D01*
X15963690Y-11132041D01*
X15947006Y-11135360D01*
X15929994Y-11135360D01*
X15913310Y-11132041D01*
X15897593Y-11125531D01*
X15883449Y-11116080D01*
X15871420Y-11104051D01*
X15861969Y-11089907D01*
X15855459Y-11074190D01*
X15852140Y-11057506D01*
X15852140Y-11040494D01*
X15855459Y-11023810D01*
X15861969Y-11008093D01*
X15871420Y-10993949D01*
X15883449Y-10981920D01*
X15897593Y-10972469D01*
X15913310Y-10965959D01*
X15929994Y-10962640D01*
X15947006Y-10962640D01*
X15963690Y-10965959D01*
X15963690Y-10965959D01*
G37*
G36*
X13487190Y-10838959D02*
X13502907Y-10845469D01*
X13517051Y-10854920D01*
X13529080Y-10866949D01*
X13538531Y-10881093D01*
X13545041Y-10896810D01*
X13548360Y-10913494D01*
X13548360Y-10930506D01*
X13545041Y-10947190D01*
X13538531Y-10962907D01*
X13529080Y-10977051D01*
X13517051Y-10989080D01*
X13502907Y-10998531D01*
X13487190Y-11005041D01*
X13470506Y-11008360D01*
X13453494Y-11008360D01*
X13436810Y-11005041D01*
X13421093Y-10998531D01*
X13406949Y-10989080D01*
X13394920Y-10977051D01*
X13385469Y-10962907D01*
X13378959Y-10947190D01*
X13375640Y-10930506D01*
X13375640Y-10913494D01*
X13378959Y-10896810D01*
X13385469Y-10881093D01*
X13394920Y-10866949D01*
X13406949Y-10854920D01*
X13421093Y-10845469D01*
X13436810Y-10838959D01*
X13453494Y-10835640D01*
X13470506Y-10835640D01*
X13487190Y-10838959D01*
X13487190Y-10838959D01*
G37*
G36*
X13995190Y-10838959D02*
X14010907Y-10845469D01*
X14025051Y-10854920D01*
X14037080Y-10866949D01*
X14046531Y-10881093D01*
X14053041Y-10896810D01*
X14056360Y-10913494D01*
X14056360Y-10930506D01*
X14053041Y-10947190D01*
X14046531Y-10962907D01*
X14037080Y-10977051D01*
X14025051Y-10989080D01*
X14010907Y-10998531D01*
X13995190Y-11005041D01*
X13978506Y-11008360D01*
X13961494Y-11008360D01*
X13944810Y-11005041D01*
X13929093Y-10998531D01*
X13914949Y-10989080D01*
X13902920Y-10977051D01*
X13893469Y-10962907D01*
X13886959Y-10947190D01*
X13883640Y-10930506D01*
X13883640Y-10913494D01*
X13886959Y-10896810D01*
X13893469Y-10881093D01*
X13902920Y-10866949D01*
X13914949Y-10854920D01*
X13929093Y-10845469D01*
X13944810Y-10838959D01*
X13961494Y-10835640D01*
X13978506Y-10835640D01*
X13995190Y-10838959D01*
X13995190Y-10838959D01*
G37*
G36*
X15455690Y-10711959D02*
X15471407Y-10718469D01*
X15485551Y-10727920D01*
X15497580Y-10739949D01*
X15507031Y-10754093D01*
X15513541Y-10769810D01*
X15516860Y-10786494D01*
X15516860Y-10803506D01*
X15513541Y-10820190D01*
X15507031Y-10835907D01*
X15497580Y-10850051D01*
X15485551Y-10862080D01*
X15471407Y-10871531D01*
X15455690Y-10878041D01*
X15439006Y-10881360D01*
X15421994Y-10881360D01*
X15405310Y-10878041D01*
X15389593Y-10871531D01*
X15375449Y-10862080D01*
X15363420Y-10850051D01*
X15353969Y-10835907D01*
X15347459Y-10820190D01*
X15344140Y-10803506D01*
X15344140Y-10786494D01*
X15347459Y-10769810D01*
X15353969Y-10754093D01*
X15363420Y-10739949D01*
X15375449Y-10727920D01*
X15389593Y-10718469D01*
X15405310Y-10711959D01*
X15421994Y-10708640D01*
X15439006Y-10708640D01*
X15455690Y-10711959D01*
X15455690Y-10711959D01*
G37*
G36*
X15963690Y-10711959D02*
X15979407Y-10718469D01*
X15993551Y-10727920D01*
X16005580Y-10739949D01*
X16015031Y-10754093D01*
X16021541Y-10769810D01*
X16024860Y-10786494D01*
X16024860Y-10803506D01*
X16021541Y-10820190D01*
X16015031Y-10835907D01*
X16005580Y-10850051D01*
X15993551Y-10862080D01*
X15979407Y-10871531D01*
X15963690Y-10878041D01*
X15947006Y-10881360D01*
X15929994Y-10881360D01*
X15913310Y-10878041D01*
X15897593Y-10871531D01*
X15883449Y-10862080D01*
X15871420Y-10850051D01*
X15861969Y-10835907D01*
X15855459Y-10820190D01*
X15852140Y-10803506D01*
X15852140Y-10786494D01*
X15855459Y-10769810D01*
X15861969Y-10754093D01*
X15871420Y-10739949D01*
X15883449Y-10727920D01*
X15897593Y-10718469D01*
X15913310Y-10711959D01*
X15929994Y-10708640D01*
X15947006Y-10708640D01*
X15963690Y-10711959D01*
X15963690Y-10711959D01*
G37*
G36*
X13487190Y-10584959D02*
X13502907Y-10591469D01*
X13517051Y-10600920D01*
X13529080Y-10612949D01*
X13538531Y-10627093D01*
X13545041Y-10642810D01*
X13548360Y-10659494D01*
X13548360Y-10676506D01*
X13545041Y-10693190D01*
X13538531Y-10708907D01*
X13529080Y-10723051D01*
X13517051Y-10735080D01*
X13502907Y-10744531D01*
X13487190Y-10751041D01*
X13470506Y-10754360D01*
X13453494Y-10754360D01*
X13436810Y-10751041D01*
X13421093Y-10744531D01*
X13406949Y-10735080D01*
X13394920Y-10723051D01*
X13385469Y-10708907D01*
X13378959Y-10693190D01*
X13375640Y-10676506D01*
X13375640Y-10659494D01*
X13378959Y-10642810D01*
X13385469Y-10627093D01*
X13394920Y-10612949D01*
X13406949Y-10600920D01*
X13421093Y-10591469D01*
X13436810Y-10584959D01*
X13453494Y-10581640D01*
X13470506Y-10581640D01*
X13487190Y-10584959D01*
X13487190Y-10584959D01*
G37*
G36*
X13995190Y-10584959D02*
X14010907Y-10591469D01*
X14025051Y-10600920D01*
X14037080Y-10612949D01*
X14046531Y-10627093D01*
X14053041Y-10642810D01*
X14056360Y-10659494D01*
X14056360Y-10676506D01*
X14053041Y-10693190D01*
X14046531Y-10708907D01*
X14037080Y-10723051D01*
X14025051Y-10735080D01*
X14010907Y-10744531D01*
X13995190Y-10751041D01*
X13978506Y-10754360D01*
X13961494Y-10754360D01*
X13944810Y-10751041D01*
X13929093Y-10744531D01*
X13914949Y-10735080D01*
X13902920Y-10723051D01*
X13893469Y-10708907D01*
X13886959Y-10693190D01*
X13883640Y-10676506D01*
X13883640Y-10659494D01*
X13886959Y-10642810D01*
X13893469Y-10627093D01*
X13902920Y-10612949D01*
X13914949Y-10600920D01*
X13929093Y-10591469D01*
X13944810Y-10584959D01*
X13961494Y-10581640D01*
X13978506Y-10581640D01*
X13995190Y-10584959D01*
X13995190Y-10584959D01*
G37*
G36*
X15963690Y-10457959D02*
X15979407Y-10464469D01*
X15993551Y-10473920D01*
X16005580Y-10485949D01*
X16015031Y-10500093D01*
X16021541Y-10515810D01*
X16024860Y-10532494D01*
X16024860Y-10549506D01*
X16021541Y-10566190D01*
X16015031Y-10581907D01*
X16005580Y-10596051D01*
X15993551Y-10608080D01*
X15979407Y-10617531D01*
X15963690Y-10624041D01*
X15947006Y-10627360D01*
X15929994Y-10627360D01*
X15913310Y-10624041D01*
X15897593Y-10617531D01*
X15883449Y-10608080D01*
X15871420Y-10596051D01*
X15861969Y-10581907D01*
X15855459Y-10566190D01*
X15852140Y-10549506D01*
X15852140Y-10532494D01*
X15855459Y-10515810D01*
X15861969Y-10500093D01*
X15871420Y-10485949D01*
X15883449Y-10473920D01*
X15897593Y-10464469D01*
X15913310Y-10457959D01*
X15929994Y-10454640D01*
X15947006Y-10454640D01*
X15963690Y-10457959D01*
X15963690Y-10457959D01*
G37*
G36*
X15455690Y-10457959D02*
X15471407Y-10464469D01*
X15485551Y-10473920D01*
X15497580Y-10485949D01*
X15507031Y-10500093D01*
X15513541Y-10515810D01*
X15516860Y-10532494D01*
X15516860Y-10549506D01*
X15513541Y-10566190D01*
X15507031Y-10581907D01*
X15497580Y-10596051D01*
X15485551Y-10608080D01*
X15471407Y-10617531D01*
X15455690Y-10624041D01*
X15439006Y-10627360D01*
X15421994Y-10627360D01*
X15405310Y-10624041D01*
X15389593Y-10617531D01*
X15375449Y-10608080D01*
X15363420Y-10596051D01*
X15353969Y-10581907D01*
X15347459Y-10566190D01*
X15344140Y-10549506D01*
X15344140Y-10532494D01*
X15347459Y-10515810D01*
X15353969Y-10500093D01*
X15363420Y-10485949D01*
X15375449Y-10473920D01*
X15389593Y-10464469D01*
X15405310Y-10457959D01*
X15421994Y-10454640D01*
X15439006Y-10454640D01*
X15455690Y-10457959D01*
X15455690Y-10457959D01*
G37*
G36*
X13487190Y-10330959D02*
X13502907Y-10337469D01*
X13517051Y-10346920D01*
X13529080Y-10358949D01*
X13538531Y-10373093D01*
X13545041Y-10388810D01*
X13548360Y-10405494D01*
X13548360Y-10422506D01*
X13545041Y-10439190D01*
X13538531Y-10454907D01*
X13529080Y-10469051D01*
X13517051Y-10481080D01*
X13502907Y-10490531D01*
X13487190Y-10497041D01*
X13470506Y-10500360D01*
X13453494Y-10500360D01*
X13436810Y-10497041D01*
X13421093Y-10490531D01*
X13406949Y-10481080D01*
X13394920Y-10469051D01*
X13385469Y-10454907D01*
X13378959Y-10439190D01*
X13375640Y-10422506D01*
X13375640Y-10405494D01*
X13378959Y-10388810D01*
X13385469Y-10373093D01*
X13394920Y-10358949D01*
X13406949Y-10346920D01*
X13421093Y-10337469D01*
X13436810Y-10330959D01*
X13453494Y-10327640D01*
X13470506Y-10327640D01*
X13487190Y-10330959D01*
X13487190Y-10330959D01*
G37*
G36*
X13995190Y-10330959D02*
X14010907Y-10337469D01*
X14025051Y-10346920D01*
X14037080Y-10358949D01*
X14046531Y-10373093D01*
X14053041Y-10388810D01*
X14056360Y-10405494D01*
X14056360Y-10422506D01*
X14053041Y-10439190D01*
X14046531Y-10454907D01*
X14037080Y-10469051D01*
X14025051Y-10481080D01*
X14010907Y-10490531D01*
X13995190Y-10497041D01*
X13978506Y-10500360D01*
X13961494Y-10500360D01*
X13944810Y-10497041D01*
X13929093Y-10490531D01*
X13914949Y-10481080D01*
X13902920Y-10469051D01*
X13893469Y-10454907D01*
X13886959Y-10439190D01*
X13883640Y-10422506D01*
X13883640Y-10405494D01*
X13886959Y-10388810D01*
X13893469Y-10373093D01*
X13902920Y-10358949D01*
X13914949Y-10346920D01*
X13929093Y-10337469D01*
X13944810Y-10330959D01*
X13961494Y-10327640D01*
X13978506Y-10327640D01*
X13995190Y-10330959D01*
X13995190Y-10330959D01*
G37*
G36*
X15963690Y-10203959D02*
X15979407Y-10210469D01*
X15993551Y-10219920D01*
X16005580Y-10231949D01*
X16015031Y-10246093D01*
X16021541Y-10261810D01*
X16024860Y-10278494D01*
X16024860Y-10295506D01*
X16021541Y-10312190D01*
X16015031Y-10327907D01*
X16005580Y-10342051D01*
X15993551Y-10354080D01*
X15979407Y-10363531D01*
X15963690Y-10370041D01*
X15947006Y-10373360D01*
X15929994Y-10373360D01*
X15913310Y-10370041D01*
X15897593Y-10363531D01*
X15883449Y-10354080D01*
X15871420Y-10342051D01*
X15861969Y-10327907D01*
X15855459Y-10312190D01*
X15852140Y-10295506D01*
X15852140Y-10278494D01*
X15855459Y-10261810D01*
X15861969Y-10246093D01*
X15871420Y-10231949D01*
X15883449Y-10219920D01*
X15897593Y-10210469D01*
X15913310Y-10203959D01*
X15929994Y-10200640D01*
X15947006Y-10200640D01*
X15963690Y-10203959D01*
X15963690Y-10203959D01*
G37*
G36*
X15455690Y-10203959D02*
X15471407Y-10210469D01*
X15485551Y-10219920D01*
X15497580Y-10231949D01*
X15507031Y-10246093D01*
X15513541Y-10261810D01*
X15516860Y-10278494D01*
X15516860Y-10295506D01*
X15513541Y-10312190D01*
X15507031Y-10327907D01*
X15497580Y-10342051D01*
X15485551Y-10354080D01*
X15471407Y-10363531D01*
X15455690Y-10370041D01*
X15439006Y-10373360D01*
X15421994Y-10373360D01*
X15405310Y-10370041D01*
X15389593Y-10363531D01*
X15375449Y-10354080D01*
X15363420Y-10342051D01*
X15353969Y-10327907D01*
X15347459Y-10312190D01*
X15344140Y-10295506D01*
X15344140Y-10278494D01*
X15347459Y-10261810D01*
X15353969Y-10246093D01*
X15363420Y-10231949D01*
X15375449Y-10219920D01*
X15389593Y-10210469D01*
X15405310Y-10203959D01*
X15421994Y-10200640D01*
X15439006Y-10200640D01*
X15455690Y-10203959D01*
X15455690Y-10203959D01*
G37*
G36*
X13487190Y-10076959D02*
X13502907Y-10083469D01*
X13517051Y-10092920D01*
X13529080Y-10104949D01*
X13538531Y-10119093D01*
X13545041Y-10134810D01*
X13548360Y-10151494D01*
X13548360Y-10168506D01*
X13545041Y-10185190D01*
X13538531Y-10200907D01*
X13529080Y-10215051D01*
X13517051Y-10227080D01*
X13502907Y-10236531D01*
X13487190Y-10243041D01*
X13470506Y-10246360D01*
X13453494Y-10246360D01*
X13436810Y-10243041D01*
X13421093Y-10236531D01*
X13406949Y-10227080D01*
X13394920Y-10215051D01*
X13385469Y-10200907D01*
X13378959Y-10185190D01*
X13375640Y-10168506D01*
X13375640Y-10151494D01*
X13378959Y-10134810D01*
X13385469Y-10119093D01*
X13394920Y-10104949D01*
X13406949Y-10092920D01*
X13421093Y-10083469D01*
X13436810Y-10076959D01*
X13453494Y-10073640D01*
X13470506Y-10073640D01*
X13487190Y-10076959D01*
X13487190Y-10076959D01*
G37*
G36*
X13995190Y-10076959D02*
X14010907Y-10083469D01*
X14025051Y-10092920D01*
X14037080Y-10104949D01*
X14046531Y-10119093D01*
X14053041Y-10134810D01*
X14056360Y-10151494D01*
X14056360Y-10168506D01*
X14053041Y-10185190D01*
X14046531Y-10200907D01*
X14037080Y-10215051D01*
X14025051Y-10227080D01*
X14010907Y-10236531D01*
X13995190Y-10243041D01*
X13978506Y-10246360D01*
X13961494Y-10246360D01*
X13944810Y-10243041D01*
X13929093Y-10236531D01*
X13914949Y-10227080D01*
X13902920Y-10215051D01*
X13893469Y-10200907D01*
X13886959Y-10185190D01*
X13883640Y-10168506D01*
X13883640Y-10151494D01*
X13886959Y-10134810D01*
X13893469Y-10119093D01*
X13902920Y-10104949D01*
X13914949Y-10092920D01*
X13929093Y-10083469D01*
X13944810Y-10076959D01*
X13961494Y-10073640D01*
X13978506Y-10073640D01*
X13995190Y-10076959D01*
X13995190Y-10076959D01*
G37*
G36*
X15963690Y-9949959D02*
X15979407Y-9956469D01*
X15993551Y-9965920D01*
X16005580Y-9977949D01*
X16015031Y-9992093D01*
X16021541Y-10007810D01*
X16024860Y-10024494D01*
X16024860Y-10041506D01*
X16021541Y-10058190D01*
X16015031Y-10073907D01*
X16005580Y-10088051D01*
X15993551Y-10100080D01*
X15979407Y-10109531D01*
X15963690Y-10116041D01*
X15947006Y-10119360D01*
X15929994Y-10119360D01*
X15913310Y-10116041D01*
X15897593Y-10109531D01*
X15883449Y-10100080D01*
X15871420Y-10088051D01*
X15861969Y-10073907D01*
X15855459Y-10058190D01*
X15852140Y-10041506D01*
X15852140Y-10024494D01*
X15855459Y-10007810D01*
X15861969Y-9992093D01*
X15871420Y-9977949D01*
X15883449Y-9965920D01*
X15897593Y-9956469D01*
X15913310Y-9949959D01*
X15929994Y-9946640D01*
X15947006Y-9946640D01*
X15963690Y-9949959D01*
X15963690Y-9949959D01*
G37*
G36*
X15455690Y-9949959D02*
X15471407Y-9956469D01*
X15485551Y-9965920D01*
X15497580Y-9977949D01*
X15507031Y-9992093D01*
X15513541Y-10007810D01*
X15516860Y-10024494D01*
X15516860Y-10041506D01*
X15513541Y-10058190D01*
X15507031Y-10073907D01*
X15497580Y-10088051D01*
X15485551Y-10100080D01*
X15471407Y-10109531D01*
X15455690Y-10116041D01*
X15439006Y-10119360D01*
X15421994Y-10119360D01*
X15405310Y-10116041D01*
X15389593Y-10109531D01*
X15375449Y-10100080D01*
X15363420Y-10088051D01*
X15353969Y-10073907D01*
X15347459Y-10058190D01*
X15344140Y-10041506D01*
X15344140Y-10024494D01*
X15347459Y-10007810D01*
X15353969Y-9992093D01*
X15363420Y-9977949D01*
X15375449Y-9965920D01*
X15389593Y-9956469D01*
X15405310Y-9949959D01*
X15421994Y-9946640D01*
X15439006Y-9946640D01*
X15455690Y-9949959D01*
X15455690Y-9949959D01*
G37*
G36*
X13995190Y-9822959D02*
X14010907Y-9829469D01*
X14025051Y-9838920D01*
X14037080Y-9850949D01*
X14046531Y-9865093D01*
X14053041Y-9880810D01*
X14056360Y-9897494D01*
X14056360Y-9914506D01*
X14053041Y-9931190D01*
X14046531Y-9946907D01*
X14037080Y-9961051D01*
X14025051Y-9973080D01*
X14010907Y-9982531D01*
X13995190Y-9989041D01*
X13978506Y-9992360D01*
X13961494Y-9992360D01*
X13944810Y-9989041D01*
X13929093Y-9982531D01*
X13914949Y-9973080D01*
X13902920Y-9961051D01*
X13893469Y-9946907D01*
X13886959Y-9931190D01*
X13883640Y-9914506D01*
X13883640Y-9897494D01*
X13886959Y-9880810D01*
X13893469Y-9865093D01*
X13902920Y-9850949D01*
X13914949Y-9838920D01*
X13929093Y-9829469D01*
X13944810Y-9822959D01*
X13961494Y-9819640D01*
X13978506Y-9819640D01*
X13995190Y-9822959D01*
X13995190Y-9822959D01*
G37*
G36*
X13487190Y-9822959D02*
X13502907Y-9829469D01*
X13517051Y-9838920D01*
X13529080Y-9850949D01*
X13538531Y-9865093D01*
X13545041Y-9880810D01*
X13548360Y-9897494D01*
X13548360Y-9914506D01*
X13545041Y-9931190D01*
X13538531Y-9946907D01*
X13529080Y-9961051D01*
X13517051Y-9973080D01*
X13502907Y-9982531D01*
X13487190Y-9989041D01*
X13470506Y-9992360D01*
X13453494Y-9992360D01*
X13436810Y-9989041D01*
X13421093Y-9982531D01*
X13406949Y-9973080D01*
X13394920Y-9961051D01*
X13385469Y-9946907D01*
X13378959Y-9931190D01*
X13375640Y-9914506D01*
X13375640Y-9897494D01*
X13378959Y-9880810D01*
X13385469Y-9865093D01*
X13394920Y-9850949D01*
X13406949Y-9838920D01*
X13421093Y-9829469D01*
X13436810Y-9822959D01*
X13453494Y-9819640D01*
X13470506Y-9819640D01*
X13487190Y-9822959D01*
X13487190Y-9822959D01*
G37*
G36*
X15963690Y-9695959D02*
X15979407Y-9702469D01*
X15993551Y-9711920D01*
X16005580Y-9723949D01*
X16015031Y-9738093D01*
X16021541Y-9753810D01*
X16024860Y-9770494D01*
X16024860Y-9787506D01*
X16021541Y-9804190D01*
X16015031Y-9819907D01*
X16005580Y-9834051D01*
X15993551Y-9846080D01*
X15979407Y-9855531D01*
X15963690Y-9862041D01*
X15947006Y-9865360D01*
X15929994Y-9865360D01*
X15913310Y-9862041D01*
X15897593Y-9855531D01*
X15883449Y-9846080D01*
X15871420Y-9834051D01*
X15861969Y-9819907D01*
X15855459Y-9804190D01*
X15852140Y-9787506D01*
X15852140Y-9770494D01*
X15855459Y-9753810D01*
X15861969Y-9738093D01*
X15871420Y-9723949D01*
X15883449Y-9711920D01*
X15897593Y-9702469D01*
X15913310Y-9695959D01*
X15929994Y-9692640D01*
X15947006Y-9692640D01*
X15963690Y-9695959D01*
X15963690Y-9695959D01*
G37*
G36*
X15455690Y-9695959D02*
X15471407Y-9702469D01*
X15485551Y-9711920D01*
X15497580Y-9723949D01*
X15507031Y-9738093D01*
X15513541Y-9753810D01*
X15516860Y-9770494D01*
X15516860Y-9787506D01*
X15513541Y-9804190D01*
X15507031Y-9819907D01*
X15497580Y-9834051D01*
X15485551Y-9846080D01*
X15471407Y-9855531D01*
X15455690Y-9862041D01*
X15439006Y-9865360D01*
X15421994Y-9865360D01*
X15405310Y-9862041D01*
X15389593Y-9855531D01*
X15375449Y-9846080D01*
X15363420Y-9834051D01*
X15353969Y-9819907D01*
X15347459Y-9804190D01*
X15344140Y-9787506D01*
X15344140Y-9770494D01*
X15347459Y-9753810D01*
X15353969Y-9738093D01*
X15363420Y-9723949D01*
X15375449Y-9711920D01*
X15389593Y-9702469D01*
X15405310Y-9695959D01*
X15421994Y-9692640D01*
X15439006Y-9692640D01*
X15455690Y-9695959D01*
X15455690Y-9695959D01*
G37*
G36*
X13995190Y-9568959D02*
X14010907Y-9575469D01*
X14025051Y-9584920D01*
X14037080Y-9596949D01*
X14046531Y-9611093D01*
X14053041Y-9626810D01*
X14056360Y-9643494D01*
X14056360Y-9660506D01*
X14053041Y-9677190D01*
X14046531Y-9692907D01*
X14037080Y-9707051D01*
X14025051Y-9719080D01*
X14010907Y-9728531D01*
X13995190Y-9735041D01*
X13978506Y-9738360D01*
X13961494Y-9738360D01*
X13944810Y-9735041D01*
X13929093Y-9728531D01*
X13914949Y-9719080D01*
X13902920Y-9707051D01*
X13893469Y-9692907D01*
X13886959Y-9677190D01*
X13883640Y-9660506D01*
X13883640Y-9643494D01*
X13886959Y-9626810D01*
X13893469Y-9611093D01*
X13902920Y-9596949D01*
X13914949Y-9584920D01*
X13929093Y-9575469D01*
X13944810Y-9568959D01*
X13961494Y-9565640D01*
X13978506Y-9565640D01*
X13995190Y-9568959D01*
X13995190Y-9568959D01*
G37*
G36*
X13487190Y-9568959D02*
X13502907Y-9575469D01*
X13517051Y-9584920D01*
X13529080Y-9596949D01*
X13538531Y-9611093D01*
X13545041Y-9626810D01*
X13548360Y-9643494D01*
X13548360Y-9660506D01*
X13545041Y-9677190D01*
X13538531Y-9692907D01*
X13529080Y-9707051D01*
X13517051Y-9719080D01*
X13502907Y-9728531D01*
X13487190Y-9735041D01*
X13470506Y-9738360D01*
X13453494Y-9738360D01*
X13436810Y-9735041D01*
X13421093Y-9728531D01*
X13406949Y-9719080D01*
X13394920Y-9707051D01*
X13385469Y-9692907D01*
X13378959Y-9677190D01*
X13375640Y-9660506D01*
X13375640Y-9643494D01*
X13378959Y-9626810D01*
X13385469Y-9611093D01*
X13394920Y-9596949D01*
X13406949Y-9584920D01*
X13421093Y-9575469D01*
X13436810Y-9568959D01*
X13453494Y-9565640D01*
X13470506Y-9565640D01*
X13487190Y-9568959D01*
X13487190Y-9568959D01*
G37*
G36*
X15455690Y-9441959D02*
X15471407Y-9448469D01*
X15485551Y-9457920D01*
X15497580Y-9469949D01*
X15507031Y-9484093D01*
X15513541Y-9499810D01*
X15516860Y-9516494D01*
X15516860Y-9533506D01*
X15513541Y-9550190D01*
X15507031Y-9565907D01*
X15497580Y-9580051D01*
X15485551Y-9592080D01*
X15471407Y-9601531D01*
X15455690Y-9608041D01*
X15439006Y-9611360D01*
X15421994Y-9611360D01*
X15405310Y-9608041D01*
X15389593Y-9601531D01*
X15375449Y-9592080D01*
X15363420Y-9580051D01*
X15353969Y-9565907D01*
X15347459Y-9550190D01*
X15344140Y-9533506D01*
X15344140Y-9516494D01*
X15347459Y-9499810D01*
X15353969Y-9484093D01*
X15363420Y-9469949D01*
X15375449Y-9457920D01*
X15389593Y-9448469D01*
X15405310Y-9441959D01*
X15421994Y-9438640D01*
X15439006Y-9438640D01*
X15455690Y-9441959D01*
X15455690Y-9441959D01*
G37*
G36*
X15963690Y-9441959D02*
X15979407Y-9448469D01*
X15993551Y-9457920D01*
X16005580Y-9469949D01*
X16015031Y-9484093D01*
X16021541Y-9499810D01*
X16024860Y-9516494D01*
X16024860Y-9533506D01*
X16021541Y-9550190D01*
X16015031Y-9565907D01*
X16005580Y-9580051D01*
X15993551Y-9592080D01*
X15979407Y-9601531D01*
X15963690Y-9608041D01*
X15947006Y-9611360D01*
X15929994Y-9611360D01*
X15913310Y-9608041D01*
X15897593Y-9601531D01*
X15883449Y-9592080D01*
X15871420Y-9580051D01*
X15861969Y-9565907D01*
X15855459Y-9550190D01*
X15852140Y-9533506D01*
X15852140Y-9516494D01*
X15855459Y-9499810D01*
X15861969Y-9484093D01*
X15871420Y-9469949D01*
X15883449Y-9457920D01*
X15897593Y-9448469D01*
X15913310Y-9441959D01*
X15929994Y-9438640D01*
X15947006Y-9438640D01*
X15963690Y-9441959D01*
X15963690Y-9441959D01*
G37*
G36*
X13995190Y-9314959D02*
X14010907Y-9321469D01*
X14025051Y-9330920D01*
X14037080Y-9342949D01*
X14046531Y-9357093D01*
X14053041Y-9372810D01*
X14056360Y-9389494D01*
X14056360Y-9406506D01*
X14053041Y-9423190D01*
X14046531Y-9438907D01*
X14037080Y-9453051D01*
X14025051Y-9465080D01*
X14010907Y-9474531D01*
X13995190Y-9481041D01*
X13978506Y-9484360D01*
X13961494Y-9484360D01*
X13944810Y-9481041D01*
X13929093Y-9474531D01*
X13914949Y-9465080D01*
X13902920Y-9453051D01*
X13893469Y-9438907D01*
X13886959Y-9423190D01*
X13883640Y-9406506D01*
X13883640Y-9389494D01*
X13886959Y-9372810D01*
X13893469Y-9357093D01*
X13902920Y-9342949D01*
X13914949Y-9330920D01*
X13929093Y-9321469D01*
X13944810Y-9314959D01*
X13961494Y-9311640D01*
X13978506Y-9311640D01*
X13995190Y-9314959D01*
X13995190Y-9314959D01*
G37*
G36*
X13487190Y-9314959D02*
X13502907Y-9321469D01*
X13517051Y-9330920D01*
X13529080Y-9342949D01*
X13538531Y-9357093D01*
X13545041Y-9372810D01*
X13548360Y-9389494D01*
X13548360Y-9406506D01*
X13545041Y-9423190D01*
X13538531Y-9438907D01*
X13529080Y-9453051D01*
X13517051Y-9465080D01*
X13502907Y-9474531D01*
X13487190Y-9481041D01*
X13470506Y-9484360D01*
X13453494Y-9484360D01*
X13436810Y-9481041D01*
X13421093Y-9474531D01*
X13406949Y-9465080D01*
X13394920Y-9453051D01*
X13385469Y-9438907D01*
X13378959Y-9423190D01*
X13375640Y-9406506D01*
X13375640Y-9389494D01*
X13378959Y-9372810D01*
X13385469Y-9357093D01*
X13394920Y-9342949D01*
X13406949Y-9330920D01*
X13421093Y-9321469D01*
X13436810Y-9314959D01*
X13453494Y-9311640D01*
X13470506Y-9311640D01*
X13487190Y-9314959D01*
X13487190Y-9314959D01*
G37*
G36*
X15963690Y-9187959D02*
X15979407Y-9194469D01*
X15993551Y-9203920D01*
X16005580Y-9215949D01*
X16015031Y-9230093D01*
X16021541Y-9245810D01*
X16024860Y-9262494D01*
X16024860Y-9279506D01*
X16021541Y-9296190D01*
X16015031Y-9311907D01*
X16005580Y-9326051D01*
X15993551Y-9338080D01*
X15979407Y-9347531D01*
X15963690Y-9354041D01*
X15947006Y-9357360D01*
X15929994Y-9357360D01*
X15913310Y-9354041D01*
X15897593Y-9347531D01*
X15883449Y-9338080D01*
X15871420Y-9326051D01*
X15861969Y-9311907D01*
X15855459Y-9296190D01*
X15852140Y-9279506D01*
X15852140Y-9262494D01*
X15855459Y-9245810D01*
X15861969Y-9230093D01*
X15871420Y-9215949D01*
X15883449Y-9203920D01*
X15897593Y-9194469D01*
X15913310Y-9187959D01*
X15929994Y-9184640D01*
X15947006Y-9184640D01*
X15963690Y-9187959D01*
X15963690Y-9187959D01*
G37*
G36*
X15455690Y-9187959D02*
X15471407Y-9194469D01*
X15485551Y-9203920D01*
X15497580Y-9215949D01*
X15507031Y-9230093D01*
X15513541Y-9245810D01*
X15516860Y-9262494D01*
X15516860Y-9279506D01*
X15513541Y-9296190D01*
X15507031Y-9311907D01*
X15497580Y-9326051D01*
X15485551Y-9338080D01*
X15471407Y-9347531D01*
X15455690Y-9354041D01*
X15439006Y-9357360D01*
X15421994Y-9357360D01*
X15405310Y-9354041D01*
X15389593Y-9347531D01*
X15375449Y-9338080D01*
X15363420Y-9326051D01*
X15353969Y-9311907D01*
X15347459Y-9296190D01*
X15344140Y-9279506D01*
X15344140Y-9262494D01*
X15347459Y-9245810D01*
X15353969Y-9230093D01*
X15363420Y-9215949D01*
X15375449Y-9203920D01*
X15389593Y-9194469D01*
X15405310Y-9187959D01*
X15421994Y-9184640D01*
X15439006Y-9184640D01*
X15455690Y-9187959D01*
X15455690Y-9187959D01*
G37*
G36*
X13995190Y-9060959D02*
X14010907Y-9067469D01*
X14025051Y-9076920D01*
X14037080Y-9088949D01*
X14046531Y-9103093D01*
X14053041Y-9118810D01*
X14056360Y-9135494D01*
X14056360Y-9152506D01*
X14053041Y-9169190D01*
X14046531Y-9184907D01*
X14037080Y-9199051D01*
X14025051Y-9211080D01*
X14010907Y-9220531D01*
X13995190Y-9227041D01*
X13978506Y-9230360D01*
X13961494Y-9230360D01*
X13944810Y-9227041D01*
X13929093Y-9220531D01*
X13914949Y-9211080D01*
X13902920Y-9199051D01*
X13893469Y-9184907D01*
X13886959Y-9169190D01*
X13883640Y-9152506D01*
X13883640Y-9135494D01*
X13886959Y-9118810D01*
X13893469Y-9103093D01*
X13902920Y-9088949D01*
X13914949Y-9076920D01*
X13929093Y-9067469D01*
X13944810Y-9060959D01*
X13961494Y-9057640D01*
X13978506Y-9057640D01*
X13995190Y-9060959D01*
X13995190Y-9060959D01*
G37*
G36*
X13487190Y-9060959D02*
X13502907Y-9067469D01*
X13517051Y-9076920D01*
X13529080Y-9088949D01*
X13538531Y-9103093D01*
X13545041Y-9118810D01*
X13548360Y-9135494D01*
X13548360Y-9152506D01*
X13545041Y-9169190D01*
X13538531Y-9184907D01*
X13529080Y-9199051D01*
X13517051Y-9211080D01*
X13502907Y-9220531D01*
X13487190Y-9227041D01*
X13470506Y-9230360D01*
X13453494Y-9230360D01*
X13436810Y-9227041D01*
X13421093Y-9220531D01*
X13406949Y-9211080D01*
X13394920Y-9199051D01*
X13385469Y-9184907D01*
X13378959Y-9169190D01*
X13375640Y-9152506D01*
X13375640Y-9135494D01*
X13378959Y-9118810D01*
X13385469Y-9103093D01*
X13394920Y-9088949D01*
X13406949Y-9076920D01*
X13421093Y-9067469D01*
X13436810Y-9060959D01*
X13453494Y-9057640D01*
X13470506Y-9057640D01*
X13487190Y-9060959D01*
X13487190Y-9060959D01*
G37*
G36*
X15455690Y-8933959D02*
X15471407Y-8940469D01*
X15485551Y-8949920D01*
X15497580Y-8961949D01*
X15507031Y-8976093D01*
X15513541Y-8991810D01*
X15516860Y-9008494D01*
X15516860Y-9025506D01*
X15513541Y-9042190D01*
X15507031Y-9057907D01*
X15497580Y-9072051D01*
X15485551Y-9084080D01*
X15471407Y-9093531D01*
X15455690Y-9100041D01*
X15439006Y-9103360D01*
X15421994Y-9103360D01*
X15405310Y-9100041D01*
X15389593Y-9093531D01*
X15375449Y-9084080D01*
X15363420Y-9072051D01*
X15353969Y-9057907D01*
X15347459Y-9042190D01*
X15344140Y-9025506D01*
X15344140Y-9008494D01*
X15347459Y-8991810D01*
X15353969Y-8976093D01*
X15363420Y-8961949D01*
X15375449Y-8949920D01*
X15389593Y-8940469D01*
X15405310Y-8933959D01*
X15421994Y-8930640D01*
X15439006Y-8930640D01*
X15455690Y-8933959D01*
X15455690Y-8933959D01*
G37*
G36*
X15963690Y-8933959D02*
X15979407Y-8940469D01*
X15993551Y-8949920D01*
X16005580Y-8961949D01*
X16015031Y-8976093D01*
X16021541Y-8991810D01*
X16024860Y-9008494D01*
X16024860Y-9025506D01*
X16021541Y-9042190D01*
X16015031Y-9057907D01*
X16005580Y-9072051D01*
X15993551Y-9084080D01*
X15979407Y-9093531D01*
X15963690Y-9100041D01*
X15947006Y-9103360D01*
X15929994Y-9103360D01*
X15913310Y-9100041D01*
X15897593Y-9093531D01*
X15883449Y-9084080D01*
X15871420Y-9072051D01*
X15861969Y-9057907D01*
X15855459Y-9042190D01*
X15852140Y-9025506D01*
X15852140Y-9008494D01*
X15855459Y-8991810D01*
X15861969Y-8976093D01*
X15871420Y-8961949D01*
X15883449Y-8949920D01*
X15897593Y-8940469D01*
X15913310Y-8933959D01*
X15929994Y-8930640D01*
X15947006Y-8930640D01*
X15963690Y-8933959D01*
X15963690Y-8933959D01*
G37*
G36*
X13995190Y-8806959D02*
X14010907Y-8813469D01*
X14025051Y-8822920D01*
X14037080Y-8834949D01*
X14046531Y-8849093D01*
X14053041Y-8864810D01*
X14056360Y-8881494D01*
X14056360Y-8898506D01*
X14053041Y-8915190D01*
X14046531Y-8930907D01*
X14037080Y-8945051D01*
X14025051Y-8957080D01*
X14010907Y-8966531D01*
X13995190Y-8973041D01*
X13978506Y-8976360D01*
X13961494Y-8976360D01*
X13944810Y-8973041D01*
X13929093Y-8966531D01*
X13914949Y-8957080D01*
X13902920Y-8945051D01*
X13893469Y-8930907D01*
X13886959Y-8915190D01*
X13883640Y-8898506D01*
X13883640Y-8881494D01*
X13886959Y-8864810D01*
X13893469Y-8849093D01*
X13902920Y-8834949D01*
X13914949Y-8822920D01*
X13929093Y-8813469D01*
X13944810Y-8806959D01*
X13961494Y-8803640D01*
X13978506Y-8803640D01*
X13995190Y-8806959D01*
X13995190Y-8806959D01*
G37*
G36*
X13487190Y-8806959D02*
X13502907Y-8813469D01*
X13517051Y-8822920D01*
X13529080Y-8834949D01*
X13538531Y-8849093D01*
X13545041Y-8864810D01*
X13548360Y-8881494D01*
X13548360Y-8898506D01*
X13545041Y-8915190D01*
X13538531Y-8930907D01*
X13529080Y-8945051D01*
X13517051Y-8957080D01*
X13502907Y-8966531D01*
X13487190Y-8973041D01*
X13470506Y-8976360D01*
X13453494Y-8976360D01*
X13436810Y-8973041D01*
X13421093Y-8966531D01*
X13406949Y-8957080D01*
X13394920Y-8945051D01*
X13385469Y-8930907D01*
X13378959Y-8915190D01*
X13375640Y-8898506D01*
X13375640Y-8881494D01*
X13378959Y-8864810D01*
X13385469Y-8849093D01*
X13394920Y-8834949D01*
X13406949Y-8822920D01*
X13421093Y-8813469D01*
X13436810Y-8806959D01*
X13453494Y-8803640D01*
X13470506Y-8803640D01*
X13487190Y-8806959D01*
X13487190Y-8806959D01*
G37*
G36*
X15963690Y-8679959D02*
X15979407Y-8686469D01*
X15993551Y-8695920D01*
X16005580Y-8707949D01*
X16015031Y-8722093D01*
X16021541Y-8737810D01*
X16024860Y-8754494D01*
X16024860Y-8771506D01*
X16021541Y-8788190D01*
X16015031Y-8803907D01*
X16005580Y-8818051D01*
X15993551Y-8830080D01*
X15979407Y-8839531D01*
X15963690Y-8846041D01*
X15947006Y-8849360D01*
X15929994Y-8849360D01*
X15913310Y-8846041D01*
X15897593Y-8839531D01*
X15883449Y-8830080D01*
X15871420Y-8818051D01*
X15861969Y-8803907D01*
X15855459Y-8788190D01*
X15852140Y-8771506D01*
X15852140Y-8754494D01*
X15855459Y-8737810D01*
X15861969Y-8722093D01*
X15871420Y-8707949D01*
X15883449Y-8695920D01*
X15897593Y-8686469D01*
X15913310Y-8679959D01*
X15929994Y-8676640D01*
X15947006Y-8676640D01*
X15963690Y-8679959D01*
X15963690Y-8679959D01*
G37*
G36*
X15455690Y-8679959D02*
X15471407Y-8686469D01*
X15485551Y-8695920D01*
X15497580Y-8707949D01*
X15507031Y-8722093D01*
X15513541Y-8737810D01*
X15516860Y-8754494D01*
X15516860Y-8771506D01*
X15513541Y-8788190D01*
X15507031Y-8803907D01*
X15497580Y-8818051D01*
X15485551Y-8830080D01*
X15471407Y-8839531D01*
X15455690Y-8846041D01*
X15439006Y-8849360D01*
X15421994Y-8849360D01*
X15405310Y-8846041D01*
X15389593Y-8839531D01*
X15375449Y-8830080D01*
X15363420Y-8818051D01*
X15353969Y-8803907D01*
X15347459Y-8788190D01*
X15344140Y-8771506D01*
X15344140Y-8754494D01*
X15347459Y-8737810D01*
X15353969Y-8722093D01*
X15363420Y-8707949D01*
X15375449Y-8695920D01*
X15389593Y-8686469D01*
X15405310Y-8679959D01*
X15421994Y-8676640D01*
X15439006Y-8676640D01*
X15455690Y-8679959D01*
X15455690Y-8679959D01*
G37*
G36*
X13995190Y-8552959D02*
X14010907Y-8559469D01*
X14025051Y-8568920D01*
X14037080Y-8580949D01*
X14046531Y-8595093D01*
X14053041Y-8610810D01*
X14056360Y-8627494D01*
X14056360Y-8644506D01*
X14053041Y-8661190D01*
X14046531Y-8676907D01*
X14037080Y-8691051D01*
X14025051Y-8703080D01*
X14010907Y-8712531D01*
X13995190Y-8719041D01*
X13978506Y-8722360D01*
X13961494Y-8722360D01*
X13944810Y-8719041D01*
X13929093Y-8712531D01*
X13914949Y-8703080D01*
X13902920Y-8691051D01*
X13893469Y-8676907D01*
X13886959Y-8661190D01*
X13883640Y-8644506D01*
X13883640Y-8627494D01*
X13886959Y-8610810D01*
X13893469Y-8595093D01*
X13902920Y-8580949D01*
X13914949Y-8568920D01*
X13929093Y-8559469D01*
X13944810Y-8552959D01*
X13961494Y-8549640D01*
X13978506Y-8549640D01*
X13995190Y-8552959D01*
X13995190Y-8552959D01*
G37*
G36*
X13487190Y-8552959D02*
X13502907Y-8559469D01*
X13517051Y-8568920D01*
X13529080Y-8580949D01*
X13538531Y-8595093D01*
X13545041Y-8610810D01*
X13548360Y-8627494D01*
X13548360Y-8644506D01*
X13545041Y-8661190D01*
X13538531Y-8676907D01*
X13529080Y-8691051D01*
X13517051Y-8703080D01*
X13502907Y-8712531D01*
X13487190Y-8719041D01*
X13470506Y-8722360D01*
X13453494Y-8722360D01*
X13436810Y-8719041D01*
X13421093Y-8712531D01*
X13406949Y-8703080D01*
X13394920Y-8691051D01*
X13385469Y-8676907D01*
X13378959Y-8661190D01*
X13375640Y-8644506D01*
X13375640Y-8627494D01*
X13378959Y-8610810D01*
X13385469Y-8595093D01*
X13394920Y-8580949D01*
X13406949Y-8568920D01*
X13421093Y-8559469D01*
X13436810Y-8552959D01*
X13453494Y-8549640D01*
X13470506Y-8549640D01*
X13487190Y-8552959D01*
X13487190Y-8552959D01*
G37*
G36*
X15455690Y-8425959D02*
X15471407Y-8432469D01*
X15485551Y-8441920D01*
X15497580Y-8453949D01*
X15507031Y-8468093D01*
X15513541Y-8483810D01*
X15516860Y-8500494D01*
X15516860Y-8517506D01*
X15513541Y-8534190D01*
X15507031Y-8549907D01*
X15497580Y-8564051D01*
X15485551Y-8576080D01*
X15471407Y-8585531D01*
X15455690Y-8592041D01*
X15439006Y-8595360D01*
X15421994Y-8595360D01*
X15405310Y-8592041D01*
X15389593Y-8585531D01*
X15375449Y-8576080D01*
X15363420Y-8564051D01*
X15353969Y-8549907D01*
X15347459Y-8534190D01*
X15344140Y-8517506D01*
X15344140Y-8500494D01*
X15347459Y-8483810D01*
X15353969Y-8468093D01*
X15363420Y-8453949D01*
X15375449Y-8441920D01*
X15389593Y-8432469D01*
X15405310Y-8425959D01*
X15421994Y-8422640D01*
X15439006Y-8422640D01*
X15455690Y-8425959D01*
X15455690Y-8425959D01*
G37*
G36*
X15963690Y-8425959D02*
X15979407Y-8432469D01*
X15993551Y-8441920D01*
X16005580Y-8453949D01*
X16015031Y-8468093D01*
X16021541Y-8483810D01*
X16024860Y-8500494D01*
X16024860Y-8517506D01*
X16021541Y-8534190D01*
X16015031Y-8549907D01*
X16005580Y-8564051D01*
X15993551Y-8576080D01*
X15979407Y-8585531D01*
X15963690Y-8592041D01*
X15947006Y-8595360D01*
X15929994Y-8595360D01*
X15913310Y-8592041D01*
X15897593Y-8585531D01*
X15883449Y-8576080D01*
X15871420Y-8564051D01*
X15861969Y-8549907D01*
X15855459Y-8534190D01*
X15852140Y-8517506D01*
X15852140Y-8500494D01*
X15855459Y-8483810D01*
X15861969Y-8468093D01*
X15871420Y-8453949D01*
X15883449Y-8441920D01*
X15897593Y-8432469D01*
X15913310Y-8425959D01*
X15929994Y-8422640D01*
X15947006Y-8422640D01*
X15963690Y-8425959D01*
X15963690Y-8425959D01*
G37*
G36*
X13995190Y-8298959D02*
X14010907Y-8305469D01*
X14025051Y-8314920D01*
X14037080Y-8326949D01*
X14046531Y-8341093D01*
X14053041Y-8356810D01*
X14056360Y-8373494D01*
X14056360Y-8390506D01*
X14053041Y-8407190D01*
X14046531Y-8422907D01*
X14037080Y-8437051D01*
X14025051Y-8449080D01*
X14010907Y-8458531D01*
X13995190Y-8465041D01*
X13978506Y-8468360D01*
X13961494Y-8468360D01*
X13944810Y-8465041D01*
X13929093Y-8458531D01*
X13914949Y-8449080D01*
X13902920Y-8437051D01*
X13893469Y-8422907D01*
X13886959Y-8407190D01*
X13883640Y-8390506D01*
X13883640Y-8373494D01*
X13886959Y-8356810D01*
X13893469Y-8341093D01*
X13902920Y-8326949D01*
X13914949Y-8314920D01*
X13929093Y-8305469D01*
X13944810Y-8298959D01*
X13961494Y-8295640D01*
X13978506Y-8295640D01*
X13995190Y-8298959D01*
X13995190Y-8298959D01*
G37*
G36*
X13487190Y-8298959D02*
X13502907Y-8305469D01*
X13517051Y-8314920D01*
X13529080Y-8326949D01*
X13538531Y-8341093D01*
X13545041Y-8356810D01*
X13548360Y-8373494D01*
X13548360Y-8390506D01*
X13545041Y-8407190D01*
X13538531Y-8422907D01*
X13529080Y-8437051D01*
X13517051Y-8449080D01*
X13502907Y-8458531D01*
X13487190Y-8465041D01*
X13470506Y-8468360D01*
X13453494Y-8468360D01*
X13436810Y-8465041D01*
X13421093Y-8458531D01*
X13406949Y-8449080D01*
X13394920Y-8437051D01*
X13385469Y-8422907D01*
X13378959Y-8407190D01*
X13375640Y-8390506D01*
X13375640Y-8373494D01*
X13378959Y-8356810D01*
X13385469Y-8341093D01*
X13394920Y-8326949D01*
X13406949Y-8314920D01*
X13421093Y-8305469D01*
X13436810Y-8298959D01*
X13453494Y-8295640D01*
X13470506Y-8295640D01*
X13487190Y-8298959D01*
X13487190Y-8298959D01*
G37*
G36*
X15963690Y-8171959D02*
X15979407Y-8178469D01*
X15993551Y-8187920D01*
X16005580Y-8199949D01*
X16015031Y-8214093D01*
X16021541Y-8229810D01*
X16024860Y-8246494D01*
X16024860Y-8263506D01*
X16021541Y-8280190D01*
X16015031Y-8295907D01*
X16005580Y-8310051D01*
X15993551Y-8322080D01*
X15979407Y-8331531D01*
X15963690Y-8338041D01*
X15947006Y-8341360D01*
X15929994Y-8341360D01*
X15913310Y-8338041D01*
X15897593Y-8331531D01*
X15883449Y-8322080D01*
X15871420Y-8310051D01*
X15861969Y-8295907D01*
X15855459Y-8280190D01*
X15852140Y-8263506D01*
X15852140Y-8246494D01*
X15855459Y-8229810D01*
X15861969Y-8214093D01*
X15871420Y-8199949D01*
X15883449Y-8187920D01*
X15897593Y-8178469D01*
X15913310Y-8171959D01*
X15929994Y-8168640D01*
X15947006Y-8168640D01*
X15963690Y-8171959D01*
X15963690Y-8171959D01*
G37*
G36*
X15455690Y-8171959D02*
X15471407Y-8178469D01*
X15485551Y-8187920D01*
X15497580Y-8199949D01*
X15507031Y-8214093D01*
X15513541Y-8229810D01*
X15516860Y-8246494D01*
X15516860Y-8263506D01*
X15513541Y-8280190D01*
X15507031Y-8295907D01*
X15497580Y-8310051D01*
X15485551Y-8322080D01*
X15471407Y-8331531D01*
X15455690Y-8338041D01*
X15439006Y-8341360D01*
X15421994Y-8341360D01*
X15405310Y-8338041D01*
X15389593Y-8331531D01*
X15375449Y-8322080D01*
X15363420Y-8310051D01*
X15353969Y-8295907D01*
X15347459Y-8280190D01*
X15344140Y-8263506D01*
X15344140Y-8246494D01*
X15347459Y-8229810D01*
X15353969Y-8214093D01*
X15363420Y-8199949D01*
X15375449Y-8187920D01*
X15389593Y-8178469D01*
X15405310Y-8171959D01*
X15421994Y-8168640D01*
X15439006Y-8168640D01*
X15455690Y-8171959D01*
X15455690Y-8171959D01*
G37*
G36*
X13487190Y-8044959D02*
X13502907Y-8051469D01*
X13517051Y-8060920D01*
X13529080Y-8072949D01*
X13538531Y-8087093D01*
X13545041Y-8102810D01*
X13548360Y-8119494D01*
X13548360Y-8136506D01*
X13545041Y-8153190D01*
X13538531Y-8168907D01*
X13529080Y-8183051D01*
X13517051Y-8195080D01*
X13502907Y-8204531D01*
X13487190Y-8211041D01*
X13470506Y-8214360D01*
X13453494Y-8214360D01*
X13436810Y-8211041D01*
X13421093Y-8204531D01*
X13406949Y-8195080D01*
X13394920Y-8183051D01*
X13385469Y-8168907D01*
X13378959Y-8153190D01*
X13375640Y-8136506D01*
X13375640Y-8119494D01*
X13378959Y-8102810D01*
X13385469Y-8087093D01*
X13394920Y-8072949D01*
X13406949Y-8060920D01*
X13421093Y-8051469D01*
X13436810Y-8044959D01*
X13453494Y-8041640D01*
X13470506Y-8041640D01*
X13487190Y-8044959D01*
X13487190Y-8044959D01*
G37*
G36*
X13995190Y-8044959D02*
X14010907Y-8051469D01*
X14025051Y-8060920D01*
X14037080Y-8072949D01*
X14046531Y-8087093D01*
X14053041Y-8102810D01*
X14056360Y-8119494D01*
X14056360Y-8136506D01*
X14053041Y-8153190D01*
X14046531Y-8168907D01*
X14037080Y-8183051D01*
X14025051Y-8195080D01*
X14010907Y-8204531D01*
X13995190Y-8211041D01*
X13978506Y-8214360D01*
X13961494Y-8214360D01*
X13944810Y-8211041D01*
X13929093Y-8204531D01*
X13914949Y-8195080D01*
X13902920Y-8183051D01*
X13893469Y-8168907D01*
X13886959Y-8153190D01*
X13883640Y-8136506D01*
X13883640Y-8119494D01*
X13886959Y-8102810D01*
X13893469Y-8087093D01*
X13902920Y-8072949D01*
X13914949Y-8060920D01*
X13929093Y-8051469D01*
X13944810Y-8044959D01*
X13961494Y-8041640D01*
X13978506Y-8041640D01*
X13995190Y-8044959D01*
X13995190Y-8044959D01*
G37*
G36*
X15455690Y-7917959D02*
X15471407Y-7924469D01*
X15485551Y-7933920D01*
X15497580Y-7945949D01*
X15507031Y-7960093D01*
X15513541Y-7975810D01*
X15516860Y-7992494D01*
X15516860Y-8009506D01*
X15513541Y-8026190D01*
X15507031Y-8041907D01*
X15497580Y-8056051D01*
X15485551Y-8068080D01*
X15471407Y-8077531D01*
X15455690Y-8084041D01*
X15439006Y-8087360D01*
X15421994Y-8087360D01*
X15405310Y-8084041D01*
X15389593Y-8077531D01*
X15375449Y-8068080D01*
X15363420Y-8056051D01*
X15353969Y-8041907D01*
X15347459Y-8026190D01*
X15344140Y-8009506D01*
X15344140Y-7992494D01*
X15347459Y-7975810D01*
X15353969Y-7960093D01*
X15363420Y-7945949D01*
X15375449Y-7933920D01*
X15389593Y-7924469D01*
X15405310Y-7917959D01*
X15421994Y-7914640D01*
X15439006Y-7914640D01*
X15455690Y-7917959D01*
X15455690Y-7917959D01*
G37*
G36*
X15963690Y-7917959D02*
X15979407Y-7924469D01*
X15993551Y-7933920D01*
X16005580Y-7945949D01*
X16015031Y-7960093D01*
X16021541Y-7975810D01*
X16024860Y-7992494D01*
X16024860Y-8009506D01*
X16021541Y-8026190D01*
X16015031Y-8041907D01*
X16005580Y-8056051D01*
X15993551Y-8068080D01*
X15979407Y-8077531D01*
X15963690Y-8084041D01*
X15947006Y-8087360D01*
X15929994Y-8087360D01*
X15913310Y-8084041D01*
X15897593Y-8077531D01*
X15883449Y-8068080D01*
X15871420Y-8056051D01*
X15861969Y-8041907D01*
X15855459Y-8026190D01*
X15852140Y-8009506D01*
X15852140Y-7992494D01*
X15855459Y-7975810D01*
X15861969Y-7960093D01*
X15871420Y-7945949D01*
X15883449Y-7933920D01*
X15897593Y-7924469D01*
X15913310Y-7917959D01*
X15929994Y-7914640D01*
X15947006Y-7914640D01*
X15963690Y-7917959D01*
X15963690Y-7917959D01*
G37*
G36*
X13995190Y-7790959D02*
X14010907Y-7797469D01*
X14025051Y-7806920D01*
X14037080Y-7818949D01*
X14046531Y-7833093D01*
X14053041Y-7848810D01*
X14056360Y-7865494D01*
X14056360Y-7882506D01*
X14053041Y-7899190D01*
X14046531Y-7914907D01*
X14037080Y-7929051D01*
X14025051Y-7941080D01*
X14010907Y-7950531D01*
X13995190Y-7957041D01*
X13978506Y-7960360D01*
X13961494Y-7960360D01*
X13944810Y-7957041D01*
X13929093Y-7950531D01*
X13914949Y-7941080D01*
X13902920Y-7929051D01*
X13893469Y-7914907D01*
X13886959Y-7899190D01*
X13883640Y-7882506D01*
X13883640Y-7865494D01*
X13886959Y-7848810D01*
X13893469Y-7833093D01*
X13902920Y-7818949D01*
X13914949Y-7806920D01*
X13929093Y-7797469D01*
X13944810Y-7790959D01*
X13961494Y-7787640D01*
X13978506Y-7787640D01*
X13995190Y-7790959D01*
X13995190Y-7790959D01*
G37*
G36*
X13487190Y-7790959D02*
X13502907Y-7797469D01*
X13517051Y-7806920D01*
X13529080Y-7818949D01*
X13538531Y-7833093D01*
X13545041Y-7848810D01*
X13548360Y-7865494D01*
X13548360Y-7882506D01*
X13545041Y-7899190D01*
X13538531Y-7914907D01*
X13529080Y-7929051D01*
X13517051Y-7941080D01*
X13502907Y-7950531D01*
X13487190Y-7957041D01*
X13470506Y-7960360D01*
X13453494Y-7960360D01*
X13436810Y-7957041D01*
X13421093Y-7950531D01*
X13406949Y-7941080D01*
X13394920Y-7929051D01*
X13385469Y-7914907D01*
X13378959Y-7899190D01*
X13375640Y-7882506D01*
X13375640Y-7865494D01*
X13378959Y-7848810D01*
X13385469Y-7833093D01*
X13394920Y-7818949D01*
X13406949Y-7806920D01*
X13421093Y-7797469D01*
X13436810Y-7790959D01*
X13453494Y-7787640D01*
X13470506Y-7787640D01*
X13487190Y-7790959D01*
X13487190Y-7790959D01*
G37*
G36*
X15963690Y-7663959D02*
X15979407Y-7670469D01*
X15993551Y-7679920D01*
X16005580Y-7691949D01*
X16015031Y-7706093D01*
X16021541Y-7721810D01*
X16024860Y-7738494D01*
X16024860Y-7755506D01*
X16021541Y-7772190D01*
X16015031Y-7787907D01*
X16005580Y-7802051D01*
X15993551Y-7814080D01*
X15979407Y-7823531D01*
X15963690Y-7830041D01*
X15947006Y-7833360D01*
X15929994Y-7833360D01*
X15913310Y-7830041D01*
X15897593Y-7823531D01*
X15883449Y-7814080D01*
X15871420Y-7802051D01*
X15861969Y-7787907D01*
X15855459Y-7772190D01*
X15852140Y-7755506D01*
X15852140Y-7738494D01*
X15855459Y-7721810D01*
X15861969Y-7706093D01*
X15871420Y-7691949D01*
X15883449Y-7679920D01*
X15897593Y-7670469D01*
X15913310Y-7663959D01*
X15929994Y-7660640D01*
X15947006Y-7660640D01*
X15963690Y-7663959D01*
X15963690Y-7663959D01*
G37*
G36*
X15455690Y-7663959D02*
X15471407Y-7670469D01*
X15485551Y-7679920D01*
X15497580Y-7691949D01*
X15507031Y-7706093D01*
X15513541Y-7721810D01*
X15516860Y-7738494D01*
X15516860Y-7755506D01*
X15513541Y-7772190D01*
X15507031Y-7787907D01*
X15497580Y-7802051D01*
X15485551Y-7814080D01*
X15471407Y-7823531D01*
X15455690Y-7830041D01*
X15439006Y-7833360D01*
X15421994Y-7833360D01*
X15405310Y-7830041D01*
X15389593Y-7823531D01*
X15375449Y-7814080D01*
X15363420Y-7802051D01*
X15353969Y-7787907D01*
X15347459Y-7772190D01*
X15344140Y-7755506D01*
X15344140Y-7738494D01*
X15347459Y-7721810D01*
X15353969Y-7706093D01*
X15363420Y-7691949D01*
X15375449Y-7679920D01*
X15389593Y-7670469D01*
X15405310Y-7663959D01*
X15421994Y-7660640D01*
X15439006Y-7660640D01*
X15455690Y-7663959D01*
X15455690Y-7663959D01*
G37*
G36*
X13995190Y-7536959D02*
X14010907Y-7543469D01*
X14025051Y-7552920D01*
X14037080Y-7564949D01*
X14046531Y-7579093D01*
X14053041Y-7594810D01*
X14056360Y-7611494D01*
X14056360Y-7628506D01*
X14053041Y-7645190D01*
X14046531Y-7660907D01*
X14037080Y-7675051D01*
X14025051Y-7687080D01*
X14010907Y-7696531D01*
X13995190Y-7703041D01*
X13978506Y-7706360D01*
X13961494Y-7706360D01*
X13944810Y-7703041D01*
X13929093Y-7696531D01*
X13914949Y-7687080D01*
X13902920Y-7675051D01*
X13893469Y-7660907D01*
X13886959Y-7645190D01*
X13883640Y-7628506D01*
X13883640Y-7611494D01*
X13886959Y-7594810D01*
X13893469Y-7579093D01*
X13902920Y-7564949D01*
X13914949Y-7552920D01*
X13929093Y-7543469D01*
X13944810Y-7536959D01*
X13961494Y-7533640D01*
X13978506Y-7533640D01*
X13995190Y-7536959D01*
X13995190Y-7536959D01*
G37*
G36*
X13487190Y-7536959D02*
X13502907Y-7543469D01*
X13517051Y-7552920D01*
X13529080Y-7564949D01*
X13538531Y-7579093D01*
X13545041Y-7594810D01*
X13548360Y-7611494D01*
X13548360Y-7628506D01*
X13545041Y-7645190D01*
X13538531Y-7660907D01*
X13529080Y-7675051D01*
X13517051Y-7687080D01*
X13502907Y-7696531D01*
X13487190Y-7703041D01*
X13470506Y-7706360D01*
X13453494Y-7706360D01*
X13436810Y-7703041D01*
X13421093Y-7696531D01*
X13406949Y-7687080D01*
X13394920Y-7675051D01*
X13385469Y-7660907D01*
X13378959Y-7645190D01*
X13375640Y-7628506D01*
X13375640Y-7611494D01*
X13378959Y-7594810D01*
X13385469Y-7579093D01*
X13394920Y-7564949D01*
X13406949Y-7552920D01*
X13421093Y-7543469D01*
X13436810Y-7536959D01*
X13453494Y-7533640D01*
X13470506Y-7533640D01*
X13487190Y-7536959D01*
X13487190Y-7536959D01*
G37*
G36*
X15455690Y-7409959D02*
X15471407Y-7416469D01*
X15485551Y-7425920D01*
X15497580Y-7437949D01*
X15507031Y-7452093D01*
X15513541Y-7467810D01*
X15516860Y-7484494D01*
X15516860Y-7501506D01*
X15513541Y-7518190D01*
X15507031Y-7533907D01*
X15497580Y-7548051D01*
X15485551Y-7560080D01*
X15471407Y-7569531D01*
X15455690Y-7576041D01*
X15439006Y-7579360D01*
X15421994Y-7579360D01*
X15405310Y-7576041D01*
X15389593Y-7569531D01*
X15375449Y-7560080D01*
X15363420Y-7548051D01*
X15353969Y-7533907D01*
X15347459Y-7518190D01*
X15344140Y-7501506D01*
X15344140Y-7484494D01*
X15347459Y-7467810D01*
X15353969Y-7452093D01*
X15363420Y-7437949D01*
X15375449Y-7425920D01*
X15389593Y-7416469D01*
X15405310Y-7409959D01*
X15421994Y-7406640D01*
X15439006Y-7406640D01*
X15455690Y-7409959D01*
X15455690Y-7409959D01*
G37*
G36*
X15963690Y-7409959D02*
X15979407Y-7416469D01*
X15993551Y-7425920D01*
X16005580Y-7437949D01*
X16015031Y-7452093D01*
X16021541Y-7467810D01*
X16024860Y-7484494D01*
X16024860Y-7501506D01*
X16021541Y-7518190D01*
X16015031Y-7533907D01*
X16005580Y-7548051D01*
X15993551Y-7560080D01*
X15979407Y-7569531D01*
X15963690Y-7576041D01*
X15947006Y-7579360D01*
X15929994Y-7579360D01*
X15913310Y-7576041D01*
X15897593Y-7569531D01*
X15883449Y-7560080D01*
X15871420Y-7548051D01*
X15861969Y-7533907D01*
X15855459Y-7518190D01*
X15852140Y-7501506D01*
X15852140Y-7484494D01*
X15855459Y-7467810D01*
X15861969Y-7452093D01*
X15871420Y-7437949D01*
X15883449Y-7425920D01*
X15897593Y-7416469D01*
X15913310Y-7409959D01*
X15929994Y-7406640D01*
X15947006Y-7406640D01*
X15963690Y-7409959D01*
X15963690Y-7409959D01*
G37*
G36*
X13487190Y-7282959D02*
X13502907Y-7289469D01*
X13517051Y-7298920D01*
X13529080Y-7310949D01*
X13538531Y-7325093D01*
X13545041Y-7340810D01*
X13548360Y-7357494D01*
X13548360Y-7374506D01*
X13545041Y-7391190D01*
X13538531Y-7406907D01*
X13529080Y-7421051D01*
X13517051Y-7433080D01*
X13502907Y-7442531D01*
X13487190Y-7449041D01*
X13470506Y-7452360D01*
X13453494Y-7452360D01*
X13436810Y-7449041D01*
X13421093Y-7442531D01*
X13406949Y-7433080D01*
X13394920Y-7421051D01*
X13385469Y-7406907D01*
X13378959Y-7391190D01*
X13375640Y-7374506D01*
X13375640Y-7357494D01*
X13378959Y-7340810D01*
X13385469Y-7325093D01*
X13394920Y-7310949D01*
X13406949Y-7298920D01*
X13421093Y-7289469D01*
X13436810Y-7282959D01*
X13453494Y-7279640D01*
X13470506Y-7279640D01*
X13487190Y-7282959D01*
X13487190Y-7282959D01*
G37*
G36*
X13995190Y-7282959D02*
X14010907Y-7289469D01*
X14025051Y-7298920D01*
X14037080Y-7310949D01*
X14046531Y-7325093D01*
X14053041Y-7340810D01*
X14056360Y-7357494D01*
X14056360Y-7374506D01*
X14053041Y-7391190D01*
X14046531Y-7406907D01*
X14037080Y-7421051D01*
X14025051Y-7433080D01*
X14010907Y-7442531D01*
X13995190Y-7449041D01*
X13978506Y-7452360D01*
X13961494Y-7452360D01*
X13944810Y-7449041D01*
X13929093Y-7442531D01*
X13914949Y-7433080D01*
X13902920Y-7421051D01*
X13893469Y-7406907D01*
X13886959Y-7391190D01*
X13883640Y-7374506D01*
X13883640Y-7357494D01*
X13886959Y-7340810D01*
X13893469Y-7325093D01*
X13902920Y-7310949D01*
X13914949Y-7298920D01*
X13929093Y-7289469D01*
X13944810Y-7282959D01*
X13961494Y-7279640D01*
X13978506Y-7279640D01*
X13995190Y-7282959D01*
X13995190Y-7282959D01*
G37*
G36*
X15455690Y-7155959D02*
X15471407Y-7162469D01*
X15485551Y-7171920D01*
X15497580Y-7183949D01*
X15507031Y-7198093D01*
X15513541Y-7213810D01*
X15516860Y-7230494D01*
X15516860Y-7247506D01*
X15513541Y-7264190D01*
X15507031Y-7279907D01*
X15497580Y-7294051D01*
X15485551Y-7306080D01*
X15471407Y-7315531D01*
X15455690Y-7322041D01*
X15439006Y-7325360D01*
X15421994Y-7325360D01*
X15405310Y-7322041D01*
X15389593Y-7315531D01*
X15375449Y-7306080D01*
X15363420Y-7294051D01*
X15353969Y-7279907D01*
X15347459Y-7264190D01*
X15344140Y-7247506D01*
X15344140Y-7230494D01*
X15347459Y-7213810D01*
X15353969Y-7198093D01*
X15363420Y-7183949D01*
X15375449Y-7171920D01*
X15389593Y-7162469D01*
X15405310Y-7155959D01*
X15421994Y-7152640D01*
X15439006Y-7152640D01*
X15455690Y-7155959D01*
X15455690Y-7155959D01*
G37*
G36*
X15963690Y-7155959D02*
X15979407Y-7162469D01*
X15993551Y-7171920D01*
X16005580Y-7183949D01*
X16015031Y-7198093D01*
X16021541Y-7213810D01*
X16024860Y-7230494D01*
X16024860Y-7247506D01*
X16021541Y-7264190D01*
X16015031Y-7279907D01*
X16005580Y-7294051D01*
X15993551Y-7306080D01*
X15979407Y-7315531D01*
X15963690Y-7322041D01*
X15947006Y-7325360D01*
X15929994Y-7325360D01*
X15913310Y-7322041D01*
X15897593Y-7315531D01*
X15883449Y-7306080D01*
X15871420Y-7294051D01*
X15861969Y-7279907D01*
X15855459Y-7264190D01*
X15852140Y-7247506D01*
X15852140Y-7230494D01*
X15855459Y-7213810D01*
X15861969Y-7198093D01*
X15871420Y-7183949D01*
X15883449Y-7171920D01*
X15897593Y-7162469D01*
X15913310Y-7155959D01*
X15929994Y-7152640D01*
X15947006Y-7152640D01*
X15963690Y-7155959D01*
X15963690Y-7155959D01*
G37*
G36*
X13995190Y-7028959D02*
X14010907Y-7035469D01*
X14025051Y-7044920D01*
X14037080Y-7056949D01*
X14046531Y-7071093D01*
X14053041Y-7086810D01*
X14056360Y-7103494D01*
X14056360Y-7120506D01*
X14053041Y-7137190D01*
X14046531Y-7152907D01*
X14037080Y-7167051D01*
X14025051Y-7179080D01*
X14010907Y-7188531D01*
X13995190Y-7195041D01*
X13978506Y-7198360D01*
X13961494Y-7198360D01*
X13944810Y-7195041D01*
X13929093Y-7188531D01*
X13914949Y-7179080D01*
X13902920Y-7167051D01*
X13893469Y-7152907D01*
X13886959Y-7137190D01*
X13883640Y-7120506D01*
X13883640Y-7103494D01*
X13886959Y-7086810D01*
X13893469Y-7071093D01*
X13902920Y-7056949D01*
X13914949Y-7044920D01*
X13929093Y-7035469D01*
X13944810Y-7028959D01*
X13961494Y-7025640D01*
X13978506Y-7025640D01*
X13995190Y-7028959D01*
X13995190Y-7028959D01*
G37*
G36*
X13487190Y-7028959D02*
X13502907Y-7035469D01*
X13517051Y-7044920D01*
X13529080Y-7056949D01*
X13538531Y-7071093D01*
X13545041Y-7086810D01*
X13548360Y-7103494D01*
X13548360Y-7120506D01*
X13545041Y-7137190D01*
X13538531Y-7152907D01*
X13529080Y-7167051D01*
X13517051Y-7179080D01*
X13502907Y-7188531D01*
X13487190Y-7195041D01*
X13470506Y-7198360D01*
X13453494Y-7198360D01*
X13436810Y-7195041D01*
X13421093Y-7188531D01*
X13406949Y-7179080D01*
X13394920Y-7167051D01*
X13385469Y-7152907D01*
X13378959Y-7137190D01*
X13375640Y-7120506D01*
X13375640Y-7103494D01*
X13378959Y-7086810D01*
X13385469Y-7071093D01*
X13394920Y-7056949D01*
X13406949Y-7044920D01*
X13421093Y-7035469D01*
X13436810Y-7028959D01*
X13453494Y-7025640D01*
X13470506Y-7025640D01*
X13487190Y-7028959D01*
X13487190Y-7028959D01*
G37*
G36*
X13487190Y-6774959D02*
X13502907Y-6781469D01*
X13517051Y-6790920D01*
X13529080Y-6802949D01*
X13538531Y-6817093D01*
X13545041Y-6832810D01*
X13548360Y-6849494D01*
X13548360Y-6866506D01*
X13545041Y-6883190D01*
X13538531Y-6898907D01*
X13529080Y-6913051D01*
X13517051Y-6925080D01*
X13502907Y-6934531D01*
X13487190Y-6941041D01*
X13470506Y-6944360D01*
X13453494Y-6944360D01*
X13436810Y-6941041D01*
X13421093Y-6934531D01*
X13406949Y-6925080D01*
X13394920Y-6913051D01*
X13385469Y-6898907D01*
X13378959Y-6883190D01*
X13375640Y-6866506D01*
X13375640Y-6849494D01*
X13378959Y-6832810D01*
X13385469Y-6817093D01*
X13394920Y-6802949D01*
X13406949Y-6790920D01*
X13421093Y-6781469D01*
X13436810Y-6774959D01*
X13453494Y-6771640D01*
X13470506Y-6771640D01*
X13487190Y-6774959D01*
X13487190Y-6774959D01*
G37*
G36*
X13995190Y-6774959D02*
X14010907Y-6781469D01*
X14025051Y-6790920D01*
X14037080Y-6802949D01*
X14046531Y-6817093D01*
X14053041Y-6832810D01*
X14056360Y-6849494D01*
X14056360Y-6866506D01*
X14053041Y-6883190D01*
X14046531Y-6898907D01*
X14037080Y-6913051D01*
X14025051Y-6925080D01*
X14010907Y-6934531D01*
X13995190Y-6941041D01*
X13978506Y-6944360D01*
X13961494Y-6944360D01*
X13944810Y-6941041D01*
X13929093Y-6934531D01*
X13914949Y-6925080D01*
X13902920Y-6913051D01*
X13893469Y-6898907D01*
X13886959Y-6883190D01*
X13883640Y-6866506D01*
X13883640Y-6849494D01*
X13886959Y-6832810D01*
X13893469Y-6817093D01*
X13902920Y-6802949D01*
X13914949Y-6790920D01*
X13929093Y-6781469D01*
X13944810Y-6774959D01*
X13961494Y-6771640D01*
X13978506Y-6771640D01*
X13995190Y-6774959D01*
X13995190Y-6774959D01*
G37*
G36*
X13487190Y-6520959D02*
X13502907Y-6527469D01*
X13517051Y-6536920D01*
X13529080Y-6548949D01*
X13538531Y-6563093D01*
X13545041Y-6578810D01*
X13548360Y-6595494D01*
X13548360Y-6612506D01*
X13545041Y-6629190D01*
X13538531Y-6644907D01*
X13529080Y-6659051D01*
X13517051Y-6671080D01*
X13502907Y-6680531D01*
X13487190Y-6687041D01*
X13470506Y-6690360D01*
X13453494Y-6690360D01*
X13436810Y-6687041D01*
X13421093Y-6680531D01*
X13406949Y-6671080D01*
X13394920Y-6659051D01*
X13385469Y-6644907D01*
X13378959Y-6629190D01*
X13375640Y-6612506D01*
X13375640Y-6595494D01*
X13378959Y-6578810D01*
X13385469Y-6563093D01*
X13394920Y-6548949D01*
X13406949Y-6536920D01*
X13421093Y-6527469D01*
X13436810Y-6520959D01*
X13453494Y-6517640D01*
X13470506Y-6517640D01*
X13487190Y-6520959D01*
X13487190Y-6520959D01*
G37*
G36*
X13995190Y-6520959D02*
X14010907Y-6527469D01*
X14025051Y-6536920D01*
X14037080Y-6548949D01*
X14046531Y-6563093D01*
X14053041Y-6578810D01*
X14056360Y-6595494D01*
X14056360Y-6612506D01*
X14053041Y-6629190D01*
X14046531Y-6644907D01*
X14037080Y-6659051D01*
X14025051Y-6671080D01*
X14010907Y-6680531D01*
X13995190Y-6687041D01*
X13978506Y-6690360D01*
X13961494Y-6690360D01*
X13944810Y-6687041D01*
X13929093Y-6680531D01*
X13914949Y-6671080D01*
X13902920Y-6659051D01*
X13893469Y-6644907D01*
X13886959Y-6629190D01*
X13883640Y-6612506D01*
X13883640Y-6595494D01*
X13886959Y-6578810D01*
X13893469Y-6563093D01*
X13902920Y-6548949D01*
X13914949Y-6536920D01*
X13929093Y-6527469D01*
X13944810Y-6520959D01*
X13961494Y-6517640D01*
X13978506Y-6517640D01*
X13995190Y-6520959D01*
X13995190Y-6520959D01*
G37*
G36*
X13487190Y-6266959D02*
X13502907Y-6273469D01*
X13517051Y-6282920D01*
X13529080Y-6294949D01*
X13538531Y-6309093D01*
X13545041Y-6324810D01*
X13548360Y-6341494D01*
X13548360Y-6358506D01*
X13545041Y-6375190D01*
X13538531Y-6390907D01*
X13529080Y-6405051D01*
X13517051Y-6417080D01*
X13502907Y-6426531D01*
X13487190Y-6433041D01*
X13470506Y-6436360D01*
X13453494Y-6436360D01*
X13436810Y-6433041D01*
X13421093Y-6426531D01*
X13406949Y-6417080D01*
X13394920Y-6405051D01*
X13385469Y-6390907D01*
X13378959Y-6375190D01*
X13375640Y-6358506D01*
X13375640Y-6341494D01*
X13378959Y-6324810D01*
X13385469Y-6309093D01*
X13394920Y-6294949D01*
X13406949Y-6282920D01*
X13421093Y-6273469D01*
X13436810Y-6266959D01*
X13453494Y-6263640D01*
X13470506Y-6263640D01*
X13487190Y-6266959D01*
X13487190Y-6266959D01*
G37*
G36*
X13995190Y-6266959D02*
X14010907Y-6273469D01*
X14025051Y-6282920D01*
X14037080Y-6294949D01*
X14046531Y-6309093D01*
X14053041Y-6324810D01*
X14056360Y-6341494D01*
X14056360Y-6358506D01*
X14053041Y-6375190D01*
X14046531Y-6390907D01*
X14037080Y-6405051D01*
X14025051Y-6417080D01*
X14010907Y-6426531D01*
X13995190Y-6433041D01*
X13978506Y-6436360D01*
X13961494Y-6436360D01*
X13944810Y-6433041D01*
X13929093Y-6426531D01*
X13914949Y-6417080D01*
X13902920Y-6405051D01*
X13893469Y-6390907D01*
X13886959Y-6375190D01*
X13883640Y-6358506D01*
X13883640Y-6341494D01*
X13886959Y-6324810D01*
X13893469Y-6309093D01*
X13902920Y-6294949D01*
X13914949Y-6282920D01*
X13929093Y-6273469D01*
X13944810Y-6266959D01*
X13961494Y-6263640D01*
X13978506Y-6263640D01*
X13995190Y-6266959D01*
X13995190Y-6266959D01*
G37*
G36*
X17252958Y-4381411D02*
X17265554Y-4383917D01*
X17280299Y-4390024D01*
X17301151Y-4398662D01*
X17333188Y-4420068D01*
X17360432Y-4447312D01*
X17381839Y-4479349D01*
X17396583Y-4514946D01*
X17404100Y-4552735D01*
X17404100Y-4591265D01*
X17399519Y-4614294D01*
X17396583Y-4629054D01*
X17390476Y-4643799D01*
X17381839Y-4664651D01*
X17360432Y-4696688D01*
X17333188Y-4723932D01*
X17301151Y-4745339D01*
X17280299Y-4753976D01*
X17265554Y-4760083D01*
X17252958Y-4762589D01*
X17227765Y-4767600D01*
X17189235Y-4767600D01*
X17164042Y-4762589D01*
X17151446Y-4760083D01*
X17136701Y-4753976D01*
X17115849Y-4745339D01*
X17083812Y-4723932D01*
X17056568Y-4696688D01*
X17035162Y-4664651D01*
X17026524Y-4643799D01*
X17020417Y-4629054D01*
X17017481Y-4614294D01*
X17012900Y-4591265D01*
X17012900Y-4552735D01*
X17020417Y-4514946D01*
X17035162Y-4479349D01*
X17056568Y-4447312D01*
X17083812Y-4420068D01*
X17115849Y-4398662D01*
X17136701Y-4390024D01*
X17151446Y-4383917D01*
X17164042Y-4381411D01*
X17189235Y-4376400D01*
X17227765Y-4376400D01*
X17252958Y-4381411D01*
X17252958Y-4381411D01*
G37*
G36*
X12236458Y-4381411D02*
X12249054Y-4383917D01*
X12263799Y-4390024D01*
X12284651Y-4398662D01*
X12316688Y-4420068D01*
X12343932Y-4447312D01*
X12365338Y-4479349D01*
X12380083Y-4514946D01*
X12387600Y-4552735D01*
X12387600Y-4591265D01*
X12383019Y-4614294D01*
X12380083Y-4629054D01*
X12373976Y-4643799D01*
X12365338Y-4664651D01*
X12343932Y-4696688D01*
X12316688Y-4723932D01*
X12284651Y-4745339D01*
X12263799Y-4753976D01*
X12249054Y-4760083D01*
X12236458Y-4762589D01*
X12211265Y-4767600D01*
X12172735Y-4767600D01*
X12147542Y-4762589D01*
X12134946Y-4760083D01*
X12120201Y-4753976D01*
X12099349Y-4745339D01*
X12067312Y-4723932D01*
X12040068Y-4696688D01*
X12018661Y-4664651D01*
X12010024Y-4643799D01*
X12003917Y-4629054D01*
X12000981Y-4614294D01*
X11996400Y-4591265D01*
X11996400Y-4552735D01*
X12003917Y-4514946D01*
X12018661Y-4479349D01*
X12040068Y-4447312D01*
X12067312Y-4420068D01*
X12099349Y-4398662D01*
X12120201Y-4390024D01*
X12134946Y-4383917D01*
X12147542Y-4381411D01*
X12172735Y-4376400D01*
X12211265Y-4376400D01*
X12236458Y-4381411D01*
X12236458Y-4381411D01*
G37*
G36*
X14932660Y-4747260D02*
X14785340Y-4747260D01*
X14785340Y-4625340D01*
X14932660Y-4625340D01*
X14932660Y-4747260D01*
X14932660Y-4747260D01*
G37*
G36*
X14627860Y-4747260D02*
X14480540Y-4747260D01*
X14480540Y-4625340D01*
X14627860Y-4625340D01*
X14627860Y-4747260D01*
X14627860Y-4747260D01*
G37*
G36*
X15557290Y-4539759D02*
X15573007Y-4546269D01*
X15587151Y-4555720D01*
X15599180Y-4567749D01*
X15608631Y-4581893D01*
X15615141Y-4597610D01*
X15618460Y-4614294D01*
X15618460Y-4631306D01*
X15615141Y-4647990D01*
X15608631Y-4663707D01*
X15599180Y-4677851D01*
X15587151Y-4689880D01*
X15573007Y-4699331D01*
X15557290Y-4705841D01*
X15540606Y-4709160D01*
X15523594Y-4709160D01*
X15506910Y-4705841D01*
X15491193Y-4699331D01*
X15477049Y-4689880D01*
X15465020Y-4677851D01*
X15455569Y-4663707D01*
X15449059Y-4647990D01*
X15445740Y-4631306D01*
X15445740Y-4614294D01*
X15449059Y-4597610D01*
X15455569Y-4581893D01*
X15465020Y-4567749D01*
X15477049Y-4555720D01*
X15491193Y-4546269D01*
X15506910Y-4539759D01*
X15523594Y-4536440D01*
X15540606Y-4536440D01*
X15557290Y-4539759D01*
X15557290Y-4539759D01*
G37*
G36*
X15811290Y-4539759D02*
X15827007Y-4546269D01*
X15841151Y-4555720D01*
X15853180Y-4567749D01*
X15862631Y-4581893D01*
X15869141Y-4597610D01*
X15872460Y-4614294D01*
X15872460Y-4631306D01*
X15869141Y-4647990D01*
X15862631Y-4663707D01*
X15853180Y-4677851D01*
X15841151Y-4689880D01*
X15827007Y-4699331D01*
X15811290Y-4705841D01*
X15794606Y-4709160D01*
X15777594Y-4709160D01*
X15760910Y-4705841D01*
X15745193Y-4699331D01*
X15731049Y-4689880D01*
X15719020Y-4677851D01*
X15709569Y-4663707D01*
X15703059Y-4647990D01*
X15699740Y-4631306D01*
X15699740Y-4614294D01*
X15703059Y-4597610D01*
X15709569Y-4581893D01*
X15719020Y-4567749D01*
X15731049Y-4555720D01*
X15745193Y-4546269D01*
X15760910Y-4539759D01*
X15777594Y-4536440D01*
X15794606Y-4536440D01*
X15811290Y-4539759D01*
X15811290Y-4539759D01*
G37*
G36*
X13516000Y-4680780D02*
X13286000Y-4680780D01*
X13286000Y-4500780D01*
X13516000Y-4500780D01*
X13516000Y-4680780D01*
X13516000Y-4680780D01*
G37*
G36*
X14146000Y-4680780D02*
X13916000Y-4680780D01*
X13916000Y-4500780D01*
X14146000Y-4500780D01*
X14146000Y-4680780D01*
X14146000Y-4680780D01*
G37*
G36*
X13876000Y-4680780D02*
X13556000Y-4680780D01*
X13556000Y-4525780D01*
X13876000Y-4525780D01*
X13876000Y-4680780D01*
X13876000Y-4680780D01*
G37*
G36*
X14627860Y-4531360D02*
X14480540Y-4531360D01*
X14480540Y-4409440D01*
X14627860Y-4409440D01*
X14627860Y-4531360D01*
X14627860Y-4531360D01*
G37*
G36*
X14932660Y-4531360D02*
X14785340Y-4531360D01*
X14785340Y-4409440D01*
X14932660Y-4409440D01*
X14932660Y-4531360D01*
X14932660Y-4531360D01*
G37*
G36*
X13436000Y-4440780D02*
X13226000Y-4440780D01*
X13226000Y-4230780D01*
X13436000Y-4230780D01*
X13436000Y-4440780D01*
X13436000Y-4440780D01*
G37*
G36*
X13701000Y-4440780D02*
X13491000Y-4440780D01*
X13491000Y-4230780D01*
X13701000Y-4230780D01*
X13701000Y-4440780D01*
X13701000Y-4440780D01*
G37*
G36*
X14206000Y-4440780D02*
X13996000Y-4440780D01*
X13996000Y-4230780D01*
X14206000Y-4230780D01*
X14206000Y-4440780D01*
X14206000Y-4440780D01*
G37*
G36*
X13941000Y-4440780D02*
X13731000Y-4440780D01*
X13731000Y-4230780D01*
X13941000Y-4230780D01*
X13941000Y-4440780D01*
X13941000Y-4440780D01*
G37*
M02*
