G04 #@! TF.GenerationSoftware,KiCad,Pcbnew,(6.0.5)*
G04 #@! TF.CreationDate,2022-11-07T18:45:20-05:00*
G04 #@! TF.ProjectId,power-pcb,706f7765-722d-4706-9362-2e6b69636164,0.1*
G04 #@! TF.SameCoordinates,Original*
G04 #@! TF.FileFunction,Soldermask,Bot*
G04 #@! TF.FilePolarity,Negative*
%FSLAX45Y45*%
G04 Gerber Fmt 4.5, Leading zero omitted, Abs format (unit mm)*
G04 Created by KiCad (PCBNEW (6.0.5)) date 2022-11-07 18:45:20*
%MOMM*%
%LPD*%
G01*
G04 APERTURE LIST*
%ADD10C,1.727200*%
%ADD11C,3.203200*%
%ADD12C,3.912000*%
G04 APERTURE END LIST*
D10*
X15750000Y-4221500D03*
X16000000Y-4221500D03*
X15750000Y-4421500D03*
X16000000Y-4421500D03*
D11*
X16477000Y-3950500D03*
X15273000Y-3950500D03*
D10*
X15430500Y-7239000D03*
X15938500Y-7239000D03*
X15430500Y-7493000D03*
X15938500Y-7493000D03*
X15430500Y-7747000D03*
X15938500Y-7747000D03*
X15430500Y-8001000D03*
X15938500Y-8001000D03*
X15430500Y-8255000D03*
X15938500Y-8255000D03*
X15430500Y-8509000D03*
X15938500Y-8509000D03*
X15430500Y-8763000D03*
X15938500Y-8763000D03*
X15430500Y-9017000D03*
X15938500Y-9017000D03*
X15430500Y-9271000D03*
X15938500Y-9271000D03*
X15430500Y-9525000D03*
X15938500Y-9525000D03*
X15430500Y-9779000D03*
X15938500Y-9779000D03*
X15430500Y-10033000D03*
X15938500Y-10033000D03*
X15430500Y-10287000D03*
X15938500Y-10287000D03*
X15430500Y-10541000D03*
X15938500Y-10541000D03*
X15430500Y-10795000D03*
X15938500Y-10795000D03*
X15430500Y-11049000D03*
X15938500Y-11049000D03*
X15430500Y-11303000D03*
X15938500Y-11303000D03*
X15430500Y-11557000D03*
X15938500Y-11557000D03*
X15430500Y-11811000D03*
X15938500Y-11811000D03*
X15430500Y-12065000D03*
X15938500Y-12065000D03*
X15430500Y-12319000D03*
X15938500Y-12319000D03*
X15430500Y-12573000D03*
X15938500Y-12573000D03*
X15430500Y-12827000D03*
X15938500Y-12827000D03*
X15430500Y-13081000D03*
X15938500Y-13081000D03*
X15430500Y-13335000D03*
X15938500Y-13335000D03*
D12*
X12192000Y-16002000D03*
X17208500Y-16002000D03*
X12192000Y-3937000D03*
D10*
X14478000Y-4064000D03*
X14732000Y-4064000D03*
D12*
X17208500Y-3937000D03*
D10*
X13462000Y-14224000D03*
X13462000Y-13970000D03*
X13462000Y-13716000D03*
X13462000Y-13462000D03*
X13462000Y-13208000D03*
X13462000Y-12954000D03*
X13462000Y-12700000D03*
X13462000Y-12446000D03*
X13462000Y-12192000D03*
X13462000Y-11938000D03*
X13462000Y-11684000D03*
X13462000Y-11430000D03*
X13462000Y-11176000D03*
X13462000Y-10922000D03*
X13462000Y-10668000D03*
X13462000Y-10414000D03*
X13462000Y-10160000D03*
X13462000Y-9906000D03*
X13462000Y-9652000D03*
X13462000Y-9398000D03*
X13462000Y-9144000D03*
X13462000Y-8890000D03*
X13462000Y-8636000D03*
X13462000Y-8382000D03*
X13462000Y-8128000D03*
X13462000Y-7874000D03*
X13462000Y-7620000D03*
X13462000Y-7366000D03*
X13462000Y-7112000D03*
X13462000Y-6858000D03*
X13462000Y-6604000D03*
X13462000Y-6350000D03*
X13970000Y-14224000D03*
X13970000Y-13970000D03*
X13970000Y-13716000D03*
X13970000Y-13462000D03*
X13970000Y-13208000D03*
X13970000Y-12954000D03*
X13970000Y-12700000D03*
X13970000Y-12446000D03*
X13970000Y-12192000D03*
X13970000Y-11938000D03*
X13970000Y-11684000D03*
X13970000Y-11430000D03*
X13970000Y-11176000D03*
X13970000Y-10922000D03*
X13970000Y-10668000D03*
X13970000Y-10414000D03*
X13970000Y-10160000D03*
X13970000Y-9906000D03*
X13970000Y-9652000D03*
X13970000Y-9398000D03*
X13970000Y-9144000D03*
X13970000Y-8890000D03*
X13970000Y-8636000D03*
X13970000Y-8382000D03*
X13970000Y-8128000D03*
X13970000Y-7874000D03*
X13970000Y-7620000D03*
X13970000Y-7366000D03*
X13970000Y-7112000D03*
X13970000Y-6858000D03*
X13970000Y-6604000D03*
X13970000Y-6350000D03*
M02*
